<svg xmlns="http://www.w3.org/2000/svg" xml:space="preserve" width="3000" height="2000" id="online-healthcare">
  <ellipse cx="1530.32" cy="1862.072" fill="#CCE1FF" rx="1096.016" ry="54.755"></ellipse>
  <path fill="#E0EDFF" d="M2699.719 1241.087c-50.654-187.335-236.06-187.277-335.643-447.524-102.859-268.814-14.916-406.747-131.624-546.243-179.999-215.149-664.178-215.745-802.911-19.743-131.047 185.138 74.482 505.633-26.325 565.986-61.544 36.845-145.433-78.249-299.445-121.754-270.871-76.51-714.099 80.879-799.62 411.328-84.854 327.852 165.371 713.257 565.985 756.841l1609.111-3.291c237.136-287.606 252.929-475.563 220.472-595.6z"></path>
  <path fill="#CCE1FF" d="M2742.672 1466.014c-32.181-123.841-190.403-124.995-230.342-263.248-41.997-145.374 112.151-216.038 115.171-414.62 3.486-229.331-198.098-398.488-236.925-431.068-137.795-115.63-397.235-238.956-589.02-144.788-203.517 99.925-183.007 372.173-352.096 398.164-85.412 13.129-110.031-53.351-273.123-118.462-37.956-15.153-399.843-155.64-549.534-19.744C501.599 585.915 654.708 775.06 518.215 1015.2c-99.711 175.427-237.617 173.362-263.249 292.865-21.773 101.508 75.921 280.741 453.277 536.369h1820.538c206.12-186.168 233.348-303.542 213.891-378.42z"></path>
  <path fill="#819DD1" d="M2186.575 1394.491c2.077-11.442 15.605-17.912 27.006-15.745 11.4 2.165 20.61 10.634 27.82 19.778 11.663 14.791 19.123 30.731 26.182 47.73.552-17.458 1.736-34.896 3.466-52.236a793.474 793.474 0 0 1 4.183-34.343c-25.698-4.837-49.891-17.514-68.444-35.955-7.032-6.986-13.674-16.204-11.879-25.958 2.094-11.39 15.623-17.857 27.009-15.727 11.385 2.131 20.57 10.541 27.755 19.627 12.061 15.256 19.595 31.759 26.853 49.39 5.466-35.139 13.408-69.915 24.309-103.735-24.168-8.94-45.636-25.104-60.805-45.944-5.832-8.015-10.929-18.171-7.613-27.512 3.876-10.915 18.259-15.156 29.162-11.246 10.904 3.91 18.64 13.667 24.291 23.779 9.159 16.383 13.972 33.242 18.224 51.082 12.055-35.471 27.805-71.159 52.122-99.803.504-.595 1.037-1.17 1.55-1.761-22.982-12.283-42.208-31.527-54.381-54.574-4.63-8.769-8.225-19.544-3.607-28.319 5.394-10.249 20.236-12.394 30.469-6.966 10.231 5.428 16.495 16.188 20.646 27.002 7.315 19.054 9.461 37.932 11.167 57.968 28.99-32.322 64.067-59.435 91.9-92.699-23.504-12.25-43.189-31.745-55.569-55.188-4.631-8.768-8.225-19.545-3.608-28.319 5.394-10.25 20.235-12.394 30.468-6.968s16.497 16.19 20.647 27.004c7.511 19.565 9.572 38.943 11.303 59.586 6.809-8.438 13.137-17.282 18.758-26.726 11.381-19.125 18.559-40.505 22.078-62.666-26.547-5.535-51.288-19.481-69.705-39.391-6.73-7.28-12.979-16.767-10.779-26.434 2.572-11.294 16.363-17.188 27.646-14.581 11.283 2.608 20.11 11.396 26.906 20.773 12.464 17.201 19.469 35.657 26.551 55.455 4.939-35.88.421-73.556-11.43-106.908-23.296-7.919-44.329-22.454-59.857-41.549-6.257-7.692-11.891-17.561-9.078-27.066 3.285-11.106 17.422-16.112 28.52-12.792 11.097 3.323 19.343 12.653 25.528 22.446 9.867 15.623 15.551 31.932 20.689 49.212a4.654 4.654 0 0 1 1.21 1.807c10.72 28.158 15.59 58.408 15.184 88.5a272.341 272.341 0 0 1-1.003 19.952c10.936-21.292 27.727-39.573 48.12-52.116 8.446-5.194 18.966-9.486 28.023-5.454 10.582 4.712 13.69 19.382 8.946 29.947-4.747 10.567-15.077 17.521-25.597 22.37-19.62 9.046-39.422 12.301-60.621 15.462-1.837 13.889-4.961 27.596-9.991 40.65-7.616 19.775-18.713 37.256-31.675 53.418 19.807-14.737 43.81-23.824 68.432-25.733 9.884-.767 21.203.214 27.421 7.939 7.263 9.018 3.334 23.493-5.711 30.727-9.043 7.236-21.409 8.707-32.981 8.221-22.178-.932-41.736-7.391-62.668-14.476-22.147 26.032-48.774 48.828-72.776 72.647-7.555 7.5-14.844 15.156-21.68 23.165 20.672-17.072 46.651-27.646 73.381-29.752 9.885-.779 21.204.188 27.433 7.902 7.275 9.012 3.366 23.49-5.671 30.737-9.033 7.244-21.397 8.732-32.971 8.263-22.684-.922-42.634-7.631-64.117-14.877-7.195 8.618-13.834 17.679-19.642 27.47-10.618 17.91-19.186 37.003-26.519 56.47a521.619 521.619 0 0 0-5.587 15.625c17.187-17.195 39.193-29.563 62.861-35.156 9.649-2.281 20.985-3.053 28.317 3.618 8.566 7.796 6.916 22.702-.908 31.245-7.823 8.539-19.814 11.9-31.322 13.201-21.27 2.406-40.92-.639-61.816-4.247-10.646 33.043-18.196 67.154-23.477 101.467 12.978-21.801 32.352-39.774 55.144-50.944 8.901-4.364 19.783-7.632 28.414-2.752 10.08 5.704 11.775 20.603 6.041 30.668-5.734 10.062-16.681 15.999-27.615 19.822-20.751 7.251-41.117 8.52-62.943 9.653a839.835 839.835 0 0 0-1.891 13.667c-3.226 25.012-5.333 50.268-6.027 75.553 12.963-21.04 31.927-38.37 54.128-49.25 8.902-4.36 19.785-7.63 28.415-2.75 10.083 5.704 11.775 20.604 6.04 30.67-5.731 10.063-16.68 15.998-27.616 19.817-20.18 7.057-39.992 8.446-61.143 9.563-.447 28.834.98 57.684 4.759 86.236.786 5.946-8.492 6.755-9.278.823-3.813-28.834-5.196-57.973-4.723-87.083-25.815-4.889-50.14-17.689-68.801-36.307-7.056-7.032-13.723-16.304-11.952-26.099z"></path>
  <path fill="#819DD1" d="M2417.538 1818.983c-5.42 15.427-36.153 16.705-49.118 17.213-14.709.553-37.347-.87-72.306-15.592-18.009-7.594-42.018-17.706-66.475-37.792-1.048-.893-2.122-1.752-3.173-2.704a184.095 184.095 0 0 1-10.422-9.53c-9.786-9.659-72.394-71.338-58.399-138.722.655-3.215 9.257-42.81 30.173-46.508 26.014-4.583 52.831 49.617 63.69 44.005 5.39-2.79.252-16.846.031-35.297-.513-41.29 23.665-93.779 59.528-100.722 16.959-3.29 37.019 3.545 49.096 18.144 19.44 23.545-.292 65.225 3.359 66.331 5.181 1.537 19.099-86.48 67.266-101.57 16.975-5.309 39.635-2.053 48.211 10.378 12.659 18.271-10.237 48.702-1.76 55.126 8.957 6.754 33-28.103 78.418-36.098 11.638-2.053 38.639-6.806 55.948 9.529 15.053 14.152 18.722 39.108 10.301 57.741-7.798 17.259-24.031 24.712-28.448 26.62-28.901 12.792-46.926-5.716-98.155-.937-17.908 1.674-37.517 5.939-37.946 12.006-.323 4.606 10.529 5.931 21.533 17.266.234.237.567.56 1.01 1.072 3.322 3.52 15.127 16.188 14.436 32.519-.009.746-.982 18.558-12.912 24.972-6.162 3.291-12.603 2.188-15.532 1.708-28.402-4.494-65.247-1.326-66.3 3.384-1.218 5.385 44.59 12.237 46.447 30.184 1.554 14.923-28.106 29.194-31.886 30.975-32.005 15.06-65.257 8.548-65.447 11.119-.186 2.363 27.396.75 49.036 18.152 10.117 8.109 24.178 24.565 19.796 37.028z"></path>
  <path fill="#FFF" d="M2406.006 1672.73c-.991.701-2.131.321-2.9-.454-6.039-6.393-14.363-10.338-23.037-11.255-.175.021-.305-.082-.428-.129-.626-.021-1.251-.039-1.875-.061-12.8-.698-26.306-1.852-38.05 4.337-.054.065-.144.047-.204.051a1.377 1.377 0 0 1-.143.314c-1.306 1.624-3.121 2.892-5.057 3.639-7.954 8.585-15.677 17.357-23.362 26.21 7.287.179 14.657-1.556 20.99-5.187.978-.552 2.171-.506 2.896.452.6.854.493 2.319-.482 2.87-7.84 4.511-16.773 6.593-25.773 5.952a1.495 1.495 0 0 1-.897-.347c-8.813 10.197-17.563 20.441-26.446 30.523-8.958 10.241-18.136 20.356-27.617 30.122 9.69 3.173 19.52 6.776 29.556 8.52 9.8 1.712 21.122.581 27.846-7.602 1.701-2.059 4.921.524 3.253 2.606-5.183 6.265-12.757 9.117-20.585 9.681 5.319 5.229 9.695 11.302 12.788 18.107 1.098 2.43-2.804 3.899-3.867 1.495-3.368-7.401-8.304-13.977-14.516-19.223-.131-.105-.176-.248-.277-.385-.927-.048-1.793-.099-2.697-.238-5.776-.727-11.387-2.393-16.944-4.126-5.924-1.806-11.889-3.703-17.817-5.571a432.135 432.135 0 0 1-20.719 19.779c-1.048-.893-2.122-1.752-3.173-2.704 2.893-2.544 5.745-5.172 8.568-7.823-3.285-3.971-3.188-9.557-2.223-14.288.972-4.885 2.97-10.174.898-14.99-1.015-2.468 2.83-3.931 3.869-1.494 2.085 4.935.882 10.166-.289 15.159-.936 4.166-1.792 9.038.775 12.7a529.526 529.526 0 0 0 10.114-9.952l.027-.034c11.737-11.909 22.911-24.382 33.889-37.009-.071-.11-.144-.221-.188-.365-3.521-14.737.546-29.807 6.002-43.546.691-1.796 1.476-3.573 2.2-5.345-.203-.214-.404-.431-.488-.657-13.32-7.312-24.896-17.337-33.944-29.509-1.601-2.139 1.724-4.551 3.32-2.413a101.716 101.716 0 0 0 32.822 28.448l.033.025c2.047-4.823 4.099-9.645 5.866-14.587 2.555-6.983 4.51-14.286 2.829-21.723-.609-2.574 3.526-2.999 4.102-.452 1.608 7.059.11 14.192-2.117 20.905-2.648 7.973-6.144 15.594-9.353 23.333-5.483 13.237-10.075 27.563-7.687 41.982 2.132-2.458 4.237-4.887 6.343-7.312 24.036-27.918 47.972-56.176 75.688-80.554.646-.604 1.356-1.158 2.034-1.737.924-4.281 1.813-8.589 2.708-12.843.564-2.702 1.597-6.253-.16-8.729-1.489-2.212 1.869-4.597 3.383-2.422 2.191 3.201 1.816 7.067 1.09 10.706-.621 2.978-1.271 5.984-1.891 8.957 11.985-9.948 24.645-19.142 38.04-27.053-.04-.085-.07-.11-.109-.193-1.675-6.048-.328-12.127 2.068-17.847 2.604-6.251 6.47-12.071 7.806-18.804.51-2.637 4.612-2.019 4.103.618-1.249 6.424-4.552 12.008-7.285 17.884-2.272 4.965-4.224 10.668-2.935 16.188 11.891-6.761 24.309-12.521 37.288-16.917 2.546-.845 4.039 3.026 1.495 3.87-4.034 1.363-8.025 2.812-11.942 4.427-32.186 13.154-60.388 34.474-85.401 58.341a516.014 516.014 0 0 0-13.862 13.896c9.633-3.285 20.162-3.021 30.279-2.445 12.5.67 26.108 1.695 37.398-4.858 2.287-1.32 4.731 2.03 2.42 3.384-6.249 3.591-13.048 5.142-20.009 5.762a42.133 42.133 0 0 1 12.415 9.043c.771.835.342 2.303-.452 2.897z"></path>
  <path fill="#819DD1" d="M2657.344 393.145H2431.34c-23.187 0-41.982 18.797-41.982 41.984v111.499c0 23.185 18.796 41.98 41.982 41.98v33.087l40.791-33.087h185.213c23.186 0 41.983-18.796 41.983-41.98V435.129c0-23.188-18.798-41.984-41.983-41.984z"></path>
  <path fill="#FFF" d="M2640.343 379.982h-226.006c-23.185 0-41.981 18.797-41.981 41.983v111.498c0 23.188 18.797 41.983 41.981 41.983v33.086l40.792-33.086h185.214c23.187 0 41.981-18.796 41.981-41.983V421.965c0-23.185-18.795-41.983-41.981-41.983z"></path>
  <path fill="#F36B82" d="M2510.302 423.705c-10.082-2.146-31.229-.688-51.898 49.373-20.665 50.061-6.198 62.92 1.609 64.069 7.807 1.149 21.868-3.945 28.068-3.026 6.199.919 24.288 12.67 33.933 2.107 9.646-10.563-2.182-34.789-2.525-51.324-.268-12.847 4.645-58.253-9.187-61.199zM2560.806 423.705c10.082-2.146 31.229-.688 51.897 49.373 20.667 50.061 6.201 62.92-1.607 64.069-7.808 1.149-21.869-3.945-28.068-3.026-6.202.919-24.29 12.67-33.933 2.107-9.646-10.563 2.181-34.789 2.525-51.324.268-12.847-4.646-58.253 9.186-61.199z"></path>
  <path fill="#F8A6B4" d="M2593.829 489.004a1.48 1.48 0 0 0-2.062.287c-.063.087-1.653 2.123-4.695 2.308-.105.008-.21.011-.315.011-4.368 0-8.577-5.447-10.354-8.384-.414-8.148-3.62-13.409-7.091-16.737a1.503 1.503 0 0 0-.411-.388 22.869 22.869 0 0 0-2.112-1.702c2.271-.086 4.086-.405 5.421-.969a49.062 49.062 0 0 0 2.045-.918c2.275-.479 5.812 2.465 6.886 3.553a1.472 1.472 0 1 0 2.101-2.068c-.352-.354-2.495-2.472-5.123-3.667 3.17-2.175 3.566-3.812 3.59-4.395a1.472 1.472 0 0 0-1.409-1.533 1.48 1.48 0 0 0-1.52 1.247c-.087.22-1.05 2.258-7.714 5.066-3.255 1.368-11.036.893-21.915-1.343a16.556 16.556 0 0 1-7.147-3.396c-3.313-2.701-4.864-6.952-4.514-11.211.044-.523.067-1.051.067-1.584v-43.575c-.016-1.98-4.664-2.433-4.674-.112v43.575c0 .591.026 1.18.08 1.761.392 4.252-1.174 8.499-4.473 11.211a16.567 16.567 0 0 1-7.202 3.443c-10.878 2.234-18.659 2.71-21.914 1.34-6.663-2.805-7.629-4.847-7.714-5.063a1.488 1.488 0 0 0-1.52-1.25 1.475 1.475 0 0 0-1.41 1.535c.027.582.42 2.22 3.591 4.396-2.626 1.194-4.773 3.31-5.124 3.668a1.472 1.472 0 0 0 1.052 2.504c.38 0 .762-.147 1.05-.438 1.073-1.088 4.609-4.033 6.884-3.555.631.301 1.31.607 2.047.919 1.334.561 3.148.882 5.419.97a22.737 22.737 0 0 0-2.106 1.697 1.474 1.474 0 0 0-.417.393c-3.471 3.33-6.676 8.589-7.091 16.734-1.822 3.006-6.209 8.646-10.669 8.375-3.03-.184-4.619-2.208-4.696-2.309a1.475 1.475 0 0 0-2.364 1.762c.077.104 1.571 2.072 4.417 3.013-1.175 1.129-2.246 2.602-2.383 4.312-.056.688.364 1.329.993 1.617.334.15.389.15.465.15.798 0 1.454-.637 1.474-1.437.041-1.723 2.68-3.597 3.857-4.276 3.706-.633 6.851-3.593 8.984-6.227.21 2.601.671 5.437 1.451 8.542-.217 1.103-1.228 5.31-4.248 6.475-.602.233-1.042.796-1.009 1.441a1.48 1.48 0 0 0 1.993 1.338c3.531-1.318 5.128-4.965 5.798-7.227 1.688.626 4.565 1.37 8.757 1.37.212 0 .425-.001.644-.006.774-.015 1.476-.577 1.539-1.351a1.476 1.476 0 0 0-1.469-1.599c-.009 0-.02 0-.031.003-5.104.101-8.093-.995-9.188-1.497-1.096-4.478-1.486-8.339-1.373-11.668.058-.103.094-.171.108-.198a1.463 1.463 0 0 0-.013-1.412c.457-5.229 2.201-9.032 4.323-11.771.656 2.447 2.097 5.798 5.253 8.324a1.476 1.476 0 0 0 2.214-.441c.351-.628.157-1.436-.403-1.885-3.466-2.796-4.364-6.978-4.591-8.636 2.344-2.067 4.716-3.158 6.106-3.666.149-.053.276-.134.396-.226 3.305-.342 7.146-.959 11.512-1.855 5.862-1.206 10.685-4.995 13.37-10.021 2.694 4.968 7.488 8.712 13.307 9.908 4.368.897 8.207 1.516 11.514 1.855.117.091.248.172.395.228 1.389.507 3.763 1.599 6.106 3.667-.228 1.663-1.129 5.844-4.591 8.632-.562.453-.756 1.258-.402 1.888a1.473 1.473 0 0 0 2.211.439c3.156-2.526 4.597-5.875 5.254-8.323 2.122 2.739 3.866 6.543 4.323 11.772a1.46 1.46 0 0 0-.013 1.411c.014.029.052.096.108.199.114 3.329-.276 7.19-1.373 11.668-1.096.505-4.076 1.604-9.189 1.496-.872-.042-1.576.721-1.497 1.609.068.761.759 1.323 1.525 1.337.221.005.44.007.655.007 4.191 0 7.068-.744 8.757-1.37.67 2.26 2.266 5.908 5.798 7.226a1.477 1.477 0 0 0 1.993-1.337c.034-.646-.404-1.211-1.01-1.442-3.02-1.165-4.031-5.377-4.247-6.475.78-3.104 1.242-5.941 1.45-8.543 2.135 2.636 5.28 5.594 8.985 6.228 1.179.681 3.815 2.554 3.857 4.275a1.476 1.476 0 0 0 1.473 1.438h.035a1.474 1.474 0 0 0 1.438-1.509c-.045-1.817-1.165-3.385-2.396-4.57 2.844-.94 4.338-2.91 4.415-3.015a1.463 1.463 0 0 0-.304-2.043z"></path>
  <path fill="#819DD1" d="M993.231 454.257H767.227c-23.185 0-41.98 18.797-41.98 41.983v111.496c0 23.187 18.796 41.984 41.98 41.984v33.085l40.793-33.085h185.212c23.187 0 41.982-18.798 41.982-41.984V496.24c0-23.186-18.796-41.983-41.983-41.983z"></path>
  <path fill="#FFF" d="M976.229 441.094H750.227c-23.188 0-41.983 18.797-41.983 41.981v111.499c0 23.188 18.796 41.984 41.983 41.984v33.086l40.79-33.086H976.23c23.188 0 41.983-18.796 41.983-41.984V483.075c0-23.184-18.796-41.981-41.984-41.981z"></path>
  <path fill="#F36B82" d="M938.302 534.017a74.698 74.698 0 0 1-1.308 4.324c-7.626 22.862-26.063 46.265-54.092 59.894a45.386 45.386 0 0 1-39.818-.044c-27.829-13.627-46.038-37.003-53.605-59.85a74.767 74.767 0 0 1-1.312-4.324c-7.51-27.445.527-53.181 25.894-59.113 47.191-11.04 49.168 31.91 49.168 31.91s1.636-43.306 48.741-31.91c25.75 6.232 33.857 31.824 26.332 59.113z"></path>
  <path fill="#F8A6B4" d="M938.302 534.017a74.698 74.698 0 0 1-1.308 4.324h-20.458l-4.54 7.652a2.156 2.156 0 0 1-2.289 1.011 2.165 2.165 0 0 1-1.708-1.82l-3.727-27.357-7.497 47.246a2.166 2.166 0 0 1-2.107 1.822h-.028a2.151 2.151 0 0 1-2.119-1.764l-6.972-37.63-4.737 9.631a2.177 2.177 0 0 1-1.948 1.21h-27.459a2.124 2.124 0 0 1-2.047-1.48l-4.211-12.62-11.779 45.655a2.146 2.146 0 0 1-2.093 1.622h-.143a2.166 2.166 0 0 1-2.003-1.891l-7.2-58.586-11.511 26.021a2.168 2.168 0 0 1-1.976 1.281h-18.964a74.767 74.767 0 0 1-1.312-4.324h18.865l14.114-31.884a2.15 2.15 0 0 1 2.29-1.266 2.177 2.177 0 0 1 1.835 1.878l6.757 55.028 10.757-41.712a2.17 2.17 0 0 1 2.02-1.622c.925-.042 1.821.57 2.12 1.48l6.032 18.097h24.569l7.014-14.284a2.17 2.17 0 0 1 2.234-1.196 2.178 2.178 0 0 1 1.835 1.75l5.859 31.682 7.826-49.295a2.168 2.168 0 0 1 2.133-1.834h.029a2.18 2.18 0 0 1 2.12 1.877l4.866 35.738 2.005-3.373a2.17 2.17 0 0 1 1.864-1.065h22.992z"></path>
  <path fill="#819DD1" d="M1224.91 1164.155h226.003c23.188 0 41.983 18.8 41.983 41.985v111.498c0 23.186-18.796 41.983-41.983 41.983v33.084l-40.79-33.084H1224.91c-23.188 0-41.983-18.797-41.983-41.983V1206.14c0-23.185 18.796-41.985 41.983-41.985z"></path>
  <path fill="#FFF" d="M1212.08 1150.995h226.004c23.188 0 41.983 18.795 41.983 41.982v111.499c0 23.187-18.796 41.984-41.983 41.984v33.085l-40.792-33.085-185.212-.002c-23.188 0-41.982-18.796-41.982-41.982v-111.499c0-23.187 18.795-41.982 41.982-41.982z"></path>
  <path fill="#F8A6B4" d="m1304.012 1262.329-8.942 42.201 50.115 10.62c4.981 1.056 9.956.274 14.211-1.89l.03.007c5.596-2.855 9.921-8.095 11.33-14.747a21.4 21.4 0 0 0-3.052-16.231c-2.997-4.648-7.745-8.103-13.577-9.343l-50.115-10.617z"></path>
  <path fill="#03CBEB" d="M1228.295 1268.333a21.518 21.518 0 0 0 3.023 16.227c3.031 4.626 7.775 8.111 13.606 9.345l50.145 10.626 8.942-42.201-50.146-10.625a21.48 21.48 0 0 0-21.647 8.091 21.408 21.408 0 0 0-3.923 8.537z"></path>
  <path fill="#F36B82" d="M1228.295 1268.333a21.518 21.518 0 0 0 3.023 16.227c3.031 4.626 7.775 8.111 13.606 9.345l50.145 10.626 8.942-42.201-50.146-10.625a21.48 21.48 0 0 0-21.647 8.091 21.408 21.408 0 0 0-3.923 8.537z"></path>
  <path fill="#F8A6B4" d="m1346.075 1198.917 9.387 42.107 50.001-11.147c4.97-1.109 9.17-3.888 12.145-7.621l.028-.006c3.904-4.923 5.665-11.483 4.186-18.121a21.42 21.42 0 0 0-9.517-13.502 21.328 21.328 0 0 0-16.23-2.858l-50 11.148z"></path>
  <path fill="#03CBEB" d="M1279.688 1235.816a21.499 21.499 0 0 0 9.485 13.509c4.68 2.947 10.441 4.149 16.261 2.851l50.028-11.152-9.387-42.107-50.03 11.155a21.484 21.484 0 0 0-16.335 16.35 21.398 21.398 0 0 0-.022 9.394z"></path>
  <path fill="#F36B82" d="M1279.688 1235.816a21.499 21.499 0 0 0 9.485 13.509c4.68 2.947 10.441 4.149 16.261 2.851l50.028-11.152-9.387-42.107-50.03 11.155a21.484 21.484 0 0 0-16.335 16.35 21.398 21.398 0 0 0-.022 9.394z"></path>
  <path fill="#819DD1" d="M1515.569 657.552v149.077c0 9.833-2.466 19.503-7.235 28.086-19.859 35.713-50.785 60.554-98.959 85.72-.063.03-.146.08-.21.112-47.768-27.031-76.828-57.372-89.483-87.99-2.872-6.896-4.249-14.326-4.249-21.806V657.552c0-9.136 8.613-15.804 17.474-13.534 25.229 6.475 50.72 10.045 76.469 10.53 29.238.57 58.833-2.855 88.802-10.545 8.825-2.271 17.391 4.447 17.391 13.549z"></path>
  <path fill="#FFF" d="M1484.243 667.268c-46.87 12.022-92.63 11.508-137.421.021-7.359-1.887-14.524 3.653-14.524 11.25v127.376c0 6.215 1.155 12.388 3.529 18.131 10.527 25.455 34.687 50.674 74.404 73.149 40.148-20.953 65.914-41.621 82.446-71.354 3.968-7.138 6.018-15.185 6.018-23.351V678.542c0-7.565-7.125-13.154-14.452-11.274z"></path>
  <path fill="#819DD1" d="M1473.65 761.226h-58.153v-58.154a6.124 6.124 0 0 0-12.247 0v58.154h-58.153a6.124 6.124 0 1 0 0 12.247h58.153v58.153a6.123 6.123 0 1 0 12.247 0v-58.153h58.153a6.123 6.123 0 0 0 6.123-6.125 6.122 6.122 0 0 0-6.123-6.122z"></path>
  <path fill="#E6E6E6" d="M1515.569 657.552v149.077c0 9.833-2.466 19.503-7.235 28.086-19.859 35.713-50.785 60.554-98.959 85.72V654.548c29.238.57 58.833-2.855 88.802-10.545 8.826-2.271 17.392 4.447 17.392 13.549z"></path>
  <path fill="#A7D1F4" d="M2216.959 632.635v1097.619c0 27.121-19.631 46.706-43.615 43.745l-472.416-58.335c-19.502-2.409-35.205-23.958-35.205-48.126V689.426c0-24.184 15.703-45.553 35.205-47.751l472.416-53.252c23.984-2.704 43.615 17.073 43.615 44.212z"></path>
  <path fill="#251F5D" d="m2265.331 631.184-22.762 2.33v91.377l22.762-1.919c3.803-.321 6.891-2.346 6.891-4.52v-84.035c0-2.174-3.088-3.622-6.891-3.233z"></path>
  <path fill="#251F5D" d="m2265.331 721.239-22.762 1.929v86.204l22.762-1.542c3.803-.258 6.891-2.131 6.891-4.182v-79.277c0-2.052-3.088-3.454-6.891-3.132zM2265.331 901.349l-22.762 1.126v132.758l22.762-.534c3.803-.087 6.891-2.722 6.891-5.882V906.729c0-3.161-3.088-5.568-6.891-5.38z"></path>
  <path fill="#CCC" d="M2077.223 1213.476c.55-.382 1.079-.773 1.615-1.163 1.94-1.401 3.811-2.86 5.553-4.42.096-.085.199-.162.295-.247 27.713-24.604-19.693-157.792-46.913-223.113 4.116-16.019 6.52-30.151 7.01-42.787 4.382-13.462 5.89-29.436-8.992-53.52-4.082-6.609-8.339-11.571-12.088-15.942-10.628-12.387-17.622-20.545-10.389-51.25 4.311-18.289-.687-30.353-2.72-34.24-.481-2.888-1.274-5.709-2.468-8.451-10.66-24.473-25.233-27.285-33.396-40.029-1.575-7.064-2.264-15.132-2.961-23.457-1.61-19.152-3.272-38.946-15.815-50.803-9.177-8.673-22.935-7.977-28.784-7.202h-.005s-9.705-27.043-50.115-19.784c-41.851 7.519-74.688 47.244-80.012 88.12-2.324 9.541-4.91 24.807-2.186 38.433 1.865 9.348 4.919 15.427 7.376 20.315 3.123 6.215 5.189 10.326 2.595 16.9-2.285 5.783-7.245 13.408-12.486 21.467-10.333 15.884-21.946 33.775-20.797 48.056a32.935 32.935 0 0 0-.454 3.216c-1.831 21.465 20.706 35.342 13.992 69.785-6.144 3.368-11.995 7.09-17.198 11.23-1.235.986-2.355 2.477-3.367 4.428l-100.646 117.313-73.888-49.177-3.831-2.529-9.882-6.568-3.68 7.239-1.203-.671-15.239-8.48s-9.257-16.145-25.141-22.48c-15.852-6.392-26.141-17.823-29.746-11.981-3.681 5.834 20.271 21.789 14.461 23.543-14.542 4.214-45.862-7.413-57.667-4.942-15.799 3.312 36.889 49.28 85.649 40.923 0 0 4.642 6.75 12.114 17.069l-3.033 5.967a489.047 489.047 0 0 0 6.566 8.79l3.045 3.832c28.073 35.84 77.764 89.928 103.298 93.684.307.05.612.103.912.14.203.018.402.029.604.044.686.052 1.355.078 2.006.042 25.975-1.386 68.806-29.419 90.312-44.665 1.261 24.756 2.871 51.697 4.722 80.526-.513 1.349-.445 2.93.309 4.773 1.614 25.029 3.4 51.427 5.286 79.022 8.721 127.417-20.767 306.309-20.767 306.309l32.558 2.715v.002l3.387 127.136 8.69 1.073 69.864 8.629 28.055 3.463 101.424 12.523 4.144.511 15.607 1.926c4.07-19.259 8.248-38.523 12.095-57.911a1460.353 1460.353 0 0 0 3.204-16.653c3.619-19.47 6.783-39.097 9.055-59.001l20.894 1.493s-.085-1.095-.253-3.172c-.134-1.661-.321-3.95-.561-6.815a3499.832 3499.832 0 0 0-2.791-31.399 4026.71 4026.71 0 0 0-5.331-53.234c-6.694-62.671-17.095-145.857-30.993-215.578-5.035-25.249-8.265-50.272-10.146-74.683 25.926-4.164 50.457-11.616 68.213-23.601.346-.227.693-.455 1.034-.689zm-65.584-392.869c-7.49 31.803.163 40.729 10.795 53.132 3.705 4.32 7.91 9.225 11.913 15.709 12.679 20.529 13.069 34.489 10.509 45.601-.395-22.906-7.778-40.697-23.625-55.928-28.518-27.408-9.24-59.135-10.047-86.083 2.159 6.852 3.059 16.513.455 27.569zm-56.817-154.955c12.041 11.386 13.669 30.783 15.245 49.553.515 6.129 1.022 12.126 1.88 17.717a37.778 37.778 0 0 1-1.262-3.659c-7.496-25.92.121-59.775-37.133-70.813 6.462.022 15.083 1.353 21.27 7.202zm-181.349 197.74c2.127-12.318 11.548-26.832 20.084-39.951 5.305-8.153 10.326-15.866 12.692-21.864 2.976-7.532.615-12.229-2.649-18.722-2.405-4.785-5.394-10.729-7.21-19.805-1.666-8.347-1.227-17.487-.104-25.443.017 1.557.07 3.115.171 4.663 3.095 46.319 22.333 41.56 11.321 65.055-7.73 16.492-27.351 36.972-34.305 56.067z"></path>
  <path fill="#251F5D" d="m2192.82 482.102-507.787 67.734c-30.793 4.107-55.44 38.36-55.44 76.578v1055.628c0 38.181 24.647 72.474 55.44 76.582l507.787 67.734c38.637 5.151 70.42-26.001 70.42-69.587V551.686c0-43.629-31.783-74.739-70.42-69.584zm24.137 1248.15c0 27.128-19.623 46.705-43.613 43.743l-472.415-58.331c-19.505-2.411-35.205-23.954-35.205-48.128V689.422c0-24.174 15.7-45.549 35.205-47.75l472.415-53.252c23.99-2.705 43.613 17.083 43.613 44.213v1097.619z"></path>
  <path fill="#FFF" d="m2039.72 569.17-228.193 27.327c-5.19.623-9.387-3.977-9.387-10.271 0-6.292 4.196-11.917 9.387-12.564l228.193-28.445c5.723-.714 10.37 4.08 10.37 10.709s-4.648 12.559-10.37 13.244zM2125.802 546.675c0-9.366 6.685-17.797 14.955-18.836 8.298-1.042 15.044 5.749 15.044 15.169 0 9.422-6.746 17.861-15.044 18.848-8.271.983-14.955-5.816-14.955-15.181zM1770.188 590.13c0-5.841 3.869-11.059 8.652-11.654 4.792-.597 8.684 3.673 8.684 9.536 0 5.864-3.892 11.086-8.684 11.66-4.782.572-8.652-3.699-8.652-9.542z"></path>
  <path fill="#FDD3D2" d="m2056.085 1505.066-18.189 116.864-20.666 132.791-101.425-12.523c-2.269-64.251.205-137.037 2.762-187.938v-.017c1.93-38.598 3.918-64.617 3.918-64.617l133.6 15.44z"></path>
  <path fill="#251F5D" d="M1951.343 659.291s-9.705-27.044-50.112-19.784c-47.689 8.567-83.685 58.946-80.594 105.203 3.095 46.317 22.331 41.561 11.319 65.054-9.126 19.474-34.836 44.505-36.691 66.25-1.854 21.729 21.282 35.667 13.752 71.049-7.509 35.267 5.237 86.446 5.237 86.446s199.644 91.864 229.719 9.51c30.45-83.377 35.815-128.413 1.437-161.457-33.902-32.586-.253-71.272-13.104-100.779-12.787-29.353-31.208-27.531-37.44-49.082-7.902-27.318 1.023-63.468-43.523-72.41z"></path>
  <path fill="#CCC" d="M1979.567 741.25s.786 14.179 7.993 21.271c7.232 7.112-8.225 55.661-15.447 69.336-7.198 13.633-30.514 40.353-18.62 61.506 11.955 21.256 39.271 17.063 39.81 36.551.537 19.492-168.988 33.349-168.237 31.495.754-1.854 63.349-66.974 52.541-86.043-10.758-18.984-22.016-46.583-17.437-71.479 4.587-24.943 119.397-62.637 119.397-62.637z"></path>
  <path fill="#FDD3D2" d="m1895.389 1452.553-.484 18.038-7.154 268.143-69.865-8.629-5.455-127.651-6.143-143.623 87.136-6.144z"></path>
  <path fill="#251F5D" d="M2061.331 1623.594c-5.187 45.494-15.047 89.546-24.35 133.568l-227.786-28.129-3.388-127.136-4.959-187.033 92.575 1.996 6.227.135 140.99 3.057c26.01 72.273 28.05 139.134 20.691 203.542z"></path>
  <path fill="#CCC" d="m2040.641 1420.051-140.99-3.057-6.227-.135-92.575-1.996.018.717 59.275 1.279 6.226.135 140.99 3.057c26.008 72.274 28.048 139.135 20.692 203.543-5.033 44.116-14.453 86.872-23.504 129.561l32.436 4.007c9.303-44.022 19.163-88.074 24.35-133.568 7.358-64.408 5.318-131.269-20.691-203.543z"></path>
  <path fill="#FDD3D2" d="M1567.879 1043.646s4.739 6.896 12.361 17.414c25.845 35.426 86.028 113.646 113.149 112.155 35.768-1.911 103.5-54.347 103.5-54.347l-5.864-160.131-102.982 120.034-92.481-51.707-15.239-8.479s-9.259-16.143-25.141-22.482c-15.852-6.389-26.142-17.821-29.746-11.98-3.68 5.835 20.271 21.791 14.459 23.543-14.54 4.214-45.86-7.411-57.665-4.941-15.8 3.312 36.888 49.279 85.649 40.921z"></path>
  <path fill="#FFF" d="M1576.961 1066.681a489.416 489.416 0 0 0 6.564 8.792l3.045 3.832c29.421 37.559 82.603 95.201 106.819 93.911 35.768-1.911 103.5-54.347 103.5-54.347l-5.864-160.131-102.982 120.034-73.887-49.177-3.83-2.53-9.883-6.567-23.482 46.183z"></path>
  <path fill="#CCC" d="m1583.525 1075.472 3.045 3.832 27.586-49.71-3.83-2.53z"></path>
  <path fill="#FFF" d="m2082.226 1625.085-154.298-11.007-28.27-180.717s-2.626 20.36-6.229 48.931c-4.578 36.741-10.614 87.117-14.521 125.702l-105.659-8.814s29.489-178.891 20.77-306.306c-12.828-187.659-21.08-320.57-1.96-335.843 23.073-18.359 58.558-28.9 78.165-33.632 2.026-.586 3.891-.969 5.519-1.34 1.46-.364 2.68-.619 3.818-.868-4.552 46.119 5.617 94.247 23.788 143.795l1.07-4.419 3.784 20.88v.097l.083-.003 2.883-3.572c22.527-53.717 34.626-107.045 29.612-159.306l.92-.044s1.336.132 3.843.502c1.17.14 2.76.356 4.52.567 19.941 2.795 71.258 11.753 94.932 31.119 17.58 14.232-38.727 183.406-2.696 364.082 26.162 131.235 39.926 310.196 39.926 310.196z"></path>
  <g fill="#CCC">
    <path d="M2025.463 950.807c12.087 9.787-10.758 92.82-14.498 202.477-1.063 31.146-81.551 88.515-81.551 88.515s79.13 19.001 93.35 73.091c32.283 122.795 38.483 291.973 39.815 308.792l19.646 1.405s-13.764-178.962-39.926-310.197c-36.03-180.676 20.276-349.849 2.696-364.082-23.672-19.366-74.99-28.324-94.932-31.119-1.76-.211-3.35-.428-4.52-.567-2.507-.37-3.846-.502-3.846-.502l-.917.044c.084.881.151 1.763.225 2.646 23.769 3.992 64.213 12.937 84.458 29.497zM1883.816 1064.985l1.067-4.422 3.785 20.883v.097l.083-.003 2.884-3.572a497.45 497.45 0 0 0 8.559-21.815c-16.169-46.44-24.914-91.59-20.633-134.965-1.139.251-2.358.506-3.818.87-1.628.372-3.492.754-5.519 1.34-3.149.76-6.738 1.688-10.588 2.756-3.382 44.608 6.66 91.055 24.18 138.831z"></path>
  </g>
  <path fill="#CCC" d="M1899.658 1109.726v1.956l-6.228 7.377v-5.566l1.718-3.723z"></path>
  <path fill="#CCC" d="M1899.658 1111.682v321.68s-2.626 20.36-6.229 48.931V1119.06l6.229-7.378z"></path>
  <path fill="#CCC" d="m1964.269 1034.911 4.471 7.527c-3.372 2.755-51.05 53.971-69.081 72.86v-3.616l-6.229 7.377c.655-2.349 1.719-5.676 2.949-9.303.98-3.132 2.13-6.47 3.195-9.607 2.627-7.658 4.928-14.245 4.928-14.245s-2.056-1.633-5.42-4.319c-12.762-10.137-43.558-34.582-45.73-36.468l4.269-7.463 15.28-27.009-.649-.66-43.706-46.709 41.68-39.878c2.026-.586 3.891-.969 5.519-1.34 1.46-.364 2.68-.619 3.818-.868-.733 5.096-1.221 10.178-1.545 15.352-.164 2.536-.244 5.07-.326 7.701-.081 1.364-.081 2.824-.081 4.187-.488 30.763 5.127 61.72 15.737 91.756 2.949 8.33 6.312 16.561 10.003 24.799l2.137 13.077 2.718 3.384v.097l.083-.003 2.883-3.572c22.527-53.717 34.626-107.045 29.612-159.306l.92-.044s1.336.132 3.843.502c1.17.14 2.76.356 4.52.567 11.591 9.336 44.736 36.3 44.825 36.295l-45.997 51.658-.588.708 15.962 26.563z"></path>
  <path fill="#FFF" d="M1908.204 1081.446v.097l-7.479-6.436-43.104-37.453-.727-.563 15.357-27.105 3.003-5.246-40.412-41.912 40.901-40.769c1.46-.364 2.68-.619 3.818-.868-4.552 46.119 5.617 94.247 23.788 143.795l2.137 13.077 2.718 3.383z"></path>
  <path fill="#556BD1" d="m1911.17 1077.969-2.883 3.572-.083.003v-.097l-2.718-3.384c-17.631-52.442-33.524-105.771-25.925-156.873l.081-.005c3.014-.635 4.722-.915 4.722-.915l56.335-1.603.083-.004c5.014 52.26-7.085 105.589-29.612 159.306z"></path>
  <path fill="#FFF" d="m1948.893 1007.641 15.966 26.762-.59.508-64.61 76.771-6.229 7.377-5.637 6.671 5.637-12.237 1.719-3.724 4.426-9.621 8.63-18.605.083-.003 2.883-3.572c22.527-53.717 34.626-107.045 29.612-159.306l.92-.044s1.336.132 3.843.502l42.609 37.437-42.274 45.945 3.012 5.139z"></path>
  <path fill="#FDD3D2" d="M2108.863 1210.083c-39.128 35.502-131.966 29.208-181.276 22.833-19.918-2.679-32.972-5.329-32.972-5.329s-90.263 13.737-105.104-12.126c-12.881-22.452 65.086-9.503 73.792-22.888 8.743-13.436-9.189-3.56-20.109-24.212-6-11.594 53.958 14.23 53.958 14.23s8.785-1.123 21.899-2.912c38.187-5.236 114.338-16.876 117.552-25.42 1.997-5.43-66.303-135.507-73.477-209-.083-.392-.168-.786-.168-1.18l.59.072 81.447 6.656c.001 0 100.357 226.379 63.868 259.276z"></path>
  <path fill="#FFF" d="M2108.863 1210.083c-34.631 30.749-108.892 37.101-159.765 33.655-2.091-.137-4.099-.272-6.105-.508-4.757-.385-9.339-.862-13.579-1.433l-11.188-70.465c4.386-.574 9.194-1.245 14.347-1.915 1.915-.19 3.913-.481 5.914-.771 38.75-4.75 89.618-10.57 92.301-17.702 1.994-5.428-67.998-117.522-67.661-205.686l.422-1.108 81.447 6.656c4.394 1.027 100.786 226.498 63.867 259.277z"></path>
  <path fill="#CCC" d="M1949.099 1243.738c-2.091-.137-4.099-.272-6.105-.508l-10.42-73.813c1.915-.19 3.913-.481 5.914-.771l10.611 75.092z"></path>
  <path fill="#CCC" d="M2035.181 1147.941c-.273-1.347-.576-2.009-.88-2.856-.604-1.574-1.223-2.847-1.847-4.161l-3.779-7.435-7.566-14.367a1207.817 1207.817 0 0 1-14.58-28.768c-9.575-19.182-18.261-38.895-27.243-58.59 5.045 21.611 12.232 42.48 20.607 62.753 4.237 10.142 8.942 20.042 13.916 29.751 2.441 4.892 5.06 9.667 7.635 14.412l3.73 7.063c.372.747.681 1.455 1.009 2.171-7.43 3.244-15.948 5.69-24.098 7.803-9.274 2.501-18.642 4.583-28.007 6.427a1143.49 1143.49 0 0 1-55.843 9.202c18.714.261 37.62-.572 56.567-3.005 19.224-2.608 38.099-4.831 57.77-13.1 1.852-1.018 2.693-3.167 2.795-4.693.06-1.047-.061-2.161-.186-2.607z"></path>
  <path fill="#251F5D" d="M2004.412 757.854c-7.564-9.244-8.828-24.292-10.163-40.21-1.578-18.768-3.205-38.164-15.248-49.553-11.103-10.5-30.069-6.444-30.253-6.382l-.173-1.951c.806-.174 19.888-4.292 31.557 6.735 12.543 11.855 14.205 31.651 15.814 50.803 1.31 15.595 2.547 30.332 9.741 39.127l-1.275 1.431zM2068.383 945.914l-1.633-.692c4.302-12.377 7.57-27.761-8.224-53.335-4.004-6.483-8.209-11.388-11.914-15.709-10.632-12.401-18.284-21.329-10.795-53.132 3.418-14.509.805-26.636-2.775-33.128-1.881-3.417-4.121-5.557-6.138-5.875l.343-1.996c2.486.395 5.139 2.838 7.275 6.71 1.829 3.32 7.465 15.649 2.969 34.717-7.233 30.704-.238 38.863 10.39 51.25 3.749 4.372 8.004 9.334 12.088 15.943 15.523 25.119 13.217 41.418 8.414 55.247zM1795.744 873.317c-1.478-14.364 10.315-32.5 20.771-48.574 5.239-8.061 10.202-15.685 12.485-21.466 2.595-6.574.529-10.688-2.594-16.901-2.457-4.888-5.512-10.967-7.378-20.315-4.267-21.339 4.494-46.721 4.869-47.793l1.456.633c-.089.259-8.926 25.867-4.783 46.591 1.813 9.074 4.803 15.02 7.208 19.803 3.264 6.493 5.626 11.189 2.648 18.72-2.367 5.997-7.388 13.712-12.692 21.866-10.258 15.764-21.828 33.553-20.437 47.109l-1.553.327z"></path>
  <path fill="#FDD3D2" d="M1939.231 920.106c-1.419 2.236-2.918 4.379-4.334 6.416-17.753 24.489-35.536 26.617-53.188-3.601l6.769-49.479 2.532-18.59 37.815-2.687 10.406 67.941z"></path>
  <path fill="#CCC" d="M1939.231 920.106c-1.419 2.236-2.918 4.379-4.334 6.416-1.583-7.308-7.566-31.69-15.851-43.803-6.688-9.712-21.734-10.191-30.569-9.276l2.532-18.59 37.815-2.687 10.407 67.94z"></path>
  <path fill="#EDC6C5" d="M1971.417 766.045s12.926-8.35 20.915-.862c6.74 6.315 7.093 38.783-30.294 47.022l9.379-46.16z"></path>
  <path fill="#FDD3D2" d="M1978.973 761.862c-3.281 50.591-37.62 105.652-73.595 104.559-36.232-1.104-58.442-54.584-55.332-103.823 3.115-49.303 28.244-91.368 65.642-91.77 37.994-.406 66.575 40.376 63.285 91.034z"></path>
  <path fill="#CCC" d="M1915.688 670.829c-1.079.011-2.14.17-3.212.249 36.283 1.859 63.126 41.591 59.94 90.729-3.179 49.024-35.54 102.117-70.246 104.215 1.071.128 2.126.365 3.209.399 35.974 1.093 70.313-53.969 73.597-104.559 3.287-50.658-25.294-91.44-63.288-91.033z"></path>
  <path fill="#CCC" d="M1971.829 689.466s-31.502-15.712-31.966-16.644c-.466-.932-43.729-7.906-43.729-7.906l-30.401 7.128-20.306 40.609 2.673 30.778-1.016 26.278s26.026-24.694 36.508-60.211c7.736 21.612 39.862 43.29 68.476 43.636 0 0 3.381-28.035 8.475-32.866l.003-.004c-.319 5.856-1.017 27.138 4.028 49.427 6.358 28.107-9.999 68.479-9.999 68.479s26.411-26.913 26.933-80.12c.525-53.22-9.679-68.584-9.679-68.584z"></path>
  <path fill="#251F5D" d="M1941.116 759.478c-2.58-2.424-5.826-3.424-9.129-3.494-3.256-.002-6.994.972-9.839 4.419-.778.946-.813 2.415-.066 3.281.742.867 1.981.8 2.763-.146.047-.058.108-.141.15-.202 3.027-4.435 10.396-5.105 14.801-1.854l.046.038c.474.347 1.12.157 1.45-.427.306-.545.22-1.244-.176-1.615zM1868.149 767.866c4.281-3.919 11.479-4.452 14.45-.553.683.917 1.894.944 2.708.063.813-.882.92-2.341.239-3.257a2.916 2.916 0 0 0-.15-.175c-2.797-2.953-6.462-3.304-9.646-2.77-3.223.612-6.379 2.125-8.883 4.929-.421.47-.469 1.238-.104 1.714.341.443.917.475 1.334.097l.052-.048z"></path>
  <path fill="#FEE5E4" d="M1939.393 771.74c0-5.534-3.79-9.707-8.462-9.324-4.66.381-8.432 5.16-8.432 10.673s3.771 9.69 8.432 9.326c4.672-.363 8.462-5.144 8.462-10.675zM1884.508 776.128c0-5.471-3.706-9.6-8.27-9.225-4.557.373-8.24 5.093-8.24 10.544 0 5.448 3.684 9.581 8.24 9.226 4.564-.354 8.27-5.078 8.27-10.545z"></path>
  <path fill="#251F5D" d="M1937.396 771.898c0-4.225-2.896-7.414-6.464-7.122-3.563.291-6.446 3.94-6.446 8.153 0 4.215 2.883 7.406 6.446 7.126 3.567-.279 6.464-3.93 6.464-8.157zM1882.555 776.136c0-4.177-2.831-7.333-6.316-7.046-3.483.283-6.3 3.891-6.3 8.057s2.816 7.322 6.3 7.049c3.485-.273 6.316-3.882 6.316-8.06z"></path>
  <path fill="#FFF" d="M1929.99 769.917c.667-.844.667-2.128 0-2.865-.668-.735-1.752-.648-2.419.196-.666.844-.666 2.127 0 2.863.667.739 1.751.651 2.419-.194zM1875.577 774.296c.652-.834.652-2.104 0-2.833-.653-.728-1.713-.641-2.362.191-.653.835-.653 2.103 0 2.831.649.73 1.709.646 2.362-.189z"></path>
  <path fill="#FB928F" d="M1928.765 794.887c0 3.655 3.9 6.33 8.719 5.976 4.829-.357 8.752-3.622 8.752-7.289 0-3.672-3.923-6.345-8.752-5.975-4.819.368-8.719 3.63-8.719 7.288zM1860.17 800.049c0 3.602 3.789 6.244 8.47 5.899 4.689-.347 8.5-3.562 8.5-7.176 0-3.617-3.811-6.259-8.5-5.899-4.681.361-8.47 3.571-8.47 7.176z"></path>
  <path fill="#EDC6C5" d="M1899.266 800.967c-1.624.068-3.314-.14-4.693-.917-2.693-1.524-1.317-7.462 1.345-17.847 1.014-3.958 1.975-7.697 2.244-9.993.119-1.021.934-1.814 1.743-1.708.847.074 1.436.956 1.316 1.974-.303 2.597-1.299 6.483-2.354 10.594-1.191 4.638-3.183 12.387-2.6 13.87 2.104 1.08 6.636-.125 8.18-.704.842-.328 1.674.233 1.879 1.198.208.973-.301 2.012-1.129 2.318-.438.168-3.09 1.104-5.931 1.215z"></path>
  <path fill="#251F5D" d="M1919.708 814.506c-1.714 7.057-4.749 12.256-8.325 15.456v.093c-6.205 5.768-14.093 5.929-19.799.796-3.311-2.896-5.848-7.496-7.076-13.835 1.077.198 2.074.312 3.15.325 9.632 1.155 19.147.483 28.856-2.053a19.822 19.822 0 0 0 3.194-.782z"></path>
  <path fill="#FFF" d="M1916.515 815.288v4.62c-9.399 3.059-18.992 3.179-28.856 1.664v-4.231c9.514.826 19.022.137 28.856-2.053z"></path>
  <path fill="#FB928F" d="M1911.383 829.962v.093c-6.205 5.768-14.093 5.929-19.799.796 1.773-2.695 5.475-4.698 9.726-4.994 4.488-.31 8.442 1.354 10.073 4.105z"></path>
  <path fill="#251F5D" d="M1969.876 684.496s-31.478-15.672-31.941-16.604c-.463-.931-43.692-7.856-43.692-7.856l-30.377 7.155-20.292 40.616 2.675 30.763-1.016 26.266s26.005-24.709 36.477-60.223c7.733 21.596 39.832 43.229 68.423 43.548 0 0 3.377-28.026 8.466-32.864l.003-.003c-.318 5.854-1.015 27.128 4.025 49.404 6.354 28.088-12.83 62.195-12.83 62.195s29.228-20.661 29.752-73.849c.522-53.201-9.673-68.548-9.673-68.548z"></path>
  <path fill="#FDD3D2" d="M872.534 1218.891c-17.115 102.521-13.09 266.663-112.479 345.864-47.955 38.215-141.295 88.871-225.152 49.606-9.174-3.004-4.085-17.46-6.674-25.003 107.041-13.75 102.977-19.812 185.623-79.871 40.154-108.267-20.879-183.581 49.018-296.524 37.237.834 68.831 6.979 109.664 5.928z"></path>
  <path fill="#FDD3D2" d="M897.207 1222.698c22.367 131.699-.58 230.521-41.813 355.136-.417 1.263-.577 1.891-1.677 4.198-42.579 89.251-37.517 123.593-37.396 218.108-10.205 2.447-20.362 4.777-30.55 7.178-29.473-87.309-48.133-150.239-9.05-237.316 16.632-138.295-77.726-236.424 16.381-355.296 34.736 2.081 69.389 5.433 104.105 7.992z"></path>
  <path fill="#251F5D" d="M652.269 1572.916c25.752 12.403 57.319 12.581 78.943 36.757 15.797 17.664 33.823 32.771 56.856 41.371 9.762 3.642 19.923 7.964 31.202 7.628 20.634-.616 34.202-2.157 45.648-26.363 21.9-46.305 46.721-115.684 53.604-165.762 12.301-89.478 1.762-170.501-23.507-253.939-3.302 1.036 1.418-.369-2.521-.672-45.49-3.451-93.974-30.318-137.986 10.143-47.826 43.976-60.998 90.759-56.641 165.136 3.11 53.116-18.95 100.988-56.882 138.493-18.996 18.783-7.806 38.011 11.284 47.208z"></path>
  <path fill="#CCC" d="M787.924 1651.53c10.561 1.925 19.846 7.891 31.269 7.269 20.896-1.147 34.245-2.079 45.705-26.438 21.929-46.602 46.778-115.489 53.623-165.743 12.232-89.782 1.917-170.418-23.625-254.016-1.036.727-1.33-.191-2.081-.108-7.253 8.934-14.653 17.761-22.525 26.238 25.124 92.729 31.281 200.698-9.941 289.071-20.706 44.39-46.314 82.725-72.425 123.727z"></path>
  <path fill="#FDD3D2" d="M860.134 956.07c12.688 26.021 25.745 51.361 38.322 77.752 2.902-5.569-.072.529 3.804-6.696 25.229-47.026 58.632-91.85 78.806-144.52 16.244-42.406 12.426-101.541 11.287-146.328-.424-16.614-1.743-27.052-3.558-42.269 8.463-11.47 16.968-21.031.003-33.025-16.316-11.534-4.86-41.39-13.797-42.425-8.936-1.036-10.531 33.771-10.581 40.687-2.404-.511-10.878-12.678-14.016-5.76-4.693 10.34 7.965 30.512 13.22 40.482-2.499 8.818-4.974 16.094-7.391 24.965-12.513 45.914-20.621 93.106-25.186 140.596-27.31 29.601-49.438 62.606-70.913 96.541z"></path>
  <path fill="#3E3279" d="M762.921 1213.089c44.771 1.944 89.604 6.53 134.259 9.5-12.76-49.262-16.801-68.99-1.835-120.114 6.229-21.283 8.648-58.405 6.723-71.933-4.788-33.621-22.507-58.737-40.287-72.681-17.777-13.942-19.113-8.711-33.744-19.414-12.25.8-25.63.293-38.319.621-13.017 9.36-25.973 18.379-38.89 28.141.893 46.326 2.504 99.306 10.757 143.442 7.281 38.944 12.529 65.658 1.336 102.438z"></path>
  <path fill="#556BD1" d="M740.559 1231.277c57.301 26.389 73.844 7.5 129.611 7.419 4.352-.005 7.551 1.538 11.728 1.589 14.883.179 25.474-6.75 23.245-24.112-6.849-53.361-6.244-107.057 1.095-161.725 1.634-12.166 5.486-28.861 10.369-41.518 2.944-7.635 7.029-15.702 10.822-23.277 17.87-35.693 39.646-68.522 53.564-106.563 16.493-45.071 12.318-99.968 11.427-147.367-12.202-5.764-24.083-11.242-36.178-16.875-12.565 45.744-22.093 92.131-29.066 139.008-21.957 23.712-36.368 49.438-54.32 77-7.126 10.938-21.931 15.676-35.007 9.108-2.545-1.279-6.802-3.671-9.497-5.164-12.954.016-25.749.15-38.646.263-12.954 9.267-26.041 18.601-38.816 27.964.298 48.117 3.223 97.132 10.393 144.544 6.324 41.832-5.766 81.251-20.724 119.706z"></path>
  <path fill="#FDD3D2" d="M620.572 1127.149c-.03.56.059.966.237 1.695 3.071 12.662 9.403 22.672 18.036 32.95 16.378 19.495 42.511 41.129 60.626 55.48 10.374 8.214 9.043 7.031 17.629 13.599-7.127 16.355-1.018 74.795 25.03 50.731 5.574-5.152-5.516-16.617-3.696-23.765 1.131-4.449 7.854-8.413 11.501-12.992 4.145-5.198 1.957-14.57-1.682-19.606-6.942-9.608-11.833-17.541-18.228-27.141-17.028-25.56-34.85-49.676-59.361-68.8 32.96-17.743 66.085-33.786 94.945-57.938-5.369-34.723-10.283-69.497-14.8-104.344-39.076 32.365-127.634 108.874-130.237 160.131z"></path>
  <path fill="#556BD1" d="M620.578 1127.128c-.029.563-.009 1.151.265 1.666 5.81 10.993 11.869 21.934 17.791 32.895 18.639 21.07 39.816 39.033 61.879 56.402 9.969-6.454 19.815-13.158 29.58-19.919-17.229-25.77-34.833-49.662-59.436-68.878 32.973-17.727 66.092-33.783 94.953-57.93-5.369-34.723-10.283-69.498-14.8-104.343-39.071 32.347-127.645 108.901-130.232 160.107z"></path>
  <path fill="#FDD3D2" d="M855.898 795.699c7.305 31.061 19.927 65.789 3.688 96.637-16.24 30.848-54.424 22.167-82.264 12.62 25.796-36.55 52.101-72.887 78.576-109.257z"></path>
  <path fill="#FDD3D2" d="M822.271 903.743c2.047 11.669 3.907 23.374 6.021 35.03-12.856.059-25.714.159-38.569.284 1.262-11.716 2.54-23.429 3.829-35.141 9.572-.072 19.145-.098 28.719-.173z"></path>
  <path fill="#251F5D" d="M657.689 981.455c8.95-32.339-11.43-42.302-.063-69.389 10.833-25.816 37.325-37.905 51.492-61.593 10.589-17.702 8.704-39.122 17.172-57.794 12.098-26.687 34.174-44.413 64.625-45.029 30.45-.616 52.771 17.612 67.905 42.463 7.86 25.771 6.678 38.428-8.187 66.15-8.01 14.94-43.066 34.148-49.093 58.931-11.17 45.971 40.861 89.546 28.317 136.067-6.82 25.284-33.928 16.419-36.283 48.087-2.114 28.391 35.821 37.6.514 78.428-26.382 30.507-43.908 8.342-76.118 3.512-26.952-4.041-48.035 13.664-75.997-2.422-51.028-29.362-15.197-65.649-23.241-110.179-10.369-57.395 29.307-52.36 38.957-87.232z"></path>
  <path fill="#CCC" d="M870.265 1237.576c3.982 2.149 7.518 2.497 11.668 2.62 14.783.442 25.451-6.72 23.217-24.042-6.871-53.227-6.244-107.202 1.091-161.625 1.633-12.109 5.521-28.915 10.339-41.979-31.986 26.012-39.668 44.6-45.275 94.87-2.344 21.018.279 99.4-1.04 130.156z"></path>
  <path fill="#251F5D" d="M780.217 1791.41c1.16 9.081 1.936 19.833 2.16 28.611.228 8.779-.062 14.073 2.278 22.64 2.338 8.567 5.562 18.93 7.664 27.962 3.429-.449 6.919-.951 10.271-1.486-.409-5.561-3.02-12.274-3.309-17.524-.286-5.25 5.004-7.114 8.909-3.696 3.191 2.801 8.206 6.49 11.269 10.375 3.063 3.885 10.377 7.316 14.579 7.329 12.827.036 51.228.515 52.107-14.974.883-15.49-33.673-10.002-43.307-20.661-9.632-10.661-20.178-27.357-27.691-40.717-11.471 5.675-22.795 4.709-34.93 2.141zM534.979 1587.999c-8.157-2.654-18.432-6.376-26.1-8.804-8.683-2.748-12.845-2.637-21.206-1.045s-16.737 3.863-24.975 6.251c.354 3.539.646 7.125 1.047 10.581 4.847-.731 10.846-3.345 15.541-3.208 4.696.138 6.248 4.934 3.028 8.601-2.633 3.001-5.892 8.238-9.408 11.49-3.516 3.252-6.846 11.655-6.974 15.519-.387 11.781-2.878 52.979 11.886 53.256 14.768.276 10.116-36.541 19.8-45.946 9.684-9.404 28.61-13.058 42.403-14.643-5.577-10.642-7.168-20.201-5.042-32.052z"></path>
</svg>
