<svg xmlns="http://www.w3.org/2000/svg" enable-background="new 0 0 2000 2000" viewBox="0 0 2000 2000" id="smiling-female-doctor-sitting-at-desk">
  <path fill="#d7ecf4" d="M1635.986,1570.206H324.551c0,0-119.468-513.17-24.437-595.983
			c95.032-82.813,275.591-1.358,256.585-118.11c-19.006-116.753-290.525-306.816-46.158-408.636s1043.989-66.522,1170.245,185.99
			s-108.607,752.107-69.237,781.974S1663.138,1481.962,1635.986,1570.206z"></path>
  <path fill="#d7ecf4" d="M474.167 390.55c-8.349 2.843-16.551 6.7-25.157 8.613-8.999 2.001-17.476 4.357-25.948 8.005-16.392 7.06-31.389 16.226-45.535 27.094-28.264 21.714-50.697 49.432-63.582 82.829-27.786 72.015 2.477 148.55 43.287 208.798 11.152 16.463 23.092 32.38 35.191 48.153 6.055 7.894 12.117 15.782 18.085 23.742 5.095 6.794 11.066 13.705 14.813 21.425-.243-.336.291 1.289.731 2.599.002.337.039.908.08 1.505-.112.43-.258 1.129-.402 1.792-.277.61-.68 1.509-.969 1.985-.306.503-1.012 1.361-1.439 1.873-1.044 1.071-2.109 2.115-3.158 3.189-.312.32-.534.563-.719.773-.258.122-.559.274-.967.497-1.171.639-2.319 1.314-3.478 1.972-.044-.1-3.87 1.608-4.407 1.771-2.291.698-4.62 1.266-6.966 1.748.009-.002-4.986.746-4.703.771-1.587.164-3.177.297-4.767.414-9.292.687-18.619.753-27.905 1.543-38.775 3.299-77.835 14.547-111.053 35.196-16.529 10.275-30.949 23.094-41.922 39.229-10.425 15.329-16.778 33.651-21.018 51.581-10.397 43.96-14.572 90.208-14.896 135.312-.331 46.182 4.73 92.377 14.013 137.599 2.199 10.711 14.857 16.892 24.893 14.134 11.306-3.107 16.113-14.106 14.134-24.893-6.84-37.281-10.055-75.223-10.301-113.799-.248-38.661 2.871-76.994 9.454-113.613 1.529-8.508 3.193-17.001 5.315-25.384.942-3.721 1.969-7.422 3.121-11.084.688-2.189 1.416-4.365 2.196-6.523.506-1.402 1.034-2.795 1.583-4.18.018-.041.032-.071.051-.115 1.692-3.806 3.598-7.522 5.72-11.106 1.163-1.964 2.442-3.834 3.678-5.749.126-.196 1.049-1.442 1.286-1.789 2.545-3.154 5.397-6.099 8.338-8.872 1.07-1.008 2.164-1.993 3.273-2.958.975-.846 1.97-1.669 2.973-2.482.297-.219.706-.521 1.229-.91 6.714-4.655 13.617-8.895 20.897-12.621 8.436-4.318 12.924-6.259 21.135-9.238 8.418-3.054 17.017-5.617 25.729-7.687 4.358-1.035 8.746-1.943 13.156-2.728 2.006-.357 4.015-.684 6.028-.995 2.801-.414 3.224-.473 1.269-.176 1.616-.193 3.234-.369 4.854-.528 18.889-1.842 38.058-.687 56.694-4.915 18.804-4.266 37.185-15.766 46.492-33.095 10.051-18.714 8.211-39.702-3.49-57.223-10.817-16.197-24.078-31.088-36.313-46.223-42.626-52.73-91.062-113.336-87.621-185.311 1.648-34.469 21.046-67.478 44.611-91.714 13.157-13.531 28.114-24.075 43.836-34.363 8.407-5.501 16.909-10.719 25.248-16.316 8.63-5.791 17.665-9.112 27.483-12.456C487.813 402.415 483.741 387.289 474.167 390.55zM1774.746 622.475c-14.048-26.024-31.623-50.63-53.088-71.062-21.915-20.86-46.805-37.364-73.927-50.627-13.239-6.474-24.91 12.951-11.659 19.946 44.075 23.266 78.382 63.52 103.397 105.845 25.543 43.221 41.969 94.15 46.546 143.238 5.932 63.629-3.074 128-18.083 189.807-15.467 63.693-36.611 125.5-58.372 187.264-11.99 34.029-23.985 68.066-34.833 102.48-5.413 17.172-10.541 34.434-15.232 51.818-5.164 19.135-10.495 38.35-12.29 58.129-.89 9.799 8.304 18.608 17.381 19.688 10.129 1.205 18.81-4.655 21.994-14.359 5.336-16.26 8.361-33.261 12.679-49.829 4.108-15.761 8.58-31.426 13.302-47.012 9.711-32.049 20.485-63.761 31.393-95.418 21.575-62.612 43.737-125.162 59.252-189.623C1831.729 864.258 1834.029 732.294 1774.746 622.475zM221.381 1287.184c-10.574 0-19.568 8.994-19.568 19.568 0 10.613 8.955 19.568 19.568 19.568 10.575 0 19.568-8.994 19.568-19.568C240.949 1296.139 231.994 1287.184 221.381 1287.184z"></path>
  <path fill="#fff" d="M1160.828,1020.38c0,0,90.959,31.225,122.183,36.655c31.225,5.43,80.098,36.655,92.316,57.019
			c12.218,20.364,23.079,42.085,35.298,50.231c12.218,8.146,58.376,97.747,61.092,146.62c2.715,48.873,4.073,84.171,10.861,96.389
			c6.788,12.218,21.207,20.707,30.289,60.584c9.082,39.878,5.753,74.958,4.023,85.927c-1.73,10.969-134.774,43.551-134.774,43.551
			l-266.088,12.218l-302.743,8.146L746.762,1596c0,0,0-48.873,0-62.449s-8.146-76.025-8.146-76.025s-13.576,19.007-24.437,23.079
			c-10.861,4.073-21.721,10.861-21.721,17.649c0,6.788-126.256,62.449-126.256,62.449l-112.626-130.758
			c0,0-5.484-25.365,12.164-37.583c17.649-12.218,48.194-8.824,52.267-21.043c4.073-12.218,0-14.934,9.503-25.794
			c9.503-10.861,19.006-23.079,35.298-48.873c16.291-25.794,92.316-134.402,107.25-154.766
			c14.934-20.364,52.946-59.734,81.456-74.668s94.748-16.389,136.296-31.274S1160.828,1020.38,1160.828,1020.38z"></path>
  <path fill="#1a1a1a" d="M1226.829,1577.957c1.585-1.621,3.913-2.705,5.904-3.885c5.517-3.268,18.298-11.241,24.416-5.499
				c7.472,7.014,7.46,24.303-5.16,30.837c-6.434,3.33-13.596-1.047-18.506-5.135c-3.617-3.012-8.793-6.966-8.509-12.242
				C1225.066,1580.322,1225.786,1579.023,1226.829,1577.957z"></path>
  <path fill="#3d57a4" d="M1175.249,1184.603c-4.862-30.041-14.66-58.999-22.154-78.287
				c2.25-9.392,3.914-18.839,5.045-28.361c4.557,9.83,25.129,56.105,32.851,106.176c56.812,6.974,62.497,114.82,62.716,119.489
				c0.258,5.486-3.977,10.143-9.464,10.404c-5.501,0.264-10.147-3.977-10.411-9.462c-0.013-0.261-1.334-26.322-8.677-52.149
				c-6.139-21.587-17.795-47.56-38.401-48.705c-8.318-0.459-14.861,1.608-20.004,6.321c-15.762,14.442-16.95,51.273-17.66,73.278
				c-0.153,4.767-0.285,8.885-0.526,12.492c-0.363,5.482-5.102,9.632-10.582,9.268c-0.34-0.022-0.671-0.06-0.997-0.115
				c-4.979-0.835-8.613-5.323-8.273-10.469c0.215-3.269,0.343-7.231,0.492-11.818c0.862-26.763,2.167-67.207,24.105-87.307
				C1159.522,1189.667,1166.885,1186.105,1175.249,1184.603z"></path>
  <path fill="#b0c1d3" d="M1141.767,1298.767c0.203,54.834-2.979,109.565,2.004,164.324
				c2.361,25.947,7.353,52.398,21.197,74.89c5.629,9.146,12.588,17.481,20.996,24.162c14.242,1.144,27.345-3.467,35.673-20.238
				c11.226-22.608,12.614-51.667,15.014-76.45c5.059-52.232,2.674-104.212,2.355-156.538c-0.034-5.526,8.223-6.611,8.704-0.902
				c5.333,63.259,4.798,128.74-4.466,191.595c-3.348,22.717-7.133,52.459-27.684,66.739c-3.901,2.71-7.987,4.597-12.186,5.838
				c8.909,3.431,18.177,4.909,28.24,6.579c5.549,0.921,5.032,8.804-0.302,9.635c-16.776,2.61-34.395-4.446-48.593-14.804
				c-12.68-1.514-25.39-6.683-36.449-12.199c-6.348-3.166-1.837-13.021,4.66-10.032c4.624,2.127,9.454,4.188,14.349,5.937
				c-16.026-19.132-24.647-43.19-29.089-67.539c-5.679-31.128-6.033-63.507-6.041-95.065c-0.008-31.99,0.407-64.302,2.992-96.199
				C1133.536,1293.658,1141.748,1293.85,1141.767,1298.767z"></path>
  <path fill="#1a1a1a" d="M1113.063,1552.521c-1.878-7.089,0.404-15.123,5.73-20.165c0.978-0.926,2.074-1.77,3.349-2.207
				c1.581-0.542,3.318-0.415,4.95-0.056c5.201,1.143,9.629,4.487,13.602,8.033c3.459,3.088,6.719,6.401,9.751,9.909
				c1.33,1.539,2.643,3.163,3.285,5.092c0.642,1.929,0.425,4.371-0.967,5.854c-4.962,5.285-12.365,8.179-19.596,7.661
				c-7.231-0.518-14.146-4.438-18.304-10.376C1114.058,1555.116,1113.422,1553.879,1113.063,1552.521z"></path>
  <path fill="#f2f2f2" d="M748.125 1327.87c2.759-43.856-2.333-86.889-12.931-129.447-2.019-8.106-13.796-4.591-12.355 3.406 7.729 42.877 8.812 87.742 4.924 131.093-3.696 41.203-12.858 85.695.951 125.999 4.112 12.002 22.241 7.244 19.146-5.278C737.49 1411.698 745.461 1370.215 748.125 1327.87zM688.789 1445.694c-31.486-44.809-92.909-68.589-147.023-70.982-12.25-.542-16.242 10.2-4.073 10.861 24.285 1.318 58.889 13.26 80.275 24.84 21.874 11.844 39.557 28.159 55.229 47.312C680.275 1466.375 695.273 1454.922 688.789 1445.694z"></path>
  <path fill="#f2f2f2" d="M721.709 1318.075c-10.724-32.527-19.021-65.585-22.26-99.752-1.57-16.568-2.222-33.231-1.937-49.871.143-8.328.505-16.659 1.06-24.969.536-8.016 2.905-17.148 1.073-25.005-.958-4.109-7.431-5.196-9.353-1.222-3.403 7.034-2.966 16.031-3.41 23.734-.503 8.732-.711 17.468-.624 26.214.175 17.513 1.421 34.995 3.683 52.361 4.453 34.179 12 68.337 24.507 100.512C716.166 1324.498 723.253 1322.759 721.709 1318.075zM1391.317 1136.298c-.482-5.884-9.356-7.933-10.885-1.473-1.935 8.174-2.437 16.654-3.87 24.928-1.435 8.29-3.262 16.51-5.42 24.642-4.234 15.953-9.653 31.57-15.889 46.848-12.865 31.516-29.017 61.602-45.067 91.578-3.362 6.279 6.07 11.836 9.57 5.594 16.967-30.255 33.741-60.666 47.123-92.716 6.513-15.599 12.263-31.554 16.577-47.908C1387.713 1171.651 1392.693 1153.104 1391.317 1136.298z" opacity=".5"></path>
  <path fill="#f2f2f2" d="M1026.502,1372.671c2.195-5.371-6.842-9.171-9.402-3.964
			c-14.596,29.691-27.723,60.823-29.378,94.305c-1.729,35.005,6.945,69.295,2.554,104.358c-0.836,6.672,10.287,8.094,11.719,1.586
			c7.323-33.287-2.54-67.326-2.117-100.846C1000.304,1434.412,1013.968,1403.342,1026.502,1372.671z"></path>
  <g>
    <path fill="#5b74ca" d="M891.485,1467.829c10.898,13.529,13.025,33.063,6.925,49.329
				c-5.246,13.99-16.404,25.814-30.362,31.141c-13.959,5.327-30.52,3.805-42.862-4.616c-29.735-20.289-23.699-66.364,5.324-83.942
				C849.814,1448.052,876.88,1449.697,891.485,1467.829z"></path>
    <path fill="#3d57a4" d="M814.086,1474.343c3.201-2.871,4.664,0.416,2.928,4.842c-5.568,14.19-7.851,28.609-0.509,43.866
				c8.111,16.856,29.149,21.548,45.855,16.597c32.556-9.648,43.074-59.911,15.551-80.044c-2.326-1.701-2.62-3.96,0.174-3.331
				c19.31,4.345,25.612,27.132,24.872,44.612c-0.953,22.49-14.281,41.765-35.799,49.053c-20.601,6.977-45.651,1.652-58.076-17.234
				C798.476,1516.586,799.154,1487.739,814.086,1474.343z"></path>
    <path fill="#3d57a4" d="M834.834 1474.118c7.253-3.095 8.095 2.756 1.571 7.12-14.574 9.749.776 29.24 15.742 27.744 16.482-1.647 19.02-21.504 9.343-30.261-3.726-3.372-2.433-8.992 1.644-6 9.005 6.609 14.623 17.245 11.936 28.596-2.858 12.072-13.522 19.951-25.783 19.846-11.938-.102-23.834-5.975-27.476-18.031C818.379 1491.768 823.779 1478.838 834.834 1474.118zM876.642 1142.82c-.245 11.912.052 23.803 1.194 35.732.151 1.578.692 2.794 1.445 3.739-16.061 52.978-40.578 159.527-25.396 280.796.501 4.015-2.216 7.691-6.138 8.432-.157.03-.317.056-.479.075-4.175.523-7.985-2.438-8.507-6.613C818.077 1299.72 869.621 1160.74 876.642 1142.82z"></path>
  </g>
  <g>
    <path fill="#ed4450" d="M707.709,1581.789c0,0,255.289,7.53,259.852,15.622c4.562,8.092-112.191,131.633-117.621,134.348
			c-5.43,2.715-502.309-32.582-506.382-38.013c-4.073-5.43,208.037-116.638,216.699-118.053
			C568.918,1574.278,707.709,1581.789,707.709,1581.789z"></path>
    <path fill="#fff" d="M676.167,1586.497c0,0,271.046,10.11,271.961,13.2c0.915,3.091-103.62,117.128-110.408,117.128
			c-6.788,0-453.436-31.224-456.151-35.297c-2.715-4.073,162.911-97.747,175.129-97.747S676.167,1586.497,676.167,1586.497z"></path>
    <path fill="#b0c1d3" d="M492.214,1701.213c0,0,80.098,5.43,81.456,4.073c1.358-1.358,3.394-6.109,12.897-6.109
			c5.43,0,10.182,6.109,12.897,7.467c2.715,1.358,80.777,8.824,83.492,7.467c2.715-1.358,12.577-12.577,15.612-15.612
			c4.752-4.752,6.109-11.54-0.679-12.897c-4.209-0.842-64.486-6.109-64.486-6.109s-12.228-10.358-25.794-10.861
			c-18.328-0.679-31.904,8.824-31.904,8.824s-57.019-4.073-62.449-2.715c-5.43,1.357-22.4,8.824-25.115,12.897
			C485.426,1691.71,489.498,1701.213,492.214,1701.213z"></path>
    <path fill="#93aabc" d="M682.085,1697.204c-30.65-3.682-61.673-5.243-92.473-7.16c-31.44-1.957-62.919-3.692-94.426-3.882
			c-3.648-0.022-3.418,5.375,0.128,5.599c31.022,1.952,62.082,3.208,93.108,5.106c31.002,1.898,61.932,5.078,92.932,6.856
			C685.03,1703.934,685.8,1697.651,682.085,1697.204z"></path>
    <path fill="#f2f2f2" d="M836.631 1697.397c-35.356-6.062-72.311-7.018-108.105-8.101-4.715-.143-4.7 7.144 0 7.318 17.901.664 35.786 1.666 53.644 3.063 17.835 1.395 35.63 3.901 53.475 5C839.758 1704.931 840.778 1698.108 836.631 1697.397zM853.885 1677.273c-29.904-3.461-60.203-4.709-90.223-6.951-30.07-2.245-60.143-4.453-90.218-6.631-4.604-.333-4.427 6.795.122 7.158 30.073 2.402 60.148 4.774 90.226 7.11 30.007 2.33 60.143 5.692 90.221 6.79C858.945 1684.929 858.511 1677.808 853.885 1677.273zM874.249 1656.909c-29.904-3.461-60.203-4.709-90.223-6.951-6.433-.48-12.866-.959-19.299-1.436-6.02-.446-11.2-1.545-16.752 1.221-.532.265-1.077.563-1.413 1.053-.716 1.043-.16 2.568.85 3.33 2.048 1.543 5.393 1.02 7.793 1.21 3.217.255 6.433.504 9.65.755 6.433.503 12.867 1.004 19.301 1.504 30.007 2.33 60.143 5.692 90.221 6.79C879.309 1664.565 878.875 1657.444 874.249 1656.909zM552.255 1653.961c-33.72-3.107-67.48-5.932-101.246-8.481-4.648-.351-4.406 6.745.123 7.19 33.721 3.315 67.485 6.359 101.257 9.117C557.423 1662.198 557.21 1654.417 552.255 1653.961zM640.626 1659.926c-22.422-1.368-44.801-3.227-67.16-5.386-3.959-.382-4.814 6.528-.828 7.015 22.638 2.768 45.356 4.777 68.121 6.165C645.768 1668.026 645.609 1660.23 640.626 1659.926z"></path>
  </g>
  <path fill="#1a1a1a" d="M612.188,1404.106c-1.37-3.475-2.506-7.195-4.188-10.532c-3.335-6.616-10.221-6.632-14.729-1.106
		c-4.815,5.901-3.015,12.113,1.474,17.513c1.439,1.732,10.381,12.945,13.275,7.298c0.015-0.029,0.025-0.058,0.039-0.088
		c2.461,1.012,5.908,0.45,6.369-2.732C614.999,1410.503,613.622,1407.746,612.188,1404.106z"></path>
  <g>
    <path fill="#fff" d="M1105.942,976.293c0,0,25.019-0.713,41.31,16.936c16.291,17.649,70.595,127.614,80.098,142.547
			c9.503,14.933,25.794,33.94,21.721,38.013c-4.073,4.073-29.867,9.503-58.376,9.503s-47.516,0-47.516,4.073
			c0,4.073,28.509,50.231,25.794,52.946c-2.715,2.715-81.455,62.449-99.104,78.74c-17.649,16.291-48.873,48.874-48.873,48.874
			l4.073-28.509l1.358-12.218c0,0-50.231-55.661-69.237-70.595c-19.006-14.934-38.012-29.867-36.655-38.013
			c1.358-8.146,17.649-43.443,14.933-44.8c-2.715-1.358-61.092,2.715-85.528-8.146c-24.437-10.861-21.721-9.503-21.721-13.576
			c0-4.073,36.655-71.953,52.946-104.535c16.291-32.582,50.231-73.31,109.965-78.74
			C1050.863,963.361,1105.942,976.293,1105.942,976.293z"></path>
    <path fill="#1a1a1a" d="M934.11,1029.884c0,0-5.431-42.085,51.588-51.589c57.019-9.503,147.978-17.649,146.62,51.589
			c-1.304,66.509-92.316,109.965-92.316,109.965L934.11,1029.884z"></path>
    <path fill="#bb5122" d="M1105.167,967.434c0,0-6.788,50.231,27.152,62.449c0,0-1.358,47.516-29.867,131.686
			c-28.51,84.171-65.165,160.196-65.165,160.196s-66.522-152.051-85.528-204.997c-19.006-52.946-17.649-86.886-17.649-86.886
			s20.364-2.715,29.867-24.437c9.503-21.721,2.715-59.734,2.715-59.734L1105.167,967.434z"></path>
    <path fill="#87300a" d="M1105.167,967.434l-134.702-21.13l-1.691,18.602c0.44,7.845,0.437,17.091-0.84,25.763
			c5.094,11.084,26.203,50.649,69.354,54.148c35.241,2.857,59.106-26.497,70.212-44.273
			C1102.932,984.084,1105.167,967.434,1105.167,967.434z"></path>
    <path fill="#402b2b" d="M925.122,909.94c0,0-50.861-22.323-63.816-54.425c-12.955-32.102-10.88-43.264-10.88-43.264
			s-48.223-20.511-33.827-64.026c14.396-43.515,41.45-53.334,41.45-53.334s-33.022-85.323,1.781-128.344
			c34.803-43.021,104.957-21.733,107.962-29.422c3.006-7.69,5.547-46.81,39.63-52.022c34.082-5.213,57.326,13.955,57.326,13.955
			s51.526-48.161,104.025-25.205c52.499,22.956,36.028,77.633,36.028,77.633s37.766,0.421,61.348,26.25
			c23.582,25.829,12.743,50.209,12.743,50.209s19.856,11.939,22.989,29.018c3.133,17.079-10.797,32.636-9.865,36.109
			c0.931,3.472,19.051,33.235,10.371,62.966c-8.68,29.73-30.865,38.804-30.526,45.466c0.338,6.662,16.045,40.925,1.565,67.928
			c-14.48,27.003-43.397,29.876-43.397,29.876s-11.982,39.015-83.534,42.212C1074.942,944.715,925.122,909.94,925.122,909.94z"></path>
    <path fill="#bb5122" d="M924.139,763.49c0,0-15.281-28.07-42.393-9.457c-27.112,18.613-7.678,83.722,4.906,92.368
			c12.584,8.646,22.296,7.298,22.296,7.298s12.674,126.925,101.184,151.261c88.509,24.336,141.521-57.266,159.556-94.912
			c0,0,43.81,1.836,61.063-48.569c17.253-50.405-12.663-59.12-36.835-47.844c0,0-7.836-17.225-6.527-32.75
			c0,0-16.063-40.83-19.61-55.68c-3.547-14.851-34.988-23.849-49.527-64.395c0,0-41.895,4.827-68.372,3.059
			c-26.477-1.768-32.75,6.527-42.637,17.304c-9.887,10.777-31.011,22.619-44.337,26.449c-13.327,3.83-15.701,8.119-17.117,15.74
			C944.372,730.984,929.278,761.292,924.139,763.49z"></path>
    <path fill="#973a0c" d="M916.841 785.786c0 0-6.057 24.103-5.559 38.387 0 0-5.638-12.086-2.521-28.852C910.178 787.701 916.841 785.786 916.841 785.786zM1188.143 836.215c0 0-3.009 24.67-8.607 37.821 0 0 11.411-10.494 12.72-26.018C1192.907 840.293 1188.143 836.215 1188.143 836.215z" opacity=".5"></path>
    <path fill="#973a0c" d="M1030.728,842.804c1.998-3.737,6.924-5.278,10.67-3.227c3.687,2.018,7.374,4.038,11.061,6.057
					c4.069,2.229,5.683,7.541,1.564,10.36c-3.863,2.644-8.191-0.238-12.225-1.026c-2.741-0.536-5.588-0.906-8.023-2.273
					C1030.167,850.671,1028.744,846.516,1030.728,842.804z"></path>
    <path fill="#402b2b" d="M1124.631 735.874c9.995 4.622 7.697 3.08 17.446 8.252 9.893 5.247 19.099 11.723 28.776 17.345 8.73 5.07 1.572 19.122-7.233 14.008-9.672-5.617-18.868-12.137-28.776-17.346-9.766-5.134-7.452-3.628-17.446-8.252C1108.196 745.626 1115.423 731.614 1124.631 735.874zM964.469 725.116c10.546-3.168 7.804-2.799 18.531-5.392 10.885-2.633 22.069-3.89 33.041-6.098 9.896-1.993 13.857 13.271 3.875 15.282-10.965 2.209-22.172 3.427-33.042 6.097-10.714 2.633-7.984 2.226-18.531 5.392C958.635 743.314 954.752 728.033 964.469 725.116z"></path>
    <path fill="#1a1a1a" d="M993.202 766.781c-5.906-4.936-16.404-5.089-21.042 1.719-.021.03-.036.063-.056.094-1.059.611-2.021 1.558-2.772 2.912-3.526 6.359-1.386 14.694 4.543 18.765 6.374 4.377 15.511 3.116 20.66-2.643C1000.033 781.478 999.597 772.126 993.202 766.781zM1148.724 794.979c-6.084-5.086-16.901-5.244-21.679 1.77-.021.031-.037.065-.058.097-1.091.63-2.082 1.605-2.855 3-3.634 6.552-1.428 15.139 4.68 19.333 6.567 4.51 15.98 3.21 21.285-2.723C1155.762 810.12 1155.313 800.486 1148.724 794.979z"></path>
    <path fill="#efb44b" d="M1192.683 895.452c-1.391-5.096-8.19-2.051-6.87 3.082 3.893 15.152 1.555 32.339-1.682 47.917-1.521 7.319-3.302 14.653-5.958 21.607-1.117 2.923-2.35 5.828-3.783 8.577-.609 1.169-1.521 3.342-2.867 1.868-.606-.663-.741-1.732-.835-2.724-1.891-19.926.867-46.392 5.991-66.315-1.625.266-3.259.457-4.907.533-7.74 20.221-11.256 49.838-10.547 71.13.109 3.26.316 6.58 1.4 9.509 1.085 2.93 3.205 5.446 5.929 5.918 2.669.463 6.274-.527 8.196-2.962 2.17-2.75 3.906-5.908 5.634-9.031 4.792-8.661 7.771-18.45 10.05-28.233C1197.314 935.38 1198.161 915.508 1192.683 895.452zM903.351 853.217c-1.451-.139-2.893-.345-4.33-.659-2.298 20.639-8.628 51.367-17.634 69.447-.444.892-.954 1.84-1.758 2.242-1.786.892-1.856-1.464-2.005-2.773-.349-3.08-.456-6.234-.448-9.364.02-7.444.993-14.928 2.204-22.305 2.577-15.701 6.572-32.58 15.649-45.321 3.076-4.316-2.174-9.601-5.304-5.345-12.319 16.749-18.67 35.597-21.643 56.9-1.388 9.948-2.126 20.154-.766 29.959.49 3.536.975 7.107 2.012 10.453.919 2.963 3.926 5.182 6.584 5.709 2.712.538 5.594-1.048 7.659-3.392 2.065-2.344 3.451-5.368 4.724-8.371 8.399-19.817 15.164-53.98 15.054-75.702C903.348 854.267 903.357 853.756 903.351 853.217z"></path>
    <path fill="#fff" d="M994.422,891.91l96.385,8.358c0,0-25.602,28.608-53.406,29.28
			C1009.597,930.22,994.29,893.44,994.422,891.91z"></path>
    <path fill="#fc9081" d="M951.759,1116.769c19.006,52.946,85.528,204.997,85.528,204.997s36.655-76.025,65.165-160.196
			c7.952-23.477,13.787-44.094,18.074-61.633c-26.391,40.469-65.206,84.45-81.202,85.391
			c-19.059,1.121-79.777-83.856-100.352-113.494C941.593,1084.487,945.604,1099.623,951.759,1116.769z"></path>
    <path fill="#f2f2f2" d="M1021.813 1312.822c-14.713-24.628-33.49-47.271-54.275-66.997-10.197-9.677-21.041-18.651-32.345-27.004-1.164-.86-2.654-1.668-3.828-2.643.314-.683.628-1.366.942-2.05 1.603-3.488 3.207-6.976 4.81-10.465 3.563-7.751 7.125-15.503 10.688-23.254 2.832-6.163-.422-14.305-8.109-14.132-19.513.44-39.083-.623-58.366-3.714-9.64-1.545-19.181-3.57-28.664-5.883-3.674-.896-8.663-3.264-12.557-3.536.521-1.81.814-3.954 1.258-5.594 9.768-36.078 27.707-70.838 46.586-102.733 4.862-8.215-5.327-12.935-10.53-5.115-12.191 18.323-24.205 36.591-34.285 56.203-4.775 9.29-9.115 18.811-12.915 28.543-3.656 9.36-7.96 19.824-9.1 29.878-1.376 12.134 8.301 15.199 17.98 18.034 10.591 3.102 21.347 5.554 32.213 7.472 17.777 3.138 35.749 4.875 53.775 5.229-1.576 3.429-3.152 6.858-4.728 10.286-3.083 6.708-8.979 15.231-8.405 22.893.621 8.286 7.73 12.349 13.755 16.801 6.362 4.701 12.5 9.695 18.462 14.893 24.149 21.055 52.686 42.266 70.034 69.118C1020.681 1329.069 1028.008 1323.193 1021.813 1312.822zM1257.388 1174.864c-7.962-26.503-22.272-51.468-34.143-76.374-11.333-23.777-23.282-48.878-39.338-69.965-3.12-4.098-6.042-6.876-10.871-4.128-4.03 2.294-6.487 8.892-3.396 12.952 15.548 20.42 25.152 45.299 36.126 68.323 10.057 21.1 22.064 42.272 30.1 64.412-32.161 5.684-64.702 8.373-97.394 8.127-6.48-.049-12.565 8.286-8.11 14.133 10.337 13.566 18.681 28.139 25.824 43.501-49.392 32.464-95.619 71.243-129.182 120.364-3.536 5.174 4.479 11.343 8.687 6.703 40.317-44.452 83.931-86.12 136.588-115.778 3.275-1.844 5.547-6.603 4.195-10.308-5.138-14.079-11.973-27.425-20.092-39.973 31.691-.751 63.265-4.23 94.394-10.344C1255.718 1185.538 1258.774 1179.481 1257.388 1174.864z"></path>
  </g>
  <g>
    <path fill="#fff" d="M427.408,1627.203c0,0-40.408-43.421-40.408-63.785c0-20.364,28.51-65.164,33.94-92.316
			c5.43-27.152,33.94-46.158,52.946-50.231c19.006-4.073,133.044-1.358,153.408,16.291c20.364,17.649,49.887,77.014,49.887,77.014
			l-44.456,70.964L427.408,1627.203z"></path>
    <path fill="#f2f2f2" d="M646.331,1490.307c-12.74-15.683-33.385-25.689-52.379-31.401
			c-23.447-7.051-48.284-4.272-72.549-2.739c-7.61,0.481-7.671,8.875,0.039,8.501c22.48-1.092,45.249-0.219,66.978,6.144
			c19.089,5.59,34.151,15.47,48.874,28.532C643.545,1504.89,651.466,1496.628,646.331,1490.307z"></path>
    <path fill="#1a1a1a" d="M589.281,1563.417c0,0-17.649,9.503-40.728,12.218c-23.079,2.715-42.086-5.43-80.098,8.146
			c-38.013,13.576-48.874,38.012-39.37,46.158c9.503,8.145,57.019-8.146,95.031-14.934c38.013-6.788,92.316,0,92.316,0L628.652,1596
			L589.281,1563.417z"></path>
    <path fill="#973a0c" d="M548.554,1575.636c-11.943,1.405-22.801-0.094-35.761,0.009l-0.06,0.05
			c0,0,50.075,10.123,63.651,16.911c11.591,5.796,21.197,17.522,23.76,20.829c0.306,0.024,0.606,0.048,0.905,0.072l6.56-23.615
			l-1.673-12.69l-16.655-13.784C589.281,1563.417,571.633,1572.921,548.554,1575.636z"></path>
    <path fill="#bb5122" d="M704.754,1526.356c-0.871-4.718-2.297-8.95-2.887-13.762c-0.628-5.125-1.33-10.349-3.588-15.053
				c-0.683-1.423-1.551-2.833-2.891-3.666c-1.745-1.084-3.948-0.998-5.997-0.854c-4.905,0.344-9.814,0.805-14.736,0.748
				c-4.56-0.053-8.94-0.998-13.42-1.475c-10.064-1.073-19.946-3.514-30.049-4.452c-4.799-0.446-9.766-0.64-14.307,0.973
				c-4.327,1.537-8.044,4.726-10.221,8.769c-3.606,6.695-3.222,15.623-8.839,20.749l1.594,3.271
				c-2.683,6.189-2.256,13.403-0.023,19.769c2.233,6.366,6.139,12.006,10.338,17.286c3.603,4.532,7.486,8.892,12.071,12.427
				c8.41,6.485,18.842,9.91,29.339,11.53c9.608,1.482,19.596,1.517,28.878-1.373c9.282-2.89,17.814-8.935,22.411-17.5
				C708.45,1552.519,707.066,1538.881,704.754,1526.356z"></path>
    <path fill="#4d4d4d" d="M695.174,1545.769c0,0-70.595-133.044-77.383-137.117c-6.788-4.073-19.006,2.715-19.006,10.861
				s80.098,139.832,80.098,139.832s35.297,66.522,40.728,70.595c5.43,4.073,17.649,16.291,21.721,13.576
				c4.073-2.715,1.357-23.079-1.358-27.152C737.259,1612.291,695.174,1545.769,695.174,1545.769z"></path>
    <path fill="#bb5122" d="M677.525,1507.756c0,1.358,9.503,23.079,10.861,31.225c1.358,8.145-1.357,16.291,2.715,27.152
				c4.073,10.861,12.218,24.437,25.794,20.364c13.576-4.073,9.503-21.722,6.788-42.085c-2.715-20.364-2.715-33.94-9.503-43.443
				c-6.788-9.503-25.794-9.503-33.94-5.43C672.095,1499.611,677.525,1507.756,677.525,1507.756z"></path>
    <path fill="#bb5122" d="M639.513,1502.326c0,0,21.721,25.794,39.37,43.443s28.51,33.94,28.51,43.443
				s-13.576,13.576-12.218,13.576s5.431,8.145,2.715,14.933c-2.715,6.788-12.218,9.503-12.218,9.503s-2.715,14.934-14.933,21.722
				c-12.218,6.788-52.946,0-63.807-9.503c-10.861-9.503-9.503-17.649-10.861-25.794c-1.358-8.146-1.358-13.576-6.788-17.649
				c-5.43-4.073-9.503-14.934-8.145-21.721c1.358-6.788,5.43-12.218,2.715-19.006c-2.715-6.788-8.146-12.218,1.358-24.437
				c9.503-12.218,16.291-13.576,17.649-20.364C604.215,1503.683,631.367,1495.538,639.513,1502.326z"></path>
    <path fill="#973a0c" d="M708.95,1585.044c-1.074-4.361-2.947-8.488-5.234-12.341c-1.975-3.327-5.196-6.443-6.509-10.002
				c-3.171-8.598-3.445-18.379-4.697-27.376c-1.295-9.305-3.414-18.812-8.886-26.448c-0.395-0.551-0.828-1.109-1.437-1.406
				c-0.609-0.297-1.441-0.245-1.853,0.292c-0.279,0.363-0.31,0.854-0.315,1.311c-0.042,3.668,0.867,7.273,1.825,10.814
				c2.675,9.886,5.814,19.952,4.903,30.153c-0.022,0.249-0.076,0.443-0.268,0.61c-1.733-0.851-3.573-3.636-5.078-5.085
				c-13.648-13.144-26.759-26.846-39.288-41.06c-1.268-1.439-2.945-3.027-4.81-2.582c-0.08,1.905,0.912,3.676,1.929,5.289
				c5.321,8.433,12.167,15.779,18.969,23.07c11.81,12.657,24.875,24.772,34.443,39.261c3.684,5.58,7.309,11.245,7.201,18.192
				c-0.087,5.625-3.276,7.442-7.755,9.755c-2.644,1.365-3.092,4.755-1.886,7.192c2.649,5.351,4.77,12.066-2.482,14.38
				c-5.02,1.602-10.884,0.249-16.01-0.034c-3.031-0.167-5.039,2.567-5.281,5.281c-1.415,15.857-25.888-0.885-31.971-4.211
				c-10.533-5.759-20.867-12.849-32.081-17.187c-3.035-1.174-5.57,3.384-3.178,5.46c6.826,5.927,14.942,10.375,22.637,15.07
				c8.478,5.172,17.023,10.673,25.971,15c11.338,5.482,24.008,2.661,28.008-8.591c8.177,0.537,16.81,0.854,23.057-5.372
				c5.702-5.682,5.09-13.16,2.606-20.004c2.518-1.377,4.697-2.967,6.276-5.93C709.959,1594.414,710.048,1589.505,708.95,1585.044z"></path>
    <path fill="#1a1a1a" d="M671.776 1486.76c-13.14-14.361-19.722-30.93-27.415-48.535-3.651-8.357-15.569-35.96-28.488-23.261-3.394 3.336 1.206 9.8 5.244 6.797 4.718-3.509 19.242 34.568 21.111 38.801 5.341 12.096 11.905 24.901 22.258 33.488C669.539 1498.24 676.325 1491.732 671.776 1486.76zM746.881 1647.89c-.697-1.249-1.562-2.417-2.332-3.623-.777-1.217-1.431-2.513-2.255-3.698-.698-1.003-1.896-1.524-3.073-1.007-1.007.443-1.902 1.756-1.425 2.903 1.208 2.904 3.258 5.999 5.637 8.086C745.269 1652.161 748.139 1650.144 746.881 1647.89z"></path>
    <path fill="#f2f2f2" d="M424.085 1617.209c-11.477-13.364-21.219-27.649-30.361-42.689-2.19-3.604-7.051-.454-5.495 3.212 7.107 16.747 17.55 32.116 29.706 45.627C421.706 1627.551 427.7 1621.42 424.085 1617.209zM556.699 1420.87c-16.722-.413-35.588-10.621-52.03-12.705-16.846-2.137-31.73 4.456-46.449 11.824-5.477 2.741-.68 10.608 4.754 8.133 15.59-7.104 30.186-12.18 47.389-8.216 14.156 3.262 27.827 9.337 42.607 8.882C559.76 1428.578 563.512 1421.039 556.699 1420.87z"></path>
  </g>
  <g>
    <path fill="#fff" d="M1094.306,1615.006c0,0,24.437,17.649,39.37,17.649c14.934,0,145.262-9.503,179.202-10.861
			c33.94-1.358,80.098,1.358,96.389,0c16.291-1.358,93.674-29.867,104.535-59.734c10.861-29.867-2.715-62.449-1.358-73.31
			c1.358-10.861,1.358-28.509-5.43-39.37c-6.788-10.861-47.516-24.437-47.516-24.437s-175.13,47.516-180.56,48.874
			c-5.43,1.358-28.51-13.576-36.655-12.218c-8.146,1.358-169.699,35.297-171.057,40.728
			C1069.869,1507.756,1094.306,1615.006,1094.306,1615.006z"></path>
    <path fill="#1a1a1a" d="M1071.227,1548.484c0-1.358-9.503-42.085,0-46.158c9.503-4.073,44.8,35.298,44.8,35.298
				l19.007,76.025c0,0,1.358,9.503-5.431,10.861c-6.788,1.358-21.721-4.073-29.867-9.503
				C1091.591,1609.576,1071.227,1548.484,1071.227,1548.484z"></path>
    <path fill="#bb5122" d="M1135.034,1613.649c0,0-33.94,2.715-54.304,8.145s-55.661,8.146-76.025,6.788
				c-20.364-1.358-40.728,2.715-54.304,2.715c-13.576,0-27.152-2.715-28.509-13.576c0,0-32.582,8.145-44.801,6.788
				c-12.218-1.358-13.576-10.861-13.576-10.861s-20.364,9.503-27.152,0c-6.788-9.503,5.43-16.291,5.43-16.291
				s-2.715-9.503,17.649-17.649c20.364-8.146,84.171-33.94,93.674-39.37c9.503-5.431,40.728-10.861,65.164-5.431
				c24.437,5.431,97.747,2.715,97.747,2.715s10.861,9.503,16.291,21.721C1137.749,1571.563,1135.034,1613.649,1135.034,1613.649z"></path>
    <path fill="#973a0c" d="M1016.926 1583.619c-8.82 1.093-17.288 4.384-25.841 6.717-9.667 2.637-19.392 5.076-29.148 7.359-9.272 2.169-18.981 3.404-28.119 6.032-6.536 1.88-13.295 6.138-13.324 13.601-.017 4.354 5.713 5.635 7.945 2.152 4.858-7.58 13.577-7.576 21.791-9.319 8.232-1.746 16.432-3.653 24.586-5.734 14.194-3.624 31.379-6.315 43.877-14.285C1021.342 1588.452 1020.618 1583.162 1016.926 1583.619zM982.074 1564.379c-22.815 5.554-45.203 13.247-67.599 20.274-11.447 3.591-22.877 7.238-34.254 11.046-6.76 2.263-18.729 4.103-20.032 12.743-.879 5.824 6.504 7.824 8.754 2.414 1.377-3.309 10.752-4.845 13.833-5.885 5.053-1.705 10.116-3.377 15.187-5.028 9.719-3.165 19.465-6.245 29.217-9.307 19.045-5.98 38.354-11.464 57.003-18.607C988.871 1570.234 987.134 1563.148 982.074 1564.379z"></path>
    <path fill="#f2f2f2" d="M1484.425 1482.294c-1.724-5.884-4.686-9.997-9.535-13.648-4.19-3.154-8.47.572-9.022 4.786-10.906-4.425-20.901-10.92-31.586-16.139-15.785-7.709-32.653-12.382-50.085-14.371-24.158-2.756-50.236-.351-73.992 7.481-3.63-.53-6.917-2.507-9.08-5.864-3.462-5.375-2.193-10.796-1.298-16.681.817-5.376.736-10.362-1.728-15.319-2.781-5.593-5.02-9.31-4.234-15.844.137-1.139-.029-2.114-.377-2.958 3.64-14.896 5.178-29.925 6.014-45.584 2.273-42.563 5.346-85.011 13.8-126.865 1.412-6.992-8.98-10.015-10.79-2.974-10.896 42.38-14.09 86.288-16.446 129.839-.601 11.108-1.113 22.296-3.225 33.242-1.957 10.14-5.368 19.853-8.862 29.546-5.628 15.615-10.695 31.296-10.436 47.662-9.952-4.458-20.584-5.844-31.451-5.099-23.81 1.633-47.829 7.783-71.083 12.891-27.711 6.087-55.2 13.293-82.116 22.274-6.414 2.141-3.844 11.775 2.805 10.177 45.679-10.984 91.336-22.615 137.721-30.314 10.926-1.814 22.56-3.08 33.329.223 9.398 2.882 17.152 9.526 26.632 12.292 10.173 2.968 19.731.04 29.206-3.782 10.394-4.193 20.977-7.958 31.991-10.166 22.913-4.593 48.296-.908 64.157 17.628 5.666 6.622 15.197-2.981 9.562-9.562-7.836-9.15-18.099-15.479-29.319-19.237.381.054.76.101 1.142.159 16.678 2.533 32.633 7.774 47.468 15.798 13.663 7.391 26.981 15.981 42.535 18.711C1480.974 1491.449 1485.984 1487.614 1484.425 1482.294zM1501.584 1579.709c-31.744 37.732-83.343 37.349-129.739 38.487-26.466.649-52.958.64-79.43.929-26.144.285-52.423-.063-78.485 2.303-14.064 1.276-27.821 3.751-41.627 6.652-14.227 2.99-28.876 5.618-43.229 1.976-5.026-1.275-6.923 6.003-2.12 7.691 24.662 8.667 50.067-.981 74.798-4.259 27.362-3.626 55.135-3.206 82.677-3.477 27.83-.275 55.672-.362 83.498-.912 26.082-.516 52.64-2.077 77.769-9.615 24.094-7.227 42.262-14.925 58.601-34.345C1508.754 1579.844 1506.073 1574.372 1501.584 1579.709z"></path>
  </g>
</svg>
