<svg xmlns="http://www.w3.org/2000/svg" viewBox="0 0 565.43 567.31" id="patient-taking-affordable-healthcare">
  <path fill="#fdebc6" d="M21,180C-38.19,327.5,32.07,495.45,177.91,555.16S312.68,419.1,454,348.9c210.57-104.62,84-268.06-61.8-327.77S80.15,32.57,21,180Z"></path>
  <path fill="#ff558b" d="M256.37,48.64a53.29,53.29,0,0,0-46.23,27,53.36,53.36,0,0,0-99.75,26.53c0,29.56,43.18,68.73,99.75,131.38,53.53-57.18,99.75-101.82,99.75-131.38A53.53,53.53,0,0,0,256.37,48.64Z"></path>
  <path fill="#303030" d="M210.14,234.52h0a1,1,0,0,1-.71-.32c-11.18-12.39-21.64-23.64-31.75-34.52-41.1-44.21-68.25-73.42-68.25-97.51A54.32,54.32,0,0,1,210.14,73.74a54.32,54.32,0,0,1,100.72,28.43c0,26.26-35.48,63.76-80.4,111.23-6.36,6.72-12.94,13.68-19.61,20.81A1,1,0,0,1,210.14,234.52ZM163.92,49.61a52.62,52.62,0,0,0-52.56,52.56c0,23.33,28.41,53.89,67.73,96.19C189,209,199.23,220,210.15,232.11c6.44-6.86,12.77-13.56,18.91-20,44.62-47.16,79.86-84.42,79.86-109.9a52.39,52.39,0,0,0-97.94-26,1,1,0,0,1-1.68,0A52.64,52.64,0,0,0,163.92,49.61Z"></path>
  <path fill="#ff558b" d="M377,14.4a26.52,26.52,0,0,0-23,13.43A26.54,26.54,0,0,0,304.37,41c0,14.71,21.48,34.19,49.62,65.36C380.62,78,403.62,55.73,403.62,41A26.63,26.63,0,0,0,377,14.4Z"></path>
  <path fill="#303030" d="M354,107.25h0a.85.85,0,0,1-.64-.28c-5.56-6.16-10.76-11.76-15.79-17.17C317.05,67.74,303.5,53.17,303.5,41A27.41,27.41,0,0,1,354,26.17,27.41,27.41,0,0,1,404.49,41c0,13.21-17.7,31.92-40.11,55.6q-4.75,5-9.76,10.35A.87.87,0,0,1,354,107.25Zm-23-92A25.8,25.8,0,0,0,305.23,41c0,11.46,14.09,26.62,33.59,47.6,4.85,5.21,9.85,10.59,15.19,16.49q4.65-5,9.12-9.68C385.27,72,402.76,53.56,402.76,41a25.69,25.69,0,0,0-48-12.77.9.9,0,0,1-1.49,0A25.81,25.81,0,0,0,331,15.26Z"></path>
  <rect width="200.29" height="456.28" x="352.28" y="110.05" fill="#dcc3f5" transform="rotate(180 452.425 338.19)"></rect>
  <path fill="#303030" d="M552.57,567.31H352.28a1,1,0,0,1-1-1V110.05a1,1,0,0,1,1-1H552.57a1,1,0,0,1,1,1V566.33A1,1,0,0,1,552.57,567.31Zm-199.31-2H551.59V111H353.26Z"></path>
  <rect width="218.78" height="24.65" x="343.03" y="85.4" fill="#f3e9ff" transform="rotate(180 452.425 97.72)"></rect>
  <path fill="#303030" d="M561.82,111H343a1,1,0,0,1-1-1V85.4a1,1,0,0,1,1-1H561.82a1,1,0,0,1,1,1v24.65A1,1,0,0,1,561.82,111Zm-217.8-2H560.83V86.38H344Z"></path>
  <rect width="218.78" height="24.65" x="343.03" y="295.71" fill="#f3e9ff" transform="rotate(180 452.425 308.03)"></rect>
  <path fill="#303030" d="M561.82,321.34H343a1,1,0,0,1-1-1V295.71a1,1,0,0,1,1-1H561.82a1,1,0,0,1,1,1v24.65A1,1,0,0,1,561.82,321.34Zm-217.8-2H560.83V296.69H344Z"></path>
  <rect width="156.4" height="181.94" x="373.27" y="384.1" fill="#9395fb" transform="rotate(180 451.475 475.065)"></rect>
  <path fill="#303030" d="M529.67,567H373.27a1,1,0,0,1-1-1V384.1a1,1,0,0,1,1-1h156.4a1,1,0,0,1,1,1V566A1,1,0,0,1,529.67,567Zm-155.41-2H528.69v-180H374.26Z"></path>
  <path fill="#303030" d="M449.07,566.56a1,1,0,0,1-1-1V389.15a1,1,0,0,1,2,0V565.57A1,1,0,0,1,449.07,566.56Z"></path>
  <circle cx="467.85" cy="477.36" r="8.95" fill="#ff558b"></circle>
  <path fill="#303030" d="M467.85,487.3a9.94,9.94,0,1,1,9.94-9.94A9.94,9.94,0,0,1,467.85,487.3Zm0-17.9a8,8,0,1,0,8,8A8,8,0,0,0,467.85,469.4Z"></path>
  <circle cx="430.28" cy="477.36" r="8.95" fill="#ff558b"></circle>
  <path fill="#303030" d="M430.28,487.3a9.94,9.94,0,1,1,9.93-9.94A10,10,0,0,1,430.28,487.3Zm0-17.9a8,8,0,1,0,8,8A8,8,0,0,0,430.28,469.4Z"></path>
  <polygon fill="#fff" points="472.47 475.81 469.41 475.81 469.41 472.74 466.3 472.74 466.3 475.81 463.23 475.81 463.23 478.92 466.3 478.92 466.3 481.98 469.41 481.98 469.41 478.92 472.47 478.92 472.47 475.81"></polygon>
  <path fill="#303030" d="M469.41,483H466.3a1,1,0,0,1-1-1V479.9h-2.08a1,1,0,0,1-1-1v-3.11a1,1,0,0,1,1-1h2.08v-2.08a1,1,0,0,1,1-1h3.11a1,1,0,0,1,1,1v2.08h2.08a1,1,0,0,1,1,1v3.11a1,1,0,0,1-1,1h-2.08V482A1,1,0,0,1,469.41,483Zm-2.13-2h1.14v-2.08a1,1,0,0,1,1-1h2.08v-1.14h-2.08a1,1,0,0,1-1-1v-2.08h-1.14v2.08a1,1,0,0,1-1,1h-2.08v1.14h2.08a1,1,0,0,1,1,1Z"></path>
  <polygon fill="#fff" points="431.84 472.74 428.72 472.74 428.72 475.81 425.66 475.81 425.66 478.92 428.72 478.92 428.72 481.98 431.84 481.98 431.84 478.92 434.9 478.92 434.9 475.81 431.84 475.81 431.84 472.74"></polygon>
  <path fill="#303030" d="M431.84,483h-3.12a1,1,0,0,1-1-1V479.9h-2.08a1,1,0,0,1-1-1v-3.11a1,1,0,0,1,1-1h2.08v-2.08a1,1,0,0,1,1-1h3.12a1,1,0,0,1,1,1v2.08h2.08a1,1,0,0,1,1,1v3.11a1,1,0,0,1-1,1h-2.08V482A1,1,0,0,1,431.84,483Zm-2.13-2h1.14v-2.08a1,1,0,0,1,1-1h2.08v-1.14h-2.08a1,1,0,0,1-1-1v-2.08h-1.14v2.08a1,1,0,0,1-1,1h-2.08v1.14h2.08a1,1,0,0,1,1,1Z"></path>
  <circle cx="452.43" cy="301.99" r="14.54" fill="#ff558b"></circle>
  <path fill="#303030" d="M452.43,317.51A15.53,15.53,0,1,1,468,302,15.54,15.54,0,0,1,452.43,317.51Zm0-29.08A13.56,13.56,0,1,0,466,302,13.57,13.57,0,0,0,452.43,288.43Z"></path>
  <polygon fill="#fff4f4" points="459.93 299.46 454.95 299.46 454.95 294.48 449.9 294.48 449.9 299.46 444.92 299.46 444.92 304.52 449.9 304.52 449.9 309.5 454.95 309.5 454.95 304.52 459.93 304.52 459.93 299.46"></polygon>
  <path fill="#303030" d="M455,310.48H449.9a1,1,0,0,1-1-1v-4h-4a1,1,0,0,1-1-1v-5.06a1,1,0,0,1,1-1h4v-4a1,1,0,0,1,1-1H455a1,1,0,0,1,1,1v4h4a1,1,0,0,1,1,1v5.06a1,1,0,0,1-1,1h-4v4A1,1,0,0,1,455,310.48Zm-4.07-2H454v-4a1,1,0,0,1,1-1h4v-3.08h-4a1,1,0,0,1-1-1v-4h-3.09v4a1,1,0,0,1-1,1h-4v3.08h4a1,1,0,0,1,1,1Z"></path>
  <rect width="26.58" height="35.24" x="366.92" y="247.57" fill="#9395fb" transform="rotate(180 380.205 265.195)"></rect>
  <path fill="#303030" d="M393.49,283.8H366.92a1,1,0,0,1-1-1V247.57a1,1,0,0,1,1-1h26.57a1,1,0,0,1,1,1v35.25A1,1,0,0,1,393.49,283.8Zm-25.59-2h24.61V248.56H367.9Z"></path>
  <rect width="26.58" height="35.24" x="415.06" y="247.57" fill="#9395fb" transform="rotate(180 428.35 265.195)"></rect>
  <path fill="#303030" d="M441.64,283.8H415.06a1,1,0,0,1-1-1V247.57a1,1,0,0,1,1-1h26.58a1,1,0,0,1,1,1v35.25A1,1,0,0,1,441.64,283.8Zm-25.59-2h24.61V248.56H416.05Z"></path>
  <rect width="26.58" height="35.24" x="463.21" y="247.57" fill="#9395fb" transform="rotate(180 476.5 265.195)"></rect>
  <path fill="#303030" d="M489.79,283.8H463.21a1,1,0,0,1-1-1V247.57a1,1,0,0,1,1-1h26.58a1,1,0,0,1,1,1v35.25A1,1,0,0,1,489.79,283.8Zm-25.59-2h24.6V248.56H464.2Z"></path>
  <rect width="26.58" height="35.24" x="511.36" y="247.57" fill="#9395fb" transform="rotate(180 524.645 265.195)"></rect>
  <path fill="#303030" d="M537.94,283.8H511.36a1,1,0,0,1-1-1V247.57a1,1,0,0,1,1-1h26.58a1,1,0,0,1,1,1v35.25A1,1,0,0,1,537.94,283.8Zm-25.6-2H537V248.56H512.34Z"></path>
  <rect width="26.58" height="35.24" x="366.92" y="185.17" fill="#9395fb" transform="rotate(180 380.205 202.795)"></rect>
  <path fill="#303030" d="M393.49,221.4H366.92a1,1,0,0,1-1-1V185.17a1,1,0,0,1,1-1h26.57a1,1,0,0,1,1,1v35.25A1,1,0,0,1,393.49,221.4Zm-25.59-2h24.61V186.16H367.9Z"></path>
  <rect width="26.58" height="35.24" x="415.06" y="185.17" fill="#9395fb" transform="rotate(180 428.35 202.795)"></rect>
  <path fill="#303030" d="M441.64,221.4H415.06a1,1,0,0,1-1-1V185.17a1,1,0,0,1,1-1h26.58a1,1,0,0,1,1,1v35.25A1,1,0,0,1,441.64,221.4Zm-25.59-2h24.61V186.16H416.05Z"></path>
  <rect width="26.58" height="35.24" x="463.21" y="185.17" fill="#9395fb" transform="rotate(180 476.5 202.795)"></rect>
  <path fill="#303030" d="M489.79,221.4H463.21a1,1,0,0,1-1-1V185.17a1,1,0,0,1,1-1h26.58a1,1,0,0,1,1,1v35.25A1,1,0,0,1,489.79,221.4Zm-25.59-2h24.6V186.16H464.2Z"></path>
  <rect width="26.58" height="35.24" x="511.36" y="185.17" fill="#9395fb" transform="rotate(180 524.645 202.795)"></rect>
  <path fill="#303030" d="M537.94,221.4H511.36a1,1,0,0,1-1-1V185.17a1,1,0,0,1,1-1h26.58a1,1,0,0,1,1,1v35.25A1,1,0,0,1,537.94,221.4Zm-25.6-2H537V186.16H512.34Z"></path>
  <rect width="26.58" height="35.24" x="366.92" y="122.77" fill="#9395fb" transform="rotate(180 380.205 140.395)"></rect>
  <path fill="#303030" d="M393.49,159H366.92a1,1,0,0,1-1-1V122.77a1,1,0,0,1,1-1h26.57a1,1,0,0,1,1,1V158A1,1,0,0,1,393.49,159Zm-25.59-2h24.61V123.76H367.9Z"></path>
  <rect width="26.58" height="35.24" x="415.06" y="122.77" fill="#9395fb" transform="rotate(180 428.35 140.395)"></rect>
  <path fill="#303030" d="M441.64,159H415.06a1,1,0,0,1-1-1V122.77a1,1,0,0,1,1-1h26.58a1,1,0,0,1,1,1V158A1,1,0,0,1,441.64,159Zm-25.59-2h24.61V123.76H416.05Z"></path>
  <rect width="26.58" height="35.24" x="463.21" y="122.77" fill="#9395fb" transform="rotate(180 476.5 140.395)"></rect>
  <path fill="#303030" d="M489.79,159H463.21a1,1,0,0,1-1-1V122.77a1,1,0,0,1,1-1h26.58a1,1,0,0,1,1,1V158A1,1,0,0,1,489.79,159Zm-25.59-2h24.6V123.76H464.2Z"></path>
  <rect width="26.58" height="35.24" x="511.36" y="122.77" fill="#9395fb" transform="rotate(180 524.645 140.395)"></rect>
  <path fill="#303030" d="M537.94 159H511.36a1 1 0 0 1-1-1V122.77a1 1 0 0 1 1-1h26.58a1 1 0 0 1 1 1V158A1 1 0 0 1 537.94 159Zm-25.6-2H537V123.76H512.34ZM358.39 52.41h6.06V62.64H376.2V52.41h6.05V79.87H376.2V68H364.45V79.87h-6.06ZM386.36 66.14a15.5 15.5 0 0 1 1.11-6 13 13 0 0 1 3.08-4.55 13.48 13.48 0 0 1 4.69-2.9 18.11 18.11 0 0 1 11.87 0 13.39 13.39 0 0 1 4.69 2.9 13.11 13.11 0 0 1 3.09 4.55 16.78 16.78 0 0 1 0 12 13.15 13.15 0 0 1-3.09 4.56 13.67 13.67 0 0 1-4.69 2.89 17.94 17.94 0 0 1-11.87 0 13.76 13.76 0 0 1-4.69-2.89 13 13 0 0 1-3.08-4.56A15.45 15.45 0 0 1 386.36 66.14Zm6.28 0a10 10 0 0 0 .6 3.54 8.26 8.26 0 0 0 1.73 2.8 7.85 7.85 0 0 0 2.7 1.84 9.66 9.66 0 0 0 7 0 7.85 7.85 0 0 0 2.7-1.84 8.23 8.23 0 0 0 1.72-2.8 10.71 10.71 0 0 0 0-7.07 8.23 8.23 0 0 0-1.72-2.82 7.85 7.85 0 0 0-2.7-1.84 9.66 9.66 0 0 0-7 0 7.85 7.85 0 0 0-2.7 1.84 8.25 8.25 0 0 0-1.73 2.82A10.1 10.1 0 0 0 392.64 66.14ZM433.69 59.11a4.25 4.25 0 0 0-2-1.37 7.13 7.13 0 0 0-2.39-.45 5.78 5.78 0 0 0-1.35.16 5 5 0 0 0-1.32.48 2.7 2.7 0 0 0-1 .88 2.4 2.4 0 0 0 .54 3.21 8.72 8.72 0 0 0 2.35 1.13c.94.31 2 .62 3 .93a12.57 12.57 0 0 1 3.05 1.32 7.2 7.2 0 0 1 2.34 2.29 6.89 6.89 0 0 1 .94 3.84 8.82 8.82 0 0 1-.86 4 8.13 8.13 0 0 1-2.31 2.84A9.93 9.93 0 0 1 431.34 80a15.34 15.34 0 0 1-9-.27 12.32 12.32 0 0 1-4.27-2.64l4.31-4.73a6.2 6.2 0 0 0 2.35 1.92 6.71 6.71 0 0 0 2.92.68 7 7 0 0 0 1.5-.17 5.14 5.14 0 0 0 1.36-.53 2.93 2.93 0 0 0 1-.89 2.19 2.19 0 0 0 .37-1.28 2.32 2.32 0 0 0-.94-2 8.76 8.76 0 0 0-2.39-1.22c-1-.34-2-.67-3.1-1a13.57 13.57 0 0 1-3.11-1.36 7.55 7.55 0 0 1-2.39-2.25 6.44 6.44 0 0 1-.94-3.68 8.13 8.13 0 0 1 .87-3.88 8.54 8.54 0 0 1 2.33-2.8 10.05 10.05 0 0 1 3.35-1.68 13.56 13.56 0 0 1 3.92-.56 15.75 15.75 0 0 1 4.5.65 10.37 10.37 0 0 1 3.92 2.22ZM442.37 52.41h10.2a20.08 20.08 0 0 1 4 .38 9.26 9.26 0 0 1 3.31 1.34 6.66 6.66 0 0 1 2.25 2.56 8.69 8.69 0 0 1 .84 4.05 9.33 9.33 0 0 1-.78 4 6.59 6.59 0 0 1-2.13 2.6 8.7 8.7 0 0 1-3.22 1.37 18.37 18.37 0 0 1-4 .41h-4.42V79.87h-6.05ZM448.42 64h4a7.4 7.4 0 0 0 1.57-.16 4.13 4.13 0 0 0 1.36-.52 2.77 2.77 0 0 0 1-1 3.22 3.22 0 0 0 .36-1.61 2.77 2.77 0 0 0-.48-1.69 3.32 3.32 0 0 0-1.24-1 5.6 5.6 0 0 0-1.69-.45c-.62-.06-1.21-.1-1.78-.1h-3.11ZM466.73 52.41h6V79.87h-6ZM483.61 57.76h-7.84V52.41H497.5v5.35h-7.84V79.87h-6.05ZM506 52.41h5l12 27.46h-6.83l-2.36-5.82H503.12l-2.29 5.82h-6.67Zm2.33 8L505 68.93h6.71ZM526 52.41H532V74.28h11.21v5.59H526Z"></path>
  <path fill="#fff" d="M256.13,395.74s51.69,23.89,120.47,0l-57-103.24-55.84,31.38Z"></path>
  <path fill="#303030" d="M315 407.27c-35.67 0-58.95-10.47-59.3-10.64a1 1 0 0 1-.56-1l7.64-71.86a1 1 0 0 1 .5-.76l55.83-31.37a1 1 0 0 1 .76-.09 1 1 0 0 1 .59.47l57 103.23a1 1 0 0 1 .06.83 1 1 0 0 1-.6.58A188.06 188.06 0 0 1 315 407.27Zm-57.83-12.15c6.12 2.58 55 21.53 118 .07L319.22 293.85l-54.53 30.64ZM286.62 181.78c.49 4.95.49 8.66-2.72 12.37s-10.15 8.17-7.92 19.3 37.35 11.13 47.5 10.64 22.51-1 28.45-8.66-2.48-10.15-5.69-14.35 1.73-11.38-.75-17.81-5.19-3.47-9.64-15.59S286.62 181.78 286.62 181.78Z"></path>
  <path fill="#fff4f4" d="M217.26,220.24a36.39,36.39,0,0,1-2.47-8.67c-.37-2.61-.65-5.14-.78-6.86a2.89,2.89,0,0,0-2.37-2.66h0c-1.52-.26-2.63,1.26-2.89,2.78-.19,1.07-.05,3.65-.25,6.22a1.38,1.38,0,0,1-2.47.75c-3.29-4.24-8.75-13-8.75-13a2.78,2.78,0,1,0-4.94,2.54l2.53,4.92c.45.87,1,1.86,1.59,2.91a66.94,66.94,0,0,1-5.26-8.64,2.78,2.78,0,0,0-5.19,2,59,59,0,0,0,4.83,8.26,55.14,55.14,0,0,1-3.79-5.19,2.78,2.78,0,1,0-4.76,2.87,63.18,63.18,0,0,0,4.37,6c-.92-.83-1.72-1.59-2.31-2.18a2.86,2.86,0,0,0-3.91-.22,2.78,2.78,0,0,0-.14,4c2.26,2.32,7.77,7,10.36,9.15,2.25,7.68,14.89,16.08,14.89,16.08l12.6-11.11A18,18,0,0,0,217.26,220.24Z"></path>
  <path fill="#303030" d="M205.51,242.23a1,1,0,0,1-.54-.17c-.53-.35-12.67-8.49-15.21-16.34-2.71-2.28-8-6.72-10.21-9a3.76,3.76,0,0,1,.2-5.45,3.7,3.7,0,0,1,2.57-.92c-.36-.53-.67-1-.92-1.42a3.73,3.73,0,0,1-.43-2.84,3.76,3.76,0,0,1,4.26-2.8q-.1-.24-.18-.45a3.77,3.77,0,0,1,2.17-4.86,3.71,3.71,0,0,1,2.87.08,3.76,3.76,0,0,1,1.12.76,3.76,3.76,0,0,1,6.91-.5s5.43,8.74,8.65,12.89a.39.39,0,0,0,.7-.23c.1-1.24.12-2.48.13-3.57a20.61,20.61,0,0,1,.14-2.74c.35-2,1.88-4,4-3.58a3.9,3.9,0,0,1,3.23,3.57c.12,1.7.4,4.18.77,6.79a34.81,34.81,0,0,0,2.4,8.44h0a18.81,18.81,0,0,1,.9,10.48,1.07,1.07,0,0,1-.31.52L206.16,242A1,1,0,0,1,205.51,242.23ZM182.2,212.31a1.69,1.69,0,0,0-1.15.42,1.79,1.79,0,0,0-.6,1.28,1.74,1.74,0,0,0,.51,1.31c2.24,2.3,7.88,7.05,10.29,9.08a1,1,0,0,1,.31.48c1.85,6.31,11.35,13.33,13.88,15.11l11.77-10.38a17.18,17.18,0,0,0-.86-9,37.19,37.19,0,0,1-2.53-8.91c-.38-2.66-.67-5.19-.79-6.93a1.91,1.91,0,0,0-1.56-1.76c-1-.18-1.64,1.07-1.79,2a19.88,19.88,0,0,0-.11,2.43c0,1.13,0,2.4-.13,3.71a2.37,2.37,0,0,1-1.69,2.09,2.34,2.34,0,0,1-2.54-.82c-3.28-4.23-8.58-12.76-8.8-13.13a1.87,1.87,0,0,0-1.1-1,1.76,1.76,0,0,0-1.35.12,1.79,1.79,0,0,0-.78,2.42l2.53,4.92c.4.79.93,1.76,1.56,2.88a1,1,0,0,1-1.67,1c-3-4.51-4.84-7.49-5.36-8.84a1.79,1.79,0,0,0-3.35,1.29c.37,1,1.5,3.17,4.73,8.06a1,1,0,0,1-1.59,1.16,57.72,57.72,0,0,1-3.87-5.29,1.8,1.8,0,0,0-2.46-.61,1.8,1.8,0,0,0-.61,2.46,60,60,0,0,0,4.3,5.87,1,1,0,0,1-1.44,1.34c-1-.9-1.78-1.65-2.34-2.21A2,2,0,0,0,182.2,212.31Z"></path>
  <line x1="196.42" x2="199.94" y1="209.12" y2="213.58" fill="#fff4f4"></line>
  <path fill="#303030" d="M199.94,214.57a1,1,0,0,1-.78-.38l-3.52-4.45a1,1,0,0,1,1.55-1.23l3.52,4.46a1,1,0,0,1-.77,1.6Z"></path>
  <line x1="190.8" x2="195.83" y1="210.73" y2="216.68" fill="#fff4f4"></line>
  <path fill="#303030" d="M195.83,217.67a1,1,0,0,1-.75-.35l-5-6a1,1,0,1,1,1.5-1.27l5,6a1,1,0,0,1-.12,1.39A1,1,0,0,1,195.83,217.67Z"></path>
  <line x1="186.87" x2="193.01" y1="214.56" y2="220.24" fill="#fff4f4"></line>
  <path fill="#303030" d="M193,221.23a1,1,0,0,1-.67-.27l-6.14-5.68a1,1,0,0,1,1.34-1.44l6.14,5.68a1,1,0,0,1,0,1.39A1,1,0,0,1,193,221.23Z"></path>
  <line x1="193.28" x2="203.81" y1="223.74" y2="213.02" fill="#fff4f4"></line>
  <path fill="#303030" d="M193.28,224.72a1,1,0,0,1-.69-.28,1,1,0,0,1,0-1.39l10.54-10.72a1,1,0,0,1,1.4,1.38L194,224.43A1,1,0,0,1,193.28,224.72Z"></path>
  <path fill="#fff4f4" d="M208,218.09s-4.84,7.17.14,12.79"></path>
  <path fill="#303030" d="M208.15,231.86a1,1,0,0,1-.73-.33c-5.44-6.12-.28-13.91-.23-14a1,1,0,0,1,1.63,1.1c-.18.27-4.34,6.61.07,11.58a1,1,0,0,1-.08,1.39A1,1,0,0,1,208.15,231.86Z"></path>
  <path fill="#fff4f4" d="M307,529l-1.65-23.24L281.3,501.7s-.87,25.89-5.15,31.64S307,529,307,529Z"></path>
  <path fill="#303030" d="M278.24,536.09c-2.45,0-2.87-.6-3.16-1a1.89,1.89,0,0,1,.28-2.33c3.36-4.51,4.72-24,5-31.08a1,1,0,0,1,.36-.73,1,1,0,0,1,.79-.21l24.08,4a1,1,0,0,1,.82.9L308,528.92a1,1,0,0,1-.71,1c-.07,0-7.41,2.12-14.88,3.85C284.75,535.55,280.57,536.09,278.24,536.09ZM276.88,534c2.47.87,16.59-2.19,29.12-5.75l-1.54-21.66-22.22-3.74c-.22,5.13-1.36,25.78-5.3,31.07Z"></path>
  <path fill="#897bd1" d="M262.9,566.07H263l45.5.13a56.08,56.08,0,0,0,1.38-8c.29-2.51,1.2-5.65.64-9.24-1.2-7.81-3.52-20-3.52-20l-.78.19a56.54,56.54,0,0,1-25.42.51l-2.9-.61c-5.51,8.82-13.05,17.6-17.75,19.58l-.43.17c-4.75,1.62-14.24,1-15.11,10,0,.1,0,.23,0,.32C243.88,567.82,248.65,566,262.9,566.07Z"></path>
  <path fill="#303030" d="M308.54,567.31h0l-45.64-.13h-.49c-2.13,0-4.05,0-5.76.08-6.13.12-9.84.2-11.79-1.89-1.2-1.28-1.61-3.22-1.34-6.29a3.11,3.11,0,0,1,0-.34c.76-7.84,7.47-9.17,12.37-10.14a29.13,29.13,0,0,0,3.49-.83,2.67,2.67,0,0,0,.36-.14c4.15-1.74,11.4-9.79,17.24-19.14a1.14,1.14,0,0,1,1.17-.5l2.9.61a55.63,55.63,0,0,0,24.92-.5l.78-.19a1.08,1.08,0,0,1,.87.14,1.1,1.1,0,0,1,.49.73c0,.12,2.34,12.3,3.53,20a23.06,23.06,0,0,1-.34,7.58c-.12.69-.23,1.34-.3,2a55.7,55.7,0,0,1-1.41,8.14A1.1,1.1,0,0,1,308.54,567.31ZM262.9,565H263l44.63.13a68,68,0,0,0,1.14-7c.08-.65.19-1.34.31-2.06a21.13,21.13,0,0,0,.34-6.88c-1-6.3-2.69-15.58-3.3-18.81a58,58,0,0,1-25.55.43l-2.14-.45c-5,7.92-12.63,17.16-17.85,19.36l-.49.19a31.56,31.56,0,0,1-3.79.91c-4.9,1-10,2-10.58,8.18a1.8,1.8,0,0,0,0,.22c-.21,2.44,0,3.89.74,4.65,1.28,1.37,4.8,1.3,10.12,1.19C258.45,565,260.55,565,262.9,565Z"></path>
  <path fill="#fff" d="M262.9,566a8.26,8.26,0,0,0,1.56-5.17,22.94,22.94,0,0,0-4.27-12.17c-.15.06-.29.12-.43.16-4.75,1.63-14.24,1-15.11,10a2.83,2.83,0,0,0,0,.29C243.88,567.78,248.65,566,262.9,566Z"></path>
  <path fill="#303030" d="M252.8,567.12c-3.86,0-6.38-.31-7.85-1.89-1.17-1.24-1.57-3.14-1.3-6.17,0-.09,0-.2,0-.31.75-7.75,7.41-9.06,12.27-10a29.67,29.67,0,0,0,3.5-.84l.37-.14a1,1,0,0,1,1.18.34,23.83,23.83,0,0,1,4.45,12.68,9.15,9.15,0,0,1-1.73,5.79,1,1,0,0,1-.81.42h0c-2.36,0-4.45,0-6.3.08C255.21,567.09,254,567.12,252.8,567.12Zm7-17.28a33.39,33.39,0,0,1-3.49.82c-4.72.93-10.08,2-10.69,8.3a2.29,2.29,0,0,0,0,.25c-.21,2.41,0,3.89.78,4.68,1.31,1.4,4.83,1.32,10.17,1.2,1.72,0,3.65-.08,5.81-.08a7.14,7.14,0,0,0,1.11-4.13A22,22,0,0,0,259.81,549.84Z"></path>
  <path fill="#fff" d="M263,566l45.5.13a54.94,54.94,0,0,0,1.38-7.94c-15.82,1.29-57.23,1-65.29,1C243.88,567.81,248.69,566,263,566Z"></path>
  <path fill="#303030" d="M252.81,567.12c-3.86,0-6.38-.31-7.86-1.89-1.16-1.24-1.57-3.14-1.3-6.17a1,1,0,0,1,1-.9h0c8.13.07,49.46.34,65.21-.95a1,1,0,0,1,.79.3,1,1,0,0,1,.27.8,57.78,57.78,0,0,1-1.41,8.09,1,1,0,0,1-.95.71h0L263,567c-2.4,0-4.54,0-6.43.08C255.22,567.09,254,567.12,252.81,567.12Zm-7.26-7c-.07,1.86.2,3.06.84,3.75,1.31,1.4,4.84,1.32,10.18,1.2,1.9,0,4.05-.08,6.48-.08l44.72.13c.23-1,.65-3,1-5.87C292.74,560.41,255.26,560.21,245.55,560.14Z"></path>
  <line x1="273.72" x2="266.88" y1="548.59" y2="543.62" fill="#fff"></line>
  <path fill="#303030" d="M273.72,549.58a1,1,0,0,1-.58-.19l-6.84-5a1,1,0,1,1,1.16-1.6l6.84,5a1,1,0,0,1,.22,1.37A1,1,0,0,1,273.72,549.58Z"></path>
  <line x1="277.51" x2="270.97" y1="543.15" y2="539.05" fill="#fff"></line>
  <path fill="#303030" d="M277.51,544.14A1,1,0,0,1,277,544l-6.55-4.11a1,1,0,0,1-.31-1.35,1,1,0,0,1,1.36-.32l6.54,4.11a1,1,0,0,1,.31,1.36A1,1,0,0,1,277.51,544.14Z"></path>
  <line x1="281.3" x2="274.62" y1="536.76" y2="533.34" fill="#fff"></line>
  <path fill="#303030" d="M281.3,537.75a1.06,1.06,0,0,1-.45-.11l-6.68-3.43a1,1,0,0,1-.43-1.32,1,1,0,0,1,1.33-.43l6.68,3.43a1,1,0,0,1,.43,1.32A1,1,0,0,1,281.3,537.75Z"></path>
  <path fill="#fff4f4" d="M380.66,523.06l-4.17-22.91-24.39-1.4s2,25.83-1.67,32S380.66,523.06,380.66,523.06Z"></path>
  <path fill="#303030" d="M351.65,533.34c-1.45,0-1.82-.42-2.09-.74a1.87,1.87,0,0,1,0-2.34c2.85-4.85,2.08-24.33,1.54-31.43a1,1,0,0,1,.28-.77,1,1,0,0,1,.76-.29l24.38,1.39a1,1,0,0,1,.92.81l4.17,22.92A1,1,0,0,1,381,524c-.07,0-7.12,2.92-14.37,5.45C357.79,532.52,353.68,533.34,351.65,533.34Zm-.42-2c2.55.6,16.26-4,28.32-8.9l-3.89-21.36-22.5-1.29c.34,5.12,1.46,25.77-1.88,31.46Z"></path>
  <path fill="#897bd1" d="M340.84,564.74H341l45.24-4.84a56.81,56.81,0,0,0,.5-8.08c0-2.52.57-5.74-.37-9.25-2.05-7.63-5.69-19.5-5.69-19.5l-.75.28a56.5,56.5,0,0,1-25.21,3.28l-2.95-.28c-4.51,9.36-11.05,18.92-15.51,21.4l-.41.2c-4.54,2.14-14,2.6-13.92,11.63,0,.1,0,.23,0,.32C322.12,568.56,326.67,566.26,340.84,564.74Z"></path>
  <path fill="#303030" d="M327.45,567.31a6.75,6.75,0,0,1-4.63-1.3c-1.32-1.13-1.94-3-2-6.09a2.25,2.25,0,0,1,0-.36c-.1-7.87,6.42-9.92,11.18-11.42a29.39,29.39,0,0,0,3.38-1.2l.35-.18c3.92-2.19,10.25-11,15-20.91a1.1,1.1,0,0,1,1.11-.62l2.95.28a55.59,55.59,0,0,0,24.71-3.21l.75-.28a1.11,1.11,0,0,1,1.46.72c0,.11,3.66,12,5.7,19.53a23.32,23.32,0,0,1,.48,7.58c0,.69-.08,1.35-.08,2a58,58,0,0,1-.51,8.25,1.1,1.1,0,0,1-1,.92L341,565.85h0c-2.31.25-4.38.52-6.2.75A61.68,61.68,0,0,1,327.45,567.31Zm25-39.79c-4.15,8.42-10.68,18.43-15.63,21.19l-.46.24a30.4,30.4,0,0,1-3.67,1.32c-4.77,1.5-9.71,3.05-9.63,9.29,0,.08,0,.16,0,.22.06,2.45.45,3.86,1.24,4.54,1.42,1.22,4.91.77,10.19.08,1.84-.24,3.92-.52,6.26-.77h.14l44.37-4.75a62.88,62.88,0,0,0,.37-7.06c0-.65,0-1.35.09-2.09a21,21,0,0,0-.42-6.87c-1.65-6.15-4.37-15.19-5.33-18.33a58.13,58.13,0,0,1-25.35,3.21Zm-11.57,37.22h0Z"></path>
  <path fill="#fff" d="M340.83,564.67a8.2,8.2,0,0,0,1-5.31,22.93,22.93,0,0,0-5.58-11.62l-.41.2c-4.54,2.13-14,2.6-13.92,11.63a2.81,2.81,0,0,0,0,.29C322.12,568.53,326.66,566.2,340.83,564.67Z"></path>
  <path fill="#303030" d="M327.41,567.13a6.59,6.59,0,0,1-4.51-1.26c-1.29-1.1-1.9-3-2-6,0-.11,0-.21,0-.32-.09-7.77,6.38-9.81,11.1-11.3a28.53,28.53,0,0,0,3.4-1.21l.35-.18a1,1,0,0,1,1.2.21,23.89,23.89,0,0,1,5.82,12.12,9.16,9.16,0,0,1-1.09,5.94,1,1,0,0,1-.77.51c-2.33.25-4.41.53-6.25.77A61.65,61.65,0,0,1,327.41,567.13ZM336,549a31.37,31.37,0,0,1-3.38,1.19c-4.59,1.45-9.8,3.08-9.72,9.42,0,.09,0,.16,0,.23.06,2.44.46,3.89,1.28,4.59,1.46,1.25,5,.78,10.25.09,1.7-.23,3.62-.48,5.76-.72a7,7,0,0,0,.65-4.23A21.84,21.84,0,0,0,336,549Zm4.84,15.72h0Z"></path>
  <path fill="#fff" d="M341,564.66l45.24-4.84a54.14,54.14,0,0,0,.5-8c-15.58,3-56.77,7.26-64.79,8.08C322.12,568.55,326.7,566.18,341,564.66Z"></path>
  <path fill="#303030" d="M327.41,567.13a6.65,6.65,0,0,1-4.51-1.26c-1.29-1.1-1.9-3-2-6a1,1,0,0,1,.89-1c8.08-.83,49.19-5.07,64.71-8.07a1,1,0,0,1,1.17,1,55.64,55.64,0,0,1-.52,8.2,1,1,0,0,1-.86.82l-45.24,4.83c-2.39.26-4.52.54-6.39.79A61.79,61.79,0,0,1,327.41,567.13Zm-4.47-6.39c.13,1.86.53,3,1.24,3.64,1.46,1.25,5,.78,10.25.09,1.89-.25,4-.53,6.44-.79h0l44.47-4.76a58.85,58.85,0,0,0,.37-5.95C369.88,555.86,332.6,559.75,322.94,560.74Z"></path>
  <line x1="349.68" x2="342.34" y1="546.19" y2="541.99" fill="#fff"></line>
  <path fill="#303030" d="M349.68,547.17a1,1,0,0,1-.49-.13l-7.34-4.19a1,1,0,0,1,1-1.71l7.34,4.19a1,1,0,0,1,.37,1.35A1,1,0,0,1,349.68,547.17Z"></path>
  <line x1="352.86" x2="345.9" y1="540.37" y2="537" fill="#fff"></line>
  <path fill="#303030" d="M352.86,541.35a1.07,1.07,0,0,1-.43-.09l-7-3.37a1,1,0,0,1-.45-1.32,1,1,0,0,1,1.31-.45l7,3.36a1,1,0,0,1-.43,1.87Z"></path>
  <line x1="355.93" x2="348.91" y1="533.6" y2="530.93" fill="#fff"></line>
  <path fill="#303030" d="M355.93,534.59a.84.84,0,0,1-.35-.07l-7-2.67a1,1,0,0,1-.57-1.27,1,1,0,0,1,1.27-.57l7,2.67a1,1,0,0,1-.35,1.91Z"></path>
  <path fill="#897bd1" d="M360.79,331.8c-9.11-17.26-19.1-33.44-24.27-39.32l-56.95.07c-4.88,9.55-13.56,28-14.67,40.39-1.55,17.39-1.06,203.35-1.06,203.35s24.93,6.32,49.15-3.61L311.4,351.56l3.51-.64,20.27,179s21.11,1,32.91-1.53,12.47-2.23,18.81-5.31C386.9,523.06,375.69,360.06,360.79,331.8Z"></path>
  <path fill="#303030" d="M282.81,539.35a87.07,87.07,0,0,1-19.24-2,1.09,1.09,0,0,1-.84-1.07c0-7.6-.47-186.2,1.06-203.44,1.12-12.53,9.75-30.94,14.79-40.8a1.1,1.1,0,0,1,1-.61l56.95-.07h0a1.12,1.12,0,0,1,.84.38c5.25,6,15.29,22.22,24.42,39.53,14.84,28.14,25.77,185,26.23,191.71a1.11,1.11,0,0,1-.63,1.07c-5.34,2.59-6.78,2.89-13.73,4.3l-5.33,1.1C356.52,532,336,531.05,335.13,531a1.12,1.12,0,0,1-1.06-1l-20.14-177.8-1.41.25,1.58,180.19a1.12,1.12,0,0,1-.69,1A81.12,81.12,0,0,1,282.81,539.35Zm-17.86-4c4.47,1,26,4.83,46.92-3.47l-1.58-180.36a1.11,1.11,0,0,1,.91-1.11l3.51-.64a1.11,1.11,0,0,1,.86.21,1.07,1.07,0,0,1,.44.76l20.17,178c4.23.14,21.56.58,31.68-1.55l5.35-1.1c6.56-1.34,8-1.63,12.52-3.79-.85-12.07-11.81-163.32-25.92-190.07-8.87-16.81-18.57-32.58-23.8-38.72l-55.76.07c-5,9.84-13.17,27.47-14.24,39.37C264.54,349.57,264.92,521.43,265,535.4Z"></path>
  <path fill="#897bd1" d="M311.85,347.91A182.24,182.24,0,0,1,305,295.69"></path>
  <path fill="#303030" d="M311.85,349a1.13,1.13,0,0,1-1.07-.8,183.12,183.12,0,0,1-6.85-52.55,1.11,1.11,0,0,1,1.11-1.11h0a1.12,1.12,0,0,1,1.1,1.13,181,181,0,0,0,6.76,51.89,1.11,1.11,0,0,1-.74,1.39A1.25,1.25,0,0,1,311.85,349Z"></path>
  <path fill="#897bd1" d="M296.71,302.64a110.69,110.69,0,0,0,3.06,28.85.33.33,0,0,0,.17.23l8.23,5.13"></path>
  <path fill="#303030" d="M308.16,338a1,1,0,0,1-.58-.17l-8.23-5.12a1.5,1.5,0,0,1-.66-.91,111.48,111.48,0,0,1-3.09-29.14,1.12,1.12,0,1,1,2.23,0,109.57,109.57,0,0,0,2.94,28.27l8,5a1.11,1.11,0,0,1,.36,1.54A1.1,1.1,0,0,1,308.16,338Zm-7.32-6.76h0Z"></path>
  <path fill="#9395fb" d="M319.78,297.5c-.74,6.76.84,12.29,4.69,16.43,7.4,8,21.12,8.39,23.82,8.39h.45"></path>
  <path fill="#303030" d="M348.29,323.3c-2.75,0-16.86-.41-24.54-8.7-4.05-4.36-5.72-10.15-4.94-17.2a1,1,0,1,1,1.95.21c-.7,6.46.79,11.72,4.43,15.65,7.13,7.69,20.49,8.08,23.1,8.08h.41a1,1,0,0,1,.08,2Z"></path>
  <path fill="#897bd1" d="M272,312.53l.64,0c11.85,0,18.26-17.08,18.54-17.82"></path>
  <path fill="#303030" d="M272.66,313.66l-.68,0a1.11,1.11,0,0,1-1.07-1.16,1.1,1.1,0,0,1,1.16-1.06h.59c11.11,0,17.23-16.38,17.49-17.08a1.11,1.11,0,0,1,2.09.76C292,295.87,285.3,313.66,272.66,313.66Z"></path>
  <path fill="#ffd87b" d="M374,353.16l-26.25-5.26c.06-.26,5.33-27,3.63-45.36-1.06-11.37-5.13-27.8-10-43.26l-4.86,26.12-47.15.7-9.7.14,0-2.05v0l.29-26.38h0c-6.35,6.88-9.87,12-13.24,15.88-3.75,3.45-8,6.51-12.41,8-1,.28-2.1.53-3.3.76l-.41.05a2.06,2.06,0,0,1-.26,0h-.25c-.63,0-1.27,0-1.91,0l-1.11-.13-.39-.06c-18.42-3.13-44.83-37.37-47.51-41.15-.11-.16-.18-.27-.2-.31l0,0h0a52.22,52.22,0,0,1,9.77-10.41A52.8,52.8,0,0,1,220.92,223c13.91,13.85,26.15,24.47,26.15,24.47s2.37-1.16,20-25.18c.64-.87,1.27-1.69,1.91-2.47a33.23,33.23,0,0,1,19.63-12.2c3-.67,14-1.35,14-1.35l21.62-.56c7.16,1.93,21.45,6.11,28,13.43l.09,0c14.34,17.92,23.65,58.33,25.76,81C380.13,322.3,374.29,351.91,374,353.16Z"></path>
  <path fill="#303030" d="M374,354.14l-.19,0-26.25-5.25a1,1,0,0,1-.77-1.16c.05-.27,5.31-26.79,3.61-45.08-.9-9.63-4.08-23.78-8.82-39.26l-4.13,22.21a1,1,0,0,1-.95.81l-56.86.84a.94.94,0,0,1-.71-.29,1,1,0,0,1-.29-.71l.29-25.86c-3.05,3.42-5.37,6.35-7.45,9-1.48,1.88-2.76,3.5-4,5l-.07.08c-4.45,4.1-8.75,6.85-12.77,8.18-1.09.3-2.19.55-3.42.78a4.07,4.07,0,0,1-.51.07,1.57,1.57,0,0,1-.27,0h-.33c-.42,0-.92,0-1.41,0h-.5c-.47,0-.86-.08-1.24-.14l-.43-.06c-20-3.4-47.87-41.17-48.14-41.55l-.24-.36s0-.07,0-.1a.89.89,0,0,1-.12-.45,1,1,0,0,1,.19-.58h0a54,54,0,0,1,22.37-18.16,1,1,0,0,1,1.09.21c11.95,11.89,22.78,21.51,25.46,23.86,1.29-1.28,5.84-6.26,19.21-24.47.61-.83,1.24-1.65,1.94-2.5a34.09,34.09,0,0,1,20.17-12.54c3-.68,13.69-1.34,14.14-1.37l21.66-.56a.89.89,0,0,1,.28,0c5.21,1.41,20.92,5.64,28.19,13.41a.93.93,0,0,1,.41.3c14.35,17.94,23.83,58.46,26,81.5,2.07,22.31-3.79,52.12-4,53.38a1,1,0,0,1-.42.63A1.07,1.07,0,0,1,374,354.14Zm-25.09-7L373.26,352c1-5.44,5.69-31.76,3.83-51.85C375,277.5,365.76,237.82,351.81,220a.9.9,0,0,1-.32-.23c-6.69-7.48-22.11-11.68-27.39-13.1l-21.47.55c-.08,0-10.92.69-13.8,1.33a32.31,32.31,0,0,0-19.08,11.86c-.67.83-1.28,1.62-1.88,2.43-16.92,23-19.94,25.27-20.37,25.48a1,1,0,0,1-1.08-.14c-.12-.1-12.13-10.55-25.71-24a52,52,0,0,0-20.55,16.67c5.56,7.75,30.06,37.68,46.69,40.51l.3,0,1.13.14h.43c.44,0,.89,0,1.33,0l.2,1,0-1,.26,0,.35-.05c1.19-.23,2.24-.47,3.23-.74,3.7-1.22,7.74-3.82,12-7.7,1.24-1.42,2.5-3,4-4.85,2.34-3,5.27-6.67,9.23-11l.07-.08a1,1,0,0,1,1.08-.21,1,1,0,0,1,.6.92l-.3,27.44,55-.81,4.72-25.33a1,1,0,0,1,1.9-.11c5.42,17.07,9.1,32.91,10.08,43.46C353.94,319,349.88,342.15,349,347.13Z"></path>
  <rect width="56.96" height="6.39" x="279.56" y="286.1" fill="#303030"></rect>
  <path fill="#303030" d="M336.52 293.47h-57a1 1 0 0 1-1-1V286.1a1 1 0 0 1 1-1h57a1 1 0 0 1 1 1v6.38A1 1 0 0 1 336.52 293.47Zm-56-2h55v-4.42h-55ZM287.17 178.15c-3.71-14.59.5-25.48 24.16-26.88 14.32-.85 26.31 4.37 26 26-.22 14.34-7.34 20.7-21.69 20.7S290.71 192.06 287.17 178.15Z"></path>
  <path fill="#fff4f4" d="M295.47,177.38s-4-4.32-7.46-3.12a4.27,4.27,0,0,0-2.44,2.69c-1,2.69-.54,6.45,1.94,7.48,3.66,1.53,8.18-1.3,8.18-1.3Z"></path>
  <path fill="#303030" d="M289.91,185.87a7.15,7.15,0,0,1-2.78-.53c-3-1.25-3.7-5.53-2.48-8.74a5.23,5.23,0,0,1,3.05-3.28c4.05-1.38,8.32,3.2,8.5,3.39a1,1,0,0,1,.25.63l.22,5.75a1,1,0,0,1-.46.88A13.53,13.53,0,0,1,289.91,185.87ZM289.28,175a2.82,2.82,0,0,0-.95.15,3.3,3.3,0,0,0-1.84,2.11c-.87,2.3-.46,5.45,1.4,6.22,2.51,1,5.61-.33,6.79-1l-.18-4.78C293.49,176.79,291.27,175,289.28,175Z"></path>
  <path fill="#fff4f4" d="M289.9,179.63a43.83,43.83,0,0,0,.26,5.25c.69,5.84,3,10.27,9.74,12.3l.28,0,3.9.6a15.07,15.07,0,0,1,0,2.41c-.08,1.08-.26,4.11-.3,5l-7.91.87,0,.11a15.2,15.2,0,0,0,21.41,9.22A50,50,0,0,0,329,207.08l-6.22-2s-.25-20.5-.14-20.79a15.48,15.48,0,0,0,4.1,1.36,9.37,9.37,0,0,0,3.5,0,7,7,0,0,0,1.44-.49c4.06-2,3.08-10.4-.89-11.52a5.37,5.37,0,0,0-3.95.58,8.25,8.25,0,0,1-3.55,3.51c-.85-3.54-5.2-16.16-17-19.93,0,0-15.18,1.43-16.16,14.83,0,.26,0,.53,0,.81s0,.49,0,.73C290,176,289.9,177.86,289.9,179.63Z"></path>
  <path fill="#303030" d="M310.46,218a16.15,16.15,0,0,1-6.27-1.27A16.32,16.32,0,0,1,295,206.48a1.08,1.08,0,0,1,.1-.88,1,1,0,0,1,.69-.5l7.08-.78c.07-1.26.19-3.29.25-4.15,0-.43.07-1,.07-1.49l-3.44-.54c-6.45-1.94-9.67-6-10.52-13.14a44.53,44.53,0,0,1-.26-5.37c0-1.76.05-3.56.12-5.56l0-.73,0-.82c1-14.09,16.89-15.74,17-15.76a1,1,0,0,1,.39,0c11.62,3.71,16.09,15.24,17.34,19.33a9.41,9.41,0,0,0,2.11-2.48,1,1,0,0,1,.39-.37,6.29,6.29,0,0,1,4.67-.65c2.25.64,3.89,3.14,4.17,6.37.22,2.54-.48,5.71-3.13,7a8,8,0,0,1-1.65.56,10.21,10.21,0,0,1-3.87,0,16,16,0,0,1-3-.83c0,3.37.08,12.13.16,18.58l5.54,1.81a1,1,0,0,1,.65.7,1,1,0,0,1-.25.93,51.55,51.55,0,0,1-11.94,8.51A16.14,16.14,0,0,1,310.46,218Zm-13.28-11.11a14.38,14.38,0,0,0,7.78,8,14,14,0,0,0,11.89-.42,50.9,50.9,0,0,0,10.26-7L322.47,206a1,1,0,0,1-.68-.92c-.25-20.7-.16-20.93-.08-21.16a1,1,0,0,1,.56-.56,1,1,0,0,1,.8,0,14.8,14.8,0,0,0,3.83,1.27,8.29,8.29,0,0,0,3.11,0,5.74,5.74,0,0,0,1.23-.42c1.74-.84,2.18-3.24,2-5-.2-2.33-1.33-4.24-2.75-4.64a4.09,4.09,0,0,0-3,.4,8.86,8.86,0,0,1-3.88,3.66,1,1,0,0,1-.81-.05.94.94,0,0,1-.49-.64c-.15-.61-3.76-15.06-16.19-19.15-1.79.21-14.21,2.14-15.07,13.89,0,.23,0,.49,0,.76l0,.74c-.07,2-.13,3.77-.12,5.49h0a40.86,40.86,0,0,0,.25,5.14c.75,6.35,3.46,9.78,9,11.46l.19,0,3.86.59a1,1,0,0,1,.83.86,15,15,0,0,1,0,2.59c-.08,1.06-.26,4.11-.29,4.94a1,1,0,0,1-.88.93Z"></path>
  <path fill="#303030" d="M325.44,182.92a1.12,1.12,0,0,1-.31,0,1,1,0,0,1-.62-1.25c.76-2.28,1.95-3.78,3.53-4.46a5.15,5.15,0,0,1,3.94,0,1,1,0,0,1-.83,1.79,3.17,3.17,0,0,0-2.35,0,5,5,0,0,0-2.42,3.27A1,1,0,0,1,325.44,182.92Z"></path>
  <path fill="#303030" d="M329.37 181.9a1 1 0 0 1-.79-.39l-1.58-2.1a1 1 0 1 1 1.57-1.18l1.58 2.1a1 1 0 0 1-.19 1.38A1 1 0 0 1 329.37 181.9ZM296.7 170.59c0-.66.9-1.17 2-1.16s1.95.57 1.94 1.22-.9 1.18-2 1.16S296.69 171.24 296.7 170.59ZM309.49 170.8c0-.65.9-1.17 2-1.15s1.95.57 1.94 1.22-.9 1.17-2 1.15S309.48 171.46 309.49 170.8Z"></path>
  <path fill="#fff" d="M316.08,178.41a18,18,0,0,1-3.76.86c-1,.12-2.64.47-3.41-.41-1.33-1.52,1-3,2.17-3.41,1.64-.56,4.19-1.16,5.87-.45a1.76,1.76,0,0,1,1.15,1.68c-.09.91-1,1.37-1.77,1.64Z"></path>
  <path fill="#303030" d="M310.59,180.43a3.05,3.05,0,0,1-2.42-.92,2.35,2.35,0,0,1-.57-2.19c.41-1.5,2.25-2.49,3.16-2.8,1.57-.54,4.5-1.3,6.57-.43a2.73,2.73,0,0,1,1.75,2.7c-.11,1.09-.92,1.92-2.41,2.46l-.27.09a18.83,18.83,0,0,1-4,.91l-.35.05A11,11,0,0,1,310.59,180.43Zm4.51-4.76a12,12,0,0,0-3.7.71c-.78.27-1.76.94-1.9,1.45,0,.06,0,.16.15.38.33.39,1.49.23,2.18.13l.38,0a17.78,17.78,0,0,0,3.55-.82h0l.24-.08c.49-.18,1.09-.47,1.12-.82s-.23-.53-.56-.67A3.84,3.84,0,0,0,315.1,175.67Z"></path>
  <path fill="#303030" d="M315.18,176.53a1.55,1.55,0,1,0-1.57,1.52A1.55,1.55,0,0,0,315.18,176.53Z"></path>
  <path fill="#fff" d="M293.61,178a18.31,18.31,0,0,0,3.73,1c1,.15,2.62.56,3.42-.3,1.38-1.47-.87-3-2.05-3.48-1.62-.61-4.15-1.3-5.85-.65a1.77,1.77,0,0,0-1.21,1.65c.06.9,1,1.39,1.71,1.69Z"></path>
  <path fill="#303030" d="M299.22,180.24a10.5,10.5,0,0,1-1.69-.19l-.35-.06a19.18,19.18,0,0,1-3.92-1h0l-.27-.1c-1.46-.59-2.25-1.45-2.32-2.55a2.72,2.72,0,0,1,1.84-2.63c2.09-.8,5,.06,6.55.65.9.34,2.71,1.39,3.06,2.9a2.34,2.34,0,0,1-.64,2.17A2.94,2.94,0,0,1,299.22,180.24ZM294,177.11a17.49,17.49,0,0,0,3.53.94l.37.06c.69.11,1.84.31,2.18-.06.2-.21.18-.32.16-.38-.12-.51-1.07-1.22-1.84-1.51-2.16-.81-4.08-1.06-5.15-.65-.33.13-.6.43-.58.65s.61.66,1.1.86Z"></path>
  <path fill="#303030" d="M295.85 176.32a1.55 1.55 0 1 1 1.52 1.58A1.56 1.56 0 0 1 295.85 176.32ZM303.53 184.06a1 1 0 0 1-.74-.34 3.4 3.4 0 0 1-.12-4.27 1 1 0 0 1 1.58 1.17 1.44 1.44 0 0 0 0 1.8 1 1 0 0 1-.09 1.39A1 1 0 0 1 303.53 184.06Z"></path>
  <path fill="#fdc8ca" d="M317.28 184.16c1.11-.65 2.49-2 1.66-3.1-1.06-1.41-5.15.24-6 1.32-.72.9-.21 1.65.77 2a4 4 0 0 0 3.59-.26ZM294.19 184.16c-1.11-.65-2.5-2-1.66-3.1 1.06-1.41 5.15.24 6 1.32.73.9.22 1.65-.76 2a4 4 0 0 1-3.59-.26Z"></path>
  <path fill="#303030" d="M304.1,188.9a13.79,13.79,0,0,1-3.53-.48,1,1,0,0,1,.57-1.89c.05,0,4.89,1.42,7.33-1.17a1,1,0,0,1,1.44,1.35A7.81,7.81,0,0,1,304.1,188.9Z"></path>
  <path fill="#303030" d="M310.27 188a1 1 0 0 1-.78-.39l-1.87-2.41a1 1 0 0 1 1.56-1.2l1.87 2.41a1 1 0 0 1-.18 1.38A1 1 0 0 1 310.27 188ZM318.57 181.84a1 1 0 0 1-.73-.33l-1.16-1.31a1 1 0 1 1 1.48-1.3l1.15 1.31a1 1 0 0 1-.09 1.39A1 1 0 0 1 318.57 181.84Z"></path>
  <path fill="#303030" d="M316.23 182.34a1 1 0 0 1-.85-.49l-.69-1.19a1 1 0 1 1 1.7-1l.69 1.19a1 1 0 0 1-.36 1.35A1 1 0 0 1 316.23 182.34ZM291.45 182.15A1 1 0 0 1 291 182a1 1 0 0 1-.36-1.35l1-1.8a1 1 0 0 1 1.71 1l-1 1.81A1 1 0 0 1 291.45 182.15ZM294.25 182.73a.91.91 0 0 1-.35-.07 1 1 0 0 1-.57-1.27l.62-1.61a1 1 0 1 1 1.84.7l-.62 1.61A1 1 0 0 1 294.25 182.73ZM304.06 200.24c5.64.1 10.71-5.88 10.71-5.88-3.69 3.63-10.69 3.47-10.69 3.47A15.07 15.07 0 0 1 304.06 200.24Z"></path>
  <path fill="#303030" d="M304.19,201.23H304a1,1,0,0,1-1-1.06,13.75,13.75,0,0,0,0-2.22,1,1,0,0,1,.25-.78.91.91,0,0,1,.75-.32c.07,0,6.64.1,10-3.19a1,1,0,0,1,1.44,1.34C315.3,195.26,310.17,201.23,304.19,201.23Zm.92-2.43c0,.12,0,.26,0,.4a9.18,9.18,0,0,0,2.4-.65A22.66,22.66,0,0,1,305.11,198.8Z"></path>
  <path fill="#fff" d="M317.67 162.3c-1.14-.81-2.41-1.85-2.37-3.25a1.35 1.35 0 0 1 .28-.87 1.49 1.49 0 0 1 .57-.39 3.88 3.88 0 0 1 2.3-.29 6.35 6.35 0 0 0 1.81.3 7.46 7.46 0 0 0 1.81-.8c1.85-.8 4 .27 5.6 1.45a6 6 0 0 1 2 2.12 2.27 2.27 0 0 1-.45 2.71 2.47 2.47 0 0 1-1.95.36c-.67-.13-1.31-.4-2-.59a1.59 1.59 0 0 0-.78-.07 2.8 2.8 0 0 0-1 .59 3.63 3.63 0 0 1-3.09.3A10.64 10.64 0 0 1 317.67 162.3ZM338.91 284.18l20.14-59.24c-1.45-3.16-4.37-7.32-6-8.5-10.09-7.28-29.11-11.39-30-11.39 0 0 4.26 12.28 3.67 18.66-2.32 25.09-8.41 53.89-9.11 77.74-.81 27.11 8.48 94.29 8.48 94.29l.11 0c17.91 2.16 37.1 3.42 50.43 0C374.35 386.62 359 302.28 338.91 284.18Z"></path>
  <path fill="#303030" d="M355.75,398.87a253,253,0,0,1-29.7-2.13l-.15,0-.1,0a1,1,0,0,1-.71-.82c-.1-.67-9.29-67.56-8.5-94.45.42-14.13,2.75-30.21,5-45.75,1.55-10.72,3.16-21.8,4.11-32,.56-6.1-3.58-18.13-3.62-18.25a1,1,0,0,1,.13-.89,1,1,0,0,1,.8-.42c1.32,0,20.49,4.28,30.6,11.58,1.92,1.38,4.92,5.83,6.32,8.89a1,1,0,0,1,0,.73l-19.93,58.63c17.59,16.81,31.48,83.05,36.07,105,.67,3.21,1.16,5.54,1.44,6.66a1,1,0,0,1-.71,1.19C370.69,398.29,363.32,398.87,355.75,398.87Zm-28.81-4c14.3,1.71,34.44,3.48,48.48.15-.29-1.3-.7-3.27-1.23-5.77-4.6-21.95-18.59-88.72-35.94-104.34a1,1,0,0,1-.27-1.05L358,225c-1.44-3-4.1-6.74-5.52-7.76-8.43-6.08-23.23-9.9-28-10.93,1.14,3.58,3.68,12.29,3.2,17.49-.95,10.3-2.56,21.41-4.12,32.15-2.25,15.49-4.57,31.51-5,45.53C317.82,326.68,325.93,387.48,326.94,394.87Z"></path>
  <path fill="#fff" d="M288.41,266.88c.54,6.7-2.42,43-4.26,56.91-1.54,11.59-2.57,53.12-2.88,67.22a86.74,86.74,0,0,0-25.14,4.73S251,321.29,279.69,284.19v0c0-.8-.15-20.25.29-26.38h0a89.53,89.53,0,0,1-13.24,15.88c-3.75,3.45-8,6.51-12.41,8a16.64,16.64,0,0,1-3.71.81,2.06,2.06,0,0,1-.26,0h-.25a13.51,13.51,0,0,1-1.91,0l-1.11-.13-.39-.06c-18.42-3.13-44.83-37.37-47.51-41.15-.11-.16-.18-.27-.2-.31l0,0h0c.17-.41,5.56-13.5,22.13-18.86l26.17,23.72S261.66,225.74,272,215c4.23-4.38,11.84-7.75,17.93-8.15H290l6.24-.39S286.48,243.2,288.41,266.88Z"></path>
  <path fill="#303030" d="M256.13,396.72a1,1,0,0,1-.53-.15,1,1,0,0,1-.46-.76c0-.75-4.84-74.89,23.56-111.95,0-2.32-.08-15.19.14-22.65A87.86,87.86,0,0,1,267.4,274.4c-4.45,4.1-8.75,6.85-12.77,8.18a18.88,18.88,0,0,1-3.92.85,1.84,1.84,0,0,1-.28,0h-.33a13.18,13.18,0,0,1-2,0c-.4,0-.79-.08-1.17-.14l-.43-.06c-20-3.4-47.87-41.17-48.14-41.55l-.24-.36s0-.07,0-.1a.89.89,0,0,1-.12-.45,1,1,0,0,1,.09-.41c.35-.86,5.94-14,22.73-19.39a1,1,0,0,1,1,.2l25.36,23c2.93-4,15.16-20.53,24.2-29.92,4.32-4.48,12.13-8,18.57-8.45H290l6.18-.39a1,1,0,0,1,.82.36.94.94,0,0,1,.19.88c-.09.37-9.72,36.87-7.83,60.11h0c.57,7-2.44,43.35-4.27,57.12-1.54,11.63-2.58,54.31-2.87,67.11a1,1,0,0,1-.94,1,87,87,0,0,0-24.83,4.67A1,1,0,0,1,256.13,396.72ZM280,256.8a1,1,0,0,1,.41.09,1,1,0,0,1,.57,1c-.43,6.07-.29,25.48-.29,26.3a1,1,0,0,1-.2.63c-26.1,33.7-23.93,99.5-23.43,109.58a90,90,0,0,1,23.27-4.3c.38-16.95,1.38-55.21,2.86-66.41,1.77-13.35,4.8-50,4.26-56.7-1.71-21,5.84-52.65,7.55-59.46l-4.89.31H290a29,29,0,0,0-17.22,7.85c-10.19,10.58-24.53,30.39-24.67,30.59a1,1,0,0,1-.69.41,1.07,1.07,0,0,1-.77-.25l-25.74-23.33c-14.2,4.8-19.7,15.3-20.78,17.65,5.39,7.56,30.06,37.78,46.77,40.62l.3,0,1.13.14a13,13,0,0,0,1.75,0h.26l.19,0a16.67,16.67,0,0,0,3.53-.77c3.76-1.24,7.81-3.85,12.05-7.76a88.8,88.8,0,0,0,13.07-15.67,1.39,1.39,0,0,1,.15-.19A1,1,0,0,1,280,256.8Z"></path>
  <path fill="#fff4f4" d="M373.14,344.32l-19.6-5.52s-1.29,6.23-2.64,7.89a34.19,34.19,0,0,0-5.48,3.92c-1.3,1.12-8.63,8.18-12.14,10.84-3.25,2.47-3,6.4,2,5.92,4.74-.46,10.36-8.74,10.23-7.33-.27,2.86-.41,4.52-.47,5.33l-2.61,16.14a4,4,0,0,0,7.72,1.9,4.14,4.14,0,0,0,.15-.63l1.85-11.49-1.06,13.57a4,4,0,0,0,7.75,1.57,3.83,3.83,0,0,0,.2-.95v-.16a4,4,0,0,0,6.57-2.34l1.07-6.6.54,3.51a3,3,0,0,0,5.78.48,2.82,2.82,0,0,0,.12-1.39Z"></path>
  <path fill="#303030" d="M355.08,390.13h-.39a5,5,0,0,1-4.58-4.69,4.92,4.92,0,0,1-4.52,1.62,5,5,0,0,1-4.12-5.69l2.6-16.14c0-.51.12-1.46.25-2.94-2.16,2.26-5.61,5.75-8.93,6.07-3.66.35-4.74-1.4-5-2.16-.68-1.73.26-3.94,2.33-5.52,2.49-1.89,7.06-6.14,9.79-8.68,1.1-1,1.94-1.81,2.31-2.13a37.6,37.6,0,0,1,5.45-3.93c.86-1.24,1.89-5.1,2.35-7.33A1,1,0,0,1,353,338a1,1,0,0,1,.78-.11l19.59,5.52a1,1,0,0,1,.72.95v34.59a4,4,0,0,1-6.28,3.73,4.07,4.07,0,0,1-1-1l-.25,1.54a3.94,3.94,0,0,1-.19.77,4.93,4.93,0,0,1-5.5,3.34,5.32,5.32,0,0,1-1.18-.34A5,5,0,0,1,355.08,390.13Zm-2.92-19.82h.12a1,1,0,0,1,.86,1.06l-1.05,13.56a3,3,0,0,0,5.83,1.19,3.37,3.37,0,0,0,.15-.73v-.14a1,1,0,0,1,1.63-.66,3,3,0,0,0,4.83-1.3,3.23,3.23,0,0,0,.12-.47l1.06-6.6a1,1,0,0,1,1-.82h0a1,1,0,0,1,1,.83l.54,3.51a2,2,0,0,0,3.88.32,2,2,0,0,0,.08-.93.77.77,0,0,1,0-.15V345.06l-17.87-5c-.45,1.93-1.47,5.87-2.62,7.28a.91.91,0,0,1-.3.25,33.86,33.86,0,0,0-5.29,3.8c-.36.31-1.18,1.07-2.26,2.07-2.93,2.73-7.36,6.85-9.93,8.81-1.5,1.14-2,2.49-1.7,3.23s1.41,1.07,3,.92c2.72-.27,6.12-3.82,7.94-5.73,1.46-1.52,1.95-2,2.74-1.67a1.08,1.08,0,0,1,.62,1.14c-.27,2.85-.41,4.51-.47,5.32l-2.61,16.22a3,3,0,0,0,5.8,1.43,3.59,3.59,0,0,0,.12-.47l1.85-11.5A1,1,0,0,1,352.16,370.31Z"></path>
  <line x1="359.06" x2="360.13" y1="385.32" y2="371.56" fill="#fff4f4"></line>
  <path fill="#303030" d="M359.06,386.31H359a1,1,0,0,1-.9-1.06l1.06-13.76a1,1,0,0,1,2,.15L360,385.4A1,1,0,0,1,359.06,386.31Z"></path>
  <line x1="366.7" x2="366.93" y1="376.38" y2="371.02" fill="#fff4f4"></line>
  <path fill="#303030" d="M366.7,377.37h-.05a1,1,0,0,1-.94-1L366,371a1,1,0,0,1,1-.94,1,1,0,0,1,.94,1l-.23,5.35A1,1,0,0,1,366.7,377.37Z"></path>
  <path fill="#fff" d="M341.3,260s6.08,28,7.44,33.87-3.24,53.6-3.24,53.6c7.91,8.84,29.75,5.95,29.75,5.95s6-34.14,6-57.71c0-19.29-14.78-54.42-20.16-66.57a58.22,58.22,0,0,0-4.2-7.82l-2.51-3.61"></path>
  <path fill="#303030" d="M367.16,354.85c-7.24,0-17.36-1.12-22.39-6.75a1,1,0,0,1-.25-.75c1.58-16.44,4.3-48.73,3.26-53.28-1.35-5.85-7.38-33.6-7.44-33.88a1,1,0,0,1,1.93-.42c.06.28,6.08,28,7.43,33.86S347,342,346.52,347.1c6.89,7.13,24.16,5.79,27.89,5.4.86-5.06,5.86-35.48,5.86-56.81,0-19.33-15.36-55.53-20.07-66.17a56.9,56.9,0,0,0-4.13-7.69l-2.49-3.58a1,1,0,1,1,1.62-1.12l2.51,3.6a59.28,59.28,0,0,1,4.29,8c6.09,13.74,20.24,47.78,20.24,67,0,23.38-6,57.54-6,57.88a1,1,0,0,1-.84.8A66.69,66.69,0,0,1,367.16,354.85Z"></path>
  <path fill="#ffd87b" d="M301.78,253.56c3.68,4.44,9,5.59,13.54,5.59a30.31,30.31,0,0,0,5.89-.6"></path>
  <path fill="#303030" d="M315.32,260.13c-6.13,0-11.08-2.05-14.3-5.95a1,1,0,0,1,1.52-1.25c2.88,3.47,7.17,5.23,12.78,5.23a29.77,29.77,0,0,0,5.7-.57,1,1,0,0,1,1.16.77,1,1,0,0,1-.78,1.16A31.26,31.26,0,0,1,315.32,260.13Z"></path>
  <path fill="#fff" d="M279.9,257.28a10.14,10.14,0,0,1-2.88-8.34c.47-5.45,4.21-10.44,4.21-10.44"></path>
  <path fill="#303030" d="M279.9 258.26a1 1 0 0 1-.64-.23 11.13 11.13 0 0 1-3.22-9.17c.49-5.67 4.24-10.74 4.4-11a1 1 0 1 1 1.58 1.18s-3.58 4.84-4 9.94a9.17 9.17 0 0 0 2.55 7.51 1 1 0 0 1-.65 1.72ZM293.6 208.62c-3.63 8.27-8.07 22-8.09 23.4h1.57a233.23 233.23 0 0 1 8-22.83 14.19 14.19 0 0 1 1-1.88c-.42-.3-.84-.61-1.24-.92A13.17 13.17 0 0 0 293.6 208.62ZM331.28 237c.52-12.2.6-26.23-3.68-32.82-.49.35-1 .69-1.5 1 3.2 5 4 16 3.33 31.71ZM329.47 243.57l-.68.54c-1 .81-3 2.53-5.73 5.3-1.54 1.54-3.32 3.41-5.28 5.63C312 261.57 301.52 271.6 305 275.68l-1.53 1.69c-5.4-4.51 1.29-11.09 12.54-23.81A96.78 96.78 0 0 1 327.76 242l.13-.1 1 1.12Z"></path>
  <path fill="#303030" d="M306.42 273.89h0a1.5 1.5 0 0 0-2 .48l-1.77 2.79a1.47 1.47 0 0 0 .49 2h0a1.49 1.49 0 0 0 2-.48l1.77-2.78A1.48 1.48 0 0 0 306.42 273.89ZM332 284.35l-.61-2.2c7-1.66 4.27-16 2-24.46a61.27 61.27 0 0 0-2.15-6.6c-1.44-3.62-1.7-5.86-2.44-7-.39-.56-.62-.83-.63-.85l.76-.29 1.42-.54.2.26c.79 1.07 2.72 5.49 5.12 14.48C340.05 273.58 338.81 282.73 332 284.35Z"></path>
  <path fill="#303030" d="M330.84 279.91h0a1.48 1.48 0 0 1 1.57 1.32l.34 3.28a1.47 1.47 0 0 1-1.36 1.62h0a1.49 1.49 0 0 1-1.57-1.32l-.34-3.28A1.47 1.47 0 0 1 330.84 279.91ZM332.44 250.73l-1.21.36c-1.44-3.62-1.7-5.86-2.44-7-1 .81-3 2.53-5.73 5.3l-1.63-1.66c3.24-3.11 5.75-5.29 6.33-5.79h0l1.14-4.85a1.45 1.45 0 0 1 1.41-1.11 1.22 1.22 0 0 1 .32 0 1.44 1.44 0 0 1 1.07 1.73l-1.16 4.93 0 .13C330.93 243.83 331 246.79 332.44 250.73ZM280.83 233.51a5.36 5.36 0 1 0 5.24-5.24A5.25 5.25 0 0 0 280.83 233.51Z"></path>
  <path fill="#9395fb" d="M282.53,233.47a3.66,3.66,0,1,0,3.58-3.58A3.57,3.57,0,0,0,282.53,233.47Z"></path>
  <path fill="#303030" d="M286.18 237.87a4.57 4.57 0 0 1-4.64-4.38h0a4.65 4.65 0 0 1 9.29-.21 4.4 4.4 0 0 1-1.3 3.22 4.75 4.75 0 0 1-3.24 1.37Zm-2.67-4.42a2.61 2.61 0 0 0 2.73 2.45 2.72 2.72 0 0 0 1.89-.8 2.36 2.36 0 0 0 .73-1.77 2.68 2.68 0 0 0-5.35.12ZM294.82 206.4a12.38 12.38 0 0 1 9.05-4.29l.05 1.76h-.07a10.9 10.9 0 0 0-7.79 3.44h0ZM327.64 204.29a8.34 8.34 0 0 0-6.16-3.61l-.09 2.08.08 0c2.6.52 3.21.47 4.68 2.57h0Z"></path>
  <path fill="#fff4f4" d="M135.67,529.23a9.79,9.79,0,0,1-1.65-1.59c-3.73-5.13,2.33-27.5,2.33-27.5l-32.62,15.38a168.29,168.29,0,0,1-.62,17.35C115.43,537.36,125.23,533,135.67,529.23Z"></path>
  <path fill="#303030" d="M113.68,535.77a31.66,31.66,0,0,1-10.91-2,1,1,0,0,1-.65-1,165.25,165.25,0,0,0,.62-17.23,1,1,0,0,1,.57-.93l32.62-15.38a1,1,0,0,1,1,.14,1,1,0,0,1,.32,1c-1.65,6.1-5.31,22.77-2.48,26.66a8.22,8.22,0,0,0,1.47,1.41,1,1,0,0,1-.29,1.69l-2.6.94C126.88,533.48,120.59,535.77,113.68,535.77Zm-9.53-3.58c10.63,3.6,19.35.42,28.57-2.94l1.06-.38a5.78,5.78,0,0,1-.55-.65c-3.34-4.58.17-20.38,1.64-26.29l-30.15,14.21C104.76,518,104.79,524,104.15,532.19Z"></path>
  <path fill="#897bd1" d="M176.9,554.68c-3.4-4.26-33.25-19-41.23-25.45-10.44,3.73-20.24,8.13-32.56,3.64-.2,2.42-.45,5-.78,7.82-1.35,11.42-1.29,18.2-1,21.89l75.42.49C178,560.63,179,557.29,176.9,554.68Z"></path>
  <path fill="#303030" d="M176.74,564.18h0l-75.41-.49a1.12,1.12,0,0,1-1.11-1c-.29-3.73-.35-10.59,1-22.1.3-2.57.57-5.19.78-7.78a1.08,1.08,0,0,1,.51-.85,1.13,1.13,0,0,1,1-.11c10.91,4,19.79.74,29.19-2.69l2.62-1a1.1,1.1,0,0,1,1.07.19c3.73,3,12.45,7.93,20.88,12.69,10,5.65,18.6,10.52,20.52,12.92h0c2,2.45,1.95,5.78-.05,9.6A1.1,1.1,0,0,1,176.74,564.18Zm-74.37-2.71,73.68.48c.94-2,1.55-4.62,0-6.58s-10.92-7.3-19.88-12.37c-8.16-4.61-16.59-9.38-20.68-12.51l-2,.73c-9,3.28-18.28,6.67-29.34,3.16-.19,2.16-.42,4.32-.67,6.44A122,122,0,0,0,102.37,561.47Z"></path>
  <path fill="#231714" d="M100.53,562.58s.27,2.5.39,3.08a.86.86,0,0,0,.85.67h72.41a3.06,3.06,0,0,0,2.88-2l.47-1.26Z"></path>
  <path fill="#fff4f4" d="M50.22,529.23a9.79,9.79,0,0,0,1.65-1.59c3.73-5.13,6.33-24.38,6.33-24.38l29.56,3.84-5,25.77C70.46,537.36,60.66,533,50.22,529.23Z"></path>
  <path fill="#303030" d="M72.21,535.77c-6.92,0-13.2-2.29-19.72-4.67l-2.6-.94a1,1,0,0,1-.64-.76,1,1,0,0,1,.35-.93,8.22,8.22,0,0,0,1.47-1.41c3.54-4.87,6.13-23.75,6.16-23.94a1,1,0,0,1,1.1-.84l29.56,3.84a1,1,0,0,1,.84,1.17l-5,25.77a1,1,0,0,1-.63.74A31.66,31.66,0,0,1,72.21,535.77Zm-20.1-6.9,1.06.38c9.27,3.38,18,6.58,28.75,2.88l4.67-24.19L59,504.36c-.59,4-3,19.21-6.38,23.86A5.78,5.78,0,0,1,52.11,528.87Z"></path>
  <path fill="#897bd1" d="M9,554.68c3.4-4.26,33.25-19,41.23-25.45,10.44,3.73,20.24,8.13,32.56,3.64.2,2.42.45,5,.78,7.82,1.35,11.42,1.29,18.2,1,21.89l-75.42.49C7.88,560.63,6.9,557.29,9,554.68Z"></path>
  <path fill="#303030" d="M9.15,564.18a1.13,1.13,0,0,1-1-.6c-2-3.83-2-7.15,0-9.6s10.54-7.28,20.52-12.92c8.43-4.77,17.15-9.69,20.88-12.69a1.1,1.1,0,0,1,1.07-.19l2.62,1c9.4,3.43,18.28,6.67,29.19,2.69a1.13,1.13,0,0,1,1,.11,1.1,1.1,0,0,1,.51.85c.21,2.58.47,5.2.78,7.78,1.36,11.51,1.3,18.37,1,22.1a1.12,1.12,0,0,1-1.11,1l-75.41.49Zm41.27-33.69c-4.09,3.13-12.52,7.89-20.68,12.51-9,5.07-18.23,10.31-19.88,12.37h0c-1.57,2-1,4.56,0,6.58l73.68-.48a122,122,0,0,0-1.06-20.65c-.26-2.13-.48-4.29-.67-6.44-11.07,3.51-20.35.12-29.34-3.16ZM9,554.68H9Z"></path>
  <path fill="#231714" d="M85.36,562.58s-.28,2.5-.39,3.08a.86.86,0,0,1-.85.67H11.7a3.06,3.06,0,0,1-2.87-2l-.47-1.26Z"></path>
  <path fill="#fff" d="M90.21,162.14c-3.21,1.5-7.86-3.27-11.78-14.81S71,124.67,81,117.54s35.88-5.18,38.7-1.76-2.63,5.17-2.63,5.17,3.12.3,3.08,2.34a3.44,3.44,0,0,1-1.14,2.8s3.72,17-1.76,24.14S90.21,162.14,90.21,162.14Z"></path>
  <path fill="#303030" d="M89,163.39a4.65,4.65,0,0,1-1.79-.38c-3.4-1.46-6.85-6.91-9.72-15.37-3.7-10.89-7.89-23.23,2.92-30.9,10.24-7.27,36.77-5.54,40-1.59a3.6,3.6,0,0,1,.91,3.37,4.38,4.38,0,0,1-1.75,2.23,2.83,2.83,0,0,1,1.51,2.56,4.86,4.86,0,0,1-1,3.1c.6,3,3.14,17.69-2.06,24.42-5.5,7.12-25.71,11.84-27.5,12.25A3.75,3.75,0,0,1,89,163.39Zm13.76-49.68c-7.76,0-16.38,1.21-21.21,4.63-9.61,6.83-5.84,17.93-2.2,28.67C82,154.7,85.2,160,88,161.2a2.12,2.12,0,0,0,1.79.05l.2-.07c.21-.05,21.27-4.82,26.47-11.55s1.62-23.17,1.58-23.33a1,1,0,0,1,.4-1,2.62,2.62,0,0,0,.72-2c0-1.07-2.17-1.34-2.19-1.34a1,1,0,0,1-.21-1.92c.61-.2,2.4-1,2.71-2,0-.17.19-.67-.54-1.57C117.75,115,110.71,113.71,102.77,113.71Z"></path>
  <path fill="#fff4f4" d="M120.18,142.41s1.36-3.29,3.83-2.4,2.56,9-3,10.29S120.18,142.41,120.18,142.41Z"></path>
  <path fill="#303030" d="M120,151.4a2.55,2.55,0,0,1-2.15-.94c-1.65-2.14.64-7,1.42-8.47.61-1.44,2.43-3.85,5.06-2.9,1.73.62,2.37,3,2.24,5.18-.17,2.82-1.68,6.14-5.39,7A5.3,5.3,0,0,1,120,151.4Zm3.18-10.55c-1.29,0-2.1,1.91-2.11,1.94l0,.07c-1.28,2.45-2.24,5.61-1.63,6.4.23.29,1,.15,1.33.08,2.65-.61,3.73-3.08,3.86-5.19.12-1.83-.48-3-.94-3.21A1.45,1.45,0,0,0,123.2,140.85Zm-3,1.56h0Z"></path>
  <path fill="#fff4f4" d="M111.24,164.54a14.65,14.65,0,0,1-2.83.29l-.16,4.66,0,1.5s8.85,11.92-1.42,13.27S84.28,169,84.28,169l.77-11s-2.14.7-6.82-1.68c-4.35-2.22-4.58-9.73.58-10.84S85,148,86.65,147.94s-3.52-14.28-1.91-17.57c5.44-11.06,14-2,19.41-2.81,4-.59,3.32-5.6,8.12-5.56a4.55,4.55,0,0,1,4.2,2.88C120.13,134.05,126.13,161.48,111.24,164.54Z"></path>
  <path fill="#303030" d="M105.57,185.32c-10.37,0-21.59-15-22.08-15.72a.94.94,0,0,1-.19-.65l.69-9.8a14.84,14.84,0,0,1-6.2-1.88A7.44,7.44,0,0,1,74,149.71a5.75,5.75,0,0,1,4.57-5.12,7.35,7.35,0,0,1,7,1.7l.42.34c-.12-1.19-.62-3.41-1-5.13-1.26-5.55-2.07-9.63-1.12-11.56,4.12-8.38,10.29-6.16,14.81-4.54,2,.72,3.9,1.4,5.34,1.19s2.07-1.14,2.89-2.31c1-1.47,2.26-3.28,5.38-3.27a5.53,5.53,0,0,1,5.11,3.5c2.89,7.25,7.18,25.36,2,35a11.26,11.26,0,0,1-7.92,6h0a15.12,15.12,0,0,1-2.08.28l-.17,4.91c1,1.37,4.78,7.23,3.11,11.18-.8,1.87-2.61,3-5.4,3.37A11.73,11.73,0,0,1,105.57,185.32Zm-20.28-16.6c1.65,2.15,12.5,15.72,21.36,14.56,2-.27,3.33-1,3.83-2.18,1.19-2.8-1.82-7.82-3.08-9.52a1,1,0,0,1-.19-.62l.22-6.16a1,1,0,0,1,1-1,13,13,0,0,0,2.64-.28h0a9.25,9.25,0,0,0,6.59-5c4.82-9,.6-26.65-2.07-33.35a3.58,3.58,0,0,0-3.3-2.26h0c-2,0-2.77,1.07-3.71,2.42s-1.94,2.8-4.21,3.14c-1.94.29-4.06-.48-6.3-1.28-4.65-1.67-9-3.25-12.37,3.55-.72,1.46.48,6.75,1.27,10.25,1.1,4.85,1.4,6.5.74,7.36a1.23,1.23,0,0,1-.94.5,3.47,3.47,0,0,1-2.37-1.1A5.43,5.43,0,0,0,79,146.51,3.88,3.88,0,0,0,76,150a5.53,5.53,0,0,0,2.7,5.55c4.14,2.11,6.07,1.62,6.09,1.62a1,1,0,0,1,.89.18,1,1,0,0,1,.37.83Z"></path>
  <path fill="#fff4f4" d="M78.4,151.33s1.82-5.53,7.93,1.8"></path>
  <path fill="#303030" d="M86.33,154.12a1,1,0,0,1-.75-.36c-2.73-3.26-4.25-3.54-4.93-3.42-.91.16-1.31,1.29-1.31,1.3a1,1,0,0,1-1.25.62,1,1,0,0,1-.62-1.24,4.05,4.05,0,0,1,2.8-2.62c2-.38,4.2,1,6.82,4.1a1,1,0,0,1-.76,1.62Z"></path>
  <line x1="81.64" x2="83.2" y1="153.14" y2="150.51" fill="#fff4f4"></line>
  <path fill="#303030" d="M81.64 154.12a1 1 0 0 1-.5-.13 1 1 0 0 1-.34-1.35L82.35 150a1 1 0 1 1 1.7 1l-1.56 2.63A1 1 0 0 1 81.64 154.12ZM111.12 163.72c-.87.19-1.69 1.1-2.71 1.11l-.33 5.74c-10.93-1.92-13.17-10.36-13.17-10.36C100.36 163.93 108.72 164.36 111.12 163.72Z"></path>
  <path fill="#fff" d="M110.41,140a3.69,3.69,0,0,0-1.31.88,1.41,1.41,0,0,0-.27,1.47c.52,1.11,2.43,1,3.45,1,1.73,0,4.41-.4,5.42-2a1.45,1.45,0,0,0-1-2.34A10.58,10.58,0,0,0,110.41,140Z"></path>
  <path fill="#303030" d="M111.77,144.32c-1.32,0-3.14-.15-3.83-1.59a2.37,2.37,0,0,1,.41-2.53,4.35,4.35,0,0,1,1.65-1.14h0a11.4,11.4,0,0,1,7-1.05,2.48,2.48,0,0,1,1.85,1.41,2.62,2.62,0,0,1-.26,2.41c-1.31,2.09-4.48,2.45-6.25,2.48Zm-1-3.47a2.78,2.78,0,0,0-1,.61.51.51,0,0,0-.14.42c.24.5,1.9.48,2.45.46,2.39,0,4.11-.62,4.7-1.55a.73.73,0,0,0,.12-.59.56.56,0,0,0-.43-.26,9.76,9.76,0,0,0-5.75.91Z"></path>
  <path fill="#303030" d="M112.64,142.06a1.51,1.51,0,1,1,1.71,1.27A1.51,1.51,0,0,1,112.64,142.06Z"></path>
  <path fill="#fff" d="M95,142.23a3.56,3.56,0,0,0-1.31.88,1.4,1.4,0,0,0-.27,1.47c.52,1.1,2.43,1,3.45,1,1.73,0,4.41-.39,5.42-2a1.44,1.44,0,0,0-1-2.33A10.51,10.51,0,0,0,95,142.23Z"></path>
  <path fill="#303030" d="M96.36,146.59c-1.31,0-3.13-.15-3.82-1.59a2.37,2.37,0,0,1,.41-2.53,4.46,4.46,0,0,1,1.65-1.14h0a11.54,11.54,0,0,1,7-1.05,2.5,2.5,0,0,1,1.85,1.41,2.64,2.64,0,0,1-.26,2.42c-1.31,2.09-4.48,2.45-6.25,2.48Zm-1-3.46a2.78,2.78,0,0,0-1,.61.53.53,0,0,0-.14.42c.24.5,1.91.47,2.45.46,2.39,0,4.11-.62,4.7-1.56a.71.71,0,0,0,.12-.58c-.07-.17-.3-.24-.43-.27a9.69,9.69,0,0,0-5.75.92Z"></path>
  <path fill="#303030" d="M97.24 144.33a1.51 1.51 0 1 1 3-.44 1.51 1.51 0 0 1-3 .44ZM109.28 147.61l-.25 0c-3.71-1-3.88-5.81-3.89-6a1 1 0 0 1 1-1 1 1 0 0 1 1 1h0s.14 3.58 2.41 4.16a1 1 0 0 1 .71 1.2A1 1 0 0 1 109.28 147.61Z"></path>
  <path fill="#fff" d="M98.47,134.31c-1.08,0-3.47.94-3,2.43.19.64.94.91,1.61,1a5.08,5.08,0,0,0,3.33-.66,2.16,2.16,0,0,0,1-1.15c.56-1.74-1.66-1.9-2.77-1.62"></path>
  <path fill="#303030" d="M97.79,138.75a6.15,6.15,0,0,1-.85-.05A2.64,2.64,0,0,1,94.5,137a2.22,2.22,0,0,1,.36-2,5.09,5.09,0,0,1,3.58-1.73h0a3.9,3.9,0,0,1,3.47.72,2.1,2.1,0,0,1,.39,2.18,3.21,3.21,0,0,1-1.38,1.68A5.83,5.83,0,0,1,97.79,138.75Zm.82-3.47H98.5a3.32,3.32,0,0,0-2,.91.26.26,0,0,0-.06.26s.24.22.78.29a4.1,4.1,0,0,0,2.69-.51,1.29,1.29,0,0,0,.58-.62.66.66,0,0,0,0-.24,2.35,2.35,0,0,0-1.64-.13A.91.91,0,0,1,98.61,135.28Z"></path>
  <path fill="#fff" d="M110.59,132.49c1-.31,3.32-.25,3.39,1.19,0,.62-.54,1.09-1.1,1.36a4.71,4.71,0,0,1-3.12.46,2.05,2.05,0,0,1-1.21-.7c-1-1.35.87-2.17,1.92-2.28"></path>
  <path fill="#303030" d="M110.62,136.58a4.83,4.83,0,0,1-1.08-.12,3,3,0,0,1-1.77-1.06,2,2,0,0,1-.34-2.1,3.68,3.68,0,0,1,2.86-1.75A4.79,4.79,0,0,1,114,132a2.15,2.15,0,0,1,1,1.67,2.51,2.51,0,0,1-1.65,2.29A6.13,6.13,0,0,1,110.62,136.58Zm-1.38-2.51a1,1,0,0,0,.09.13,1.24,1.24,0,0,0,.66.35,3.83,3.83,0,0,0,2.46-.39,1.24,1.24,0,0,0,.55-.44s0-.07-.1-.14a3,3,0,0,0-2-.15l-.1,0a.86.86,0,0,1-.23.05A2.2,2.2,0,0,0,109.24,134.07Z"></path>
  <path fill="#fff" d="M108.69,149.06s-11.64,1.75-8.23,6.53,9.09-2,9.09-2,5.44,3.33,7.46,1.62S119.17,147.44,108.69,149.06Z"></path>
  <path fill="#303030" d="M103.45 158.28h-.18a4.57 4.57 0 0 1-3.61-2.12 3.44 3.44 0 0 1-.56-3.47c1.4-3.31 8.61-4.48 9.44-4.6 7.2-1.11 9.45 1.31 10.15 2.85a4.38 4.38 0 0 1-1 5c-2.08 1.76-6.13-.14-7.91-1.12C108.64 156 106.08 158.28 103.45 158.28Zm8.48-8.51a21 21 0 0 0-3.09.26h0c-2.67.41-7.18 1.69-7.92 3.43-.12.29-.21.76.35 1.56a2.68 2.68 0 0 0 2.09 1.29c2.08.08 4.64-2.39 5.44-3.35a1 1 0 0 1 1.27-.21c2 1.19 5.31 2.56 6.32 1.71a2.42 2.42 0 0 0 .52-2.71C116.31 150.46 114.55 149.77 111.93 149.77Zm-3.24-.71h0ZM114.64 147.44A7 7 0 0 1 108 142a6.86 6.86 0 0 1 5-8.32 6.53 6.53 0 0 1 5.09 1 7.13 7.13 0 0 1 3 4.37h0a6.86 6.86 0 0 1-5 8.32A6.4 6.4 0 0 1 114.64 147.44Zm-.25-12a4.2 4.2 0 0 0-1 .11 5 5 0 1 0 5.72 3.84h0a5.14 5.14 0 0 0-2.16-3.16A4.64 4.64 0 0 0 114.39 135.45Z"></path>
  <path fill="#303030" d="M99.08,151a7,7,0,0,1-6.65-5.49,7.1,7.1,0,0,1,.79-5.23,6.49,6.49,0,0,1,9.26-2.13,7.14,7.14,0,0,1,3,4.37,6.87,6.87,0,0,1-5,8.32A6.42,6.42,0,0,1,99.08,151Zm-.25-12a4.27,4.27,0,0,0-1,.12,4.54,4.54,0,0,0-2.91,2.16,5.15,5.15,0,0,0-.57,3.79,4.73,4.73,0,1,0,9.21-2.11,5.22,5.22,0,0,0-2.17-3.17A4.62,4.62,0,0,0,98.83,139Z"></path>
  <path fill="#303030" d="M85 147.72a1 1 0 0 1-.21-1.95L93.11 144a1 1 0 0 1 .41 1.92l-8.36 1.78ZM104.45 143.44a.94.94 0 0 1-.58-.19 1 1 0 0 1-.22-1.38 4.06 4.06 0 0 1 2.74-1.78 4.45 4.45 0 0 1 3.16.87 1 1 0 1 1-1.2 1.56 2.58 2.58 0 0 0-1.7-.48 2.22 2.22 0 0 0-1.41 1A1 1 0 0 1 104.45 143.44Z"></path>
  <path fill="#fff" d="M109,170.37a4.43,4.43,0,0,0-3.73,1.13l-18-.63c-.55.16-1-.94-1.58-.77,4.49,10.65,9.07,21.31,15.71,31.92C107.09,192.12,107.6,180.61,109,170.37Z"></path>
  <path fill="#303030" d="M101.4,203a1,1,0,0,1-.84-.47c-6.42-10.26-10.76-20.17-15.78-32.06a1,1,0,0,1,0-.8,1,1,0,0,1,.61-.53,1.79,1.79,0,0,1,1.73.6l.16.13h0l17.62.61a5.32,5.32,0,0,1,4.28-1.1,1,1,0,0,1,.77,1.1c-.23,1.66-.43,3.35-.64,5.07-1.09,9.09-2.22,18.48-7.09,26.94a1,1,0,0,1-.83.5ZM87.5,171.86c4.38,10.32,8.36,19.19,13.85,28.2,4-7.74,5-16.37,6-24.73.16-1.36.32-2.71.5-4a3.88,3.88,0,0,0-1.93.92,1,1,0,0,1-.72.27Z"></path>
  <path fill="#ff558b" d="M104.71,174.3l-1.43,4.58,1.48,15.29s-2,6.05-3.36,7.85l-4.53-7.63,2.83-15.13-3.28-4.88,2.83-2.29,2.13-.92,3.72,2.65Z"></path>
  <path fill="#303030" d="M101.4,203h-.06a1,1,0,0,1-.79-.48L96,194.89a1,1,0,0,1-.12-.68l2.76-14.73-3.06-4.55a1,1,0,0,1,.2-1.32l2.83-2.29a1,1,0,0,1,.23-.13l2.14-.92a1,1,0,0,1,1,.1l3.71,2.64a1,1,0,0,1,.41.67,1,1,0,0,1-.21.75l-.27.34L104.28,179l1.46,15.09a.91.91,0,0,1,0,.4c-.21.64-2.06,6.27-3.52,8.15A1,1,0,0,1,101.4,203Zm-3.49-8.8,3.49,5.88a56.27,56.27,0,0,0,2.36-6L102.3,179a1,1,0,0,1,0-.39l1.42-4.51-2.49-1.77-1.51.64-2,1.64,2.78,4.13a1,1,0,0,1,.15.73Z"></path>
  <path fill="#897bd1" d="M59.16,281.71,145,281.1s2,160.65.56,251.62h0a117.22,117.22,0,0,1-44.6,1l-2.09-.35L100.76,378,87.58,533.57l-3.17.58a116.41,116.41,0,0,1-45.25-.66h0S49.54,300.14,59.16,281.71Z"></path>
  <path fill="#303030" d="M63.43,537.18a117.43,117.43,0,0,1-24.5-2.6,1.13,1.13,0,0,1-.88-1.14c.43-9.54,10.5-233.81,20.13-252.24a1.09,1.09,0,0,1,1-.6L145,280h0a1.12,1.12,0,0,1,1.12,1.1c0,1.61,2,161.71.55,251.65a1.11,1.11,0,0,1-.88,1.07,117.8,117.8,0,0,1-45,1.07l-2.08-.35a1.11,1.11,0,0,1-.93-1.11l1.48-124.78-10.59,125a1.13,1.13,0,0,1-.91,1l-3.17.58A117.29,117.29,0,0,1,63.43,537.18Zm-23.11-4.59a114.51,114.51,0,0,0,43.89.46l2.33-.43L99.65,377.91a1.11,1.11,0,0,1,2.22.11L100,532.48l1.15.2a115.56,115.56,0,0,0,43.31-.87c1.31-86.1-.39-235.23-.56-249.59l-84.07.6C50.86,304,41.05,516.51,40.32,532.59Z"></path>
  <path fill="#897bd1" d="M132.24,325.37s1.17,15.59,13.34,20.71"></path>
  <path fill="#303030" d="M145.58,347.19a1.15,1.15,0,0,1-.44-.09c-12.64-5.31-14-21-14-21.65a1.12,1.12,0,0,1,1-1.19,1.11,1.11,0,0,1,1.19,1c0,.15,1.28,15,12.66,19.76a1.11,1.11,0,0,1-.43,2.14Z"></path>
  <line x1="103.85" x2="100.77" y1="325.37" y2="373.26" fill="#897bd1"></line>
  <path fill="#303030" d="M100.77,374.37h-.07a1.12,1.12,0,0,1-1-1.18l3.08-47.89a1.11,1.11,0,1,1,2.22.14l-3.07,47.89A1.12,1.12,0,0,1,100.77,374.37Z"></path>
  <path fill="#897bd1" d="M102.36,366.77s8.22-5.87,8.34-7.48,3.08-30.74,3.08-30.74"></path>
  <path fill="#303030" d="M102.36,367.88a1.09,1.09,0,0,1-.9-.46,1.12,1.12,0,0,1,.25-1.56c3.5-2.5,7.47-5.77,7.88-6.73.19-2.21,3-29.52,3.08-30.69a1.12,1.12,0,0,1,2.22.22c0,.29-3,29.13-3.08,30.71-.14,1.76-4.86,5.49-8.8,8.31A1.11,1.11,0,0,1,102.36,367.88Zm7.25-8.78Z"></path>
  <path fill="#897bd1" d="M60.54,347.66S74.47,345.25,78.73,327"></path>
  <path fill="#303030" d="M60.54,348.77a1.11,1.11,0,0,1-.19-2.21c.56-.1,13.27-2.57,17.3-19.8a1.11,1.11,0,1,1,2.17.51C75.44,346,61.33,348.65,60.73,348.76Z"></path>
  <line x1="60.54" x2="51.52" y1="331.31" y2="531.14" fill="#897bd1"></line>
  <path fill="#303030" d="M51.52,532.26h-.05a1.12,1.12,0,0,1-1.06-1.17l9-199.83a1.1,1.1,0,0,1,1.16-1.06,1.11,1.11,0,0,1,1.07,1.16l-9,199.83A1.11,1.11,0,0,1,51.52,532.26Z"></path>
  <path fill="#fff4f4" d="M5.17,353l-1.49,8a4.08,4.08,0,0,0,3.26,4.76A4,4,0,0,0,11.1,364l-.23,3.15a4.08,4.08,0,0,0,7.64,2.26l-.16,2.17A4.09,4.09,0,0,0,22.12,376,4,4,0,0,0,26,373.86a4.07,4.07,0,0,0,8,0l1-5.47c2.74-.65,8.51-4.32,9.88-8.37,1.57-4.68.58-15.49-4.28-23.83.14-3.09.18-5.17.18-5.17l-26.17-4.59S6.75,340.68,5.17,353Z"></path>
  <path fill="#303030" d="M30,378.21a4.56,4.56,0,0,1-.9-.08,5,5,0,0,1-3.44-2.36A5,5,0,0,1,22.05,377a5.08,5.08,0,0,1-4.7-5,5.06,5.06,0,0,1-7.46-4.82l.06-.77a5.07,5.07,0,0,1-7.24-5.48l1.49-8c1.59-12.4,9.18-26.37,9.5-27a1,1,0,0,1,1-.49L40.91,330a1,1,0,0,1,.81,1s0,2-.16,4.91c4.68,8.21,6,19.19,4.21,24.38-1.43,4.26-6.94,7.82-10,8.83L35,374a5.06,5.06,0,0,1-5,4.2Zm-4-5.33h.16a1,1,0,0,1,.81.8,3.1,3.1,0,0,0,2.5,2.5,3,3,0,0,0,2.3-.5,3.09,3.09,0,0,0,1.28-2l1-5.48a1,1,0,0,1,.74-.79c2.45-.58,7.93-4,9.18-7.72,1.37-4.1.67-14.65-4.2-23a.92.92,0,0,1-.13-.54c.08-1.91.13-3.43.15-4.31L15.1,327.5c-1.49,2.86-7.6,15.07-8.95,25.67a.11.11,0,0,1,0,.05l-1.49,8a3.1,3.1,0,0,0,5.63,2.26,1,1,0,0,1,1.14-.39,1,1,0,0,1,.66,1l-.22,3.15a3.08,3.08,0,0,0,2.86,3.31A3,3,0,0,0,17.64,369a1,1,0,0,1,1.85.54l-.16,2.18a3.09,3.09,0,0,0,2.86,3.3,3.05,3.05,0,0,0,2.93-1.59A1,1,0,0,1,26,372.88ZM5.17,353h0Z"></path>
  <path fill="#fff4f4" d="M34.88,368.78c0-.08,2.33-8.73,2.76-11.68"></path>
  <path fill="#303030" d="M34.88,369.77a1,1,0,0,1-.3,0,1,1,0,0,1-.64-1.21c.16-.57,2.32-8.77,2.73-11.55a1,1,0,1,1,1.95.29c-.45,3-2.78,11.78-2.8,11.84A1,1,0,0,1,34.88,369.77Z"></path>
  <line x1="27.51" x2="26.04" y1="367.49" y2="374.05" fill="#fff4f4"></line>
  <path fill="#303030" d="M26,375l-.21,0a1,1,0,0,1-.75-1.17l1.47-6.57a1,1,0,0,1,1.18-.74,1,1,0,0,1,.74,1.17L27,374.27A1,1,0,0,1,26,375Z"></path>
  <line x1="19.55" x2="18.19" y1="364.84" y2="370.16" fill="#fff4f4"></line>
  <path fill="#303030" d="M18.19,371.15a1.07,1.07,0,0,1-.25,0,1,1,0,0,1-.71-1.2l1.36-5.32a1,1,0,1,1,1.91.49l-1.36,5.32A1,1,0,0,1,18.19,371.15Z"></path>
  <line x1="11.7" x2="11.06" y1="361.62" y2="364.48" fill="#fff4f4"></line>
  <path fill="#303030" d="M11.06,365.47a.83.83,0,0,1-.22,0,1,1,0,0,1-.75-1.17l.65-2.87a1,1,0,0,1,1.92.43L12,364.7A1,1,0,0,1,11.06,365.47Z"></path>
  <path fill="#fff4f4" d="M179.87,306.27l-25.38,7.85s.3,2.06.82,5.11c-3.77,8.88-3.4,19.73-1.24,24.18,1.86,3.84,8.05,6.76,10.85,7.06l1.64,5.31a4.07,4.07,0,0,0,7.95-1,4.07,4.07,0,0,0,7.29-3.19l-.42-2.14a4.07,4.07,0,0,0,7.28-3.2l-.62-3.1a4.08,4.08,0,0,0,7-3.9l-2.49-7.74C189.42,319.45,179.87,306.27,179.87,306.27Z"></path>
  <path fill="#303030" d="M170.44,359.65a5.1,5.1,0,0,1-2.34-.58,5,5,0,0,1-2.48-3l-1.46-4.73c-3.11-.62-9-3.46-11-7.51-2.39-4.93-2.5-16,1.11-24.72-.49-2.9-.78-4.85-.78-4.85a1,1,0,0,1,.69-1.08l25.38-7.85a1,1,0,0,1,1.09.36c.39.55,9.7,13.47,12.82,25.58L196,339a5,5,0,0,1-3.27,6.37,5,5,0,0,1-3.22,0l.16.76a5.07,5.07,0,0,1-.75,3.81,5,5,0,0,1-3.22,2.15,5,5,0,0,1-2.83-.24,5.07,5.07,0,0,1-4,5.58,5,5,0,0,1-3.74-.71,5.05,5.05,0,0,1-3.11,2.78A5.27,5.27,0,0,1,170.44,359.65Zm-14.85-44.84c.13.87.37,2.37.69,4.25a1.07,1.07,0,0,1-.06.56c-3.78,8.91-3.15,19.47-1.27,23.36,1.7,3.5,7.57,6.24,10.08,6.51a1,1,0,0,1,.83.69l1.64,5.31a3.1,3.1,0,0,0,3.86,2.05,3.12,3.12,0,0,0,2.17-2.81,1,1,0,0,1,1.78-.52,3.09,3.09,0,0,0,5.53-2.43l-.43-2.14a1,1,0,0,1,1.76-.77,3.06,3.06,0,0,0,3.1,1.21,3.08,3.08,0,0,0,2.43-3.64l-.62-3.09a1,1,0,0,1,1.71-.84,3.09,3.09,0,0,0,5.3-2.95l-2.49-7.75c-2.68-10.39-10.28-21.74-12.12-24.39Z"></path>
  <path fill="#fff4f4" d="M165.05,350.87c0-.08-3.41-8.37-4.21-11.24"></path>
  <path fill="#303030" d="M165,351.85a1,1,0,0,1-.89-.57c0-.06-3.42-8.4-4.26-11.39a1,1,0,0,1,1.9-.53c.79,2.83,4.13,11,4.16,11.12a1,1,0,0,1-.51,1.28A.93.93,0,0,1,165,351.85Z"></path>
  <line x1="172.19" x2="174.48" y1="348.65" y2="354.98" fill="#fff4f4"></line>
  <path fill="#303030" d="M174.48,356a1,1,0,0,1-.93-.65L171.27,349a1,1,0,0,1,1.85-.67l2.29,6.33a1,1,0,0,1-.59,1.26A1.06,1.06,0,0,1,174.48,356Z"></path>
  <line x1="179.77" x2="181.78" y1="345.03" y2="350.13" fill="#fff4f4"></line>
  <path fill="#303030" d="M181.79,351.12a1,1,0,0,1-.92-.62l-2-5.11a1,1,0,1,1,1.83-.72l2,5.1a1,1,0,0,1-.55,1.28A.92.92,0,0,1,181.79,351.12Z"></path>
  <line x1="187.15" x2="188.14" y1="340.84" y2="343.6" fill="#fff4f4"></line>
  <path fill="#303030" d="M188.14,344.59a1,1,0,0,1-.92-.65l-1-2.76a1,1,0,0,1,1.85-.67l1,2.76a1,1,0,0,1-.59,1.26A1,1,0,0,1,188.14,344.59Z"></path>
  <path fill="#fff" d="M145.42,183.11s30.2,36.48,41.73,131c0,0-12.43,13.46-38.88,4.59C148.27,318.74,118.75,218.14,145.42,183.11Z"></path>
  <path fill="#303030" d="M165.49,322.78a55.26,55.26,0,0,1-17.54-3.1,1,1,0,0,1-.63-.66c-1.21-4.13-29.35-101.48-2.68-136.51a1,1,0,0,1,.76-.39,1,1,0,0,1,.78.36c.31.37,30.52,37.79,41.94,131.55a1,1,0,0,1-.25.79C187.48,315.24,180.29,322.78,165.49,322.78ZM149.07,318c23,7.52,35-2.29,37-4.19-10.36-84.32-35.89-122.51-40.67-129C121.62,218.63,146.92,310.38,149.07,318Z"></path>
  <path fill="#ffd87b" d="M50.23,324.57l98.53,1c1-38-3.35-84.95-3.35-84.95.32,0-1.19-7.22-.87-7.27-1.45-17.12-4.33-33,.88-50.2-2.92-5.32-29.37-11.24-36.42-12.75-1.4,10.24-1.91,21.76-7.6,31.66-6.65-10.62-11.22-21.27-15.71-31.93-20.61,6.33-32.17,8.33-38,13.4,3.23,9.09,19.47,45.8,3.78,63.84.5,4.31.86,8.18,1,11.19C53.09,277.78,50.23,324.57,50.23,324.57Z"></path>
  <path fill="#303030" d="M148.76,326.52h0l-98.53-1a1,1,0,0,1-.71-.31,1,1,0,0,1-.26-.73c0-.47,2.84-47,2.21-66-.09-2.75-.41-6.49-1-11.11a1,1,0,0,1,.24-.76C64.61,230.75,52.53,199,48,187c-.49-1.27-.9-2.35-1.2-3.19a1,1,0,0,1,.29-1.08c4.38-3.82,11.54-5.86,23.41-9.22,4.35-1.24,9.29-2.64,14.92-4.37a1,1,0,0,1,1.19.56c4.74,11.24,8.88,20.7,14.75,30.35,4-7.74,5-16.37,6-24.73.2-1.73.41-3.43.64-5.1a.93.93,0,0,1,.41-.67,1,1,0,0,1,.77-.16c12.62,2.71,34.22,8,37.08,13.23a1.06,1.06,0,0,1,.08.76c-4.33,14.3-3,27.64-1.61,41.76.27,2.67.53,5.36.76,8.08a.9.9,0,0,1,0,.37c0,.51.29,2.08.46,3.15a16.49,16.49,0,0,1,.47,4c.34,3.76,4.25,48.6,3.33,84.81A1,1,0,0,1,148.76,326.52Zm-97.48-2.93,96.52,1c.85-37.35-3.33-83.4-3.37-83.86a.84.84,0,0,1,0-.39c0-.52-.29-2.13-.47-3.22a16.59,16.59,0,0,1-.46-3.91c-.23-2.64-.48-5.24-.74-7.82-1.41-14.18-2.74-27.58,1.55-42.08-2.41-3.13-15.44-7.56-34.51-11.71-.18,1.32-.34,2.66-.5,4-1.09,9.09-2.22,18.49-7.09,26.95a1,1,0,0,1-.84.5.93.93,0,0,1-.85-.47c-6.28-10-10.57-19.73-15.43-31.24-5.3,1.61-10,2.94-14.12,4.11-10.74,3.05-18,5.11-22.14,8.39l1,2.51c4.63,12.19,16.88,44.42,2.7,61.33.51,4.48.82,8.12.91,10.85C54,276,51.69,316.59,51.28,323.59Zm94-84Zm0,0h0Zm0,0Zm0,0Zm0,0h0Zm0,0Zm-.61-5.32Zm0,0Zm0,0Zm0,0Zm0,0h0Zm0,0Zm0,0"></path>
  <path fill="#fff" d="M100.69,171c-6,.76-15.3-1.86-17.27-4l-1.85,4.52s7.69,13.7,9.21,13.46,7.09-12.75,9.82-13.41,9.14,9.7,9.86,9.89-.67-13.83-1.28-14.12S109.93,169.82,100.69,171Z"></path>
  <path fill="#303030" d="M90.72,186c-.79,0-2.73-1-10-14a1,1,0,0,1,0-.86l1.85-4.51a1,1,0,0,1,.73-.59,1,1,0,0,1,.9.29c1.73,1.84,10.68,4.39,16.43,3.65h0c3-.39,6.74-1.19,7.44-2.82a1.27,1.27,0,0,1,.71-.76,1.14,1.14,0,0,1,.88.05c.51.24.94.45,1.64,7.44.25,2.49.61,6.82.24,7.81a1.06,1.06,0,0,1-1.28.71c-.52-.14-.84-.54-2.42-2.66-3.75-5-6.09-7.41-6.94-7.22-1.15.27-4,5.09-5.5,7.67-2.49,4.22-3.38,5.6-4.41,5.76Zm-.27-1.91ZM82.66,171.5c3,5.31,6.68,11.15,8,12.39a43.79,43.79,0,0,0,3-4.64,49.74,49.74,0,0,1,4.7-7.12c-5.13,0-11.54-1.7-14.5-3.52Zm20.55.1c1.82,1.38,3.9,4,6.14,7l.3.4c-.12-2.68-.56-7.15-.94-9.55C107.77,170.27,106.15,171,103.21,171.6Zm5.16-3.68Z"></path>
  <path fill="#fff" d="M47.71,183.49a118.08,118.08,0,0,1,7.89,20.26,88.4,88.4,0,0,1,1.55,39.13c-4.8,26.62-13.83,93.79-13.83,93.79-17.28,4.17-35.2-2-35.2-2C7.52,212.4,47.22,183.92,47.71,183.49Z"></path>
  <path fill="#303030" d="M30.3,339.12a75.82,75.82,0,0,1-22.5-3.51,1,1,0,0,1-.67-.93C6.56,217.67,42.89,186,47,182.77a1.06,1.06,0,0,1,.87-.21,1,1,0,0,1,.7.5,120,120,0,0,1,7.95,20.43,90,90,0,0,1,1.57,39.56c-4.74,26.3-13.74,93.08-13.83,93.75a1,1,0,0,1-.74.82A56.41,56.41,0,0,1,30.3,339.12ZM9.1,334c3.32,1,18.58,5.24,33.33,1.9,1-7.1,9.26-68.24,13.75-93.16A88,88,0,0,0,54.65,204a114.44,114.44,0,0,0-7.28-19C40.59,190.93,8.71,224.48,9.1,334Z"></path>
  <path fill="#303030" d="M83.32,307.79c-1.86-14.86-5.88-22.41-9.2-26.22a11.24,11.24,0,0,0-8.46-3.79h-24a3.15,3.15,0,0,1-3.15-3h0a3.15,3.15,0,0,1,3.15-3.27H65.2a19.68,19.68,0,0,1,18.26,12.26,71,71,0,0,1,4.25,17.75Z"></path>
  <path fill="#303030" d="m83.32 308.77-.24 0a1 1 0 0 1-.74-.83c-1.86-14.88-5.9-22.18-9-25.69a10.21 10.21 0 0 0-7.71-3.46h-24a4.13 4.13 0 0 1-3-7 4.07 4.07 0 0 1 3-1.27H65.2a20.58 20.58 0 0 1 19.17 12.88 72.19 72.19 0 0 1 4.31 18 1 1 0 0 1-.17.69l-4.39 6.3A1 1 0 0 1 83.32 308.77ZM41.68 272.46a2.19 2.19 0 0 0-2.17 2.25 2.17 2.17 0 0 0 2.17 2.09h24a12.22 12.22 0 0 1 9.2 4.12c3.06 3.51 7 10.53 9.09 24.24l2.73-3.93a69.54 69.54 0 0 0-4.13-17.12A18.62 18.62 0 0 0 65.2 272.46ZM172.51 307.79c-1.86-14.86-5.87-22.41-9.2-26.22a11.24 11.24 0 0 0-8.46-3.79h-24a3.15 3.15 0 0 1-3.15-3h0a3.15 3.15 0 0 1 3.15-3.27h23.52a19.68 19.68 0 0 1 18.26 12.26 71 71 0 0 1 4.25 17.75Z"></path>
  <path fill="#303030" d="M172.51,308.77l-.24,0a1,1,0,0,1-.74-.83c-1.86-14.88-5.9-22.18-9-25.69a10.21,10.21,0,0,0-7.72-3.46h-24a4.11,4.11,0,0,1-4.13-4,4.13,4.13,0,0,1,4.13-4.3h23.52a20.58,20.58,0,0,1,19.17,12.88,72.61,72.61,0,0,1,4.32,18,1,1,0,0,1-.17.69l-4.39,6.3A1,1,0,0,1,172.51,308.77Zm-41.64-36.31a2.13,2.13,0,0,0-1.56.67,2.16,2.16,0,0,0,1.56,3.67h24a12.2,12.2,0,0,1,9.2,4.12c3.06,3.51,7,10.53,9.09,24.24l2.73-3.93a69.54,69.54,0,0,0-4.13-17.12,18.62,18.62,0,0,0-17.35-11.65Z"></path>
  <polygon fill="#303030" points="233.69 460.48 233.69 523.52 230.37 523.52 230.37 457.66 231.95 457.66 233.69 460.48"></polygon>
  <polygon fill="#303030" points="274.86 530.57 269.71 531.14 233.69 469.94 230.37 464.29 213.72 436 218.87 435.43 231.95 457.66 233.69 460.61 274.86 530.57"></polygon>
  <polygon fill="#303030" points="340.61 528.9 335.46 529.47 299.43 468.26 296.11 462.62 279.46 434.33 284.61 433.76 297.7 455.99 299.43 458.94 340.61 528.9"></polygon>
  <ellipse cx="233.69" cy="545.15" fill="#dcc3f5" rx="16.78" ry="20.95" transform="rotate(-4.84 233.9 545.48)"></ellipse>
  <path fill="#303030" d="M234.31,567.06c-9.25,0-17.34-8.87-18.32-20.41a24.66,24.66,0,0,1,3.81-15.81,16.13,16.13,0,0,1,12-7.55c9.76-.82,18.52,8.31,19.55,20.36h0a24.74,24.74,0,0,1-3.81,15.81,16.2,16.2,0,0,1-12,7.55C235.13,567,234.72,567.06,234.31,567.06Zm-1.24-41.85c-.36,0-.71,0-1.07,0a14.22,14.22,0,0,0-10.56,6.68A22.75,22.75,0,0,0,218,546.48c.93,11,8.75,19.3,17.42,18.56a14.21,14.21,0,0,0,10.57-6.68,22.67,22.67,0,0,0,3.48-14.55h0C248.53,533.3,241.31,525.21,233.07,525.21Z"></path>
  <path fill="#dcc3f5" d="M320.34,543.85c1,11.54-5.71,21.52-14.95,22.3s-17.5-7.93-18.47-19.46a25.44,25.44,0,0,1,.59-8.1,21.19,21.19,0,0,1,4.22-8.64l21-1.78a21.25,21.25,0,0,1,5.62,7.8A25.67,25.67,0,0,1,320.34,543.85Z"></path>
  <path fill="#303030" d="M304.23,567.18a16.35,16.35,0,0,1-11.88-5.47,24.61,24.61,0,0,1-6.41-14.94,26.24,26.24,0,0,1,.61-8.41,22.21,22.21,0,0,1,4.43-9,1,1,0,0,1,.67-.35l21.05-1.78a1,1,0,0,1,.72.23,22.33,22.33,0,0,1,5.89,8.16,26.73,26.73,0,0,1,2,8.19h0a24.66,24.66,0,0,1-3.8,15.81,16.13,16.13,0,0,1-12,7.55C305.06,567.17,304.64,567.18,304.23,567.18Zm-12-36.28a20.28,20.28,0,0,0-3.76,7.92,24.32,24.32,0,0,0-.57,7.78,22.7,22.7,0,0,0,5.88,13.76,13.55,13.55,0,0,0,22.1-1.87,22.69,22.69,0,0,0,3.48-14.55h0a24.57,24.57,0,0,0-1.86-7.58,20.32,20.32,0,0,0-5.05-7.17Z"></path>
  <path fill="#dcc3f5" d="M244.17,544.26c.61,7.23-3.59,13.49-9.37,14s-11-5-11.59-12.21,3.58-13.48,9.37-14S243.56,537,244.17,544.26Z"></path>
  <path fill="#303030" d="M234.07,559.25a10.65,10.65,0,0,1-7.72-3.54A16.53,16.53,0,0,1,224.68,536a10.47,10.47,0,0,1,7.82-4.89c6.3-.54,12,5.34,12.65,13.1a15.88,15.88,0,0,1-2.45,10.14,10.5,10.5,0,0,1-7.82,4.9ZM233.3,533l-.64,0a8.56,8.56,0,0,0-6.35,4,14.55,14.55,0,0,0,1.47,17.28,8.13,8.13,0,0,0,13.28-1.12,13.91,13.91,0,0,0,2.13-8.89h0C242.64,537.94,238.28,533,233.3,533Z"></path>
  <ellipse cx="303.63" cy="545.27" fill="#dcc3f5" rx="10.52" ry="13.14" transform="rotate(-4.84 303.822 545.59)"></ellipse>
  <path fill="#303030" d="M304,559.38c-6,0-11.22-5.71-11.85-13.14-.66-7.75,3.95-14.5,10.27-15a10.52,10.52,0,0,1,8.53,3.51,15.83,15.83,0,0,1,4.12,9.59c.66,7.76-3.95,14.51-10.27,15C304.55,559.36,304.29,559.38,304,559.38Zm-.78-26.24-.64,0c-5.23.45-9,6.24-8.47,12.92s5.3,11.75,10.53,11.3,9-6.24,8.47-12.91h0a13.84,13.84,0,0,0-3.59-8.4A8.69,8.69,0,0,0,303.24,533.14Z"></path>
  <path fill="#dcc3f5" d="M284.91,434l-71.19,2a23.4,23.4,0,0,0-6.16-5.09,31.55,31.55,0,0,0-16-4.2H127.24c-19.53-1.42-25-23.16-25-23.16l-8.37-40.9-2.48-12.14L78.9,289.63h95.76l16.74,81.91,1.44,7c1.7,6.78,5.11,17.12,11.42,25,10.25,12.76,34,10.71,53.24,13.24A38.06,38.06,0,0,1,284.91,434Z"></path>
  <path fill="#303030" d="M213.72 437a1 1 0 0 1-.76-.36 22.13 22.13 0 0 0-5.9-4.87 30.56 30.56 0 0 0-15.5-4.06H127.24c-20.08-1.46-25.94-23.68-26-23.9l-23.3-114a1 1 0 0 1 .2-.82 1 1 0 0 1 .76-.36h95.76a1 1 0 0 1 1 .79l18.19 88.94c1.75 7 5.12 16.95 11.22 24.56 7.55 9.4 23.21 10.51 38.36 11.58 4.75.34 9.66.69 14.24 1.29a38.67 38.67 0 0 1 28.14 17.67 1 1 0 0 1 0 1 1 1 0 0 1-.83.5L213.75 437Zm-22.16-11.26a32.63 32.63 0 0 1 16.5 4.33 24.43 24.43 0 0 1 6.1 4.95l69-2a37.77 37.77 0 0 0-25.74-15.26c-4.53-.59-9.41-.94-14.13-1.27-15.57-1.11-31.67-2.25-39.75-12.32-6.33-7.88-9.81-18.14-11.61-25.36l-18-88.19H80.11l23 112.74c0 .16 5.57 21 24.15 22.37ZM296.68 519.62s-28.17 2-30.44 0 2-6.54 11.09-6.54 22.48.57 22.48.57Z"></path>
  <path fill="#303030" d="M275.83,521.49c-5.09,0-9.27-.28-10.24-1.13a2.64,2.64,0,0,1-.74-3.07c.94-2.5,5.25-5.2,12.48-5.2,9,0,22.39.57,22.52.57a1,1,0,0,1,.81.5,1,1,0,0,1,0,1l-3.13,6a1,1,0,0,1-.8.53C292.76,520.89,283.32,521.49,275.83,521.49Zm20.85-1.87h0Zm-19.35-5.56c-6.32,0-10,2.29-10.64,3.92a.72.72,0,0,0,.19.9c1.53,1,15.93.72,29.18-.2l2.16-4.11C294.43,514.42,284.5,514.06,277.33,514.06Z"></path>
  <path fill="#fff4f4" d="M306.17,491.65a8.1,8.1,0,0,1-1.52-1.29c-3.51-4.24-8.13-26.05-8.13-26.05L275.2,477.46l3,19.13C289.08,499.8,297.33,495.46,306.17,491.65Z"></path>
  <path fill="#303030" d="M285.69,498.68a27.37,27.37,0,0,1-7.81-1.15,1,1,0,0,1-.7-.79l-2.95-19.13a1,1,0,0,1,.45-1L296,463.47a1,1,0,0,1,.91-.07,1,1,0,0,1,.57.7c1.27,6,5.18,22.31,7.93,25.63a7.22,7.22,0,0,0,1.33,1.11,1,1,0,0,1,.41.91,1,1,0,0,1-.59.8l-2.21,1C298.53,496.07,292.56,498.68,285.69,498.68ZM279,495.81c9.38,2.54,16.75-.69,24.53-4.1l.72-.31c-.15-.15-.28-.28-.39-.41-3.14-3.79-6.95-20.2-8-25.11L276.27,478Z"></path>
  <path fill="#897bd1" d="M343.28,511.42c-3.18-3.5-29.84-14.64-37.11-19.77-8.84,3.81-17.09,8.15-28,4.94,0,2.11-.12,4.39-.25,6.82-.54,10-.12,15.83.33,19l65.36-3.72C344.57,516.52,345.24,513.57,343.28,511.42Z"></path>
  <path fill="#303030" d="M278.24,523.54a1.12,1.12,0,0,1-1.1-1c-.46-3.22-.89-9.18-.34-19.23.12-2.26.2-4.54.24-6.78a1.14,1.14,0,0,1,.46-.88,1.12,1.12,0,0,1,1-.17c9.62,2.82,17.11-.45,25-3.93l2.22-1a1.1,1.1,0,0,1,1.08.11c3.38,2.39,11.2,6.17,18.76,9.84,10.41,5,16.85,8.23,18.54,10.1h0c1.88,2.06,2.05,5,.51,8.47a1.12,1.12,0,0,1-.95.67l-65.36,3.72Zm1-25.51c-.05,1.81-.12,3.63-.22,5.44a106.92,106.92,0,0,0,.2,17.78l63.62-3.62c.66-1.74,1-3.92-.38-5.46h0c-1.52-1.67-10.2-5.88-17.86-9.59-7.29-3.53-14.81-7.17-18.55-9.67l-1.65.72C296.82,497,289,500.39,279.24,498Z"></path>
  <path fill="#231714" d="M277.56,522.47s.37,2.15.5,2.64a.75.75,0,0,0,.77.54l62.74-4a2.67,2.67,0,0,0,2.38-1.89l.34-1.12Z"></path>
  <path fill="#fff4f4" d="M277.12,495.64a8.2,8.2,0,0,1-1.45-1.37c-3.28-4.42-4.35-26.61-4.35-26.61l-25.54,13.18,3.1,18.25C259.62,502.87,268.09,499,277.12,495.64Z"></path>
  <path fill="#303030" d="M257.74,501.61a27.28,27.28,0,0,1-9.19-1.59,1,1,0,0,1-.64-.76L244.81,481a1,1,0,0,1,.52-1l25.54-13.18a1,1,0,0,1,1.43.83c.3,6.09,1.61,22.64,4.16,26.06a7,7,0,0,0,1.27,1.18,1,1,0,0,1,.36.93,1,1,0,0,1-.63.77l-2.26.84C269.68,499.48,264,501.61,257.74,501.61Zm-8-3.26c9.26,3,16.79.21,24.76-2.79l.73-.28q-.21-.22-.36-.42c-3-4-4.15-20.24-4.46-25.62l-23.55,12.15Z"></path>
  <path fill="#897bd1" d="M313.13,517.35c-3-3.67-29-16.2-36-21.71-9,3.33-17.5,7.23-28.24,3.45-.15,2.1-.34,4.38-.6,6.8-1.07,9.92-1,15.8-.68,19l65.47-.26C314.15,522.51,315,519.6,313.13,517.35Z"></path>
  <path fill="#303030" d="M247.6,526a1.13,1.13,0,0,1-1.11-1c-.28-3.24-.4-9.21.68-19.22.24-2.25.44-4.53.6-6.76a1.14,1.14,0,0,1,.5-.85,1.1,1.1,0,0,1,1-.12c9.46,3.33,17.11.45,25.22-2.6l2.26-.85a1.14,1.14,0,0,1,1.08.17c3.25,2.57,10.85,6.76,18.21,10.82,10.12,5.58,16.39,9.11,18,11.06h0c1.76,2.16,1.79,5.1.06,8.5a1.14,1.14,0,0,1-1,.61l-65.46.26Zm2.29-25.42c-.14,1.8-.31,3.61-.51,5.42a107.32,107.32,0,0,0-.74,17.76l63.72-.25c1-2.3,1-4.14-.09-5.47-1.43-1.75-9.87-6.41-17.32-10.52-7.09-3.91-14.41-7.95-18-10.64l-1.68.63C267.5,500.44,259.49,503.45,249.89,500.59Z"></path>
  <path fill="#231714" d="M246.92,524.9s.26,2.17.36,2.67a.73.73,0,0,0,.74.57l62.86-.65a2.68,2.68,0,0,0,2.48-1.77l.4-1.1Z"></path>
  <path fill="#fff4f4" d="M279.47,355.45c-.5-1.58-12.62-15-14.2-15.84-1-.52-8-2.83-12.69-4.34-.35-.12-.7-.22-1.05-.32a30.89,30.89,0,0,0-10.17-1.08l-23.38.5s-11.8-32.31-16.41-39.33l-18.16,20.67,9.3,29.86a18.63,18.63,0,0,0,20,14.59l34.08-3.68a15.74,15.74,0,0,0,4.16,2,17.82,17.82,0,0,0,8.64.19s2.68,5.64,4.28,7.09a2.52,2.52,0,0,0,.92.54,1.64,1.64,0,0,0,2-2.16l-1.39-3.64a24.65,24.65,0,0,1,2.18,2.92,21.34,21.34,0,0,0,1.49,5.15c1.12,2.17,3.75,1.53,3.88.5s-1.21-5.76-1.31-6.64a15.77,15.77,0,0,0-1.82-3.48s2.83,2.37,3.43,3.58a62.36,62.36,0,0,0,2.62,5.69c1.16,1.94,3.38,1.9,4.2.54s-.59-2.94-.59-2.94a2.16,2.16,0,0,0,3.46-1.23C283.3,362.7,280,357,279.47,355.45Z"></path>
  <path fill="#303030" d="M271.37,371a3.49,3.49,0,0,1-3.16-2,13.41,13.41,0,0,1-1-2.55l-.08.09a2.57,2.57,0,0,1-2.68.68,3.45,3.45,0,0,1-1.27-.75c-1.4-1.27-3.37-5.07-4.17-6.7a18.66,18.66,0,0,1-8.38-.37,16.47,16.47,0,0,1-4.12-1.89l-33.73,3.64a19.61,19.61,0,0,1-21.07-15.35L182.47,316a1,1,0,0,1,.2-.94l18.16-20.67a1,1,0,0,1,.81-.33,1,1,0,0,1,.75.44c4.31,6.56,14.52,34.1,16.27,38.87l22.68-.49A32,32,0,0,1,251.8,334c.37.1.72.21,1.08.33,7.67,2.49,12,4,12.84,4.4,1.9,1,14.12,14.62,14.69,16.42h0c.14.43.59,1.36,1.07,2.34,1.55,3.21,2.72,5.77,2.44,7.24a3,3,0,0,1-2.16,2.37,4.15,4.15,0,0,1-.48.11,2.84,2.84,0,0,1-.34,2,3,3,0,0,1-2.65,1.45,3.85,3.85,0,0,1-3.24-2,29.42,29.42,0,0,1-1.81-3.77,16.3,16.3,0,0,1,.71,4.23,2.25,2.25,0,0,1-2,1.77A3.48,3.48,0,0,1,271.37,371Zm-5.95-11.49a1,1,0,0,1,.75.35,19.79,19.79,0,0,1,2.34,3.2,6.35,6.35,0,0,1,.27,1.15,13.65,13.65,0,0,0,1.18,3.9,1.54,1.54,0,0,0,1.24.92,1.18,1.18,0,0,0,.8-.17,33.17,33.17,0,0,0-.86-4.21c-.26-1.11-.42-1.76-.46-2.1a14.29,14.29,0,0,0-1.67-3.05,1,1,0,0,1,1.46-1.3c.5.41,3,2.56,3.68,3.89.22.44.47,1,.75,1.72a32,32,0,0,0,1.84,3.91,1.89,1.89,0,0,0,1.56,1h0a1.06,1.06,0,0,0,.95-.5c.43-.7-.48-1.77-.49-1.78a1,1,0,0,1,.08-1.38,1,1,0,0,1,1.38.06,1.15,1.15,0,0,0,1,.1,1,1,0,0,0,.79-.84c.18-.95-1.42-4.25-2.28-6a24.49,24.49,0,0,1-1.17-2.59c-.68-1.6-12.19-14.42-13.72-15.27-.33-.17-2.25-.94-12.55-4.29l-1-.31a30.09,30.09,0,0,0-9.85-1l-23.41.51a1,1,0,0,1-.94-.65c-.12-.31-10.75-29.37-15.63-38l-16.92,19.24,9.14,29.33a17.69,17.69,0,0,0,19,13.91l34.07-3.68a.94.94,0,0,1,.65.16,14.78,14.78,0,0,0,3.9,1.84,16.91,16.91,0,0,0,8.11.17,1,1,0,0,1,1.14.53c.72,1.52,2.86,5.71,4.05,6.79a1.65,1.65,0,0,0,.56.34.61.61,0,0,0,.65-.17.67.67,0,0,0,.14-.71l-1.39-3.64a1,1,0,0,1,.42-1.2A.9.9,0,0,1,265.42,359.47Z"></path>
  <path fill="#fff4f4" d="M260.6,358a9.76,9.76,0,0,0,4.67-2.15"></path>
  <path fill="#303030" d="M260.6,359a1,1,0,0,1-.15-2,8.81,8.81,0,0,0,4.15-1.88,1,1,0,0,1,1.35,1.43,10.68,10.68,0,0,1-5.21,2.4Z"></path>
  <path fill="#fff4f4" d="M279.17,365.36s-2.68-6.44-2.9-6.72A27.42,27.42,0,0,0,274,357"></path>
  <path fill="#303030" d="M279.18 366.34a1 1 0 0 1-.91-.6c-1.16-2.76-2.48-5.87-2.79-6.5-.29-.24-1.26-.92-2.06-1.45a1 1 0 1 1 1.09-1.64 12.9 12.9 0 0 1 2.54 1.88c.09.13.29.38 3 7a1 1 0 0 1-.53 1.29A1 1 0 0 1 279.18 366.34ZM276.57 428.25a1 1 0 0 1-1-1l-1.27-49c-.17-7-5.35-12.4-11.8-12.4l-73.3-.21a1 1 0 0 1-1-1 1 1 0 0 1 1-1h0l73.29.21c7.52 0 13.57 6.29 13.77 14.32l1.27 48.95a1 1 0 0 1-1 1Z"></path>
  <path fill="#dcc3f5" d="M262.51,358.87a6.06,6.06,0,0,1-6.08,6.07H188.87l-2.48-12.14h70A6.08,6.08,0,0,1,262.51,358.87Z"></path>
  <path fill="#303030" d="M256.43,365.93H188.87a1,1,0,0,1-1-.79L185.42,353a1,1,0,0,1,.21-.81,1,1,0,0,1,.76-.37h70a7.07,7.07,0,0,1,7.06,7.06,7.07,7.07,0,0,1-7.06,7.06Zm-66.76-2h66.76a5.09,5.09,0,0,0,0-10.18H187.59Z"></path>
  <path fill="#897bd1" d="M283,389.86c-8.2-8.2-56.69-12.09-68.53-14.08l-.87-.44h-1.79l-63.09.44-21.62,7.28s.34,36.62,10.21,43.44l87.77,1.18L242.55,495c12.12,4.59,34.48-5.69,34.48-5.69l-.46-3.85c16.57-2.2,25.7-8.72,26.3-8.52S291,397.83,283,389.86Z"></path>
  <path fill="#303030" d="M250,497.27a22.45,22.45,0,0,1-7.89-1.25,1.1,1.1,0,0,1-.68-.76L224.25,428.8l-86.92-1.17a1.23,1.23,0,0,1-.62-.2C126.49,420.36,126,384.6,126,383.09a1.12,1.12,0,0,1,.76-1.07l21.63-7.28a1,1,0,0,1,.35-.06l62.92-.44a.86.86,0,0,1,.32,0h1.63a1.37,1.37,0,0,1,.51.12l.72.36c2.56.42,6.68.92,11.86,1.55,25.51,3.1,50.93,6.63,57.11,12.81h0c3.5,3.51,8,19.26,13.36,46.81,2.36,12.16,4.14,22.81,5,28.07,2.07,12.86,1.89,13.15,1.64,13.55a1.11,1.11,0,0,1-.84.52c-.22.09-.73.36-1.22.61a73.67,73.67,0,0,1-24,7.76l.33,2.76a1.11,1.11,0,0,1-.64,1.15C276.74,490.64,262.15,497.27,250,497.27Zm-6.56-3.14c10.43,3.47,28.48-3.87,32.34-5.53l-.36-3a1.12,1.12,0,0,1,1-1.24,71.74,71.74,0,0,0,24.31-7.68l1-.51c-.76-8.37-12.37-78.4-19.48-85.5h0c-6.15-6.16-38.45-10.07-55.8-12.18-5.33-.64-9.53-1.15-12.12-1.59a.92.92,0,0,1-.33-.11l-.63-.32h-1.52l-62.9.45-20.68,7c.12,5.31,1.19,35.21,9.44,41.53l87.42,1.18a1.12,1.12,0,0,1,1.07.84ZM302.54,478Zm0,0h0Zm.36-1.05h0Z"></path>
  <path fill="#ff558b" d="M194.38,324.89c.83,7.44,2.2,16.42,3.46,24a42,42,0,0,0,15.8,26.42h0s-27.82,12.38-57.3,13.72c-9.83.44-29.48.8-29.48.8-3.63-11.87-.62-42.83.68-59.61-4-.89-27.41-8.18-27.41-8.18S110.82,295.68,115.3,290c2.79-3.52,5.44-6.37,7.56-7.69h.25c4.86-3.05,16.83-5.45,29.74-8,6.53,4.32,11.49,5.31,17.59.49a137.39,137.39,0,0,1,14,4.2c1.48.55,2.85,1.11,4,1.65l.23,0c4.15,1.45,7.58,5.29,12,10h0c8.62,11.2,14.47,27.25,14.47,27.25Z"></path>
  <path fill="#303030" d="M126.86,390.84a1,1,0,0,1-1-.69c-3.32-10.87-1.19-37.16.22-54.55.13-1.61.25-3.15.36-4.59-5.6-1.45-25.75-7.72-26.65-8a1,1,0,0,1-.6-.52,1,1,0,0,1,0-.79c.44-1.08,10.79-26.59,15.31-32.31,3.15-4,5.78-6.66,7.81-7.92a1,1,0,0,1,.48-.15c5.14-3.07,17.14-5.48,29.83-8a1,1,0,0,1,.75.15c6.87,4.55,11.17,4.69,16.43.54a1,1,0,0,1,.84-.19A140.35,140.35,0,0,1,184.74,278c1.46.53,2.74,1.06,3.81,1.55a1.07,1.07,0,0,1,.4.05c4.15,1.44,7.45,5,11.64,9.46l.74.8a.31.31,0,0,1,.09.11C210,301.19,216,317.31,216,317.47a1,1,0,0,1,0,.76,1,1,0,0,1-.57.51l-20,6.83c.71,6.15,1.84,13.95,3.36,23.19a40.86,40.86,0,0,0,15.43,25.8,1,1,0,0,1,.38.9,1,1,0,0,1-.58.78c-.28.12-28.33,12.47-57.66,13.8-9.73.44-29.31.8-29.51.8Zm-25.41-69.39c4.56,1.41,22.86,7.07,26.3,7.84a1,1,0,0,1,.77,1c-.13,1.68-.28,3.5-.43,5.43-1.37,16.87-3.41,42.17-.5,53.1,3.71-.07,20.09-.4,28.7-.79,25.1-1.14,49.28-10.46,55.45-13a42.79,42.79,0,0,1-14.87-26c-1.6-9.67-2.76-17.77-3.47-24.08a1,1,0,0,1,.66-1l19.74-6.76c-1.39-3.57-6.72-16.61-14-26l-.7-.76c-3.92-4.19-7-7.52-10.62-8.86a.94.94,0,0,1-.55-.08c-1.07-.51-2.39-1.05-3.92-1.62a139.33,139.33,0,0,0-13.39-4.05c-6.54,4.95-12,3.42-18-.52-12.56,2.52-24.36,4.91-29,7.83a1,1,0,0,1-.47.15c-1.81,1.2-4.2,3.66-7.1,7.33C112.22,295.5,103.44,316.61,101.45,321.45Z"></path>
  <path fill="#ff558b" d="M194.63,325.73a129.46,129.46,0,0,1-1.92-16.39"></path>
  <path fill="#303030" d="M194.63,326.71a1,1,0,0,1-1-.82,129.1,129.1,0,0,1-1.94-16.53,1,1,0,0,1,2-.05,129.16,129.16,0,0,0,1.91,16.25,1,1,0,0,1-.81,1.14Z"></path>
  <path fill="#ff558b" d="M129.68,285.39c3.74,1.34,8.47,4.71,10.62,13.09"></path>
  <path fill="#303030" d="M140.3,299.47a1,1,0,0,1-1-.74c-2.06-8-6.58-11.18-10-12.41a1,1,0,0,1,.67-1.86c3.87,1.39,9,4.91,11.24,13.78a1,1,0,0,1-.71,1.2A1.07,1.07,0,0,1,140.3,299.47Z"></path>
  <path fill="#ff558b" d="M152,270s-2.66-.38-3.8.67-2.18,4.64-2.18,4.64.48,6.74,13.76,14.61l4.93-6.16,5.31,5.5s4.08-8.73,2.65-14.14c0,0-2.32-2.77-3.5-3.13a57.24,57.24,0,0,0-6.17-1.13Z"></path>
  <path fill="#303030" d="M159.76,290.87a1,1,0,0,1-.5-.14c-13.56-8.05-14.21-15.09-14.23-15.39a.8.8,0,0,1,0-.34c.18-.65,1.18-3.93,2.46-5.1s4.12-1,4.56-.92l11,.85a57.36,57.36,0,0,1,6.37,1.18c1.36.41,3.39,2.74,4,3.44a1.07,1.07,0,0,1,.2.38c1.49,5.69-2.55,14.43-2.72,14.8a1,1,0,0,1-.73.56,1,1,0,0,1-.87-.29l-4.53-4.69-4.24,5.29A1,1,0,0,1,159.76,290.87ZM147,275.35c.18,1,1.69,6.62,12.51,13.24l4.4-5.49a1,1,0,0,1,.72-.37,1.06,1.06,0,0,1,.76.3l4.27,4.43c1-2.53,3-8.12,2.08-11.91a11.72,11.72,0,0,0-2.89-2.65,56.06,56.06,0,0,0-6-1.11l-11-.84h-.06c-.91-.13-2.45-.09-3,.41A12.37,12.37,0,0,0,147,275.35Z"></path>
  <path fill="#303030" d="M169,275.51s.57-1.83-.07-2.27-4-.59-4-.59-13.42-1.5-14.18-1.25-1.46,1.9,1.26,3.54S169,275.51,169,275.51Z"></path>
  <path fill="#303030" d="M160.08 276.85c-3.63 0-7.24-.23-8.62-1.07-2.28-1.38-2.49-2.82-2.4-3.56a2.06 2.06 0 0 1 1.34-1.76c.24-.08 1-.32 14.6 1.21 1.6.07 3.75.26 4.47.76 1.1.77.67 2.62.44 3.37a1 1 0 0 1-.87.69C167.79 276.59 163.92 276.85 160.08 276.85Zm8.89-1.34h0ZM151 272.35a.59.59 0 0 0 0 .17c0 .17.16.78 1.47 1.58 1.71 1 10.23.85 15.69.48a2.65 2.65 0 0 0 .05-.58 22.28 22.28 0 0 0-3.38-.37C158.91 273 152.26 272.34 151 272.35ZM138.28 245.8c-1-12.38 7.77-20.5 19.8-21.43s22.51 3.49 23.46 15.86-7.73 25.37-19.75 26.29S139.23 258.17 138.28 245.8Z"></path>
  <path fill="#fff4f4" d="M178.36,250.59s1.23-2.2,2.91-1.76,5.12,8.38-3.27,9S178.36,250.59,178.36,250.59Z"></path>
  <path fill="#303030" d="M177.09,258.86c-1.21,0-2.94-.23-3.53-1.62-1-2.38,2.68-6.05,4-7.27.65-1.07,2.12-2.58,3.94-2.09,1.61.42,3.08,3.5,2.85,6-.16,1.69-1.18,4.57-6.29,4.94C177.84,258.83,177.5,258.86,177.09,258.86Zm3.72-9.11c-.8,0-1.59,1.31-1.59,1.32a1.33,1.33,0,0,1-.21.26c-2.2,2-3.94,4.43-3.64,5.14.09.19.72.51,2.56.38,2.63-.19,4.12-1.14,4.43-2.82a5.05,5.05,0,0,0-1.37-4.26A.55.55,0,0,0,180.81,249.75Zm-2.45.84h0Z"></path>
  <path fill="#fff4f4" d="M167,274.8s2.08.42,2,.71c-.62,2.18-3.16,7.56-4.27,8-1.49.6-13.5-9.18-13.5-9.18l.08-11.56a16.28,16.28,0,0,1-1.82-2.52s-3.67,2.5-7.76-1.36c-3.07-2.91-3.36-8.67,1.15-9.32s5.15,2.5,6.63,2.53-.33-8,.17-11.08,7.07-9.23,11.74-9.77a31.62,31.62,0,0,1,8.46.12,9.85,9.85,0,0,1,8.13,7.28c2,7.88,3.24,21-2.52,26.78a10.31,10.31,0,0,1-5.29,2.71,22.42,22.42,0,0,1-3.11.38Z"></path>
  <path fill="#303030" d="M164.62,284.53c-1,0-3.82-1.09-14-9.41a1,1,0,0,1-.36-.77l.07-11.2a17.23,17.23,0,0,1-1.18-1.59c-1.83.75-5,1-8.08-1.94a8,8,0,0,1-2.32-7.73,4.63,4.63,0,0,1,4-3.27,6.44,6.44,0,0,1,6,1.92l.34.32a31.83,31.83,0,0,0-.23-4.15,29,29,0,0,1-.17-5.83c.57-3.58,7.55-10,12.6-10.59a33.56,33.56,0,0,1,8.73.12,10.82,10.82,0,0,1,8.93,8c2.35,9.11,3,21.85-2.77,27.72a11.44,11.44,0,0,1-5.79,3s-.9.19-2.34.32L168,274c1.49.38,1.69.7,1.83.93a1.12,1.12,0,0,1,.11.84c-.4,1.44-3,7.92-4.84,8.66A1.1,1.1,0,0,1,164.62,284.53Zm-.07-2Zm-12.36-8.68c4.94,4,10.77,8.25,12.23,8.65a26.52,26.52,0,0,0,3.35-6.53,8.45,8.45,0,0,0-1-.24,1,1,0,0,1-.79-1l.08-6.27a1,1,0,0,1,.93-1,22.75,22.75,0,0,0,3-.35,9.4,9.4,0,0,0,4.8-2.44c5.59-5.65,4.05-18.9,2.27-25.84a8.87,8.87,0,0,0-7.32-6.56,31.33,31.33,0,0,0-8.21-.12c-4.34.51-10.47,6.37-10.88,8.95a27.47,27.47,0,0,0,.19,5.34c.31,3.47.44,5.31-.34,6.15a1.34,1.34,0,0,1-1,.43,3.17,3.17,0,0,1-2.06-1.12,4.54,4.54,0,0,0-4.4-1.42,2.69,2.69,0,0,0-2.4,1.92,6,6,0,0,0,1.79,5.7c3.43,3.24,6.41,1.35,6.53,1.26a1,1,0,0,1,1.4.32,15.41,15.41,0,0,0,1.71,2.37,1,1,0,0,1,.24.66Zm16.14,2.31h0Z"></path>
  <path fill="#303030" d="M148.89,257.57a1,1,0,0,1-.8-.41c-2.19-3-3.47-3.24-3.92-3.19-.72.08-1.1,1-1.11,1a1,1,0,0,1-1.28.53,1,1,0,0,1-.54-1.28,3.56,3.56,0,0,1,2.69-2.17c1.78-.21,3.66,1.1,5.76,4a1,1,0,0,1-.8,1.56Z"></path>
  <path fill="#303030" d="M144.84 257.3a1 1 0 0 1-.56-.18 1 1 0 0 1-.25-1.37l1.5-2.18a1 1 0 0 1 1.63 1.12l-1.51 2.18A1 1 0 0 1 144.84 257.3ZM138.67 245.43a5 5 0 0 1-3.18-4.35 10.54 10.54 0 0 1 1.25-5.5 25 25 0 0 1 13.41-12.5c2-.77 4.25-1.26 6.14-.34a7.18 7.18 0 0 0 1.35.63 4.25 4.25 0 0 0 1.93-.2 19.45 19.45 0 0 1 7.91-.62 17.46 17.46 0 0 1 9.84 5.75 39.74 39.74 0 0 1 6.14 9.82c.73 1.52 1.31 3.58 0 4.66a2.66 2.66 0 0 1-3.06 0 7.79 7.79 0 0 1-2.14-2.45 2.39 2.39 0 0 1-2.35 3.17 4.45 4.45 0 0 1-2.44-1.58 56.91 56.91 0 0 1-4.91-5.94c-.81-1.12-2.12-2.43-3.34-1.76-.8.45-1 1.5-1.14 2.39a11.34 11.34 0 0 1-2.37 4.89 2.5 2.5 0 0 1-1.07.84 2 2 0 0 1-2.19-1 9.41 9.41 0 0 1-.84-2.46 19.28 19.28 0 0 1-2.63 4.53 6.47 6.47 0 0 1-4.49 2.41 3.94 3.94 0 0 1-4-2.75c-.59 1.68-2.68 2.18-4.44 2.43A7.69 7.69 0 0 1 138.67 245.43Z"></path>
  <path fill="#fff" d="M154.12,232.61a1.52,1.52,0,0,1,1.12.61,1.47,1.47,0,0,1,.14,1,4.65,4.65,0,0,1-2.85,3.71,2.07,2.07,0,0,1-2.21-.21c-.21-.22-.35-.51-.58-.72-.69-.62-1.76-.2-2.62.14a11.9,11.9,0,0,1-3.57.83,1.34,1.34,0,0,1-1.72-.91,5.57,5.57,0,0,1,.78-5.38,4.49,4.49,0,0,1,3.25-1.77,3.32,3.32,0,0,1,3.13,1.8c.17.4.31.88.7,1a1.21,1.21,0,0,0,.5.07A24.7,24.7,0,0,1,154.12,232.61Z"></path>
  <path fill="#fdc8ca" d="M158.16 253.11a3.65 3.65 0 0 1 1.23.69c2.51 2.34-1.48 3-4 2.62-1-.14-4.93-1.46-3.54-2.93a2.21 2.21 0 0 1 .92-.52 8.33 8.33 0 0 1 5.13.06ZM172.75 252.67a2.68 2.68 0 0 0-1.14.69c-1.36 1.59 1 2.93 3.75 2.68.68-.06 3.21-.45 3.21-.45h0a7.87 7.87 0 0 0 .22-2.51V253s-.71-.34-1-.45a7.29 7.29 0 0 0-4.77.05Z"></path>
  <path fill="#303030" d="M173.15 244.33c0-.6-.86-1.06-1.86-1s-1.78.57-1.76 1.18.86 1.05 1.86 1S173.18 244.93 173.15 244.33ZM161.53 244.87c0-.6-.86-1.05-1.86-1s-1.79.57-1.76 1.18.86 1.05 1.86 1S161.56 245.48 161.53 244.87Z"></path>
  <path fill="#fff" d="M155.49,251.07a16.72,16.72,0,0,0,3.49.69c.93.09,2.45.37,3.14-.47,1.18-1.44-1-2.74-2.1-3.08-1.52-.47-3.89-1-5.42-.26a1.62,1.62,0,0,0-1,1.58c.11.83,1,1.23,1.68,1.46Z"></path>
  <path fill="#303030" d="M160.44,252.86a11.21,11.21,0,0,1-1.23-.08l-.32,0a17.61,17.61,0,0,1-3.69-.73h0l-.25-.08c-1.42-.47-2.2-1.23-2.34-2.27a2.6,2.6,0,0,1,1.58-2.61c1.9-.87,4.65-.24,6.12.22.87.26,2.62,1.14,3,2.54a2.24,2.24,0,0,1-.47,2.11A3,3,0,0,1,160.44,252.86Zm-4.65-2.73a15.62,15.62,0,0,0,3.28.65l.35,0c.58.06,1.67.18,1.94-.15.14-.18.12-.25.11-.29a2.94,2.94,0,0,0-1.74-1.23c-2-.62-3.77-.74-4.72-.31-.28.13-.47.4-.45.56s.39.46,1,.66Z"></path>
  <path fill="#303030" d="M158.12 249.8a1.43 1.43 0 1 1 1.49 1.36A1.43 1.43 0 0 1 158.12 249.8ZM152.94 255.58a1 1 0 0 1-.6-.2 1 1 0 0 1-.18-1.38l1.23-1.61a1 1 0 0 1 1.39-.18 1 1 0 0 1 .17 1.38l-1.23 1.61A1 1 0 0 1 152.94 255.58ZM155.82 256.16a1 1 0 0 1-.28 0 1 1 0 0 1-.66-1.22l.41-1.39a1 1 0 0 1 1.89.56l-.41 1.39A1 1 0 0 1 155.82 256.16Z"></path>
  <path fill="#fff" d="M176.2,250.12a16.72,16.72,0,0,1-3.41,1c-.92.17-2.41.59-3.17-.18-1.31-1.33.73-2.82,1.81-3.27,1.47-.61,3.79-1.31,5.37-.75a1.61,1.61,0,0,1,1.16,1.48c0,.84-.85,1.32-1.53,1.61Z"></path>
  <path fill="#303030" d="M170.94,252.38a2.74,2.74,0,0,1-2-.74,2.23,2.23,0,0,1-.66-2c.29-1.44,2-2.47,2.79-2.82,1.42-.58,4.1-1.46,6.08-.77a2.6,2.6,0,0,1,1.82,2.45c0,1.05-.76,1.88-2.13,2.48l-.24.1A17.68,17.68,0,0,1,173,252.1l-.31.06A8.76,8.76,0,0,1,170.94,252.38Zm4.53-4.67a10.37,10.37,0,0,0-3.67.88c-.75.31-1.53,1-1.61,1.39,0,0,0,.11.13.27.31.31,1.37.09,2,0l.34-.07a15.23,15.23,0,0,0,3.21-.95h0l.22-.09c.6-.26.93-.53.94-.75s-.21-.41-.51-.51A2.93,2.93,0,0,0,175.47,247.71Z"></path>
  <path fill="#303030" d="M176.24 248.55a1.43 1.43 0 1 0-1.36 1.5A1.43 1.43 0 0 0 176.24 248.55ZM167 254.84a1 1 0 0 1-.63-.23 1 1 0 0 1-.13-1.39 1.24 1.24 0 0 0 0-1.56 1 1 0 0 1 .18-1.38 1 1 0 0 1 1.37.16 3.22 3.22 0 0 1 0 4A1 1 0 0 1 167 254.84ZM167.06 268.54a24.57 24.57 0 0 1-10.71-2.75S160.24 272 167 272Z"></path>
  <path fill="#303030" d="M167 272.94c-7.19 0-11.28-6.35-11.45-6.62a1 1 0 0 1 1.32-1.39 23.57 23.57 0 0 0 10.22 2.62 1 1 0 0 1 .7.3 1 1 0 0 1 .28.71L168 272A1 1 0 0 1 167 272.94Zm-6.78-4.49a11.19 11.19 0 0 0 5.82 2.47l0-1.44A27.91 27.91 0 0 1 160.19 268.45ZM166.58 259.7a6.54 6.54 0 0 1-4.22-1.4 1 1 0 1 1 1.26-1.52c2 1.69 5.2.6 5.23.59a1 1 0 0 1 .67 1.85A9.14 9.14 0 0 1 166.58 259.7Z"></path>
  <path fill="#303030" d="M162.36,259.15a1,1,0,0,1-.58-.18,1,1,0,0,1-.22-1.38l1-1.39a1,1,0,0,1,1.6,1.16l-1,1.39A1,1,0,0,1,162.36,259.15Z"></path>
  <path fill="#897bd1" d="M272.85,477.11s-9-66.2-15.82-73.29-52.59-16.1-52.59-16.1"></path>
  <path fill="#303030" d="M272.84,478.22a1.12,1.12,0,0,1-1.1-1c-2.49-18.31-10.15-67.07-15.51-72.67s-39.37-13.29-52-15.78a1.12,1.12,0,0,1,.43-2.19c1.88.38,46.22,9.17,53.18,16.43S273.58,474.24,274,477a1.11,1.11,0,0,1-.95,1.25Z"></path>
  <path fill="#fff4f4" d="M264.38,345s2.88,7.5,3.26,8.54,2.72,6.84,1.6,8.21-3.84.08-4.9-2-1.94-4.39-1.94-4.39-12.06-.78-13.34-7.16"></path>
  <path fill="#303030" d="m268 363.33-.38 0a5.73 5.73 0 0 1-4.13-3.14c-.76-1.52-1.42-3.09-1.75-3.9-2.61-.27-12.37-1.68-13.62-7.9A1 1 0 1 1 250 348c1.12 5.56 12.33 6.36 12.44 6.37a1 1 0 0 1 .86.62s.87 2.25 1.9 4.31a3.83 3.83 0 0 0 2.59 2.06c.47.06.62-.13.67-.19s.5-1.24-1.63-6.87l-.14-.39c-.37-1-3.22-8.44-3.24-8.52a1 1 0 0 1 .56-1.27 1 1 0 0 1 1.27.57c.12.3 2.89 7.52 3.26 8.55l.14.36c1.9 5.06 2.28 7.61 1.3 8.81A2.53 2.53 0 0 1 268 363.33ZM181.53 427.69a1 1 0 0 1-1-.95l-1.27-49c-.17-6.95-5.35-12.4-11.8-12.4l-73.3-.21a1 1 0 0 1 0-2h0l73.29.21c7.53 0 13.57 6.29 13.77 14.32l1.27 48.95a1 1 0 0 1-1 1Z"></path>
  <path fill="#dcc3f5" d="M167.47,358.32a6.08,6.08,0,0,1-6.08,6.07H93.83l-2.48-12.15h70A6.08,6.08,0,0,1,167.47,358.32Z"></path>
  <path fill="#303030" d="M161.39,365.37H93.83a1,1,0,0,1-1-.79l-2.48-12.14a1,1,0,0,1,.2-.82,1,1,0,0,1,.76-.36h70a7.06,7.06,0,1,1,0,14.11Zm-66.75-2h66.75a5.09,5.09,0,1,0,0-10.17H92.56Z"></path>
  <ellipse cx="125.6" cy="477.79" fill="#dcc3f5" rx="65.24" ry="88.68" transform="rotate(-4.84 125.694 478.09)"></ellipse>
  <path fill="#303030" d="M128.93,567.31c-16.21,0-31.95-7.87-44.75-22.49C70.35,529,61.63,507.19,59.61,483.38s2.91-46.78,13.89-64.69S100.35,390,118,388.45s35.08,6.43,49,22.32,22.56,37.62,24.57,61.43-2.91,46.79-13.88,64.69-26.85,28.75-44.54,30.24C131.76,567.25,130.34,567.31,128.93,567.31Zm-6.67-177.07c-1.35,0-2.71.06-4.06.17-17,1.45-32.33,11.86-43,29.31s-15.59,40.1-13.61,63.5,10.54,44.81,24.1,60.3S116,566.62,133,565.17s32.32-11.85,43-29.31,15.58-40.1,13.6-63.49h0c-2-23.4-10.54-44.81-24.09-60.31C153.13,397.88,137.9,390.24,122.26,390.24Z"></path>
  <ellipse cx="125.6" cy="477.79" fill="#dcc3f5" rx="11.64" ry="15.82" transform="matrix(1 -.08 .08 1 -39.89 12.31)"></ellipse>
  <path fill="#303030" d="M126.19 494.57a11.48 11.48 0 0 1-8.59-4.29 21.06 21.06 0 0 1-2-23.46c2.11-3.43 5.15-5.49 8.57-5.78s6.77 1.23 9.42 4.26a21.06 21.06 0 0 1 2 23.46c-2.11 3.44-5.15 5.49-8.57 5.78C126.74 494.56 126.47 494.57 126.19 494.57ZM125 463c-.22 0-.43 0-.65 0-2.78.23-5.29 1.95-7.06 4.84A19.1 19.1 0 0 0 119.08 489c2.24 2.55 5 3.83 7.77 3.59s5.29-2 7.06-4.85a19.08 19.08 0 0 0-1.79-21.13A9.57 9.57 0 0 0 125 463ZM349.08 532.56h0a4.64 4.64 0 0 1-4.78 4.49h-89a4.64 4.64 0 0 1-4.78-4.49h0a4.64 4.64 0 0 1 4.78-4.49h89A4.64 4.64 0 0 1 349.08 532.56Z"></path>
  <path fill="#303030" d="M344.3,538h-89a5.48,5.48,0,1,1,0-10.94h89a5.48,5.48,0,1,1,0,10.94Zm-89-9a3.51,3.51,0,1,0,0,7h89a3.51,3.51,0,1,0,0-7Z"></path>
  <polyline fill="#dcc3f5" points="84.74 411.93 110.77 463.17 69.91 441.03"></polyline>
  <path fill="#303030" d="M110.77,464.15a1,1,0,0,1-.47-.12L69.44,441.9a1,1,0,0,1-.4-1.34,1,1,0,0,1,1.34-.39l38.09,20.63L83.86,412.38a1,1,0,1,1,1.76-.9l26,51.24a1,1,0,0,1-.88,1.43Z"></path>
  <polyline fill="#dcc3f5" points="166.18 542.6 139.97 493.28 181.01 513.49"></polyline>
  <path fill="#303030" d="M166.18,543.58a1,1,0,0,1-.87-.52L139.1,493.74a1,1,0,0,1,.16-1.15,1,1,0,0,1,1.14-.19l41,20.21a1,1,0,0,1,.44,1.32,1,1,0,0,1-1.31.45l-38.31-18.87,24.78,46.62a1,1,0,0,1-.41,1.34A1.07,1.07,0,0,1,166.18,543.58Z"></path>
  <path fill="#fff4f4" d="M102.26,323.59l2.19.29a66,66,0,0,1,24.37,8.39l1,.55-2.21,17.82,24.76,1.79.65-.08c1.72-.84,2.17-3.35,9.33-2.93a21.25,21.25,0,0,1,8.77,3l5.77,0a3.24,3.24,0,0,1,.69,6.41,3.24,3.24,0,0,1-.84,6.36h-.34a3.24,3.24,0,0,1,2.18,3.11,3.29,3.29,0,0,1-3.32,3.19h-.45A2.71,2.71,0,0,1,177,374v.12a2.7,2.7,0,0,1-2.7,2.7h0c-3.53,0-7.17,0-10.74-.15-2.93-.16-5.84-.52-8.75-.86-11,1.07-47.31,4-54.72-2.58C91.23,365.33,100.36,330.86,102.26,323.59Z"></path>
  <path fill="#303030" d="M125.34,378.36c-11.43,0-22.13-1-25.95-4.43-6.08-5.42-5.46-22.35,1.85-50.31l.07-.28a1,1,0,0,1,1.08-.73l2.2.3a66.61,66.61,0,0,1,24.73,8.51l1,.55a1,1,0,0,1,.48,1l-2.09,16.79,23.64,1.72.36-.05a4.81,4.81,0,0,0,.79-.62c1.29-1.13,3.06-2.69,8.91-2.35a22.37,22.37,0,0,1,9,3h5.51a4.22,4.22,0,0,1,2.72,7.44,4.23,4.23,0,0,1-.92,6.81,4.18,4.18,0,0,1-1.42,6.28,3.61,3.61,0,0,1,.7,2v.16a3.7,3.7,0,0,1-3.68,3.69H172.6c-3,0-6.11,0-9.15-.16-2.59-.14-5.21-.44-7.74-.74l-1-.11C147.8,377.44,136.23,378.36,125.34,378.36ZM103,324.68c-9.12,35.2-5.36,45-2.29,47.78,5.64,5,31.57,4.5,54,2.33h.21l1.07.12c2.5.29,5.08.59,7.62.72,3,.17,6.06.16,9,.16h1.66a1.71,1.71,0,0,0,.32-3.4,1,1,0,0,1,.19-1.95h.45a2.32,2.32,0,0,0,2.34-2.23,2.26,2.26,0,0,0-1.52-2.16,1,1,0,0,1,.31-1.91h.34a2.23,2.23,0,0,0,1.6-.66,2.26,2.26,0,0,0-1-3.76,1,1,0,0,1-.73-1,1,1,0,0,1,.78-.94,2.25,2.25,0,0,0-.47-4.45h-5.78a.83.83,0,0,1-.5-.14,20.75,20.75,0,0,0-8.32-2.82c-5.05-.29-6.41.9-7.5,1.86a6,6,0,0,1-1.35,1,1.31,1.31,0,0,1-.28.09l-.7.08h-.17l-24.76-1.8a1,1,0,0,1-.91-1.11l2.13-17.17-.38-.22a64.74,64.74,0,0,0-24-8.26Z"></path>
  <line x1="171.07" x2="164.49" y1="352.38" y2="352.44" fill="#fff4f4"></line>
  <path fill="#303030" d="M164.49,353.42a1,1,0,0,1-1-1,1,1,0,0,1,1-1l6.58-.06h0a1,1,0,1,1,0,2l-6.58.06Z"></path>
  <line x1="177.53" x2="170.38" y1="358.77" y2="358.83" fill="#fff4f4"></line>
  <path fill="#303030" d="M170.38,359.82a1,1,0,0,1,0-2l7.15-.07h0a1,1,0,0,1,0,2l-7.15.07Z"></path>
  <line x1="176.35" x2="169.68" y1="365.13" y2="365.19" fill="#fff4f4"></line>
  <path fill="#303030" d="M169.68,366.18a1,1,0,0,1,0-2l6.67-.06a1,1,0,1,1,0,2l-6.66.06Z"></path>
  <line x1="174.76" x2="169.06" y1="371.43" y2="371.48" fill="#fff4f4"></line>
  <path fill="#303030" d="M169.06,372.47a1,1,0,0,1,0-2l5.7-.05h0a1,1,0,0,1,1,1,1,1,0,0,1-1,1l-5.7.05Z"></path>
  <line x1="127.56" x2="116.28" y1="350.64" y2="349.9" fill="#fff4f4"></line>
  <path fill="#303030" d="M127.56,351.62h-.07l-11.28-.74a1,1,0,0,1-.91-1.05,1,1,0,0,1,1-.91l11.28.73a1,1,0,0,1-.06,2Z"></path>
  <path fill="#ff558b" d="M137.7,319.79l-4.34,16.88s-19.59-.34-35.35-10l9.3-21.36"></path>
  <path fill="#303030" d="M133.37,337.65h0c-.81,0-20-.45-35.86-10.13a1,1,0,0,1-.39-1.23l9.31-21.36a1,1,0,0,1,1.29-.51,1,1,0,0,1,.51,1.3l-9,20.56c13.47,7.94,29.67,9.19,33.36,9.37l4.13-16.11a1,1,0,1,1,1.91.49l-4.33,16.88A1,1,0,0,1,133.37,337.65Z"></path>
  <polygon fill="#fff" points="181.12 124.29 196.64 124.29 196.64 108.77 222.03 108.77 222.03 124.29 237.54 124.29 237.54 149.68 222.03 149.68 222.03 165.19 196.64 165.19 196.64 149.68 181.12 149.68 181.12 124.29"></polygon>
  <path fill="#303030" d="M222,166.16H196.64a1,1,0,0,1-1-1V150.65H181.12a1,1,0,0,1-1-1V124.29a1,1,0,0,1,1-1h14.55V108.77a1,1,0,0,1,1-1H222a1,1,0,0,1,1,1v14.55h14.55a1,1,0,0,1,1,1v25.39a1,1,0,0,1-1,1H223v14.54A1,1,0,0,1,222,166.16Zm-24.42-1.94h23.45V149.68a1,1,0,0,1,1-1h14.54V125.26H222a1,1,0,0,1-1-1V109.74H197.61v14.55a1,1,0,0,1-1,1H182.09v23.45h14.55a1,1,0,0,1,1,1Z"></path>
  <path fill="#ff558b" d="M269,2.4a9.64,9.64,0,0,0-8.37,4.89,9.67,9.67,0,0,0-18.08,4.81c0,5.35,7.83,12.45,18.08,23.8,9.69-10.36,18.07-18.45,18.07-23.8A9.7,9.7,0,0,0,269,2.4Z"></path>
  <path fill="#303030" d="M260.6,36.87h0a1,1,0,0,1-.71-.32c-2-2.24-3.95-4.31-5.75-6.24-7.57-8.15-12.57-13.53-12.57-18.21a10.63,10.63,0,0,1,19-6.54,10.63,10.63,0,0,1,19,6.54c0,5.07-6.53,12-14.79,20.7l-3.55,3.76A1,1,0,0,1,260.6,36.87Zm-8.38-33.5a8.74,8.74,0,0,0-8.73,8.73c0,3.91,5.06,9.36,12.06,16.89,1.59,1.71,3.29,3.53,5.06,5.48,1-1,1.91-2,2.84-3,7.64-8.09,14.25-15.07,14.25-19.37a8.7,8.7,0,0,0-16.26-4.33,1,1,0,0,1-1.68,0A8.76,8.76,0,0,0,252.22,3.37Z"></path>
</svg>
