<svg xmlns="http://www.w3.org/2000/svg" xml:space="preserve" width="579.879" height="394.434" viewBox="60.061 102.783 579.879 394.434" enable-background="new 0 0 700 600" id="checkup">
  <g>
    <path d="M580.23 330.518c-26.5-9.43-56.07-14.7-87.24-14.7-114.22 0-206.82 70.74-206.82 157.99 0 1.83.04 3.66.13 5.48H118.45c-8.99-6.24-15.99-13.32-20.55-21.28-15.46-26.99-7.53-62.14 9.19-89.1 16.3-26.27 45.19-48.81 46.27-78.67.18-4.71-.38-9.35-1.51-13.89-31.757-86.465 43.061-137.665 137.867-154.832 20.166-3.652 40.456 5.362 51.686 22.504 17.946 27.393 55.503 49.774 101.357 56.958 21.117 3.308 41.546 3.008 59.93-.29 41.876-7.514 73.805 36.988 53.683 74.474-.212.395-.427.79-.643 1.186 3.94 4.75 7.35 9.85 10.22 15.11 6.75 12.37 10.86 25.65 14.28 39.06z" fill="#ebfcff"></path>
    <path d="M399.181 251.73c0 28.216-22.881 51.098-51.111 51.098s-51.112-22.882-51.112-51.098c0-28.23 22.882-51.112 51.112-51.112S399.18 223.5 399.18 251.73z" fill="#d0f4f8"></path>
    <path d="M465.91 401.488c-.07.07-.14.14-.21.19-.67.58-1.41 1.15-2.24 1.69-4.83 3.21-12.28 5.87-21 8.05-31.69 7.95-80.12 9.74-80.12 9.74l-3.24-37.7 76.2-19.08c1.1-31.23 10.2-60.29 25.89-82.4 0 0 3.74 7.48 9.04 13.6 4.85 5.6 8.37 12.77 10.7 20.78 8.61 29.57 1.1 70.5-15.02 85.13z" fill="#ffa4a4"></path>
    <path d="M463.46 403.368c-4.83 3.21-12.28 5.87-21 8.05l11.36-38.34 9.64 30.29z" fill="#fd8e8b"></path>
    <path d="M430.532 351.692c-.802 13.41 49.616 20.635 49.616 20.635l12.85-68.873s-38.845-15.93-45.61-6.604c-6.966 9.605-15.956 39.822-16.856 54.842z" fill="#265784"></path>
    <path d="m481.169 325.347-5.5 20.099c.701-2.22-35.88-5.608-42.453-11.617-3.845-3.515.432-18.894 5.5-20.1 8.402-1.998 41.48 14.519 42.453 11.618z" fill="#083167"></path>
    <path d="M362.245 419.703s-21.15 2.744-28.23.525c-13.412-4.205-10.615-25.366-7.366-30.296 7.441-11.29 23.199-11.412 33.073.794l2.523 28.977z" fill="#ffd2d4"></path>
    <path d="M359.349 386.467s-12.125-9.006-16.81-8.892c-3.522.085-12.103 8.607-11.376 11.782 1.546 6.751 11.715-.047 11.715-.047s5.771 14.705 17.496 9.51l-1.025-12.353z" fill="#ffd2d4"></path>
    <path d="M350.551 399.659c-4.99-1.84-7.305-7.625-7.958-9.578-4.634 2.82-10.706 4.68-11.918-.613-.615-2.685 4.105-7.96 7.76-10.56.558-.376 1.109.436.58.815-4.066 2.892-7.783 7.698-7.365 9.522.28 1.22.861 1.99 1.778 2.355 3.173 1.26 9.113-2.665 9.172-2.706a.5.5 0 0 1 .76.285c.02.075 2.114 7.542 7.537 9.54a.5.5 0 0 1-.346.94z" fill="#ed9276"></path>
    <path d="M252.524 274.004s25.572 13.991 21.97 85.74l66.003-15.26 17.158 31.162s-74.258 38.912-96.618 38.116c-16.34-.581-39.177-36.29-39.177-36.29l30.664-103.468z" fill="#b7f2f6"></path>
    <path d="M341.724 346.777s20.986-12.152 27.976-11.253c9.395 1.208 31.825 31.097-12.556 39.123l-15.42-27.87z" fill="#ffad94"></path>
    <path d="M247.4 271.788v206.33h-83.95v-140.41h-47.39c-.27-1.83-.53-3.67-.78-5.5-2.3-17.07-3.37-33.99-1.49-46.72.84-5.83 2.31-10.78 4.56-14.46 4.7-7.71 21.65-14.5 37.14-19.3 4.9-1.52 9.66-2.84 13.84-3.93 8.52-2.22 14.63-3.48 14.63-3.48l26.72 11.57 36.72 15.9z" fill="#47cecd"></path>
    <path d="M163.45 478.118v-140.41h-47.39c-.27-1.83-.53-3.67-.78-5.5.54-2.84 1.16-5.66 1.84-8.47 2.21-9.08 5.1-18.62 2.4-27.57-1.18-3.91-3.33-7.36-5.73-10.68.84-5.83 2.31-10.78 4.56-14.46 4.7-7.71 21.65-14.5 37.14-19.3 4.9-1.52 9.66-2.84 13.84-3.93 6.62 2.82 12.19 8.12 15.73 14.35 5.95 10.48 7.04 22.98 7.14 35.03.1 12.05-.63 24.27 2.15 36 3.45 14.51 12.15 27.57 14.03 42.36 1.82 14.26-2.9 28.58-2.46 42.95.43 14.37 5.97 28.03 11.43 41.33 2.32 5.66 5.45 12.04 11.42 13.43 2.49.57 5.1.14 7.65.35 2.55.22 5.35 1.4 6.15 3.83.08.23.13.46.18.69h-79.3z" fill="#36c2c6"></path>
    <path d="M112.989 478.118h67.263c7.199-32.14 7.465-66.36 4.421-98.203-6.664-69.806-29.181-128.186-29.181-128.186v-.004c-2.448.761-4.935 1.57-7.4 2.422v.004c-13.147 4.547-25.791 10.385-29.745 16.873C100.941 299.56 130.238 404.2 130.238 404.2l-17.249 73.917z" fill="#d0f4f8"></path>
    <path d="m152.446 334.545 9.96-20.775-19.92-19.235 5.606-40.384v-.004c2.465-.852 4.952-1.66 7.4-2.422v.004s22.517 58.38 29.181 128.186l-32.227-45.37z" fill="#b7f2f6"></path>
    <path d="M229.316 401.503c2.692 27.297 4.722 54.238 5.207 76.615h24.8l-3.996-93.892-2.805-110.22-34.744-15.04-7.103-3.077s11.582 73.992 18.641 145.61v.004z" fill="#d0f4f8"></path>
    <path d="m241.22 325.713-11.904 75.786c-7.06-71.618-18.64-145.61-18.64-145.61l7.102 3.076 18.714 31.2-7.171 19.733 11.9 15.815zM121.465 267.42s-28.809 4.74-33.36 76.255c-3.497 54.959-2.782 64.605 14.177 71.76 25.095 10.587 101.326 9.277 101.326 9.277l2.804-34.205-71.025-14.663 2.832-33.701c5.134-54.302-1.862-76.509-16.754-74.723z" fill="#b7f2f6"></path>
    <path d="m200.437 239.122-.167 12.262-4.591 24.053-31.715-26.324-.18-15.351c-.02-.01-.02-.021-.02-.021v-23.159c-.887-14.982-.349-26.377 1.645-34.807l55.497-5.338c4.172 22.885 8.62 69.138-20.469 68.685z" fill="#ffad94"></path>
    <path d="M161.636 196.972s-18.082-47.601 11.746-40.337c0 0 2.769-15.477 25.5-15.455 16.97.016 23.798-3.351 26.393-5.426.738-.59 1.836-.19 1.985.742.713 4.44.855 13.819-10.14 15.502 0 0 40.768 4.846 6.52 39.833l-.926-8.066s-19.823 12.423-40.286-9.268c0 0 3.552 14.52-11.253 19.429l-9.539 3.046z" fill="#083167"></path>
    <path d="M173.637 198.683c.334 6.728-2.916 13.576-6.877 13.773-3.955.197-7.126-6.332-7.46-13.06-.335-6.728 2.135-11.182 6.09-11.379 3.96-.197 7.912 3.938 8.247 10.666z" fill="#ffad94"></path>
    <path d="M162.756 200.312a.886.886 0 0 1-.884-.843c-.196-3.952 1.451-6.696 4.1-6.828 2.754-.146 4.962 2.601 5.15 6.368a.886.886 0 0 1-.841.93.884.884 0 0 1-.93-.842c-.156-3.142-1.811-4.745-3.29-4.685-1.566.078-2.56 2.121-2.418 4.97a.886.886 0 0 1-.887.93z" fill="#e47960"></path>
    <path d="M204.502 199.29a2.924 2.924 0 1 1-5.832-.43 2.924 2.924 0 0 1 5.832.43zM196.276 195.41a.886.886 0 0 1-.706-1.422c2.562-3.379 7.393-4.043 10.772-1.482a.886.886 0 1 1-1.071 1.413 5.922 5.922 0 0 0-8.288 1.14.885.885 0 0 1-.707.35zM220.99 199.639a2.924 2.924 0 1 1-5.813-.648 2.924 2.924 0 0 1 5.813.648zM212.948 195.454a.886.886 0 0 1-.685-1.448c2.684-3.28 7.537-3.764 10.818-1.078a.886.886 0 1 1-1.123 1.371 5.922 5.922 0 0 0-8.324.83.885.885 0 0 1-.686.325z" fill="#083167"></path>
    <path d="M209.623 212.919a.886.886 0 1 1 .425-1.721c1.287.317 2.67.507 3.321.468-.362-3.294-3.352-10.992-3.384-11.073a.886.886 0 1 1 1.652-.644c.14.357 3.412 8.785 3.536 12.076.015.39-.152.757-.458 1.006-1.002.815-3.834.199-5.092-.112zM205.388 219.244a7.169 7.169 0 0 0 13.74 0c-4.367 1.15-8.952 1.119-13.74 0zM200.432 239.128s-8.874-.087-24.93-5.66c0 0 4.814 7.068 24.91 12.5l.02-6.84z" fill="#e47960"></path>
    <path d="M163.727 199.436c.828 1.902.938 3.7.252 4.036 1.189-.553 2.151-1.412 2.91-2.323 1.664-2 .4-5.034-2.198-5.197-1.203-.076-2.513.037-3.75.54.712-.274 1.953 1.032 2.786 2.944z" fill="#265784"></path>
    <path d="M161.16 200.548c.839 1.927 2.096 3.243 2.804 2.934.709-.308.602-2.125-.237-4.052-.839-1.927-2.096-3.243-2.804-2.934-.709.308-.602 2.125.237 4.052z" fill="#dff0ff"></path>
    <path d="M207.742 267.92a10 10 0 0 0 1.402-.097c4.595-.65 8.226-2.89 10.793-6.656 8.454-12.405 2.238-39.205 1.988-40.251a.842.842 0 0 0-1.639.39c.06.249 6.294 27.126-1.742 38.913-2.29 3.358-5.531 5.355-9.636 5.936a8.59 8.59 0 0 1-1.208.084c-17.168.002-43.453-48.777-48.109-61.3a2.715 2.715 0 0 1 1.411-3.427l1.8-.84a.843.843 0 0 0-.714-1.526l-1.799.84a4.389 4.389 0 0 0-2.277 5.54c3.556 9.564 30.544 62.392 49.73 62.394z" fill="#265784"></path>
    <path d="M223.619 253.513a2.06 2.06 0 0 0-1.663-.832h-.055c-.916 0-1.735.618-1.994 1.5-.616 2.095-1.426 3.887-2.407 5.327-2.08 3.05-5.03 4.866-8.768 5.396a7.379 7.379 0 0 1-1.032.071h-.001c-4.505 0-10.441-4.009-17.168-11.596a2.085 2.085 0 0 0-1.553-.698c-.83 0-1.557.47-1.897 1.227-.341.76-.21 1.618.343 2.242 7.675 8.648 14.511 13.033 20.318 13.034.53 0 1.061-.037 1.58-.11 4.96-.702 8.883-3.123 11.659-7.196 1.226-1.8 2.225-3.992 2.969-6.515a2.107 2.107 0 0 0-.331-1.85z" fill="#265784"></path>
    <path d="M220.094 284.517a2.526 2.526 0 0 0 2.023-4.038c-5.525-7.405-7.27-13.09-7.288-13.147a2.53 2.53 0 0 0-3.142-1.698 2.524 2.524 0 0 0-1.704 3.134c.078.263 1.972 6.543 8.084 14.733a2.523 2.523 0 0 0 2.027 1.016z" fill="#265784"></path>
    <path d="M599.519 478.122h-138.69c-.23-2.82-.47-5.97-.74-9.41-3.94-51.43-14.57-170.21 2.55-188.29 38.9-41.09 109.37-16.21 118.25-12.67l18.23 126.15.03 6.67.22 47.01.15 30.54z" fill="#ffa4a4"></path>
    <path d="M599.369 447.582c-33.23 3.15-108.97-8.89-108.97-8.89l108.75-38.12.22 47.01z" fill="#fd8e8b"></path>
    <path d="M553.383 374.308c-.733 8.875-4.777 17.668-12.466 21.643-4.438 2.294-9.687 2.818-14.843 2.928-14.053.3-34.675 4.904-35.668 8.817-.61 2.407 48.216 9.073 70.254 5.698 4.735-.725 9.669-1.93 12.79-5.39 2.563-2.84 3.556-6.894 3.453-10.891-.103-3.998-1.21-7.985-2.447-11.886-4.551-14.353-2.745-30.017-10.818-42.988-.69-1.11-1.552-2.327-2.804-2.569-5.488-1.06-8.457-.76-9.307 14.792-.367 6.709 2.399 13.277 1.856 19.846z" fill="#fd8e8b"></path>
    <path d="M431.25 201.695c4.434 10.725 28.381 15.082 36.715 11.637 8.333-3.445-2.097-13.39-6.531-24.116-4.44-10.74-14.799-16.633-23.132-13.188-8.333 3.445-11.492 14.927-7.052 25.667z" fill="#784645"></path>
    <path d="m532.695 257.605-36.293 28.086-7.549-27.792-1.905-7.022v-.01c-.1.06-.212.131-.314.192a.753.753 0 0 1-.121.071v.01c-2.483 1.52-5.168 3-8.055 4.428-33.021 16.222-36.335-71.787-36.335-71.787s19.454-30.802 39.719-30.802c17.863 0 35.098 54.877 38.928 67.805l11.925 36.82z" fill="#ffd2d4"></path>
    <path d="M521.648 223.509s11.052-88.084-30.44-88.032c0 0-10.37.89-14.002 11.202 0 0-58.614-17.319-53.797 32.713 1.991 20.677 18.713 4.385 18.713 4.385s-6.525 26.316 19.88 1.91c0 0 5.001 14.783 26.606-1.91 0 0-9.402 17.114 9.402 14.713 0 0 9.278-7.205 15.003 13.403l8.635 11.616z" fill="#784645"></path>
    <ellipse cx="506.029" cy="206.954" rx="10.312" ry="17.856" fill="#ffd2d4"></ellipse>
    <path d="M464.535 219.344c.063 1.76 1.437 3.14 3.07 3.082 1.641-.058 2.914-1.534 2.85-3.293-.062-1.773-1.437-3.154-3.077-3.095-1.634.058-2.906 1.533-2.843 3.306zM448.03 220.162c.062 1.76 1.436 3.141 3.07 3.083 1.64-.059 2.913-1.534 2.85-3.294-.063-1.772-1.437-3.153-3.078-3.095-1.634.058-2.906 1.534-2.843 3.306z" fill="#083167"></path>
    <path d="m488.228 255.644-1.28-4.719c4.637-2.628 8.334-8.571 11.643-15.91 0 0 2.914 12.676-10.363 20.629zM511.252 206.029a.99.99 0 0 0 .988-.941c.22-4.415-1.62-7.48-4.58-7.628-3.076-.163-5.543 2.906-5.753 7.113a.99.99 0 0 0 .94 1.039.987.987 0 0 0 1.038-.94c.175-3.51 2.024-5.3 3.676-5.234 1.749.087 2.86 2.37 2.701 5.551a.99.99 0 0 0 .99 1.04z" fill="#f9b2b7"></path>
    <path d="M507.963 210.2c1.47-1.932.433-5.398.31-5.787a.99.99 0 0 0-1.889.596c.343 1.095.647 3.147.002 3.994-.15.196-.435.453-1.217.426a.99.99 0 1 0-.072 1.98c1.148.041 2.186-.315 2.866-1.209z" fill="#f9b2b7"></path>
    <path d="m488.52 408.437-.542 29.482c-39.655 12.11-43.107-5-39.843-19.635 2.407-10.79 24.736-6.087 24.736-6.087s-10.837-5.995-9.236-9.133c4.229-8.293 24.885 5.373 24.885 5.373z" fill="#ffd2d4"></path>
    <path d="M602.817 429.066c-18.512 15.65-83.715 15.208-113.502 10.832-3.156 0-3.156-34.176 0-34.175l73.941-10.915s-4.876-19.172-4.93-53.307c1.254-46.309 8.633-84.278 28.874-71.3 14.706 9.428 21.851 37.056 24.796 71.3 4.266 47.18-.509 80.23-9.179 87.565z" fill="#ffa4a4"></path>
    <path d="M440.39 361.818c-5.08 11.48-12.56 17.89-22.28 19.09-1.49.18-2.88.27-4.18.27-13.95 0-17.03-9.97-19.13-16.77l-.34-1.09c-1.7-5.43-5.77-14.75-13.83-16.19-6.33-1.12-12.22 3.27-15.17 5.99l-.14.13c-14.84 13.68-38.89 14.88-71.48 3.57-32.85-11.39-61.08-39.61-75.52-75.48-.3-.77.07-1.64.84-1.95.77-.31 1.64.06 1.95.83 14.12 35.08 41.67 62.65 73.71 73.77 31.47 10.92 54.51 9.92 68.47-2.95l.14-.13c3.36-3.09 10.12-8.08 17.72-6.73 9.63 1.71 14.27 12.16 16.18 18.24l.34 1.11c2.35 7.62 5.02 16.25 20.08 14.4 8.63-1.06 15.35-6.94 19.96-17.49.84.48 1.74.94 2.68 1.38z" fill="#265784"></path>
    <path d="M379.442 344.787c2.89 5.723-3.087 14.567-13.342 19.743-10.255 5.177-20.92 4.733-23.808-.99-2.893-5.73 3.083-14.575 13.338-19.751 10.255-5.177 20.92-4.733 23.812.998z" fill="#083167"></path>
    <path d="M456.936 242.644a1 1 0 0 1 .06-1.412c1.938-1.78 3.84-2.603 5.652-2.437 2.105.187 3.255 1.667 3.303 1.73a1 1 0 0 1-1.586 1.219 2.869 2.869 0 0 0-1.927-.96c-1.218-.104-2.596.55-4.089 1.92a1 1 0 0 1-1.413-.06zM457.887 235.153c-3.281 0-4.092-1.963-2.89-3.544.31-.408.687-.685 1.133-1.031a5.625 5.625 0 0 0 1.974-3.348c.314-1.777-.25-3.718-.746-5.432a.999.999 0 1 1 1.921-.557c.558 1.923 1.19 4.102.795 6.337-.667 3.77-3.441 4.814-3.575 5.423.107.101 2.111.432 4.151-.374a1 1 0 1 1 .737 1.86 9.511 9.511 0 0 1-3.5.666z" fill="#f9b2b7"></path>
    <path d="M472.077 212.573c-4.136-2.793-7.99-.486-8.153-.387a.999.999 0 0 1-1.058-1.697c.207-.128 5.094-3.107 10.33.426a1 1 0 0 1-1.12 1.658zM454.935 213.344c-4.17-2.817-8.109-.413-8.148-.388a1 1 0 1 1-1.062-1.695c.205-.13 5.092-3.112 10.33.424a1 1 0 0 1-1.12 1.659z" fill="#083167"></path>
    <path d="M368.876 348.875c-3.231 2.574-10.766-4.856-10.766-4.856-1.196 5.828-7.735 8.331-12.849 9.183l-3.537-6.425s10.442-17.542 17.377-15.636c6.943 1.914 12.82 15.309 9.775 17.734zM382.06 353.483c-2.94-3.449-7.786-2.842-11.712-.357-7.255 4.592-11.217 11.898-7.17 16.59 1.674 1.94 4.914 1.266 6.973-.51l10.355-8.934c2.286-1.972 3.048-5.035 1.554-6.789zM206.25 392.923l-2.447 29.416c38.809 14.595 44.458-2.22 42.126-17.032-1.72-10.92-24.3-7.64-24.3-7.64s11.194-5.297 9.795-8.53c-3.696-8.544-25.175 3.786-25.175 3.786z" fill="#ffad94"></path>
    <path d="M392.232 251.729c0 24.38-19.77 44.15-44.162 44.15s-44.162-19.77-44.162-44.15c0-24.392 19.77-44.162 44.162-44.162s44.162 19.77 44.162 44.162z" fill="#fff"></path>
    <path d="M348.07 296.379c-24.627 0-44.662-20.03-44.662-44.65 0-24.627 20.035-44.662 44.662-44.662s44.662 20.035 44.662 44.662c0 24.62-20.035 44.65-44.662 44.65z" fill="#fff"></path>
    <path d="M347.813 267.517h-.03a1 1 0 0 1-.964-.881l-3.445-29.027-3.342 14.407a1 1 0 0 1-1.84.273l-3.058-5.312-2.836 4.806a1 1 0 0 1-.861.491h-18.332a1 1 0 1 1 0-2h17.76l3.418-5.79a1 1 0 0 1 .862-.492h.005a1 1 0 0 1 .861.501l2.647 4.597 4.06-17.506c.11-.474.55-.817 1.03-.773a1 1 0 0 1 .938.88l3.321 27.989 2.322-13.112a1 1 0 0 1 .897-.821.987.987 0 0 1 1.027.651l1.613 4.392h29.169a1 1 0 1 1 0 2h-29.867a1 1 0 0 1-.939-.655l-.577-1.57-2.855 16.127a1 1 0 0 1-.984.825zM380.094 267.017h-16.239a.5.5 0 1 1 0-1h16.239a.5.5 0 1 1 0 1zM374.538 270.55h-10.683a.5.5 0 1 1 0-1h10.683a.5.5 0 1 1 0 1zM370.415 274.085h-6.56a.5.5 0 1 1 0-1h6.56a.5.5 0 1 1 0 1z" fill="#f77777"></path>
    <path d="M604.665 200.659c-.227 13.84-11.911 24.765-25.753 24.765h-23.296a1.327 1.327 0 0 1-1.327-1.327v-23.29c0-13.815 10.88-25.492 24.694-25.758a25.118 25.118 0 0 1 18.306 7.375c4.652 4.653 7.493 11.106 7.376 18.235z" fill="#73a2ff"></path>
    <path d="M572.716 200.762a3.318 3.318 0 0 1-3.326 3.317 3.316 3.316 0 0 1-3.317-3.317 3.316 3.316 0 0 1 3.317-3.317 3.318 3.318 0 0 1 3.326 3.317zM582.8 200.762a3.318 3.318 0 0 1-3.326 3.317 3.316 3.316 0 0 1-3.317-3.317 3.316 3.316 0 0 1 3.317-3.317 3.318 3.318 0 0 1 3.326 3.317zM592.884 200.762a3.318 3.318 0 0 1-3.326 3.317 3.316 3.316 0 0 1-3.317-3.317 3.316 3.316 0 0 1 3.317-3.317 3.318 3.318 0 0 1 3.326 3.317z" fill="#fcfffe"></path>
    <path d="M303.904 153.062c-.227 13.84-11.91 24.765-25.753 24.765h-23.296a1.327 1.327 0 0 1-1.327-1.327v-23.29c0-13.815 10.88-25.492 24.694-25.758a25.118 25.118 0 0 1 18.306 7.375c4.652 4.653 7.493 11.106 7.376 18.235z" fill="#73a2ff"></path>
    <path d="M271.955 153.165a3.318 3.318 0 0 1-3.325 3.317 3.316 3.316 0 1 1 0-6.634 3.318 3.318 0 0 1 3.325 3.317zM282.04 153.165a3.318 3.318 0 0 1-3.327 3.317 3.316 3.316 0 1 1 0-6.634 3.318 3.318 0 0 1 3.326 3.317zM292.123 153.165a3.318 3.318 0 0 1-3.326 3.317 3.316 3.316 0 1 1 0-6.634 3.318 3.318 0 0 1 3.326 3.317z" fill="#fcfffe"></path>
  </g>
</svg>
