<svg xmlns="http://www.w3.org/2000/svg" viewBox="0 0 994.82 598.48" id="community">
  <defs>
    <clipPath id="a">
      <path d="M18.17 8.72h958.48v581.04H18.17z" fill="none"></path>
    </clipPath>
  </defs>
  <g clip-path="url(#a)">
    <path d="M333.47 255.37s2.27 39.69 2.27 45.46-1.7 16.26 3.86 24.7 22.23 36 28.82 36.22 18.27-29.84 21.15-38.69-.29-72.25-.29-72.25Z" fill="#ffb888"></path>
    <path d="m389.86 264-5-7.11-48.6 15.56s3.77 15.9 8.91 21.53 29.89 7.73 33 5.27c1.63-1.29 7.34-7.28 12.4-12.69-.18-8.11-.46-16.16-.71-22.56Z" fill="#f2a17c"></path>
    <path d="M368.82 332.45h-.13a.91.91 0 0 1-.77-1c.28-2 3-21.32 3-21.32l1.81.25s-2.69 19.36-3 21.33a.9.9 0 0 1-.91.74Zm-9.98-8.95a.91.91 0 0 1-.89-.72l-1.65-7.89a.91.91 0 1 1 1.79-.37l1.64 7.88a.9.9 0 0 1-.7 1.08Z" fill="#e3926f"></path>
    <path d="M400 229.38s3.46-9.08 7.89-1.46-3.38 13.63-4.08 18.48-6.19 7.23-7.39 6 3.58-23.02 3.58-23.02Zm-79.79-.65s-3.32-9.13-7.87-1.58 3.17 13.68 3.8 18.54 6.07 7.33 7.3 6.13-3.23-23.09-3.23-23.09Z" fill="#ffb888"></path>
    <path d="M330.53 177.94s-10.45 10-10 25 .9 40.19 3.15 48.56c1.36 5.06 4.77 21.23 13.86 31.61 5.95 6.8 16.67 9.93 24.13 9.95 9.79 0 17.16-4.25 23.2-10.82 9.44-10.26 14.26-26.11 14.37-39.81.17-22.47 10.3-38.81 1.76-51.84s-38.07-30.84-70.47-12.65Z" fill="#ffb888"></path>
    <path d="M333.47 160.42c18.81-22.3 58.59 4.93 61.36 5.65s8.85 2.15 11.57 9.12 4.1 8.72 5.28 14.2-.44 11.19-.11 14.32-4.46 17.51-6 19.58-4.67 19-6.4 19.29-2-7.89-1.62-15 1.15-16.66.85-23.61-2.89-16.7-5.14-18.28-46.54 3.17-50.86.36c-4.04-2.61-12.4-21.53-8.93-25.63Z" fill="#a67442"></path>
    <path d="M337.39 160.42a25 25 0 0 1-7.31 2c-4.17.49-11.16 5.64-11.36 10.16s-3.2 9.52-5.31 13a25.23 25.23 0 0 0-3.25 16.14c1 6.42 3 16.51 3.5 21.38s1.7 4.87 3.91 10.79 3.72 13.34 5.28 13.5-.78-24.4-1.65-29.27 1.31-18.92 3.06-21.86 2.68-9.36 8.42-9.84 10.42-.09 11.81-.77-7.1-25.23-7.1-25.23Z" fill="#a67442"></path>
    <path d="M346.9 226.64s4.85 1.61 1.6 4.58c-2.08 1.9-4.42 2.5-8.91 2.61-4.91.11-10.8-3.53-9.78-5.36s5-4.1 10.64-3.17 6.45 1.34 6.45 1.34Z" fill="#fff"></path>
    <path d="M350.08 228.76c-2.24-3.72-2.77-3.73-7-4.2s-9.22-.74-13.74 3.89c-1.18 1.2-.11 1.75 3 .24a16.26 16.26 0 0 1 4.4-1.43c2-.33 8.17.37 9 .83 1.21.66 2.65 2 3.6 2.22 1.66.39 1.22-.75.74-1.55Z" fill="#443732"></path>
    <path d="M336.28 229.87a4.48 4.48 0 0 0 4.92 3.87 4.33 4.33 0 0 0 4.17-4.56 4.47 4.47 0 0 0-4.92-3.88 4.34 4.34 0 0 0-4.17 4.57Z" fill="#443732"></path>
    <path d="M348.89 212.26s2.67.51 3.14 1.79 1.42 2.58-1.08 4.25c-.64.43-5.23-1-8.07-1.71s-8.88-.33-10.59.72a29.86 29.86 0 0 1-5.37 2.8c-1.14.28-1.81-1.21-1.06-2.28s2.48-4.14 4.24-4.81 14.13-1.71 18.79-.76Z" fill="#a67442"></path>
    <path d="M374 226.34s-5.44 2-2.24 5.06c2 1.93 4.38 2.57 8.86 2.74 4.91.19 10.85-3.36 9.86-5.21s-4-4.16-9.67-3.32-6.81.73-6.81.73Z" fill="#fff"></path>
    <path d="M370.16 228.92c2.3-3.69 2.83-3.7 7.1-4.1s9.23-.59 13.68 4.1c1.15 1.23.08 1.76-3 .2a15.81 15.81 0 0 0-4.38-1.5c-2-.36-8.17.24-9 .69-1.22.64-2.68 1.94-3.63 2.16-1.67.38-1.26-.77-.77-1.55Z" fill="#443732"></path>
    <path d="M384.85 230.24a4.48 4.48 0 0 1-5 3.8 4.33 4.33 0 0 1-4.09-4.63 4.47 4.47 0 0 1 5-3.8 4.34 4.34 0 0 1 4.09 4.63Z" fill="#443732"></path>
    <path d="M371.61 212.43s-2.68.47-3.17 1.74-1.46 2.56 1 4.28c.63.43 5.25-.93 8.1-1.59s8.88-.19 10.58.88a29.16 29.16 0 0 0 5.32 2.88c1.14.3 1.83-1.18 1.1-2.27s-2.41-4.17-4.17-4.86-14.09-1.93-18.76-1.06Z" fill="#a67442"></path>
    <path d="M359.91 257.8h-.16a.91.91 0 0 1-.91-.91.92.92 0 0 1 .91-.91.86.86 0 0 0 .16 0 9 9 0 0 0 5.55-1.44c1.72-1.18.73-3.71-1-7.44-.66-1.45-2.35-7.19-2-15.07a39.24 39.24 0 0 1 1.36-6.62.91.91 0 0 1 1.14-.59.92.92 0 0 1 .6 1.14 29.74 29.74 0 0 0-1.28 6.08 35.07 35.07 0 0 0 1.23 10.31 28.29 28.29 0 0 0 1.63 4.07c1.62 3.54 3.46 7.56.35 9.69-1.42 1.02-4.49 1.69-7.58 1.69Zm-6.81-1.75a.89.89 0 0 1-.74-.39c-2.21-3.1.24-6.4.33-6.54.28-.42.52-.6.95-.32a.9.9 0 0 1 .27 1.25 4.71 4.71 0 0 0 .36 4.55.9.9 0 0 1-.22 1.26 2.6 2.6 0 0 1-.95.19Z" fill="#e3926f"></path>
    <path d="M346 268.27c3 1.57 7.77 2 15.73 1.88 1.93 0 12.17.81 15.79-2.3.51-.44 1-.34.23 1.07-1.63 2.84-6.64 8.26-16.15 8.36A19 19 0 0 1 346 270c-1.2-1.43-1-2.26 0-1.73Z" fill="#fff"></path>
    <path d="M461.41 324.43s24 5.29 32.15 35.33 9.1 58.27 11.83 67.37 3.61 53.75 3.61 53.75h-52.31S438 428.5 440.76 411.2s8.51-87.2 20.65-86.77Zm-197.72 5.94s-15.13 4.71-24.23 38.39-13.1 52.91-13.55 63.38-2.73 48.74-2.73 48.74h56.9s15.47-126.58 5.46-134.77a267 267 0 0 0-21.85-15.74Zm58.2-18.67 46.72 39s17.3-25 19.21-27.43 22.68 8 22.68 8-2.13 94.73-27.14 105.2-53.35-29.15-56-57.82-5.47-66.95-5.47-66.95Z" fill="#c9ada7"></path>
    <path d="M395 303.11s19.38 5 30.6 9.61 39 12.91 42.64 14.24c0 0-12.49 44.06-12.49 80.37 0 17.54 6.41 189.48 6.41 189.48h-192s13.6-238.35-6.43-266.44c0 0 53.26-19.72 61.45-24.3 0 0-.14 64.38 42.24 114 0 0 30.76-28.79 36.14-89.51Z" fill="#ff8d82"></path>
    <path d="M335.51 294a81.46 81.46 0 0 0 2.77 12.3c1.82 5.46 31.24 44.38 31.24 44.38s-26.79-14.3-28.61-13.85-9.76 8-20.38 21.77c-2.28 3-4.82-21.16-2.09-33s3.94-19.58 6.68-23 10.39-8.6 10.39-8.6Zm55.19-1.25s7.88 3.59 11.3 8.9 9.86 51.33 8.5 52-18-18-20.4-18-20.58 15-20.58 15 15.89-31.4 18.08-37.54c3.18-8.89 3.1-20.36 3.1-20.36Z" fill="#fffadb"></path>
    <path d="M373.8 404.15h-.21a1.14 1.14 0 0 1-.91-1.33c.95-5.12 1.55-35.86.52-39.79-1.18-4.5-.07-12.17 0-12.5a1.14 1.14 0 1 1 2.25.33c0 .08-1.09 7.55 0 11.59 1.21 4.6.39 36.05-.49 40.78a1.14 1.14 0 0 1-1.16.92Zm-7.59 6.6a1.14 1.14 0 0 1-1.13-1.15c0-.15.12-14.86 0-21.59-.08-4.19-.44-10.45-.75-16-.2-3.45-.38-6.62-.47-8.81a21.35 21.35 0 0 1 2.67-10.87 1.14 1.14 0 1 1 1.95 1.17 19.44 19.44 0 0 0-2.35 9.61c.09 2.18.27 5.33.47 8.77.31 5.55.67 11.83.76 16.06.14 6.77 0 21.51 0 21.66a1.14 1.14 0 0 1-1.15 1.15Z" fill="#ad938e"></path>
    <path d="M371.57 362.61a1.94 1.94 0 1 1-1.94-1.94 1.93 1.93 0 0 1 1.94 1.94Zm.67 32.32a1.94 1.94 0 1 1-1.93-1.94 1.92 1.92 0 0 1 1.93 1.94Z" fill="#fffadb"></path>
    <path d="M128 341s4.21 35.78-5.27 46.83-52.1 23-72.62 42S28 458.52 24.87 472.89s-5.79 73.83-5.79 73.83h276.29s-1.06-59.78-3.69-73.83-7.89-29.66-23.68-43.09c-9.92-8.43-80-29.39-85.78-44.12S175.91 341 175.91 341Z" fill="#b06441"></path>
    <path d="M141.91 374.1c1.89 1.58 17.56 4 21.83 1.2 2.85-1.85 9.34-10 13.56-13.5a171 171 0 0 1-1.39-20.8h-17.06l-29.51 11.43s10.66 20.09 12.57 21.67Z" fill="#964f2d"></path>
    <path d="M152 235.51c-27.42 0-53.61 6.87-47.61 62.62a291.75 291.75 0 0 0 9 32.6c7 19.43 20.26 28.62 26.16 33.41 5.29 4.29 12.44 4.29 12.44 4.29s7.16 0 12.44-4.29c5.91-4.79 19.19-14 26.16-33.41a289.33 289.33 0 0 0 9-32.6c6.03-55.75-20.16-62.62-47.59-62.62Z" fill="#b06441"></path>
    <path d="M138 302.85s3.72.82.36 4c-2.15 2.05-4.57 2.71-9.19 2.82-5.06.12-11.1-3.83-10-5.81s3.32-5.12 9.1-4.11a37.48 37.48 0 0 1 9.73 3.1Z" fill="#fff"></path>
    <path d="M139.75 302.82a9.24 9.24 0 0 0-5.63-3.54c-4.4-1.08-11.34-1.21-16 3.8-1.22 1.3.35 1.71 3.59.08a15.45 15.45 0 0 1 11.21-1.24c3.11.7 4.65 2.56 6.3 3s1.02-1.25.53-2.1Z" fill="#443732"></path>
    <path d="M125.27 305.41a4.69 4.69 0 1 0 4.31-4.94 4.63 4.63 0 0 0-4.31 4.94Z" fill="#443732"></path>
    <path d="M143.12 291.29c-1.59-1.68-9.06-3.19-15.46-4.6-9-2-14.51 6.1-15.43 7.29s1.31 2.1 3 .79 4.48-3.95 7.77-3.95 10.22 2.05 13.85 3.29c1.26.43 4.1 1.83 5.36.79s1.55-2.9.91-3.61Z" fill="#4a2b0f"></path>
    <path d="M166.08 302.85s-3.72.82-.36 4c2.14 2.05 4.56 2.71 9.19 2.82 5.05.12 11.09-3.83 10-5.81s-3.32-5.12-9.1-4.11a37.31 37.31 0 0 0-9.73 3.1Z" fill="#fff"></path>
    <path d="M164.27 302.82a9.24 9.24 0 0 1 5.64-3.54c4.39-1.08 11.33-1.21 16 3.8 1.22 1.3-.36 1.71-3.6.08a15.45 15.45 0 0 0-11.21-1.24c-3.11.7-4.65 2.56-6.3 3s-1.02-1.25-.53-2.1Z" fill="#443732"></path>
    <path d="M178.75 305.41a4.69 4.69 0 1 1-4.31-4.94 4.63 4.63 0 0 1 4.31 4.94Z" fill="#443732"></path>
    <path d="M160.9 291.29c1.59-1.68 9.06-3.19 15.47-4.6 8.94-2 14.5 6.1 15.43 7.29s-1.32 2.1-3 .79-4.47-3.95-7.76-3.95-10.23 2.05-13.86 3.29c-1.25.43-4.1 1.83-5.36.79s-1.55-2.9-.92-3.61Z" fill="#4a2b0f"></path>
    <path d="M157.22 309a1.06 1.06 0 0 1-1-.67c-1.15-3-.09-7.48 0-7.68a1.06 1.06 0 0 1 2.05.5c-.27 1.12-.8 4.46-.05 6.42a1 1 0 0 1-.6 1.36 1 1 0 0 1-.4.07Zm-10.45 0a1.05 1.05 0 0 1-.9-1.59 15.46 15.46 0 0 0-.14-4.17 1.05 1.05 0 1 1 2.08-.29c.22 1.62.5 4.48-.14 5.54a1 1 0 0 1-.9.51Zm6.05 23.35a8 8 0 0 1-4.28-1 1.06 1.06 0 0 1-.32-1.46 1 1 0 0 1 1.45-.31c2 1.31 5.6-.27 6.29-.69a3.42 3.42 0 0 1 1.74-.42c1.39-.1 2.42-.26 2.89-1.44a4 4 0 0 0-.27-3.64 1.05 1.05 0 0 1 1.65-1.31c.1.13 2.52 3.21 1.23 6.44-1 2.49-3.4 2.67-4.69 2.76a4.94 4.94 0 0 0-.76.09 10.76 10.76 0 0 1-4.93.98Zm-9.47-2.48a1 1 0 0 1-1-.64c-1.75-4 .24-6.18 1.54-6.77a1.05 1.05 0 0 1 1.39.53 1.07 1.07 0 0 1-.52 1.39c-.2.1-.92 1.79.38 4.8a1 1 0 0 1-.54 1.38c-.1.06-1.11-.69-1.25-.69Z" fill="#94502f"></path>
    <path d="M139 342.67c2.13-1.17 7.1-3.75 9-3.48 2.46.35 2.39 1.91 4 2s2.79-2.05 4.75-2 8.43 2.81 9.48 3.52-2.46 9.67-10.42 10.19c-7.8.5-15-.36-17.55-8.58a1.73 1.73 0 0 1 .74-1.65Z" fill="#db573d"></path>
    <path d="M152.44 347.79H152a34.77 34.77 0 0 1-16.8-4.33.79.79 0 0 1-.25-1.09.78.78 0 0 1 1.08-.25 33.83 33.83 0 0 0 16 4.09 31 31 0 0 0 15.97-4.07.79.79 0 0 1 1.09.22.8.8 0 0 1-.22 1.1 31.72 31.72 0 0 1-16.43 4.33Z" fill="#c24b36"></path>
    <path d="M95.65 277.8a29.53 29.53 0 0 1-6.32-6.58c-2.1-3.42-.26-6.05 0-8.69s-6.31-2-5-8.42c.61-3 3.15-2.36 3.94-5.92s-5-11.44-1.84-13.81 4.74-4.21 4.74-5.79-4.74-11.58.52-13.68 7.9-1.58 8.69-4.21.52-9.21 4.47-10.53 7.2 1.84 8.21-2.1.86-8.42 4.62-8.95S122 192 124.86 192s.52-4.21 6-5.78 5.76 4.47 8.8 4.21 3.65-7.9 9.4-7.37 5.22 7.63 9.43 6.58 7.89-4.74 12.63-3.42-.66 3.15 4.14 4.21 4.28 4.47 4.54 6.84 5-5.27 8.42-3.95 3.8 6 5.19 8.16 5.34-1.32 8.76.79-1.05 5.26 0 8.94 5 2.11 6.58 3.69-1.58 3.68 0 6.31 5 1.32 5 4.74-4.74 5.16-1.32 9.55 5 4.92 3.16 8.08-4.74 3.95-4.74 8.42-.52 12.35-3.42 15.52-12.63-26.31-20-35-29.2-23.95-49.73-11.58-42.05 56.86-42.05 56.86Z" fill="#4a2b0f"></path>
    <path d="M199.3 299.59s-3.75-25-11.12-35.24l-7.36-10.24s-18.26-19.28-30.53-18.59-50.87 50.12-51.57 58.92c0 0-6.67-19.63-3.16-35.77s18.22-43.85 44.72-44.2a68.5 68.5 0 0 0 8.83 0c3.29-.35 16.62-5.26 32.06 4.21s28.06 37.35 26.31 48.85-4.08 26.67-8.18 32.06Z" fill="#d81159"></path>
    <path d="M161 218.35a3.57 3.57 0 1 1-3.57-3.57 3.57 3.57 0 0 1 3.57 3.57Zm15.37 16.2a3.57 3.57 0 1 0-3.57-3.57 3.57 3.57 0 0 0 3.55 3.57ZM170 221.92a3.57 3.57 0 1 0-3.57-3.57 3.57 3.57 0 0 0 3.57 3.57Zm-28.83-3.57a3.57 3.57 0 1 0 3.57-3.57 3.57 3.57 0 0 0-3.53 3.57Zm41.46 3.57a3.56 3.56 0 0 0 2.08-.67 32.07 32.07 0 0 0-3.58-2.57c-.67-.41-1.32-.78-2-1.14a3.58 3.58 0 0 0 3.48 4.38Zm-44.21 5.49A3.57 3.57 0 1 0 142 231a3.57 3.57 0 0 0-3.54-3.59Zm25.26 7.14a3.57 3.57 0 1 0-3.57-3.57 3.57 3.57 0 0 0 3.61 3.57Zm37.89 43.38a3.57 3.57 0 1 0 3.27 5c.11-.5.2-1 .3-1.51a3.56 3.56 0 0 0-3.53-3.49Zm6-12.62a3.57 3.57 0 0 0-.89 6.93c.26-1.61.5-3.2.73-4.71a16.9 16.9 0 0 0 .23-2.22Zm-6-5.5a3.57 3.57 0 1 0-3.57-3.57 3.57 3.57 0 0 0 3.61 3.57Zm-9.88-16.2a3.57 3.57 0 1 0 3.61-3.61 3.57 3.57 0 0 0-3.57 3.61Zm-63.15-25.26a3.57 3.57 0 1 0 5.14-3.21 37 37 0 0 0-4.52 1.19 3.57 3.57 0 0 0-.58 2.02Zm66.72 54.09a3.57 3.57 0 1 0-3.57-3.57 3.57 3.57 0 0 0 3.61 3.57ZM189 234.55a3.57 3.57 0 1 0-3.57-3.57 3.57 3.57 0 0 0 3.57 3.57Zm0 25.26a3.57 3.57 0 1 0-3.57-3.57 3.57 3.57 0 0 0 3.57 3.57ZM132.15 240a3.57 3.57 0 1 0 2.24 6.35l.45-.44a3.53 3.53 0 0 0 .88-2.34 3.57 3.57 0 0 0-3.57-3.57Zm-6.32 12.63a3.57 3.57 0 0 0-3.57 3.57 3.61 3.61 0 0 0 .81 2.27c1.56-1.8 3.13-3.57 4.69-5.27a3.55 3.55 0 0 0-1.93-.53Zm-21.69 28.87a3.57 3.57 0 1 0-3.57 3.57 3.57 3.57 0 0 0 3.57-3.57Zm50.53-50.5a3.58 3.58 0 1 0-3.58 3.57 3.57 3.57 0 0 0 3.58-3.57Zm-56.84 37.87a3.57 3.57 0 0 0-3.17-3.55 62.33 62.33 0 0 0 0 7.1 3.57 3.57 0 0 0 3.17-3.55Zm84.84-21.69a3.57 3.57 0 1 0-3.57-3.57 3.57 3.57 0 0 0 3.57 3.57Zm-9.06-3.57a3.57 3.57 0 0 0-6.8-1.52c2 1.37 3.84 2.83 5.55 4.23a3.56 3.56 0 0 0 1.25-2.71Zm-54.09-21.69A3.56 3.56 0 0 0 123 219a40.09 40.09 0 0 0-4.39 2.78 3.68 3.68 0 0 0 .91.14Zm-12.63 50.52a3.57 3.57 0 1 0-3.58-3.57 3.57 3.57 0 0 0 3.58 3.57Zm6.31-12.63a3.57 3.57 0 1 0-3.57-3.57 3.57 3.57 0 0 0 3.57 3.57Zm0-25.26a3.57 3.57 0 1 0 0-7.14 3.75 3.75 0 0 0-1.21.21c-.78.82-1.53 1.66-2.26 2.51a4 4 0 0 0-.1.85 3.57 3.57 0 0 0 3.57 3.57Zm-6.31 12.63a3.57 3.57 0 1 0-3.58-3.57 3.57 3.57 0 0 0 3.58 3.57Zm-6.32 5.49a3.57 3.57 0 1 0 3.57 3.57 3.57 3.57 0 0 0-3.57-3.57Zm19-5.49a3.57 3.57 0 1 0-3.58-3.57 3.57 3.57 0 0 0 3.53 3.57Zm6.31-12.63a3.57 3.57 0 1 0-3.57-3.57 3.57 3.57 0 0 0 3.52 3.57Z" fill="#fff3b0"></path>
    <path d="M145.56 212.89c-2.4-2.37-5.46 2.3-5.49 12.29s4.76 5.43 10.22 5.24 5.24 2 6.91-2.52-1.65-13.9-3.93-15.62-2.97 5.29-7.71.61Z" fill="#d81159"></path>
    <path d="M141.91 227.67a.79.79 0 0 1-.77-.59c-1.88-7.37 0-11.82 0-12a.79.79 0 1 1 1.45.62c0 .07-1.69 4.2 0 11a.79.79 0 0 1-.57 1Zm15.74 0a.8.8 0 0 1-.79-.71c-.83-8.2-2.83-12.43-2.85-12.47a.8.8 0 0 1 .37-1.06.79.79 0 0 1 1.05.37c.09.18 2.14 4.52 3 13a.8.8 0 0 1-.71.87Zm-8.34-8.22c-2.06 0-4.55-3-5-3.57a.79.79 0 0 1 1.23-1c1 1.24 2.83 3 3.79 3a.44.44 0 0 0 .36-.19.78.78 0 0 1 1.1-.16.8.8 0 0 1 .16 1.11 2 2 0 0 1-1.58.82ZM133 223a.8.8 0 0 1-.74-.51.79.79 0 0 1 .46-1 8 8 0 0 0 3.46-2.71 37 37 0 0 0-7.08 2.5.79.79 0 1 1-.65-1.44c8-3.57 8.93-2.59 9.25-2.26a1.21 1.21 0 0 1 .13 1.47 9.07 9.07 0 0 1-4.55 3.92 1 1 0 0 1-.28.03Zm29.58-1.7a.71.71 0 0 1-.4-.11s-3-1.91-2.38-3.54a1.12 1.12 0 0 1 .7-.65c1.51-.55 7.39.45 8.29 1a.79.79 0 0 1 .29 1.08.78.78 0 0 1-1.07.29 24.9 24.9 0 0 0-6.59-.93 7.64 7.64 0 0 0 1.56 1.42.79.79 0 0 1-.4 1.47Zm35.69 35.7a.78.78 0 0 1-.76-.58C195 247 185.32 236.15 185.22 236a.79.79 0 0 1 .07-1.12.78.78 0 0 1 1.11.07c.41.45 10 11.26 12.63 21a.78.78 0 0 1-.55 1Z" fill="#b80c4a"></path>
    <path d="M147.88 249.9s-4.56 2.11-2.41 6.85 4.65 5 4.65 6.7-5.15 4.48-3.23 7.64 3.89 3.68 3.89 5.92-3.56 5-1.85 7.63 4.21 3 5.14.65-2.9-2.36-1.32-5.26 3-2.76 2.89-6.31-3.94-1.72-2.89-4.72 3.31-2.76 2.9-5.92-4.87-3.55-4.48-7.1 4.53-7.77 4.53-7.77Z" fill="#4a2b0f"></path>
    <path d="M141.83 248.19s-4.34 4.34-2.5 8.42-4.6 4.35-3.82 8.42 4.48 3.69 3.82 6.45-3 2.89-2 5.92 3.15 5.53 4.47 4.21-1.21-2-1.2-4.47 2.52-2.5 3-5.66-2.31-3.29-2.47-5.66 1.68-2.89 2.54-5.79-1.38-8.55 3.35-11.84-5.19 0-5.19 0Z" fill="#4a2b0f"></path>
    <path d="M154.52 251.51a5.63 5.63 0 0 0 4 5.24c4 1.22 6.84 0 8.07 1.57s-.7 5.62 2.28 6.67 5.3.18 6.42 1.23.77 4.38 2.35 5.26 6.38-2.1 6.87-.88c.31.77.31 3.56 1.28 6.47.5 1.5 2.7 1.6 5.08 2.12.74.17-1.25 5.88 1.8 7.19 4.16 1.78 2.44 6.5 5.51 7.08 1.24.23 3.22-6.6-.43-12.77-1.54-2.6.81-6.19.12-7.69-1.15-2.5-3.89-2.32-3.89-3.49 0-6.84-3.71-5.57-4.24-7.33s.18-3-.7-4.73-5-2.11-4.53-3.69a7.23 7.23 0 0 0 0-4.73c-.56-1.58-3.36-2.28-3.54-3.51s.35-4.74-.87-6.32-5.77-3.34-5.61-3.69-2.11-3.32-3.34-4.38-3.51-.52-7.37-2.63-4.21-6.14-7.19-6.31-4 2.63-7.19 1.93-5.62-2.28-7.37-.88-2.28 3-4.74 3.33-5.08-.87-6.49 1.93-.7 4.21-4 4.74-7.72 1-7.9 4.56-3.86 2.63-4.91 5.79-2.28 5.11-4.56 6.5-3.33 2.09-3.33 4.55-4.56 3.68-4 7.37 1.06 6.31-.87 7.89-3 5.06-2.64 7.9c.88 7-1.22 7.19-1.05 11.05s3.14 14.64 7.77 13.12c0 0 1.18-8.8 3.11-10.91s0-5.72 3.16-6.6 4-4.56 3.68-6.66.74-6.5 2.48-7.2 4.71-4.56 4.71-6.31 5.44-1.76 7.55-5.09 5.61-2.28 7.36-3.68 1.41-4 4.21-5.27 5.52 2.46 7.59 1.58 4.84-2.6 5.36-.32Z" fill="#4a2b0f"></path>
    <path d="M108.54 303.11s-5.17-9.75-8.07-1.14 3.34 12.4 5.44 17.93 6.58 9.46 8.42 7.1-5.79-23.89-5.79-23.89Zm86.94 0s5.17-9.75 8.07-1.14-3.33 12.4-5.44 17.93-6.58 9.46-8.42 7.1 5.79-23.89 5.79-23.89Z" fill="#b06441"></path>
    <path d="M126.93 378.69s25.48 19.59 53.15 0c0 0 2.73 3 1.65 5.66 0 0-25.86 22.48-57 .46-.02 0-.46-3.9 2.2-6.12Z" fill="#7385a6"></path>
    <path d="M156.4 437.78c-21.21 0-37.26-44.56-37.93-46.47a.53.53 0 0 1 1-.35c.16.46 16.47 45.77 36.94 45.77h.34c20.59-.51 29.42-45.24 29.51-45.69a.52.52 0 1 1 1 .2c-.36 1.87-9.08 46-30.51 46.54Z" fill="#f9ad32"></path>
    <path d="M159.18 440.06c0 3.39-1.41 6.14-3.16 6.14s-3.16-2.75-3.16-6.14 1.42-6.14 3.16-6.14 3.16 2.75 3.16 6.14Z" fill="#f9ad32"></path>
    <path d="M141.71 433.81h3.74a2.91 2.91 0 0 1 2.91 2.91v3.74h-3.74a2.91 2.91 0 0 1-2.91-2.91v-3.74Z" transform="rotate(45 145.033 437.135)" fill="#f9ad32"></path>
    <path d="M166.6 433.81h3.74v3.74a2.91 2.91 0 0 1-2.91 2.91h-3.74v-3.74a2.91 2.91 0 0 1 2.91-2.91Z" transform="rotate(135 167.015 437.13)" fill="#f9ad32"></path>
    <path d="M292.52 479.35s-16.63 6.53-34.52 4.95-26.46-14.21-23.15-33.36a274.52 274.52 0 0 1 8.2-32.88c-6.91-2.81-14.53-5.86-22-9a311.44 311.44 0 0 1-16.77 41.35c-11.07 22.63-23.13 28.94-48.6 28.94s-38.21-10-48.53-31.05a448.87 448.87 0 0 1-17.73-42c-6.83 3.21-13.93 6.64-20.57 10.39.44 1.35 9.18 28.08 10.2 35.26 1.06 7.37 1.58 19.47-4.73 29.47s-51.49 6.7-51.49 6.7c-2.19 22.75-4.33 114.75-4.33 114.75l279.53-1.1s2.32-52.8-.17-81.36c-2.03-23.58-4.42-31.78-5.34-41.06Z" fill="#faefa5"></path>
    <path d="M155.73 487.36c-21.54 0-35.06-7.14-47.91-25.13-12.26-17.15-22.89-48.15-23.34-49.46a1.33 1.33 0 0 1 .83-1.68 1.31 1.31 0 0 1 1.68.83c.11.31 11 31.94 23 48.77 12.74 17.83 25.55 24.33 47.24 24 23.26-.35 36.75-6.64 45.09-21 8.61-14.86 20.83-48.51 20.95-48.85a1.32 1.32 0 1 1 2.49.9c-.12.34-12.42 34.22-21.15 49.28-8.87 15.31-23 22-47.34 22.36Zm88.06 87.39A1.78 1.78 0 0 1 242 573c0-5.74-1-14.53-1.92-23-.57-5.15-1.16-10.47-1.55-15.2s-.92-8.59-1.44-12.24a126 126 0 0 1-1.56-19.56 1.78 1.78 0 1 1 3.55 0 122 122 0 0 0 1.54 19c.52 3.71 1.06 7.53 1.46 12.45.39 4.68 1 10 1.54 15.09 1 9 1.94 17.49 1.94 23.43a1.78 1.78 0 0 1-1.77 1.78Zm-48.35-26.87c-11.9 0-19.36-3.27-19.87-3.5a1.78 1.78 0 0 1-.88-2.36 1.76 1.76 0 0 1 2.34-.88c.25.11 20 8.67 46.75-3.08a1.78 1.78 0 0 1 1.43 3.26 73.66 73.66 0 0 1-29.77 6.56Z" fill="#7385a6"></path>
    <path d="M742.4 239.17s.62 10.82 1.7 32.42c1.08 21.43-7 38.42-1.77 58.4 7.82 29.73-2.32 74.25 3.22 73.67s46.16-4.31 51.35-11-34.52-161.81-54.5-153.49ZM865.85 222c3.38 13.71 1.83 35.59 1.49 56.93-.22 13.48 11 11.36 2.42 66.92-1 6.71 7.7 46.11 7.15 51.47-.3 2.91-35.47 27.94-49.8 10.88-12-14.31-3.41-70.57-5.4-74.47-4.38-8.51 38.13-136.06 44.14-111.73Z" fill="#805634"></path>
    <path d="M851.4 295.5c.63 2.13 2 7.65 0 22.74s-4.1 20.27-3 29.22 9.09 20.47 8.59 33.57-20.15 8.38-22.5-5.53-5.59-53.73-5.59-53.73Z" fill="#5c3d20"></path>
    <path d="M742.4 239.17s.62 10.82 1.7 32.42c1.08 21.43-7 38.42-1.77 58.4 7.82 29.73-2.32 74.25 3.22 73.67s46.16-4.31 51.35-11-34.52-161.81-54.5-153.49Z" fill="#805634"></path>
    <path d="M760.09 290.05a37.77 37.77 0 0 0-.84 32.78c8 17.62 11.49 28 6.87 39.71s-1.22 26.91-1.22 26.91l24.91-4.67 6.7-56.44Z" fill="#5c3d20"></path>
    <path d="M754.54 248.46c-2.21 2.79-3.77 5.94-4.36 11.48-1.3 12.36 5.11 20.68 3.67 38.85s-6.28 18.73 1.79 35.29 8.15 27.72-1.79 47.82a41.7 41.7 0 0 1 1.64 20.7c6.41-.74 13.46-1.69 19.87-2.83 0 0-16.29-10.77-7.28-34.6 5.67-15 5-21.69-.27-31.09s-5.79-32.34-5.89-39.28c-.08-5.26-3.34-10.72-2.09-17.34-1-2.51-1.3-8.6.86-17.44a109.42 109.42 0 0 0-6.15-11.56Z" fill="#734b29"></path>
    <path d="M779.06 319.52s.28 22.75 0 38.51-27 24.93-27.33 27 37.44 99.75 55.68 104.89 64.47-109.14 64.47-109.14-33.3-3.54-33.64-27.18-.35-36-.35-36Z" fill="#ffb888"></path>
    <path d="M838 340.26c-.15-14.23-.15-22.72-.15-22.72l-25.07.84c-14 3.67-30.65 7.85-30.65 7.85s9.59 16.33 13.29 22.16 16.49 8.22 22.61 7.19c4.87-.81 15.33-9.74 19.97-15.32Z" fill="#f2a17c"></path>
    <path d="M810.34 412.27a3.7 3.7 0 0 1-.37 0c-5.14-.6-25.49-33.39-31.61-43.43a1.16 1.16 0 0 1 2-1.21c12.4 20.36 27 41.76 29.91 42.34 3-.4 16-21.81 26.76-42.27a1.16 1.16 0 1 1 2 1.08c-.06.11-5.82 11-12.12 21.7-11.91 20.27-15.15 21.79-16.57 21.79Z" fill="#fff"></path>
    <path d="M813.79 420.78c0 5.53-1.37 10-3.07 10s-3.07-4.48-3.07-10 1.37-10 3.07-10 3.07 4.48 3.07 10Z" fill="#fff"></path>
    <path d="M810.72 432c-3.34 0-4.23-7-4.23-11.17s.89-11.16 4.23-11.16 4.23 7 4.23 11.16-.89 11.17-4.23 11.17Zm-.05-20c-.46.22-1.86 3.19-1.86 8.85s1.4 8.63 2 8.86c.46-.23 1.86-3.2 1.86-8.86s-1.44-8.7-2-8.92Z" fill="#ccc"></path>
    <path d="M755.64 247.19s.63 22 3.48 38.19 10.83 31.67 25 45c13.74 12.91 18.28 11.47 24.61 11.47s10.87 1.44 24.61-11.47c14.2-13.34 22.19-28.85 25-45s3.47-38.19 3.47-38.19-39-46.76-62.38-46.76-43.79 46.76-43.79 46.76Z" fill="#ffb888"></path>
    <path d="M793.18 269.12s3.06 2-.92 5.53c-2.55 2.25-5.28 2.83-10.41 2.56-5.62-.28-12-5.48-10.67-7.74s4.08-5.8 10.41-4.11a118.86 118.86 0 0 1 11.59 3.76Z" fill="#fff"></path>
    <path d="M796.25 268.84c-.53-1-2.09-2.94-6.07-4.17-5.3-1.63-13.8-1.78-20 3.72-1.61 1.43.29 2 4.41.39a19.72 19.72 0 0 1 13.84-.52c3.75 1.08 4.21 2.77 6.2 3.42s2.15-1.79 1.62-2.84Z" fill="#443732"></path>
    <path d="M777.56 271.84a5.78 5.78 0 1 0 5.73-5.45 5.6 5.6 0 0 0-5.73 5.45Z" fill="#443732"></path>
    <path d="M799.11 255.25s-1.8-3.42-12.34-4c-9.2-.52-14.2.09-20.5 4.09-2.27 1.43-.94 5 3.5 3.09a38.49 38.49 0 0 1 12.68-1.62 37.69 37.69 0 0 1 12.08 3c2.47.95 6.2-2.54 4.58-4.56Z" fill="#734b29"></path>
    <path d="M824.34 269.12s-3.05 2 .93 5.53c2.54 2.25 5.27 2.83 10.41 2.56 5.61-.28 12-5.48 10.67-7.74s-4.09-5.8-10.42-4.11a120 120 0 0 0-11.59 3.76Z" fill="#fff"></path>
    <path d="M821.27 268.84c.53-1 2.09-2.94 6.07-4.17 5.3-1.63 13.8-1.78 20 3.72 1.61 1.43-.28 2-4.4.39a19.75 19.75 0 0 0-13.85-.52c-3.75 1.08-4.21 2.77-6.2 3.42s-2.14-1.79-1.62-2.84Z" fill="#443732"></path>
    <path d="M840 271.84a5.78 5.78 0 1 1-5.72-5.45 5.6 5.6 0 0 1 5.72 5.45Z" fill="#443732"></path>
    <path d="M818.42 255.25s1.79-3.42 12.33-4c9.21-.52 14.2.09 20.51 4.09 2.26 1.43.93 5-3.5 3.09a38.61 38.61 0 0 0-12.69-1.62 37.69 37.69 0 0 0-12.08 3c-2.46.95-6.2-2.54-4.57-4.56Z" fill="#734b29"></path>
    <path d="M812.65 278.34a1 1 0 0 1-1-.77 23.6 23.6 0 0 1-.31-9.42 1 1 0 1 1 2 .24A27 27 0 0 0 814 277a1 1 0 0 1-.74 1.25c-.04.04-.53.09-.61.09Zm-3.03 21.58a9 9 0 0 1-2.52-.3 1 1 0 0 1 .62-2c1.43.45 4.47-.2 6.82-1.44a2.87 2.87 0 0 0 1.46-1.43c.65-2.16-1-6-1.83-7.35-.3-.48.25-1.15.74-1.45a1 1 0 0 1 1.41.34c.37.61 4 6.27 2.94 9.7a4.63 4.63 0 0 1-2.48 2.66c-1.88 1.04-4.97 1.27-7.16 1.27Zm-8.96-1.57a2.52 2.52 0 0 1-1.23-.36c-3-3.22-.69-6.95.6-8.61.35-.45 1.08-.76 1.53-.41a1 1 0 0 1 .18 1.44c-.11.14-2.62 3.47-.06 6.21a1 1 0 0 1 0 1.45 1.74 1.74 0 0 1-1.02.28Z" fill="#e3926f"></path>
    <path d="M790.13 313.39s2.76 5.22 3.23 6.42 3.83 6.65 9.56 7.78c2.38.47 10.42.41 13.84-.81 2.77-1 5.83-4.25 7.31-8.12a55.82 55.82 0 0 1 3-6.37s-18.6 7.96-36.94 1.1Z" fill="#f7956f"></path>
    <path d="M790.13 313.39s11.22-2.94 13.5-3.22c1.8-.22 3.71.78 5.13.52a17.9 17.9 0 0 1 4.53-.67 132.72 132.72 0 0 1 13.82 2.27c1.89.51-11.7 8-19.06 7.14s-17.92-6.04-17.92-6.04Z" fill="#f7956f"></path>
    <path d="M827.11 312.29a58.87 58.87 0 0 1-19.7 3.33c-11.82.13-17.28-2.23-17.28-2.23s6 5.75 17.92 6c13.59.37 19.06-7.1 19.06-7.1Z" fill="#fff"></path>
    <path d="M771 195.71a24.62 24.62 0 0 0-18.88 8.5c-8.12 9.27-11.57 27-9.49 44.62 1.35 11.46 18.78 44.82 17.46 41.22-4.91-13.42-.67-31.48 1.21-36.87 5-14.27 16.41-24.05 16.41-30.4 0-3.91-6.71-27.07-6.71-27.07Z" fill="#805634"></path>
    <path d="M755.64 302.46c-.95 11.93-4.13 14.69-3.92 19.86a44.32 44.32 0 0 1 12-2.88 194.51 194.51 0 0 1-1.76-24.64c-.08-5.26-3.34-10.72-2.09-17.34-2.05-5.13-1.18-25.2 17.7-53.25-1.57-6.87-7.87-12.91-7.87-12.91s3.05 13.81-4.48 24.79-13.7 11.48-15 23.85 6.87 24.35 5.42 42.52Z" fill="#734b29"></path>
    <path d="M768.08 199.57s2.91 25.23 9.63 29.56c13.79 8.88 38.11-.95 45.51 3.61 26.57 16.39 30.54 18.34 38.66 40.82 2.35 6.5 5.36-31.67 5.51-35.74.54-15.19-4.75-41.78-34.92-55-32.72-14.35-58.08-.05-64.39 16.75Z" fill="#805634"></path>
    <path d="M867.89 240.06c-1.54 3.28-6.09 19.81-10.46 13.07-9-13.85-19.95-24.19-32.65-30.58S794.3 233 771 195.71l-.57-.89c-.95 1.54-1.24 12 .42 19.86 1.68 5.25 3.07 9.23 3.09 9.3a12.22 12.22 0 0 0 3.77 5.15c13.79 8.88 38.11-.95 45.51 3.61 18.06 11.14 25 16.4 32.38 26.27 3.47 4.66 3.27 13.39 12.29 18.26 3.53 1.91-1.12-26.27 0-37.21Z" fill="#734b29"></path>
    <path d="M776.2 196a1.21 1.21 0 0 1-.6-.17 1.15 1.15 0 0 1-.38-1.58c.24-.4 6-9.78 17.47-9.54A63.36 63.36 0 0 0 804 184c5-.69 8-1.1 15.94 2.72a1.16 1.16 0 0 1-1 2.09c-7.36-3.53-9.94-3.17-14.62-2.52a66 66 0 0 1-11.69.73h-.43c-9.75 0-15 8.35-15 8.44a1.17 1.17 0 0 1-1 .54Z" fill="#8c5e39"></path>
    <path d="M821 204.76a1.12 1.12 0 0 1-.71-.25c-6.72-5.26-12.86-6.83-17.8-8.09l-1.87-.49c-13.62-3.67-22 4.1-22.12 4.18a1.15 1.15 0 0 1-1.59-1.67c.38-.36 9.45-8.74 24.31-4.74l1.84.48c4.88 1.25 11.56 2.95 18.65 8.52a1.15 1.15 0 0 1-.71 2.06Z" fill="#8c5e39"></path>
    <path d="M760.62 275.05s-.56-5.65-3.72-7.32-8.49-.67-8.65 9.54c-.07 4.76 4.29 12.45 5.6 15.34 4.69 10.37 12.27 7.94 12.27 7.94Z" fill="#ffb888"></path>
    <path d="M757.51 279.77a.81.81 0 0 1-.76-.52c-1-2.76-3.1-6.78-4.52-7.1a.6.6 0 0 0-.59.22 3 3 0 0 0-.65 2.06.81.81 0 0 1-.76.85.85.85 0 0 1-.85-.76 4.61 4.61 0 0 1 1.14-3.31 2.16 2.16 0 0 1 2.07-.63c2.77.62 5.21 6.86 5.68 8.1a.81.81 0 0 1-.48 1 .69.69 0 0 1-.28.09Zm4.41 12.03c-.24 0-1.51-.11-3-2.23-1.58-2.28.72-5.71 1-6.09a.81.81 0 0 1 1.33.92c-.51.74-1.78 3.09-1 4.25 1 1.42 1.7 1.53 1.7 1.53a.78.78 0 0 1 .78.81.82.82 0 0 1-.81.81Z" fill="#e3926f"></path>
    <path d="M761.92 294.8c-1.33 0-4.61 14.6-2.67 19.95s6.2 8.26 5.81 11.73 6.34-2.11 2.77-11.73c-5.19-13.95-4.58-19.95-5.91-19.95Z" fill="#fff"></path>
    <path d="M856.91 275.05s.55-5.65 3.71-7.32 8.49-.67 8.65 9.54c.07 4.76-4.29 12.45-5.59 15.34-4.7 10.37-12.28 7.94-12.28 7.94Z" fill="#ffb888"></path>
    <path d="M860 279.77a.69.69 0 0 1-.28 0 .8.8 0 0 1-.47-1c.46-1.24 2.9-7.48 5.67-8.1a2.18 2.18 0 0 1 2.08.63 4.54 4.54 0 0 1 1.13 3.31.81.81 0 0 1-1.61-.09 3 3 0 0 0-.65-2.06.6.6 0 0 0-.59-.22c-1.42.32-3.49 4.34-4.52 7.1a.81.81 0 0 1-.76.43Zm-4.4 12.03a.81.81 0 0 1 0-1.62s.68-.12 1.66-1.53c.8-1.16-.48-3.51-1-4.25a.81.81 0 0 1 1.33-.92c.27.38 2.56 3.81 1 6.09-1.48 2.12-2.75 2.23-2.99 2.23Z" fill="#e3926f"></path>
    <path d="M855.6 294.8c1.34 0 4.61 14.6 2.67 19.95s-6.19 8.26-5.81 11.73-6.34-2.11-2.77-11.73c5.19-13.95 4.58-19.95 5.91-19.95Z" fill="#fff"></path>
    <path d="M764.24 376.51a302.5 302.5 0 0 0-48.44 17.77c-35 16.36-36.21 28.7-43.4 57.49s-8.23 143.71-8.23 143.71l312.71.58s-.33-168.52-28.79-190.3c-25.6-19.59-85.76-30.41-85.76-30.41a395.86 395.86 0 0 1-19 47.41c-6.68 13.59-26.4 53.51-32.21 53.87s-28.92-46.58-35.5-61.87c-7.35-17-11.38-38.25-11.38-38.25Z" fill="#52b788"></path>
    <path d="M695.89 472.78a8.41 8.41 0 1 0 8.41 8.41 8.41 8.41 0 0 0-8.41-8.41Zm0 83.09a8.41 8.41 0 1 0 8.41 8.41 8.4 8.4 0 0 0-8.41-8.41Zm20.78-41.54a8.41 8.41 0 1 0 8.4 8.4 8.4 8.4 0 0 0-8.4-8.4Zm228.48-41.55a8.41 8.41 0 1 0 8.41 8.41 8.41 8.41 0 0 0-8.41-8.41Zm-83.08-66.27a8.41 8.41 0 1 0-5.54-14.72c-.86 2.27-1.8 4.71-2.81 7.26a8.41 8.41 0 0 0 8.35 7.46Zm-166.18 0a8.4 8.4 0 0 0 8.11-6.11 82.35 82.35 0 0 0-9.09 6 8.42 8.42 0 0 0 .98.11Zm-20.77 41.54a8.4 8.4 0 0 0 2.59-16.4c-1.54 4.78-2.84 10.11-4.35 16.21a8.55 8.55 0 0 0 1.76.19Zm41.55-16.81a8.41 8.41 0 1 0 8.4 8.41 8.4 8.4 0 0 0-8.4-8.41ZM779 555.87a8.41 8.41 0 1 0 8.41 8.41 8.4 8.4 0 0 0-8.41-8.41Zm0-83.09a8.41 8.41 0 1 0 8.41 8.41 8.41 8.41 0 0 0-8.41-8.41Zm-20.79-41.54a8.41 8.41 0 1 0 8.4 8.41 8.41 8.41 0 0 0-8.4-8.41Z" fill="#faefa5"></path>
    <circle cx="737.44" cy="398.1" r="8.4" transform="rotate(-45 737.44 398.103)" fill="#faefa5"></circle>
    <path d="M791.35 522.73a8.41 8.41 0 1 0 8.4-8.4 8.41 8.41 0 0 0-8.4 8.4Zm-53.91 33.14a8.41 8.41 0 1 0 8.4 8.41 8.41 8.41 0 0 0-8.4-8.41Zm20.77-41.54a8.41 8.41 0 1 0 8.4 8.4 8.41 8.41 0 0 0-8.4-8.4Zm-20.77-41.55a8.41 8.41 0 1 0 8.4 8.41 8.42 8.42 0 0 0-8.4-8.41Zm-62.32 58.36a8.41 8.41 0 1 0-8.4-8.41 8.42 8.42 0 0 0 8.4 8.41Zm166.18-83.09a8.41 8.41 0 1 0-2.38-16.46c-1.67 3.32-3.55 7-5.54 10.86a8.41 8.41 0 0 0 7.92 5.6Zm0 66.28a8.41 8.41 0 1 0 8.4 8.4 8.4 8.4 0 0 0-8.4-8.4Zm103.85 41.54a8.41 8.41 0 1 0 8.41 8.41 8.4 8.4 0 0 0-8.41-8.41Zm-83.08 0a8.41 8.41 0 1 0 8.4 8.41 8.41 8.41 0 0 0-8.4-8.41Zm-41.55 16.81a8.41 8.41 0 1 0-8.4-8.4 8.4 8.4 0 0 0 8.4 8.4Zm137-133.03a8.39 8.39 0 0 0 8.09 8.38c-1.15-5.6-2.41-10.88-3.79-15.71a8.39 8.39 0 0 0-4.3 7.33Zm-95.45 33.13a8.41 8.41 0 1 0 8.4 8.41 8.42 8.42 0 0 0-8.4-8.41Zm103.86 41.55a8.41 8.41 0 1 0 8.4 8.4 8.4 8.4 0 0 0-8.4-8.4Zm-145.41-24.74a8.41 8.41 0 1 0-8.4-8.4 8.4 8.4 0 0 0 8.4 8.4Zm103.86-58.35a8.41 8.41 0 1 0 8.41 8.41 8.4 8.4 0 0 0-8.41-8.41Zm0 83.09a8.41 8.41 0 1 0 8.41 8.4 8.4 8.4 0 0 0-8.41-8.4Zm20.77-107.82a8.44 8.44 0 0 0 3.11-.6l-.17-.15a80.29 80.29 0 0 0-11.31-7.07 8.4 8.4 0 0 0 8.37 7.82Zm-41.54 66.27a8.41 8.41 0 1 0 8.41 8.41 8.41 8.41 0 0 0-8.41-8.41Zm-20.77 41.55a8.41 8.41 0 1 0 8.4 8.4 8.41 8.41 0 0 0-8.4-8.4Zm0-83.09a8.41 8.41 0 1 0 8.4 8.41 8.41 8.41 0 0 0-8.4-8.41Zm20.77 124.63a8.41 8.41 0 1 0 8.41 8.41 8.4 8.4 0 0 0-8.41-8.41Zm0-166.17a8.41 8.41 0 1 0 8.41 8.4 8.4 8.4 0 0 0-8.41-8.4Z" fill="#faefa5"></path>
    <path d="M768.4 448.33c11.61 10.53 40.23 29.45 41.33 29.28.77-.11 1.35-.39 1.35-1-8.14-7.84-29.62-48.2-35.5-61.87-7.31-17-11.34-38.25-11.34-38.25s-1.31.33-3.62 1L750.18 427s5.18 9.51 18.22 21.33Zm42.68 28.3c.13.46.58.59 1.07.8.82.34 25.12-17.06 42.46-32.52 9.73-8.67 17.27-19.1 17.27-19.68 0-1.77-9.55-49.88-9.55-49.88a395.86 395.86 0 0 1-19 47.41c-6.07 12.24-24.79 47.17-32.25 53.87Z" fill="#fff"></path>
    <path d="M809.29 586.75a1.73 1.73 0 0 1-1.74-1.73c0-.22 0-1.09.1-2.49 1.35-30.22 1.15-53.33-.62-68.67-1.66-14.54 1.24-30 1.37-30.66a1.74 1.74 0 1 1 3.41.65c0 .16-2.93 15.62-1.32 29.61 1.78 15.53 2 38.82.63 69.23-.06 1.3-.09 2.11-.09 2.32a1.74 1.74 0 0 1-1.74 1.74Zm12.42-96.68a3.65 3.65 0 1 1-3.64-3.64 3.64 3.64 0 0 1 3.64 3.64Zm0 34.77a3.65 3.65 0 1 1-3.64-3.65 3.64 3.64 0 0 1 3.64 3.65Zm0 34.77a3.65 3.65 0 1 1-3.64-3.65 3.64 3.64 0 0 1 3.64 3.65ZM911.93 571a1.75 1.75 0 0 1-1.74-1.8c0-.52 1.66-52.7.53-61.73-.84-6.72-.5-28-.22-45.08.11-6.83.2-12.73.2-16.56 0-13.48 12.33-47.27 12.86-48.7a1.74 1.74 0 1 1 3.26 1.2c-.12.34-12.64 34.63-12.64 47.5 0 3.86-.09 9.77-.2 16.62-.26 16.08-.62 38.11.19 44.59 1.16 9.3-.44 60.12-.5 62.27a1.74 1.74 0 0 1-1.74 1.69Z" fill="#479c73"></path>
    <path d="M513.92 322.4c-.11 5.18-45.3 25.19-44.69 26.46 27.84 57.71 102.79 73.87 113.85 73.4s75.13-75 51.68-85c-11-4.73-29.22-8.4-29.93-15.46s-3-22.55-2.12-44.48c.74-18.87-46.22-12.24-46.22-12.24s-46.69-40.48-44.25-26.83c8.94 50.06 1.76 78.98 1.68 84.15Z" fill="#e6a663"></path>
    <path d="M603.74 311.57c-.9-8-1.78-15-1-34.29.74-18.87-46.22-12.24-46.22-12.24s-5.32-4.61-12.28-10.2l-23.73 2s13.41 29.83 25.68 43c10.21 11.06 26.59 16.25 57.55 11.73Z" fill="#c78745"></path>
    <path d="M560.18 355.48a1.65 1.65 0 0 1-1.6-1.25c-2.5-10-10.22-42-10.3-42.27a1.65 1.65 0 0 1 3.2-.78c.08.32 7.8 32.27 10.3 42.26a1.64 1.64 0 0 1-1.2 2 1.41 1.41 0 0 1-.4.04Zm19.22-10.37c1.57-2.12 4.61-13.92 5.5-17.49a1.64 1.64 0 0 0-1.2-2 1.66 1.66 0 0 0-2 1.2c-1.74 7-4.14 15.21-5 16.31a1.65 1.65 0 0 0 1.32 2.63 1.67 1.67 0 0 0 1.38-.65Z" fill="#d19252"></path>
    <path d="M630.94 136.38c3.14 13.18.86 28.4-.79 34.05s-4 12-3.76 16 3.29 14.11 3.06 19.54c-.59 13.75-7.52 46.12-9.13 56.58-.75 4.91-9.7 21.32-18.88 25.32s-74.61-20.55-81-31-10.36-16.79-11.77-29.26-27.54-33-24.95-44.25 19.77-76.73 48-80.49 95.84 19.31 99.22 33.51Z" fill="#e6a663"></path>
    <path d="M549.9 130.42s8.47 5.41 14.83 4.23 13.41-6.59 19.06-6.35 10.83 3.45 17.65 3.25 16.83-2.16 22.12 0c11.77 4.83 8.06 26.12 8.06 26.12a15.78 15.78 0 0 0 9.67-7.17c5.73-9.42 3.22-12.79 9.1-15.38s15.3-9.41 18.13-19.3 6.35-21.88 0-26.59-11.52-4.71-12.24-11.3-4.71-8-8.47-10.35-5.42-8-10.6-10.36-13.41.47-20.24-2.59-15.76-6.35-24.47-4.71-12.24 10.83-19.3 11.54-22.6-2.59-27.54 6.35-4.94 22.36-5.18 27.07 9.42 35.54 9.42 35.54Z" fill="#6b3e14"></path>
    <path d="M545.66 95.82s-8.24-13.42-18.12-12-8.71 9.88-14.83 12-13.41-1.65-20.24 8-1.18 15.77-7.3 23.77-7.53 16.95-3.53 29.19-4 13.18-2.25 25.41 2.25 10.36 5.31 14.83 9.18 12.48 13.42 21.42 10.51 12.21 16.24 13.18c0 0-.05-24.38-2.59-29.19C507.3 194 520 177 523.3 167.8s.94-16.67 5.65-21.38 12.47-2.35 16.71-7.06 8.47-15.06 8.47-15.06Z" fill="#6b3e14"></path>
    <path d="M522.34 170.06A55.36 55.36 0 0 0 521 194c2.12 13.42 3.61 26.78 6.82 32.48 4 7.1 20.36 27.51 31.2 28.11 11.37.63 16.19-3.12 21-6.22 2.09-1.33 8.71-3.06 10.83-3.06s11.74-1.37 15.38 1.21 13.13 5.68 14 11.34c1.48 10.1-6.58 24.84-10.51 32.87-1.49 3.06-4.63 7.9-13.73 8.52-6.41.44-18.28 2.54-32.87-3.81s-46.6-29.65-47.31-46.36-3.06-15.54-4-25.19-4.53-40.32-12.06-44.78c-7.22-4.3 22.59-9.05 22.59-9.05Z" fill="#6b3e14"></path>
    <path d="M550.12 88.69a1.18 1.18 0 0 1-1.18-1.19c.08-4.84 2.51-14.11 11.17-14.63l1.33-.08c9.36-.54 22.19-1.29 25.5-5.87a1.17 1.17 0 1 1 1.9 1.38c-4 5.49-16.88 6.24-27.26 6.84l-1.33.08c-8.67.52-9 12.2-9 12.31a1.18 1.18 0 0 1-1.13 1.16Zm6.15 14.96a1.16 1.16 0 0 1-.59-.16 1.18 1.18 0 0 1-.43-1.61c.29-.5 7.17-12.32 15.66-12.32h2.93c5.85 0 8.81.05 13.71-1.42a1.18 1.18 0 1 1 .68 2.25c-5.23 1.61-8.5 1.61-14.4 1.53h-2.92c-7.14 0-13.55 11-13.62 11.14a1.18 1.18 0 0 1-1.02.59Zm14.89 18.71c-7.25 0-12.33-5.69-12.56-6a1.17 1.17 0 0 1 .11-1.66 1.16 1.16 0 0 1 1.65.11c.06.06 5.82 6.48 13.23 4.89l7.83-1.68c1.51-1.58 8.86-8.84 14.59-6.14s6.94 4 7.08 4.1a1.18 1.18 0 0 1-1.7 1.63s-1.27-1.17-6.39-3.6c-3.92-1.85-10 3.62-12.09 5.87a1.17 1.17 0 0 1-.63.37l-8.19 1.75a13.75 13.75 0 0 1-2.93.36Zm-21.04 4.98a1.2 1.2 0 0 1-.81-.32c-8.81-8.35-8.29-20-8.27-20.53a1.26 1.26 0 0 1 1.24-1.12 1.18 1.18 0 0 1 1.11 1.24c0 .11-.47 11.12 7.54 18.7a1.17 1.17 0 0 1-.81 2Zm-55.04-4.99a.93.93 0 0 1-.23 0 1.18 1.18 0 0 1-.93-1.38c.11-.52 2.59-12.81 10.13-14.1 6.38-1.09 12.74-5.25 17.92-11.72a8.21 8.21 0 0 1 5.89-3.34c4.34-.3 8 3.08 8.13 3.22a1.17 1.17 0 1 1-1.6 1.72s-3-2.83-6.37-2.59a6 6 0 0 0-4.21 2.47c-5.54 6.91-12.41 11.37-19.36 12.56-4.95.85-7.61 9.12-8.22 12.23a1.18 1.18 0 0 1-1.15.93ZM490.26 189a1.17 1.17 0 0 1-1-.57c-1.47-2.43-2.08-4-2.66-10.52-.23-2.65.54-5.7 1.43-9.24 1.39-5.57 3.13-12.5 1.1-19.94-1.6-5.87-1.54-9.92.17-12a3.69 3.69 0 0 1 2.93-1.44 1.18 1.18 0 0 1-.1 2.35 1.38 1.38 0 0 0-1 .63c-.66.87-1.49 3.31.31 9.88 2.19 8 .37 15.31-1.09 21.15-.84 3.32-1.56 6.2-1.36 8.46.58 6.62 1.16 7.58 2.32 9.51a1.16 1.16 0 0 1-.4 1.61 1.12 1.12 0 0 1-.65.12Zm13.99-13.66a1.19 1.19 0 0 1-1.17-1.05c-.82-7.72 3.26-12.15 10-19.48l.42-.46c4.39-4.77 3.55-10.21 2.65-16a40.72 40.72 0 0 1-.71-8.47c.5-9.14 12.64-14 13.15-14.16a1.18 1.18 0 1 1 .86 2.19c-.11 0-11.24 4.48-11.66 12.11a38.91 38.91 0 0 0 .69 8c.94 6.06 1.91 12.32-3.25 17.93l-.42.45c-6.74 7.31-10.12 11-9.41 17.64a1.16 1.16 0 0 1-1 1.29Zm115.84-76.69a1.06 1.06 0 0 1-.38-.07 1.17 1.17 0 0 1-.73-1.49c.1-.31 2.63-7.57 8.37-10.35a10.86 10.86 0 0 1 8.66-.33c10.71 3.76 21.38 5.51 23.83 5.36a1.18 1.18 0 0 1 .15 2.35c-2.7.15-13.59-1.57-24.77-5.49a8.67 8.67 0 0 0-6.85.22c-4.86 2.36-7.14 8.93-7.16 9a1.19 1.19 0 0 1-1.12.8Zm18.09 30.77a11.13 11.13 0 0 1-6.4-2.33 1.18 1.18 0 1 1 1.44-1.86c.21.16 5.22 3.94 8.54.16 1.25-1.44 2.37-2.85 3.47-4.26a55.17 55.17 0 0 1 9-9.55 1.18 1.18 0 1 1 1.48 1.83 52.09 52.09 0 0 0-8.6 9.18c-1.13 1.43-2.27 2.88-3.55 4.35a6.88 6.88 0 0 1-5.38 2.48Zm-28.33-58.3a1.16 1.16 0 0 1-.83-.34 1.18 1.18 0 0 1 0-1.66c.28-.28 6.93-6.86 15.8-5.31 5.63 1 8.67 1.57 11 2 1.16.23 2.15.42 3.21.61a1.17 1.17 0 0 1-.42 2.31c-1.07-.19-2.07-.38-3.23-.61-2.36-.45-5.39-1-11-2-7.65-1.33-13.66 4.59-13.73 4.65a1.16 1.16 0 0 1-.8.35Z" fill="#54310f"></path>
    <path d="M594.31 242.11a1.63 1.63 0 0 1 1.78-1.5c6.56.58 9.66-3.05 9.74-5.21 0-1.45-2.21-6.34-4-10.28-4.19-9.07-5.14-15.14-3.49-27 .13-.9.3-2.77 1.18-2.62 3.22.53-.67 5.7 1.34 15.75 1.29 6.42 10.44 21.29 10.29 25.55-.32 7.87-17.22 9.57-16.84 5.31Zm-6.9-8.49c.86 0 .6 1.71-.32 2.36-2 1.43-1.31 3.78.41 5.58.63.66.17 1.7-.49 2.33-1.17 1.12-4.88-.33-5.21-2.47-.72-4.67 3.86-7.87 5.61-7.8Z" fill="#cf8e4c"></path>
    <path d="M578 195.92s-3.29-6-13-6c-7.63 0-13.73 3.67-15 7.91s11.92 6.41 16.8 5.78 12.28-3.75 11.2-7.69Z" fill="#fff"></path>
    <path d="M571.28 197.12a6.18 6.18 0 1 1-6.17-6.51 6.35 6.35 0 0 1 6.17 6.51Z" fill="#443732"></path>
    <path d="M550.7 194.49c.61-1.09 2.9-3.48 7-4.53 5.46-1.39 14.07-1.57 19.87 4.8 1.51 1.66-.45 2.19-4.47.11a18.66 18.66 0 0 0-13.9-1.54c-3.86.9-5.77 3.27-7.82 3.82s-1.29-1.57-.68-2.66Z" fill="#443732"></path>
    <path d="M581 178.11a5.47 5.47 0 0 0-2.89-3.17c-2.17-.87-14.75-1.16-20.26-1.16s-18.28 7.07-18.43 9.1 5.63 1 9.82 0 5.87-3 13.86-2.6c4.65.25 12.84 3.29 15 2.27s2.9-4.44 2.9-4.44Z" fill="#603813"></path>
    <path d="M607.6 196.84s2.59-7 8-8.27c6.3-1.53 10.95-.52 11.36 1.37 0 0 2.22 8.6-4.78 9.87s-15.5-.81-14.58-2.97Z" fill="#fff"></path>
    <path d="M624.61 194c0 3.42-2 6.19-4.52 6.19s-4.51-2.77-4.51-6.19 2-6.19 4.51-6.19 4.52 2.79 4.52 6.19Z" fill="#443732"></path>
    <path d="M626.69 188.19a5.1 5.1 0 0 0-.61-.17c-5.46-1.39-11.93-1.82-16.87 5.19-1.29 1.83-.41 1.57 3.61-.5 4.49-2.33 8.95-2.58 14.19-1.22 1.31.34-.32-3.3-.32-3.3Z" fill="#443732"></path>
    <path d="M604.35 177.64s-1.06-1.91 2.89-3.17c2.21-.72 9.23-1.16 14.74-1.16a18.7 18.7 0 0 1 6.47 1.41c1.18.31-.64 5.43-1.18 5.18-2.31-1.1-5.24-.34-7.56-.07-4.63.53-10.3 3.27-12.47 2.25s-2.89-4.44-2.89-4.44Z" fill="#603813"></path>
    <path d="M512.15 206.43s-2-23.14-15.76-16.49c-12.94 6.23-8.24 23.19-5.42 29.78s15.59 22.53 21.08 19.6c3.76-2 2-14.58 1.37-20.18-.5-4.44-1.27-12.71-1.27-12.71Z" fill="#e6a663"></path>
    <path d="M491 211a1.17 1.17 0 0 1-1.1-.77c-1.14-3.09-1.86-10 3.54-13.92a6 6 0 0 1 5.16-1.13c4.61 1.16 7.77 7.67 7.9 8a1.18 1.18 0 1 1-2.13 1c-.77-1.6-3.41-5.94-6.35-6.68a3.66 3.66 0 0 0-3.19.75c-5.34 3.9-2.75 11.13-2.72 11.2a1.18 1.18 0 0 1-.7 1.51 1.19 1.19 0 0 1-.41.04Zm19 12.52a1.17 1.17 0 0 0-.76-1.48 9.81 9.81 0 0 1-2.92-1.37c-2.7-3.2 1.78-7.78 1.82-7.82a1.18 1.18 0 0 0 0-1.67 1.17 1.17 0 0 0-1.66 0c-2.11 2.11-5.24 7.13-2 11 .86 1 3.27 1.86 4 2.09a1.49 1.49 0 0 0 .36 0 1.17 1.17 0 0 0 1.16-.76Z" fill="#d19252"></path>
    <path d="M570.81 260.38c3-5.51 22.05-5.2 25.87-5.2s14.12-.16 17.3 2.6-1 11-3.42 17.88c-1.72 4.79-7.94-1.17-14.94.31-5 1.06-8.7 3.18-13.58 3.61s-15.97-10.39-11.23-19.2Z" fill="#e6a663"></path>
    <path d="M573.45 260.38c10.33.76 22 1.7 37.28-1.66 1.26-.28-.9 2.54-1.75 4-1.82 3.2-6.13 8.31-15.36 9-13.62 1.15-20.17-11.34-20.17-11.34Z" fill="#fff"></path>
    <path d="M623.53 332.17c7.48 4.43 75.24 29.75 94.24 41.17 31.9 19.17 26.25 351.83 31.9 396.31l-392.41-1s7.4-285.75 10.25-318.77c2-22.64 13.73-43.14 20.75-54.3 15.15-24.09 71.31-45.8 86.13-52.16s31.07-16.23 31.07-16.23S531 374.67 574.31 371c33.29-2.82 49.22-38.83 49.22-38.83Z" fill="#8092b8"></path>
    <path d="M445.45 508.11h-.33a2.26 2.26 0 0 1-1.91-2.56c1.38-9.7-2.93-61-9.83-86.86-6.65-24.93-27.32-32.62-27.53-32.69a2.26 2.26 0 0 1 1.52-4.26c.94.33 23.09 8.48 30.37 35.79 7.18 26.91 11.4 78.42 9.94 88.66a2.26 2.26 0 0 1-2.23 1.92Zm124.69-118.58c-42.09 0-78.24-46.54-79.78-48.55a2.26 2.26 0 0 1 3.58-2.75c.37.49 37.31 48.16 77.95 46.75 40.33-1.35 58.37-41.36 58.55-41.77a2.26 2.26 0 0 1 4.13 1.82c-.19.43-19.39 43-62.53 44.47Z" fill="#7284a8"></path>
    <path d="M572.78 446.64c54.49-5.74 97.33-.18 98.9.35 3 1 3.69 45.09 3.69 46.09s-69.73 0-69.73 0Z" fill="#fff"></path>
    <path d="M655.36 496.39c-10.51 0-26.21-.14-49.76-.48a2.83 2.83 0 0 1 0-5.65c22.44.32 57.62.64 66.88.29-.16-10.35-1.13-35.61-2.64-41.05-7-1.08-47.39-5.26-96.8-.05a2.83 2.83 0 1 1-.59-5.62c55.12-5.81 98.17-.17 100.09.49 2.14.72 3.68 1.24 4.88 25.58.55 11.27.74 22.53.74 23.18a2.93 2.93 0 0 1-.85 2c-.69.75-1.26 1.31-21.95 1.31Z" fill="#478f6c"></path>
    <path d="M578.83 493.08s-32.67.45-82.78 0C490.77 493 489 447 492.83 447c0 0 23.8-2.93 46.56-.44Z" fill="#fff"></path>
    <path d="M539.64 496.1c-12.27 0-27 0-43.62-.19-7.34-.07-8.1-24.56-8.08-35.09 0-13.69 1.66-16.52 4.68-16.65 2.18-.26 24.9-2.85 47.08-.43a2.82 2.82 0 1 1-.62 5.61c-19.35-2.11-39.7-.22-44.73.31-1.68 6.16-.46 35.42 2.57 40.61 49 .43 81.55 0 81.87 0a2.91 2.91 0 0 1 2.86 2.79 2.82 2.82 0 0 1-2.78 2.86c-.22-.01-14.87.18-39.23.18Z" fill="#478f6c"></path>
  </g>
</svg>
