<svg xmlns="http://www.w3.org/2000/svg" viewBox="0 0 637.993 570.044" id="hospital-and-medical-assistants-and-ambulance">
  <g style="isolation:isolate">
    <g>
      <g>
        <path d="M173.82706,514.40075a855.85615,855.85615,0,0,0-150.6258-.0325c-2.79148.2464-5.71948.4902-8.30848-.4569-2.07112-.7577-3.79572-2.5573-3.93052-4.4354a3.16562,3.16562,0,0,1,.21652-1.4082c.66228-1.6671,2.56068-2.672,4.35208-3.48,24.417-11.0136,48.7924-4.1301,75.0892-5.2152,5.255-.2168,1.7994.9625-3.8422,1.7382-6.7263.925-16.4945,1.5647-17.407,2.5569-1.30508,1.419,15.9856-.5279,84.1624-2.6045,65.4256-1.9929,96.4833-1.2826,96.2113-2.7069-.267-1.3985-18.8244-1.4303-31.3739-1.8133-8.071-.2464-12.6484-1.0262-4.6641-1.2211,69.54682-1.6978,139.124-4.3876,208.71042-4.1767,31.3668.095,62.7161,1.1638,94.0123,3.0087,27.7053,1.6332,57.1788,3.0555,83.7109,9.8922a3.00757,3.00757,0,0,1,.3288,5.8655c-6.8148,2.4456-13.8335,5.5552-20.2336,6.649a12.56673,12.56673,0,0,1,7.1091,7.9857c-38.7635,5.9531-78.9128,1.3992-118.3246,1.3992H226.58636c-17.8705.0001-35.6562,2.0906-53.5333,1.8844-2.9485-.034-17.1245,1.3271-19.2625-.7115C142.71386,516.557,168.75626,515.97015,173.82706,514.40075Z" fill="#829ee0"></path>
        <path d="M106.53686,498.67525c27.8133-1.4097,72.7882-2.4911,75.6555-2.5164,17.0555-.1511,11.6517,1.6086-7.0778,2.3714-12.5567.5114-36.5485-.0069-43.4785.3189C114.36916,499.66105,91.059,499.45965,106.53686,498.67525Z" fill="#829ee0"></path>
        <path d="M378.775,510.04115c-3.6538.8017-110.8949.7615-130.55982,4.1762-9.0572,1.5727,67.82872-.9673,139.00422-.7091s107.6819,3.4544,112.8786,1.0761c2.3214-1.0624-68.3531-2.6474-69.3213-4.3984s33.3951.7694,33.1993-.9056-110.0426-5.8503-151.3928-3.3865C300.45688,506.61645,394.00848,506.69835,378.775,510.04115Z" fill="#f7f6f1"></path>
      </g>
      <path d="M567.78278,144.70925c-39.0204-4.5431-88.4245,57.3106-62.8788,143.4604,15.045,50.7377,61.6198,59.9107,87.858,44.7483,30.3749-17.5529,45.3204-83.739,24.8492-113.6721-9.9613-14.5657-22.0899-14.5699-26.5045-30.009C588.48158,180.05575,593.15948,147.66385,567.78278,144.70925Z" fill="#829ee0"></path>
      <path d="M562.45568,437.94955a1.32442,1.32442,0,0,1-1.1922-1.8969c15.3939-32.0726,9.3956-81.2265,3.0449-133.2659-4.7241-38.7122-9.6091-78.7425-5.6118-113.3602a1.32347,1.32347,0,1,1,2.6295.3034c-3.9611,34.3055.9045,74.1774,5.61,112.7363,6.3987,52.4343,12.4428,101.961-3.2861,134.7321A1.32427,1.32427,0,0,1,562.45568,437.94955Z" fill="#f7f6f1"></path>
      <path d="M559.60618 246.68225a1.31763 1.31763 0 0 1-.8437-.3046l-39.1419-32.4331a1.32349 1.32349 0 0 1 1.6891-2.038l39.1419 32.4331a1.32363 1.32363 0 0 1-.8454 2.3426ZM564.64468 290.40865a1.32359 1.32359 0 0 1-.8378-2.3488l47.331-38.6378a1.32355 1.32355 0 0 1 1.6741 2.0505l-47.331 38.6377A1.31884 1.31884 0 0 1 564.64468 290.40865ZM567.04728 315.60705a1.33155 1.33155 0 0 1-.3426-.0455l-28.8588-7.7102a1.32344 1.32344 0 1 1 .6835-2.5571l28.8588 7.7101a1.32385 1.32385 0 0 1-.3409 2.6027Z" fill="#f7f6f1"></path>
      <path d="M597.83738,263.31045a1.32333,1.32333,0,0,1-1.3176-1.2168l-2.5959-32.0803a1.32346,1.32346,0,0,1,2.6383-.2135l2.5959,32.0803a1.32348,1.32348,0,0,1-1.2124,1.4259C597.90948,263.30915,597.87328,263.31045,597.83738,263.31045Z" fill="#f7f6f1"></path>
      <rect width="331.013" height="375.696" x="204.43" y="53.626" fill="#f7f6f1"></rect>
      <path d="M533.74148,54.84335v373.2618H206.13236V54.84335Zm3.4036-2.4339H202.72886V430.539H537.14508V52.40945Z" fill="#becced"></path>
      <rect width="101.534" height="125.612" x="251.882" y="304.927" fill="#becced"></rect>
      <rect width="101.534" height="125.612" x="387.261" y="304.927" fill="#becced"></rect>
      <rect width="276.788" height="59.981" x="228.556" y="84.741" fill="#becced"></rect>
      <rect width="63.429" height="78.821" x="251.884" y="168.503" fill="#a5b6eb"></rect>
      <rect width="63.429" height="78.821" x="425.364" y="168.503" fill="#a5b6eb"></rect>
      <rect width="63.436" height="78.821" x="338.62" y="168.503" fill="#a5b6eb"></rect>
      <polygon points="280.593 168.503 302.069 168.503 251.884 218.688 251.884 197.212 280.593 168.503" fill="#d5e0f5"></polygon>
      <polygon points="376.792 247.324 402.057 222.059 402.057 243.527 398.26 247.324 376.792 247.324" fill="#d5e0f5"></polygon>
      <polygon points="477.088 168.503 425.364 220.219 425.364 198.752 455.613 168.503 477.088 168.503" fill="#d5e0f5"></polygon>
      <polygon points="261.207 247.324 315.313 193.218 315.313 247.324 261.207 247.324" fill="#d5e0f5"></polygon>
      <polygon points="340.028 168.503 395.218 168.503 338.62 225.101 338.62 169.91 340.028 168.503" fill="#d5e0f5"></polygon>
      <polygon points="488.793 184.694 488.793 239.884 481.354 247.324 426.163 247.324 488.793 184.694" fill="#d5e0f5"></polygon>
      <path d="M310.18238 173.63425v68.5621H257.01266v-68.5621Zm5.1306-5.1306H251.88216V247.327H315.313v-78.8233ZM483.66488 173.63425v68.5621h-53.1696v-68.5621Zm5.1306-5.1306h-63.4308V247.327h63.4308v-78.8233ZM396.92358 173.63425v68.5621H343.754v-68.5621Zm5.1306-5.1306h-63.4308V247.327h63.4308v-78.8233Z" fill="#d6e6f0"></path>
      <rect width="2.706" height="110.541" x="426.936" y="313.601" fill="#f7f6f1"></rect>
      <rect width="2.706" height="110.541" x="286.894" y="313.601" fill="#f7f6f1"></rect>
      <polygon points="203.976 295.347 197.173 283.979 542.701 283.979 535.898 295.347 203.976 295.347" fill="#f7f6f1"></polygon>
      <path d="M538.82248,286.17775l-4.1708,6.9706H205.22226l-4.1708-6.9706Zm7.7561-4.3976H193.29536l9.4335,15.7659H537.14518l9.4334-15.7659Z" fill="#becced"></path>
      <polygon points="563.285 272.788 177.393 272.788 184.076 281.78 556.602 281.78 563.285 272.788" fill="#becced"></polygon>
      <polygon points="203.976 64.36 197.173 52.991 542.701 52.991 535.898 64.36 203.976 64.36" fill="#f7f6f1"></polygon>
      <path d="M538.82248,55.19045l-4.1708,6.9706H205.22226l-4.1708-6.9706Zm7.7561-4.3977H193.29536l9.4335,15.7659H537.14518l9.4334-15.7659Z" fill="#becced"></path>
      <polygon points="563.285 41.801 177.393 41.801 184.076 50.793 556.602 50.793 563.285 41.801" fill="#becced"></polygon>
      <g>
        <path d="M588.00628,416.56455H192.62778l2.357-26.146,3.66108-40.5894,9.3115-103.0613h262.719a8.35866,8.35866,0,0,1,7.8877,5.5924l34.1813,97.4689,67.0694,40.5894Z" fill="#f7f6f1"></path>
        <path d="M511.65638,347.55655a.83363.83363,0,0,1-.786-.5571l-33.0922-94.3635a7.535,7.535,0,0,0-7.1019-5.0355.83275.83275,0,0,1,0-1.6655,9.20392,9.20392,0,0,1,8.6739,6.1496l33.0922,94.3635a.83266.83266,0,0,1-.5103,1.0613A.81828.81828,0,0,1,511.65638,347.55655Z" fill="#becced"></path>
        <polygon points="387.63 356.521 67.511 355.229 67.511 416.56 429.464 416.56 387.63 356.521" fill="#637280"></polygon>
        <path d="M321.52708,416.56005c0-26.2512-16.157-47.5318-36.0876-47.5318H260.36356v29.6404a61.649,61.649,0,0,0,0,35.7824v29.6404h27.72912l-.004-.1413C306.78088,462.16175,321.52708,441.63585,321.52708,416.56005Z" fill="#273c4d"></path>
        <ellipse cx="260.364" cy="416.56" rx="36.088" ry="47.532" fill="#364754"></ellipse>
        <ellipse cx="260.364" cy="416.56" rx="19.848" ry="26.142" fill="#727b80"></ellipse>
        <path d="M503.931,369.02825h-25.0758v29.6404a61.64682,61.64682,0,0,0,0,35.7824v29.6404H503.931c19.9307,0,36.0877-21.2806,36.0877-47.5314C540.01868,390.30885,523.86168,369.02825,503.931,369.02825Z" fill="#273c4d"></path>
        <ellipse cx="478.855" cy="416.56" rx="36.088" ry="47.532" fill="#364754"></ellipse>
        <ellipse cx="478.855" cy="416.56" rx="19.848" ry="26.142" fill="#727b80"></ellipse>
        <rect width="127.057" height="7.406" x="50.799" y="416.565" fill="#637280"></rect>
        <path d="M204.50666,416.56005c0-26.2512-16.157-47.5318-36.0876-47.5318h-25.0759v29.6404a61.649,61.649,0,0,0,0,35.7824v29.6404h27.7291l-.004-.1413C189.76046,462.16175,204.50666,441.63585,204.50666,416.56005Z" fill="#273c4d"></path>
        <ellipse cx="143.343" cy="416.56" rx="36.088" ry="47.532" fill="#475d6e"></ellipse>
        <ellipse cx="143.343" cy="416.56" rx="19.848" ry="26.142" fill="#aab8bd"></ellipse>
        <path d="M143.34336,430.46415c-5.9313,0-10.7569-6.2375-10.7569-13.9046,0-7.6663,4.8256-13.9037,10.7569-13.9037s10.7566,6.2374,10.7566,13.9037C154.1,424.22665,149.27466,430.46415,143.34336,430.46415Zm0-26.1428c-5.0131,0-9.0915,5.49-9.0915,12.2382,0,6.749,4.0784,12.2391,9.0915,12.2391,5.0128,0,9.0911-5.4901,9.0911-12.2391C152.43446,409.81135,148.35616,404.32135,143.34336,404.32135Z" fill="#cadae0"></path>
        <rect width="228.951" height="7.406" x="183.129" y="416.565" fill="#637280"></rect>
        <path d="M386.91058,369.02825h-25.0758v29.6404a61.64682,61.64682,0,0,0,0,35.7824v29.6404h25.0758c19.9307,0,36.0877-21.2806,36.0877-47.5314C422.99828,390.30885,406.84128,369.02825,386.91058,369.02825Z" fill="#273c4d"></path>
        <ellipse cx="361.835" cy="416.56" rx="36.088" ry="47.532" fill="#475d6e"></ellipse>
        <ellipse cx="361.835" cy="416.56" rx="19.848" ry="26.142" fill="#aab8bd"></ellipse>
        <path d="M361.835,430.46415c-5.9313,0-10.757-6.2375-10.757-13.9046,0-7.6663,4.8257-13.9037,10.757-13.9037s10.7565,6.2374,10.7565,13.9037C372.59148,424.22665,367.76618,430.46415,361.835,430.46415Zm0-26.1428c-5.0132,0-9.0915,5.49-9.0915,12.2382,0,6.749,4.0783,12.2391,9.0915,12.2391,5.0127,0,9.091-5.4901,9.091-12.2391C370.926,409.81135,366.84768,404.32135,361.835,404.32135Z" fill="#cadae0"></path>
        <path d="M446.17748,416.56455h-44.5513a65.18072,65.18072,0,0,0-5.2994-26.146c-6.8707-15.6972-19.743-26.2626-34.4875-26.2626s-27.6168,10.5654-34.4876,26.2626a65.18072,65.18072,0,0,0-5.2994,26.146H183.13236a65.18239,65.18239,0,0,0-5.2993-26.146c-6.8708-15.6972-19.743-26.2626-34.4876-26.2626s-27.6168,10.5654-34.4876,26.2626a65.18069,65.18069,0,0,0-5.2993,26.146H50.799v-66.7354l25.2034-96.8086a8.35837,8.35837,0,0,1,8.0889-6.2527H328.84768a8.35857,8.35857,0,0,1,7.8877,5.5924l34.1814,97.4689h45.1364c5.2325,5.2495,8.1746,8.175,13.4071,13.424l8.5258,27.1654Z" fill="#ede8e6"></path>
        <polygon points="500.539 338.71 381.846 338.71 376.79 325.025 371.183 309.858 362.669 286.819 355.176 266.522 353.43 261.812 472.124 261.812 478.077 277.926 488.929 307.297 494.356 321.97 500.539 338.71" fill="#a5b6eb"></polygon>
        <path d="M579.81478,390.41855H421.26888l-8.5258-27.1654c-5.2325-5.249-8.1746-8.1745-13.4071-13.424h155.6043a16.7172,16.7172,0,0,1,15.9719,11.7814Z" fill="#f3a088"></path>
        <path d="M437.98608,390.41855h-41.6593c-6.8707-15.6972-19.743-26.2626-34.4875-26.2626s-27.6168,10.5654-34.4876,26.2626H177.83306c-6.8708-15.6972-19.743-26.2626-34.4876-26.2626s-27.6168,10.5654-34.4876,26.2626H50.799v-40.5894H412.93988a16.71718,16.71718,0,0,1,15.9449,11.6949Z" fill="#ff7a63"></path>
        <polygon points="353.43 338.71 263.103 338.71 270.168 297.35 276.236 261.812 325.748 261.812 334.78 286.918 342.141 307.346 350.491 330.55 353.43 338.71" fill="#a5b6eb"></polygon>
        <path d="M404.68188,403.48875h186.5854a6.2989,6.2989,0,0,1,6.2989,6.2989v13.5446a6.2988,6.2988,0,0,1-6.2988,6.2988H404.68188a6.7594,6.7594,0,0,1-6.7594-6.7594v-12.6235A6.7594,6.7594,0,0,1,404.68188,403.48875Z" fill="#f7f6f1"></path>
        <path d="M590.87928 430.46415h-49.251a.83275.83275 0 1 1 0-1.6655h49.251a5.86049 5.86049 0 0 0 5.854-5.8545.83275.83275 0 0 1 1.6655 0A7.52821 7.52821 0 0 1 590.87928 430.46415ZM442.13248 430.46415h-19.134a.83275.83275 0 0 1 0-1.6655h19.134a.83275.83275 0 0 1 0 1.6655ZM438.90358 404.32135h-33.8054a.83275.83275 0 1 1 0-1.6655h33.8054a.83275.83275 0 0 1 0 1.6655Z" fill="#becced"></path>
        <path d="M44.85506,403.48875h24.5706a6.7594,6.7594,0,0,1,6.7594,6.7594v12.6234a6.7595,6.7595,0,0,1-6.7595,6.7595H44.85506a6.7594,6.7594,0,0,1-6.7594-6.7594v-12.6235A6.7594,6.7594,0,0,1,44.85506,403.48875Z" fill="#bccacd"></path>
        <path d="M97.52568,230.05065h358.0114a8.6449,8.6449,0,0,1,8.6449,8.6449v8.0723a0,0,0,0,1,0,0H88.88078a0,0,0,0,1,0,0v-8.0723A8.6449,8.6449,0,0,1,97.52568,230.05065Z" fill="#f3a088"></path>
        <path d="M97.52568,230.05065h216.9218a6.8024,6.8024,0,0,1,6.8024,6.8024v9.9148a0,0,0,0,1,0,0H88.88078a0,0,0,0,1,0,0v-8.0723A8.6449,8.6449,0,0,1,97.52568,230.05065Z" fill="#ff7a63"></path>
        <rect width="26.121" height="4.597" x="283.218" y="222.737" fill="#ede8e6"></rect>
        <polygon points="304.324 192.994 288.233 192.994 283.218 222.737 309.339 222.737 304.324 192.994" fill="#003a76"></polygon>
        <polygon points="351.968 192.994 385.402 192.994 390.417 222.737 356.983 222.737 351.968 192.994" fill="#cedde0"></polygon>
        <polygon points="433.046 192.994 385.402 192.994 390.417 222.737 438.061 222.737 433.046 192.994" fill="#ff7a63"></polygon>
        <polygon points="304.324 192.994 351.968 192.994 356.983 222.737 309.339 222.737 304.324 192.994" fill="#2e58be"></polygon>
        <rect width="128.722" height="4.597" x="309.339" y="222.737" fill="#f7f6f1"></rect>
        <path d="M189.79846 361.58905h2.4879l5.5057 16.4148h-2.8956l-1.3459-4.0921h-5.0571l-1.3254 4.0921h-2.8956Zm3.2424 10.0801-1.9985-6.4505-2.0799 6.4505ZM212.20886 378.00385v-10.8663l-3.7317 8.0919h-1.52938l-3.73172-8.0919v10.8663h-2.8139v-16.4148h3.0179l4.2822 9.3404 4.323-9.3404h2.9977v16.4148ZM230.72426 373.77315a4.27135 4.27135 0 0 1-.3671 1.8262 3.735 3.735 0 0 1-1.00938 1.3181 4.51079 4.51079 0 0 1-1.48852.809 5.75393 5.75393 0 0 1-1.8047.2774h-6.9942v-16.4148h7.7487a2.59192 2.59192 0 0 1 1.3662.3699 3.53741 3.53741 0 0 1 1.04.9596 4.59081 4.59081 0 0 1 .6628 1.3408 5.06519 5.06519 0 0 1 .2345 1.5143 4.93962 4.93962 0 0 1-.5302 2.2542 3.40269 3.40269 0 0 1-1.5497 1.5605 3.73667 3.73667 0 0 1 1.9677 1.4914A4.72015 4.72015 0 0 1 230.72426 373.77315Zm-8.85-9.4559v4.1384h3.752a1.57386 1.57386 0 0 0 1.2134-.555 2.19819 2.19819 0 0 0 .4996-1.5259 2.28681 2.28681 0 0 0-.4588-1.5028 1.41415 1.41415 0 0 0-1.13168-.5547Zm6.0156 8.8548a2.69753 2.69753 0 0 0-.1326-.8441 2.4453 2.4453 0 0 0-.3568-.7049 1.71891 1.71891 0 0 0-.5302-.474 1.33863 1.33863 0 0 0-.6729-.1734h-4.3231v4.3231h4.1803a1.64685 1.64685 0 0 0 .7239-.1616 1.73963 1.73963 0 0 0 .5811-.4509 2.20613 2.20613 0 0 0 .3875-.6821A2.42154 2.42154 0 0 0 227.88986 373.17205ZM240.06356 375.29875a2.93319 2.93319 0 0 0 1.6824-.4622 3.51667 3.51667 0 0 0 1.101-1.2023 5.3712 5.3712 0 0 0 .5914-1.6993 11.11628 11.11628 0 0 0 .1732-1.9768v-8.3691h2.7938v8.3691a13.496 13.496 0 0 1-.3568 3.1677 7.70345 7.70345 0 0 1-1.1216 2.5893 5.54227 5.54227 0 0 1-1.9679 1.7569 5.98765 5.98765 0 0 1-2.8751.6473 5.92729 5.92729 0 0 1-2.9466-.6818 5.69075 5.69075 0 0 1-1.9678-1.8034 7.6444 7.6444 0 0 1-1.0909-2.601 13.82585 13.82585 0 0 1-.3365-3.075v-8.3691h2.8141v8.3691a11.21652 11.21652 0 0 0 .1732 1.9999 5.36183 5.36183 0 0 0 .5914 1.6993 3.44293 3.44293 0 0 0 1.091 1.1906A2.90087 2.90087 0 0 0 240.06356 375.29875ZM250.25946 378.00385v-16.4148h2.8139v13.6174h7.3818v2.7974ZM267.30658 361.58905h2.4879l5.5057 16.4148h-2.8956l-1.3459-4.0921h-5.0571l-1.3254 4.0921h-2.89562Zm3.2424 10.0801-1.9985-6.4505-2.0799 6.4505ZM280.72438 367.48465v10.5192h-2.814v-16.4148h2.1819l7.545 10.7737v-10.7506h2.8139v16.3917h-2.2838ZM293.61168 369.68105a9.51623 9.51623 0 0 1 .4792-2.9709 8.3446 8.3446 0 0 1 1.3968-2.6241 7.20349 7.20349 0 0 1 2.243-1.8727 6.2454 6.2454 0 0 1 3.0181-.7166 5.98735 5.98735 0 0 1 3.4563.994 6.09364 6.09364 0 0 1 2.1717 2.5894l-2.1614 1.6876a4.27377 4.27377 0 0 0-.6934-1.1675 3.56588 3.56588 0 0 0-.8768-.7514 3.66635 3.66635 0 0 0-.9788-.4047 4.14936 4.14936 0 0 0-.9993-.1269 3.43636 3.43636 0 0 0-1.8454.4854 4.24416 4.24416 0 0 0-1.305 1.2602 5.8658 5.8658 0 0 0-.7851 1.7569 7.4731 7.4731 0 0 0-.2651 1.9536 7.14877 7.14877 0 0 0 .3059 2.0923 5.80477 5.80477 0 0 0 .8666 1.7686 4.47692 4.47692 0 0 0 1.3459 1.2254 3.33235 3.33235 0 0 0 1.723.4622 4.03115 4.03115 0 0 0 1.0197-.1386 3.60952 3.60952 0 0 0 1.0093-.4391 3.938 3.938 0 0 0 .8871-.7745 3.65555 3.65555 0 0 0 .6525-1.1444l2.3043 1.5025a5.00488 5.00488 0 0 1-.9891 1.6301 6.45382 6.45382 0 0 1-1.4477 1.1905 6.884 6.884 0 0 1-1.7231.7401 6.72114 6.72114 0 0 1-1.7944.254 5.57585 5.57585 0 0 1-2.8346-.7397 7.576 7.576 0 0 1-2.2125-1.9306 9.23613 9.23613 0 0 1-1.4477-2.7048A9.4369 9.4369 0 0 1 293.61168 369.68105ZM319.54958 375.20645v2.7974h-10.0531v-16.4148h9.8695v2.7975h-7.0556v3.9533h6.0972v2.5896h-6.0972v4.277ZM560.34628 374.43185l-2.4774.0007-2.4131-3.5561-4.3269.0007.1275 3.5564-2.4774.0003-.4199-14.265 2.1285-.0003Zm-5.9928-5.5039-3.7956-5.6054.3062 5.6061ZM534.03618 374.43645l-5.1307-14.2643 2.5648-.0004 6.618 8.1161.7446-8.1174 2.5822-.0006 5.1308 14.2643-2.4078.0007-3.3964-9.4426-.6636 7.0321-1.3086.0004-5.722-7.0312 3.3963 9.4426ZM519.05718 368.42145a1.93391 1.93391 0 0 1 1.2174-1.2963 4.92568 4.92568 0 0 1-1.8136-1.3554 6.27163 6.27163 0 0 1-1.1584-1.9592 4.59324 4.59324 0 0 1-.2726-1.3158 2.99865 2.99865 0 0 1 .1479-1.1656 1.80942 1.80942 0 0 1 .5899-.8337 1.65307 1.65307 0 0 1 1.0533-.3217l6.63-.001 5.1307 14.2643-5.9844.001a5.70611 5.70611 0 0 1-1.6308-.2407 5.89557 5.89557 0 0 1-1.5266-.7033 5.48232 5.48232 0 0 1-1.2755-1.1447 5.317 5.317 0 0 1-.8849-1.5871A3.77655 3.77655 0 0 1 519.05718 368.42145Zm1.524-5.8773a.79822.79822 0 0 0-.795.4824 1.76092 1.76092 0 0 0 .0771 1.306 2.91776 2.91776 0 0 0 .9045 1.3259 1.93222 1.93222 0 0 0 1.2115.4821l3.2103-.0007-1.2935-3.5964Zm1.3179 8.4185a3.19762 3.19762 0 0 0 .5447.5927 2.455 2.455 0 0 0 .6381.3916 1.73292 1.73292 0 0 0 .6701.1406l3.5767-.0007-1.3514-3.7568-3.6987.0007a.86487.86487 0 0 0-.5218.1506.87474.87474 0 0 0-.3054.4118 1.584 1.584 0 0 0-.0849.6129 2.43723 2.43723 0 0 0 .1502.7335A2.96215 2.96215 0 0 0 521.89908 370.96265ZM513.038 371.69745a1.82018 1.82018 0 0 0 .5614-1.0347 3.983 3.983 0 0 0-.0253-1.4769 10.897 10.897 0 0 0-.4767-1.7376l-2.6158-7.2729 2.4076-.0006 2.6159 7.2728a13.13535 13.13535 0 0 1 .6733 2.6723 5.31106 5.31106 0 0 1-.1207 2.2601 2.91945 2.91945 0 0 1-1.1198 1.5676 3.90094 3.90094 0 0 1-2.3081.593 6.32494 6.32494 0 0 1-2.6623-.5624 7.96324 7.96324 0 0 1-2.2328-1.5263 10.75787 10.75787 0 0 1-1.7688-2.2497 15.76523 15.76523 0 0 1-1.2955-2.7526l-2.6158-7.2729 2.3903-.0003 2.6158 7.2728a12.70523 12.70523 0 0 0 .7662 1.7176 7.25641 7.25641 0 0 0 1.037 1.4765 5.153 5.153 0 0 0 1.3179 1.0448 3.22726 3.22726 0 0 0 1.584.4014A1.8397 1.8397 0 0 0 513.038 371.69745ZM495.164 374.443l-.8744-2.4309 6.316-.001-4.2563-11.8334 2.4079-.0003 5.1304 14.2643ZM494.03 374.44325l-2.4774.0003-2.4133-3.5557-4.3269.0006.1277 3.5564-2.4776.0004-.4197-14.2653 2.1283-.0003Zm-5.9928-5.5039-3.7958-5.6054.3064 5.6061ZM471.45338 374.44715l-1.9542.0003-5.1233-14.2441 2.4078-.0007 3.3601 9.3421 3.0881-9.3632 1.8669-.0003 5.1304 14.2643-2.4076.0003-3.288-9.1413ZM464.71348 369.89735a5.83663 5.83663 0 0 1-.3932 2.3508 3.847 3.847 0 0 1-1.2896 1.6779 3.58608 3.58608 0 0 1-2.194.6434 6.5418 6.5418 0 0 1-1.6147-.2205 8.50862 8.50862 0 0 1-1.7057-.6428 9.24557 9.24557 0 0 1-1.611-1.0348 7.27726 7.27726 0 0 1-1.3555-1.4159l1.5019-1.3064a5.2818 5.2818 0 0 0 .916.9944 5.6438 5.6438 0 0 0 1.001.6727 4.45544 4.45544 0 0 0 1.0009.3819 3.90958 3.90958 0 0 0 .9157.1204 2.1288 2.1288 0 0 0 1.3297-.4021 2.28559 2.28559 0 0 0 .7687-1.065 3.80108 3.80108 0 0 0 .1887-1.5367 6.54228 6.54228 0 0 0-.3923-1.819 8.8689 8.8689 0 0 0-.8375-1.697 8.234 8.234 0 0 0-1.221-1.527 6.16823 6.16823 0 0 0-1.5103-1.0949 3.74823 3.74823 0 0 0-1.7309-.4219 3.02943 3.02943 0 0 0-.815.1109 2.07717 2.07717 0 0 0-.7109.3517 1.80081 1.80081 0 0 0-.5156.6532 2.5789 2.5789 0 0 0-.228 1.0149l-2.3772-1.4664a3.3063 3.3063 0 0 1 1.0489-2.2507 3.76237 3.76237 0 0 1 2.6467-.8643 6.66077 6.66077 0 0 1 2.806.6223 10.2942 10.2942 0 0 1 2.5047 1.6271 11.98291 11.98291 0 0 1 2.0152 2.2802 11.51132 11.51132 0 0 1 1.3385 2.5815A8.4355 8.4355 0 0 1 464.71348 369.89735ZM449.92188 372.01955l-1.3369-3.7168-5.2167.001-.8093-2.2504 5.2167-.001-1.2356-3.4354-6.0368.0014-.8744-2.4309 8.4444-.0017 5.1308 14.2644-8.6016.0016-.8744-2.4309Z" fill="#f7f6f1"></path>
        <polygon points="583.906 403.489 442.071 403.489 434.556 379.53 576.45 379.53 583.906 403.489" fill="#3a4961"></polygon>
        <path d="M575.41328,401.12325h-20.579a1.67164,1.67164,0,0,1-1.5902-1.1559l-5.3544-16.4746a1.17021,1.17021,0,0,1,1.1131-1.5313h20.5791a1.67169,1.67169,0,0,1,1.5901,1.156l5.3545,16.4746A1.17027,1.17027,0,0,1,575.41328,401.12325Z" fill="#bccacd"></path>
        <path d="M584.90378,401.12325h-3.8619a1.6716,1.6716,0,0,1-1.5901-1.1559l-5.3545-16.4746a1.17035,1.17035,0,0,1,1.1132-1.5313h3.8619a1.67169,1.67169,0,0,1,1.5901,1.156l5.3544,16.4746A1.17013,1.17013,0,0,1,584.90378,401.12325Z" fill="#829ee0"></path>
        <path d="M473.43838,401.12325h-20.5791a1.6716,1.6716,0,0,1-1.5901-1.1559l-5.3545-16.4746a1.17031,1.17031,0,0,1,1.1132-1.5313H467.607a1.67169,1.67169,0,0,1,1.5901,1.156l5.3544,16.4746A1.17017,1.17017,0,0,1,473.43838,401.12325Z" fill="#bccacd"></path>
        <path d="M447.26388,399.59135l-5.3541-16.4739a1.67313,1.67313,0,0,0-1.5911-1.1558h-16.0491a1.67171,1.67171,0,0,0-1.6717,1.6717v15.8181a1.67171,1.67171,0,0,0,1.6717,1.6717h21.8815A1.1701,1.1701,0,0,0,447.26388,399.59135Z" fill="#829ee0"></path>
        <path d="M249.02416,346.85145a.44034.44034,0,0,1-.0923-.009.47314.47314,0,0,1-.3725-.5562c4.5976-23.2379,8.9703-46.9427,13.1991-69.8667q2.42013-13.1157,4.85422-26.2225a.47323.47323,0,0,1,.9303.1741q-2.44155,13.1022-4.8533,26.2208c-4.22962,22.9265-8.60322,46.6345-13.20162,69.8781A.47356.47356,0,0,1,249.02416,346.85145Z" fill="#becced"></path>
        <polygon points="342.141 307.346 350.491 330.55 342.339 338.71 310.778 338.71 342.141 307.346" fill="#d5e0f5"></polygon>
        <polygon points="419.228 261.812 371.183 309.858 362.669 286.819 387.676 261.812 419.228 261.812" fill="#d5e0f5"></polygon>
        <polygon points="478.077 277.926 417.293 338.71 381.846 338.71 376.79 325.025 440.003 261.812 472.124 261.812 478.077 277.926" fill="#d5e0f5"></polygon>
        <polygon points="325.748 261.812 334.78 286.918 282.988 338.71 263.103 338.71 270.168 297.35 305.706 261.812 325.748 261.812" fill="#d5e0f5"></polygon>
        <polygon points="359.886 261.812 355.176 266.522 353.43 261.812 359.886 261.812" fill="#d5e0f5"></polygon>
        <polygon points="494.356 321.97 477.616 338.71 457.517 338.71 488.929 307.297 494.356 321.97" fill="#d5e0f5"></polygon>
        <path d="M444.46858,333.09305c12.4732-11.1023,27.9675-13.3714,35.2732-5.1631a15.16835,15.16835,0,0,1,3.6162,10.7798h3.9389l-2.9395-8.16-8.3494-23.2035-7.3611-20.4286-9.0327-25.1055h-49.5113l-6.0684,35.5381-7.0648,41.3595h42.1387A47.08107,47.08107,0,0,1,444.46858,333.09305Z" style="mix-blend-mode:screen" fill="#4a4a4a"></path>
        <path d="M467.66378,328.79675c-7.4928,0-15.0383,4.2406-20.7298,9.913h30.6176C477.79318,333.00905,474.67318,328.79675,467.66378,328.79675Z" style="mix-blend-mode:screen" fill="#4a4a4a"></path>
        <polygon points="151.77 318.811 143.625 318.461 155.047 266.808 163.191 267.157 151.77 318.811" fill="#003a76"></polygon>
        <polygon points="173.5 302.734 167.687 310.431 133.316 282.885 139.129 275.188 173.5 302.734" fill="#003a76"></polygon>
        <polygon points="175.139 276.733 177.471 284.779 131.677 308.886 129.346 300.84 175.139 276.733" fill="#003a76"></polygon>
      </g>
      <g>
        <path d="M460.32168,512.72005c-.387.3202-9.0182.1369-17.358-.2871-.9801-.0498-3.687-1.728-4.6452-1.7841-.9424-.0551-.1367,1.512-1.0314,1.4517-5.5979-.3775-10.0027-.8489-9.985-1.3148a27.0168,27.0168,0,0,1,3.534-12.0371c2.0158.5848,7.2976.2517,7.5346-.3351a76.72857,76.72857,0,0,0,9.4041,7.9682C450.66558,508.01965,459.81888,509.17985,460.32168,512.72005Z" fill="#093454"></path>
        <path d="M447.90258,513.01765c-.3622.348-8.9537.9156-16.5989-.0952-.9729-.1286-3.8049-1.4499-4.7647-1.4348-.9439.0149-.0242,1.5179-.9209,1.5241-5.6105.0385-10.0381-.1051-10.055-.571a27.01855,27.01855,0,0,1,2.6319-12.2659c2.0537.4338,7.2963-.2899,7.4891-.8928a76.73025,76.73025,0,0,0,9.969,7.2492C438.65728,507.95035,447.13868,509.52445,447.90258,513.01765Z" fill="#0a3c60"></path>
        <path d="M443.46638,259.55205c-.0003-11.2051-10.9455-16.2686-18.3889-12.2391-3.3281,1.8016-6.12,7.164-4.4978,10.7329-4.6774-3.65-10.9433-.4056-10.923,6.0563.0185,5.8872,7.8489,15.791,18.2332,12.1127C433.92858,274.07585,443.46658,266.40155,443.46638,259.55205Z" fill="#232b59"></path>
        <path d="M440.29108,498.74455c-.2663-6.4361,6.4852-50.2071,11.5254-70.9144,2.4504-10.0672,13.8226-51.0425-1.4013-78.725-1.2073-2.1953-16.4412-5.0889-21.1866-7.2954-1.9806,7.5826-7.7496,14.6278-9.341,22.3167-2.0382,9.8472,13.0737,63.5216,13.7655,63.5727-3.3562,5.5381-9.5653,13.3545-10.773,19.937-1.9463,10.6081,2.174,37.889,7.5157,52.0684C430.57718,500.18605,440.21658,500.76885,440.29108,498.74455Z" fill="#003a76"></path>
        <path d="M427.55378,500.574c-.3311-6.4331,5.5209-51.9006,10.3522-72.6577,2.3488-10.0913,16.9071-62.0063,4.0166-79.1403-1.5062-2.0021-19.3915.3156-24.1589-1.843-1.9041,7.6022-11.513,17.7011-12.8798,25.4331-2.6585,15.04,12.4522,40.8334,11.1148,56.1294-.4935,5.6438-5.6868,12.9232-6.8281,19.5175-1.8393,10.6271,3.0138,39.4959,8.4981,53.6207C417.85488,502.11335,427.49968,502.599,427.55378,500.574Z" fill="#2e58be"></path>
        <path d="M426.56148,287.11505c-2.9255,1.3163-12.5507,8.0503-14.0181,11.4021-3.6533,8.3446,7.1553,34.5622,7.1553,43.8536,0,5.9535-13.8078,20.7274-15.1292,26.6041-1.7436,7.7545,53.4921,9.2795,53.6296,8.0291,2.7737-25.2244-6.762-31.5692-5.3216-48.1138.3676-4.223,3.7853-11.8682,3.7852-16.6616-.0001-9.6856-15.5338-20.2616-18.0324-23.4296C436.31558,285.86425,434.33,283.61985,426.56148,287.11505Z" fill="#2e58be"></path>
        <path d="M427.42618,268.39915c-.4357,6.8344-3.7485,19.0558-4.152,21.8082-.4996,3.4075,17.5238,9.4418,19.0675,8.6715.9377-.4679-2.8322-8.075-3.4997-9.4475-.571-1.1741-2.933-9.7287-3.7096-18.8739C434.51338,263.268,427.60378,265.61325,427.42618,268.39915Z" fill="#f3a088"></path>
        <path d="M440.04258 253.71665c6.1147 10.0558 3.1482 23.8748-1.0329 25.202-3.4294 1.0884-14.5498-3.1749-13.9873-11.1423a3.59947 3.59947 0 0 1-3.3059-4.6968c1.0397-2.2354 2.6138-.1026 3.4692.0409C427.21738 255.937 440.04258 253.71665 440.04258 253.71665ZM405.05088 325.12535a112.87562 112.87562 0 0 0 5.3131 31.9765c2.372 7.0073 21.9561 28.4879 22.919 29.4166s.7046-7.0177.7046-7.0177-5.6709-23.967-9.7303-29.725c-1.7818-2.5273-3.9183-33.6562-3.9183-33.6562Z" fill="#f7b690"></path>
        <path d="M416.03508,294.92305c-10.1641,2.1342-13.836,27.8756-13.2688,30.4561,1.3774,6.2663,22.8902,6.6291,24.3577,2.5016C428.83128,323.07865,425.71878,292.88975,416.03508,294.92305Z" fill="#527ce3"></path>
        <path d="M429.94178,382.866c-1.3006,7.7081,3.6113,9.1681,3.5887,10.7903s-.4289,5.6828.368,7.0078c.9809,1.6307,6.4129-6.105,6.4228-8.7382.0182-4.8667-6.3337-12.4251-6.3337-12.4251Z" fill="#f7b690"></path>
      </g>
      <g>
        <path d="M228.75478 312.15755a.64021.64021 0 0 1-.523-.269c-10.97272-15.3693-15.28052-29.746-11.52392-38.4574 1.8937-4.3907 5.79392-7.1097 11.2787-7.8625a.642.642 0 1 1 .1746 1.272c-5.087.6986-8.5439 3.0873-10.2743 7.0992-3.577 8.2948.6807 22.202 11.3896 37.203a.64188.64188 0 0 1-.52168 1.0147ZM246.09046 312.15755a.6258.6258 0 0 1-.1466-.017.64176.64176 0 0 1-.4793-.7712c4.3887-18.7876 1.4424-32.2683-2.7784-38.6199-1.8463-2.7785-4.0289-4.4527-6.3111-4.8406a.64175.64175 0 1 1 .2148-1.2654c2.6404.4486 5.1184 2.3141 7.16592 5.3956 4.369 6.5748 7.44068 20.4363 2.95928 39.6229A.64229.64229 0 0 1 246.09046 312.15755Z" fill="#232b59"></path>
        <path d="M262.22156,291.60765c1.95442,1.6362,9.63222,39.3261,8.474,49.3208-1.6263,14.0351-10.37632,34.1421-10.37632,34.1421l-15.6448,2.5679S245.584,277.67865,262.22156,291.60765Z" fill="#f3a088"></path>
        <path d="M224.11706,507.72675c-1.2368-.2004-1.0652,2.81-.6146,3.0488,3.0175,1.5992,10.4427,1.8106,16.28432,2.2264,6.82488.4858,12.32978.6783,14.428-.9043,1.10308-.832,1.22348-2.7298-1.21612-3.9076-1.1221-.5418-16.6012-1.4992-16.9546-1.4064S224.11706,507.72675,224.11706,507.72675Z" fill="#001832"></path>
        <path d="M237.70216,486.62875c.2521,4.5033-2.3577,11.6386-1.5626,13.3096.3135.6589,2.8029,5.5267.9748,7.4709-2.80858,2.9867-9.8572,3.3911-11.6633-3.6519,1.8459-7.4892,2.7736-13.8295,2.7736-16.0575S237.56866,484.24485,237.70216,486.62875Z" fill="#f7b690"></path>
        <path d="M224.16336,508.64845c.4885,1.7259,25.2706,4.52,28.8267,2.2144,1.8888-1.2245.2084-2.6248-1.9279-3.5236-2.488-1.0421-9.488-5.5242-11.8-6.5532-1.9019-.8402-3.2862-4.5803-4.0332-3.9078-.69718.6276-.6568,4.4108-.33118,5.9023.31918,1.4589.09768,2.7274-.55182,2.925-3.6425,1.1081-7.46018-5.0382-8.4438-4.7462C224.63126,501.33665,223.66186,506.89645,224.16336,508.64845Z" fill="#00294c"></path>
        <path d="M226.00506,484.80835c-2.2819,5.9475-.73428,14.468-.0497,16.1673.3393.8421,3.3657,10.3677-5.0772,7.748-5.4926-1.7043-5.27738-5.8796-5.0398-6.5102,2.1827-5.7948-.0944-14.876-.0944-16.9194C215.744,483.02835,226.84616,482.61585,226.00506,484.80835Z" fill="#f7b690"></path>
        <path d="M213.63556,508.07245c-1.0707-.2408-.68,3.5041-.3885,3.892s6.0526,1.6741,12.225,1.5162c5.5878-.1431,9.1361-.4426,9.5876-1.478.2309-.5296-.124-2.9556-1.2094-3.6464-.9577-.6096-10.1841-1.1827-10.4953-1.099S213.63556,508.07245,213.63556,508.07245Z" fill="#072b45"></path>
        <path d="M224.45736,498.17c1.2232.0422,2.9965,2.7633,3.9782,5.6246,1.1433,1.2083,3.2265,1.6437,4.3138,3.2567.7567,1.1224,1.7095,3.0963,1.3008,3.6297-1.425,1.8598-19.5773,1.547-20.2283-.1288-.8467-2.1796.9264-4.1742,1.1821-6.3205.2345-1.9681-.00618-2.9508.6886-3.9909.2148-.3216.7547-.1274.7353.4914-.0427,1.3583-.2499,3.7588,1.7115,4.0352C219.83206,499.776,222.44646,498.10065,224.45736,498.17Z" fill="#0a3c5f"></path>
        <path d="M259.68116,367.14145s-11.3541,108.9733-14.6613,124.9538c-.5983,2.8909-17.99508,1.9029-18.3947-1.0221-1.5558-11.3875-8.5651-34.9781-7.2343-45.5133.5931-4.6944,4.1466-13.0986,6.5205-18.8027,2.96442-7.1233-11.2661-47.1938-.1697-78.6156C228.74286,339.64285,259.68116,367.14145,259.68116,367.14145Z" fill="#232b59"></path>
        <path d="M242.18226,357.28355s-8.1009,119.108-10.5672,135.2397c-.4462,2.9182-23.6154,3.747-24.89928-2.9513-2.16372-11.2878-1.61872-32.4622-.84112-43.0526.3465-4.7191,3.4554-13.2977,5.5274-19.1183,2.5876-7.2687-13.7207-46.5394-4.2841-78.4989C209.67026,340.25805,242.18226,357.28355,242.18226,357.28355Z" fill="#003a76"></path>
        <path d="M256.14646,366.19005c-.428,3.4238,2.2565,8.3878,4.1728,8.8805,0,3.1936-3.0997,8.4526-4.7402,12.7304-1.7815,4.6455-8.5807-9.0925-8.5807-9.0925Z" fill="#224f73"></path>
        <path d="M231.93806,270.28925c10.6995,1.1137,26.3948,9.754,30.2835,21.3184,2.19422,6.525-2.5404,75.5338-2.5404,75.5338l-57.4776,1.4303s3.9413-17.2583,4.3517-21.7753c.9818-10.8071-4.5611-45.139-11.3659-57.2899C190.39816,280.95115,222.59866,269.31705,231.93806,270.28925Z" fill="#2e58be"></path>
        <path d="M238.14978,255.43975s2.86528,18.9604,2.732,19.5016c-.25292,1.0265-1.74282,11.7636-3.483,12.7681-2.53272,1.462-16.93192-10.5122-17.87212-12.7681-.2073-.4973,2.46412-21.739,2.46412-21.739Z" fill="#f3a088"></path>
        <path d="M241.94626,250.21965c1.8662-10.954-.5228-17.1561-1.57248-18.6624-1.47032-2.1097-18.875-3.3268-21.63382,1.2171s-1.2983,15.6602-.1623,17.4453,13.794,3.4079,13.794,3.4079Z" fill="#232b59"></path>
        <path d="M238.53866,237.80505c1.7453,2.2013,2.25012,4.8238,2.2986,9.4103,3.8678-6.4892,2.5696,8.035-.3031,6.5872-.4571,4.6907-2.8678,9.7324-6.94538,11.9756a5.6093,5.6093,0,0,1-5.51462.4263c-5.0337-2.3531-7.4142-7.8682-7.9039-11.8945-1.4253.0765-3.0262-4.8531-2.8908-7.5794.0929-1.8719,1.5277-2.7063,2.3021-.1632-.1506-4.9977.3679-7.6768,1.4306-8.7623,1.341-1.3697,5.3878,2.765,10.954,2.7844C237.17726,240.60775,237.44006,236.41955,238.53866,237.80505Z" fill="#f7b690"></path>
        <path d="M225.84836 254.38305a41.24 41.24 0 0 1-4.83958-.2462 1.16726 1.16726 0 0 1-.68952-.7575c-.5162-1.2406-.8927-4.9515-.559-5.515.1198-.2018.3454-.3056.8943-.4121 1.5818-.3075 7.0623-.6948 8.3483.2841v.0006c.1548.1176.5658.4316.605 2.6524.00592.3207.03692 3.1435-.5925 3.6594A8.37322 8.37322 0 0 1 225.84836 254.38305Zm-4.5765-1.1036a37.73883 37.73883 0 0 0 7.16592.0699c.31928-.6615.41588-4.3632.00908-4.9117-.9853-.7059-6.8615-.4062-7.9324-.0412C220.40246 249.17945 220.81126 252.78645 221.27186 253.27945Zm.0193.019Zm-.87238-4.8628ZM235.25356 254.38365a8.36807 8.36807 0 0 1-3.1673-.3349c-.62948-.5159-.59848-3.3387-.5926-3.6594.0392-2.2208.4503-2.5348.605-2.6524v-.0006c1.2874-.9808 6.7685-.5916 8.35-.2841.5479.1065.7728.2109.8923.4121.34282.5785-.0277 4.2372-.5586 5.5144a1.16628 1.16628 0 0 1-.6899.7581A41.17356 41.17356 0 0 1 235.25356 254.38365Zm-2.5897-1.0343a37.89023 37.89023 0 0 0 7.1655-.0699c.4538-.4858.8567-3.991.7421-4.8882-1.1104-.3617-6.9353-.6556-7.9168.0464C232.24786 248.98615 232.34456 252.68785 232.66386 253.34935Zm7.1465-.0509Zm.8721-4.8628Z" fill="#232b59"></path>
        <path d="M194.74726,287.83425c-9.1196,14.5956-11.2608,51.4191-9.1339,58.5534,3.8518,12.9197,24.8228,34.2467,24.8228,34.2467l3.8518-8.3219s-11.6017-26.1634-11.5554-31.384,3.0036-17.0757,3.0036-23.0336S194.74726,287.83425,194.74726,287.83425Z" fill="#f3a088"></path>
        <path d="M183.92586 326.75065c.4815-8.8427 5.6707-42.2251 15.6462-45.1139 7.2316-2.0943 14.2053 48.6811 10.514 49.5378S183.92586 326.75065 183.92586 326.75065ZM257.15036 283.24165c6.91072 3.3703 15.33032 32.9009 13.66362 39.802a63.4064 63.4064 0 0 1-12.25932 2.8889Z" fill="#2e58be"></path>
        <path d="M262.19656,323.17205l-.015-.0007a.32047.32047,0,0,1-.3059-.3349c.3656-8.0481.0036-21.0888-.0004-21.2194a.32081.32081,0,0,1,.3118-.3297.30066.30066,0,0,1,.3301.3115c.00362.1312.36672,13.1954-.0003,21.2663A.32122.32122,0,0,1,262.19656,323.17205Z" fill="#265a85"></path>
        <circle cx="231.03" cy="313.414" r="5.296" fill="#becced"></circle>
        <path d="m211.107 330.42665-.02418-.0013a.32061.32061 0 0 1-.29612-.3441c.0137-.1848 1.3487-18.6446-1.5414-28.3819a.32118.32118 0 0 1 .6158-.1828c2.9231 9.8502 1.5796 28.4263 1.5655 28.613A.32079.32079 0 0 1 211.107 330.42665ZM215.22178 302.66115c2.08648 0 14.71108-.1605 14.97888 0s.2144 4.4938.2144 4.4938H215.64978Z" fill="#265a85"></path>
        <path d="M228.75478 312.15755a.64021.64021 0 0 1-.523-.269c-12.42862-17.4092-16.19662-33.2394-9.83332-41.3135a.64206.64206 0 0 1 1.0082.7953c-5.9042 7.4916-2.0301 23.1031 9.8698 39.7725a.64188.64188 0 0 1-.52168 1.0147ZM246.09046 312.15755a.6258.6258 0 0 1-.1466-.017.64176.64176 0 0 1-.4793-.7712c4.6966-20.1053.9801-34.0014-3.6293-39.792a.64177.64177 0 1 1 1.0043-.7993c5.0178 6.3033 8.671 20.3535 3.8755 40.8839A.64229.64229 0 0 1 246.09046 312.15755Z" fill="#232b59"></path>
        <path d="M249.81016,322.05155a.32146.32146,0,0,1-.3196-.2939,5.96694,5.96694,0,0,0-4.3447-4.8908c-2.7144-.8189-5.4338.1782-7.4612,2.734a.32072.32072,0,1,1-.5028-.3983c2.1992-2.7738,5.169-3.8487,8.1495-2.9508a6.62136,6.62136,0,0,1,4.7991,5.4511.32147.32147,0,0,1-.2929.3474Z" fill="#becced"></path>
        <path d="M243.95 334.43855a.4812.4812 0 0 1-.3405-.8214c2.6837-2.6838 7.0734-11.9052 6.0247-17.466a4.39211 4.39211 0 0 0-2.5068-3.481 5.35331 5.35331 0 0 0-5.3819.205c-3.1914 2.13-4.9342 8.0558-4.78168 16.258a.481.481 0 0 1-.47252.4903.50965.50965 0 0 1-.49-.4721c-.159-8.537 1.7398-14.7613 5.2098-17.0767a6.33315 6.33315 0 0 1 6.3022-.2867 5.30042 5.30042 0 0 1 3.0671 4.1843c1.1032 5.8501-3.483 15.5188-6.2898 18.3253A.48069.48069 0 0 1 243.95 334.43855ZM231.48586 317.03855a3.62435 3.62435 0 1 1 3.6247-3.6247A3.62889 3.62889 0 0 1 231.48586 317.03855Zm0-6.2862a2.66185 2.66185 0 1 0 2.6616 2.6615A2.6648 2.6648 0 0 0 231.48586 310.75235Z" fill="#232b59"></path>
        <path d="M236.48236 328.66085c-1.5735-.2407-1.4665 3.5844-.1559 3.5309S237.70936 328.84865 236.48236 328.66085ZM244.97286 332.75515c-1.148-1.1027-3.2627 2.0865-2.1602 2.7973S245.86806 333.61505 244.97286 332.75515Z" fill="#becced"></path>
        <path d="M236.146 331.81055c-.0401-.2006.4974-.2423.5417 0S236.18606 332.01115 236.146 331.81055ZM242.78636 335.14815c.0553-.197.5532.0099.4826.2458S242.73106 335.34505 242.78636 335.14815Z" fill="#003a76"></path>
        <path d="M246.75846,308.97385c-1.0432-.1872-.8869.963-1.6316,1.4979-.5305.3811-2.7417-.0535-2.4107,1.3265.25962,1.0824,1.70762.2838,3.1455.6529,1.4585.3745,2.4724,1.6735,2.9616,1.0625.8508-1.0625-1.0417-1.6707-1.4429-2.4318S247.838,309.16765,246.75846,308.97385Z" fill="#becced"></path>
      </g>
      <g>
        <path d="M372.66978,298.58505c1.8929,1.5847,6.6642,32.3804,8.1404,47.1415,1.3109,13.1068,1.3109,29.1495,1.3109,29.1495l-25.1743-29.6871S356.55528,285.09415,372.66978,298.58505Z" fill="#f7f6f1"></path>
        <polygon points="350.08 379.747 346.27 348.029 389.218 350.575 388.799 385.174 350.08 379.747" fill="#003a76"></polygon>
        <path d="M345.393,507.90815c-1.1979-.1941-1.0317,2.7216-.5953,2.9529,2.9226,1.5489,10.1143,1.7537,15.7722,2.1564,6.6103.4705,11.9421.6569,13.9743-.8759,1.0684-.8058,1.1851-2.644-1.1778-3.7848-1.0868-.5246-16.0792-1.452-16.4215-1.3621S345.393,507.90815,345.393,507.90815Z" fill="#072b45"></path>
        <path d="M357.24488,487.81325c.2442,4.3618-.9776,10.9329-.2075,12.5514.3037.6381,2.7148,5.3529.9441,7.2359-2.7202,2.8928-9.5472,3.2845-11.2964-3.537a55.30932,55.30932,0,0,0,1.3803-15.2128C348.06538,486.69275,357.11558,485.50435,357.24488,487.81325Z" fill="#f7b690"></path>
        <path d="M345.43788,508.80075c.4731,1.6717,24.4759,4.3779,27.9201,2.1448,1.8294-1.1859.2019-2.5422-1.8672-3.4127-2.4098-1.0094-8.2787-5.496-10.5181-6.4926-1.842-.8138-3.1829-4.4363-3.9064-3.785-.6752.6079-1.547,4.4176-1.2316,5.8622.3091,1.4131.0946,2.6416-.5345,2.833-3.5279,1.0732-7.2256-4.8798-8.1783-4.5969C345.891,501.719,344.95208,507.10385,345.43788,508.80075Z" fill="#0a3c5f"></path>
        <path d="M334.38218,485.71035c-2.2101,5.7605-.7111,14.0131-.0481,15.6589.3286.8157,3.2599,10.0417-4.9175,7.5044-5.3199-1.6507-5.1114-5.6947-4.8814-6.3055,2.1141-5.6126-.0914-14.4082-.0914-16.3873C324.44378,483.98635,335.197,483.58685,334.38218,485.71035Z" fill="#f7b690"></path>
        <path d="M322.40178,508.243c-1.0371-.2333-.6587,3.3939-.3763,3.7696s5.8622,1.6215,11.8406,1.4685c5.412-.1385,8.8487-.4287,9.286-1.4315.2237-.5129-.12-2.8626-1.1714-3.5318-.9275-.5903-9.8638-1.1455-10.1652-1.0644S322.40178,508.243,322.40178,508.243Z" fill="#072b45"></path>
        <path d="M332.88318,498.65185c1.1848.0409,2.9023,2.6764,3.8531,5.4477,1.1074,1.1703,3.1251,1.592,4.1782,3.1543.7329,1.0872,1.6557,2.999,1.2599,3.5156-1.3802,1.8013-18.9617,1.4983-19.5922-.1248-.8201-2.1111.8973-4.0429,1.1449-6.1218.2271-1.9061-.0059-2.8579.667-3.8654.208-.3114.7309-.1233.7121.476-.0413,1.3156-.242,3.6406,1.6577,3.9083C328.40338,500.20735,330.93558,498.58475,332.88318,498.65185Z" fill="#0a3c5f"></path>
        <path d="M369.53348,362.75615a337.35306,337.35306,0,0,0,.058,60.8632q-.46575,2.85825-.9355,5.7344c-4.8517,29.7071-9.4516,56.4298-10.9686,63.7599-.5795,2.7999-9.4781,1.4975-9.8652-1.3354-1.5068-11.0295-8.2958-33.8782-7.0068-44.0821.5744-4.5468,4.0163-12.6868,6.3155-18.2115,2.8712-6.8993-10.9118-45.7098-.1644-76.1435C349.87328,345.10975,369.53348,362.75615,369.53348,362.75615Z" fill="#255882"></path>
        <path d="M350.05078,362.19575s-12.5502,114.8794-14.939,130.5038c-.4321,2.8265-10.3877,2.3896-10.9225-.4192-2.0821-10.9354-10.0576-33.3976-9.3044-43.655.3356-4.5706,3.3467-12.8795,5.3536-18.517,1.0392-2.9194-1.0685-11.1685-3.2404-22.0325-3.0656-15.3348-1.2138-34.848,4.136-52.9665C323.60618,346.73705,350.05078,362.19575,350.05078,362.19575Z" fill="#275c87"></path>
        <path d="M370.82878,423.10725l-57.7193-1.9901s5.675-104.8591-5.3668-124.5675c-2.7028-4.8341,6.7727-10.6759,16.9351-14.5213,7.2671-2.754,14.8872-4.481,18.662-4.0894a38.33619,38.33619,0,0,1,12.3322,3.7748c7.5496,3.6656,14.6817,9.668,16.9993,16.8709C376.28548,309.832,370.82878,423.10725,370.82878,423.10725Z" fill="#f7f6f1"></path>
        <path d="M349.35488,263.55445s2.7752,18.3643,2.6461,18.8884c-.2449.9942-5.1879-3.2769-6.8734-2.304-2.453,1.4159-12.8995,4.4889-13.8102,2.304-.2008-.4817,2.3866-21.0554,2.3866-21.0554Z" fill="#f3a088"></path>
        <path d="M352.22028,258.71265c4.4033-4.025,1.575-6.6911,5.456-9.2865a5.39075,5.39075,0,0,0-3.6065-.111c.9996-1.5095,1.326-3.6107,2.8166-4.4048a6.19289,6.19289,0,0,0-4.0405.8553c.0407-1.4279,2.7743-2.9375,2.2847-4.7599a6.806,6.806,0,0,1-4.1207,1.7408c-.0711-.9319.9112-2.9919,2.9511-4.2431-2.0934-.1715-3.6072-.0375-5.2223,1.3056-.405-1.4478.2424-2.6736,1.1968-3.8351a4.45189,4.45189,0,0,0-4.7472,2.3867c-.8763-.5739-1.2753-3.018-1.3183-4.6715-1.005.7559-2.1011,3.1823-2.3865,4.3147a20.51006,20.51006,0,0,0-1.1222-5.1307c-1.1831,3.0192-3.9529,2.2876-4.1615,6.0383-.3422-1.6903-3.5079-2.7395-4.5967-3.3184,1.1492,2.5024.9907,4.9777.68,5.3176-.2585.2828-2.3052-.8976-2.3028-3.3767-1.4439,1.4277-2.9172,4.258-1.1243,8.7213-.5572-.033-2.2644-1.5503-2.8968-3.3863-.5511.8017-1.2971,5.2295.321,9.4393a3.30446,3.30446,0,0,1-1.6181-.9939c1.2835,6.1471,4.4499,8.5038,5.6898,9.9006.9461,1.0658,2.9805.194,4.2907.4997a92.52559,92.52559,0,0,0,9.2481,1.6091Z" fill="#232b59"></path>
        <path d="M353.19678,251.20125c1.1126,1.7187,1.0328,7.4593.9711,9.4198-.0703,2.2363-2.0973,11.7401-4.6063,13.1204-2.1791,1.1987-8.4829,1.5662-10.015.8385-3.7265-1.7701-7.1315-8.22-7.6058-12.1197-2.0919.1122-4.385-10.4524-1.2791-8.8239.9291.4871,1.3635,3.0614,1.4016,3.9789.0367.8853.9168,2.0506,1.0136,1.7636.8082-2.3951,1.2108-7.5336,1.9409-7.9706,1.3183-.7891,3.3642.3105,3.6489,1.9927a2.36724,2.36724,0,0,0,.0647-3.1831c2.4378-.5434,5.2016-.3882,7.3711,3.4223a5.44108,5.44108,0,0,0-.7355-4.7434,5.427,5.427,0,0,1,4.3039,3.8562,5.60674,5.60674,0,0,0-.6928-4.6545A14.69832,14.69832,0,0,1,353.19678,251.20125Z" fill="#f7b690"></path>
        <path d="M307.88858,292.66385c-8.8329,14.1366-16.6776,51.5462-14.8941,58.5326,1.4979,5.8678,19.687,12.9596,41.8476,11.3197,3.1608-.2339.9503-17.0036.9503-17.0036s-19.4137-1.5313-19.3689-6.5878,1.6299-8.7468,1.6299-14.5173S307.88858,292.66385,307.88858,292.66385Z" fill="#f7f6f1"></path>
        <path d="M383.96268,386.09445c-1.5005.5231-2.3992-1.4714-2.8568-1.3386-.576.167-.7292,1.5772-1.3988,1.6976a15.44608,15.44608,0,0,1-5.4584-1.1796c-.5759-.6703-.7598-4.0595.1687-4.4531.4019-.1703,4.2412-1.1166,5.0288-.8669.5126.1626.6767,2.8675,1.1673,2.8843,1.1049.0381-.096-2.6887,1.8233-2.4869C384.45638,380.56355,385.11318,385.69345,383.96268,386.09445Z" fill="#f3a088"></path>
        <path d="M348.73868,345.72645c-.3752-.9868-1.861-.7577-2.9871-.3905a1.7519,1.7519,0,0,0,.8001-2.0922c-.1092-.3842-1.8173.2942-3.3573.4552-1.2735.1331-2.5919-.486-3.9727.2952a16.6874,16.6874,0,0,0-4.3796,4.4215l.861,6.0708c4.1025,3.5985,10.3073,1.9862,11.9122.7626C349.32628,353.94455,349.32208,347.26045,348.73868,345.72645Z" fill="#f7b690"></path>
        <path d="M339.972,346.71655a.16045.16045,0,0,1-.0787-.3003,10.497,10.497,0,0,1,2.4222-.4721,15.05956,15.05956,0,0,0,2.9867-.5779.16058.16058,0,0,1,.1326.2925,14.74162,14.74162,0,0,1-3.0759.6034,11.50367,11.50367,0,0,0-2.3083.4335A.15573.15573,0,0,1,339.972,346.71655Z" fill="#d6956f"></path>
        <path d="M335.79218 345.89255a.37963.37963 0 0 1-.3604-.2599c-.3641-1.0252-9.1437-2.5891-13.363-3.3407-5.0221-.8946-5.7462-1.0624-5.9607-1.3823-.3033-.4525-.1309-2.2554.6647-8.6775.3321-2.6798.6755-5.4504.9021-7.8599a.38.38 0 0 1 .7568.0705c-.2275 2.4212-.5717 5.1977-.9044 7.8828a71.25667 71.25667 0 0 0-.7871 8.1231c.5361.2181 3.0383.6634 5.4618 1.095 9.1248 1.6253 13.5399 2.6159 13.9507 3.8487a.37949.37949 0 0 1-.2403.4806A.36812.36812 0 0 1 335.79218 345.89255Zm-19.0351-5.3728h0ZM331.39338 363.18745c-5.2748 0-14.331-.8045-15.8456-1.0161a.37976.37976 0 1 1 .1052-.7522c2.7882.3885 17.5325 1.4979 19.0193.7568 1.2564-.6262 2.2009-4.2248 2.4589-5.5589a.38013.38013 0 0 1 .7463.145c-.1022.5283-1.0513 5.1893-2.8656 6.0943A11.54052 11.54052 0 0 1 331.39338 363.18745ZM373.90808 348.40975l-.031-.0013a.37986.37986 0 0 1-.3481-.4094c.018-.222 1.7781-22.3476.6709-33.1016a.38013.38013 0 0 1 .7562-.0784c1.114 10.8239-.6517 33.0181-.6696 33.2414A.38.38 0 0 1 373.90808 348.40975ZM353.18108 309.04875c-4.7634 2.0093-6.7343 2.8567-11.5233 0-4.2883-2.5615-16.0621-19.2848-16.98-27.0204a78.00731 78.00731 0 0 1 11.2241-3.3503c3.0384-.639 5.9263.8487 7.7011 1.0328 2.2308.2307 4.4311-.9716 6.9589-.1089a44.86506 44.86506 0 0 1 5.1101 2.1118A48.5241 48.5241 0 0 1 353.18108 309.04875Z" fill="#becced"></path>
        <path d="M341.16328,283.24165s2.9747,6.3127,3.7236,7.7036-3.2524,15.9853-3.2311,18.1036c1.6262,1.8383,7.9389,6.1842,7.9389,6.1842a54.8567,54.8567,0,0,0,3.5875-6.1842c.3619-4.8314-6.1326-17.5654-5.69-19.6518a74.95728,74.95728,0,0,1,2.37-7.1184l-3.6111-2.5678h-2.2469Z" fill="#003a76"></path>
        <path d="M331.51258,274.30605c-1.391-.0005-3.8636,6.3229-3.6378,7.2237.3352,1.3374,8.827,6.5268,11.0739,6.5267.6428-.0001,5.1893-7.5432,6.3662-7.6502s4.4999,6.7225,5.7242,6.3127c.7992-.2675,2.6845-4.3674,2.5208-5.9724s-1.4295-5.2574-2.0393-5.369-4.2798,3.7448-6.2057,4.0123C343.03878,279.70595,332.37208,274.30635,331.51258,274.30605Z" fill="#fff"></path>
        <path d="M349.09078 420.36115a.37142.37142 0 0 1-.126-.0215.37969.37969 0 0 1-.2324-.4845c1.24-3.5281 1.8087-22.6964 1.602-53.9742-.1639-24.7963-.7695-48.1868-.9977-49.1787-.6341-1.0408-13.2095-5.6907-17.9433-7.4413-2.4049-.8894-3.4768-1.2877-3.689-1.404a.52876.52876 0 0 1-.2707-.3741c-.0885-.4773.4281-1.1127 1.5107-2.3906.7741-.9142 2.385-2.8156 2.0569-3.2577-.3572-.4793-3.3926-.1188-5.2056.096-3.0905.3663-4.1996.4427-4.5147-.1424a12.95294 12.95294 0 0 1-.588-2.1992c-.7255-3.1729-2.0762-9.0791-4.5791-12.5967a.38.38 0 0 1 .6191-.4407c2.591 3.641 3.9636 9.6432 4.7011 12.8683a17.36751 17.36751 0 0 0 .5162 2.0079 17.801 17.801 0 0 0 3.7556-.2521c3.2891-.3904 5.3274-.5726 5.9053.2057.6882.926-.7226 2.5917-2.087 4.202a13.41916 13.41916 0 0 0-1.2974 1.6768c.4744.1946 1.8603.7072 3.4301 1.2877 13.28 4.9104 18.0967 6.9862 18.4059 7.9311.2684.8195.8668 24.9184 1.0301 49.1271.1502 22.3019-.0127 49.861-1.6436 54.5011A.38022.38022 0 0 1 349.09078 420.36115ZM350.75558 315.61315a.38.38 0 0 1-.1557-.7268c4.8513-2.1751 10.13-10.6462 10.176-11.6166a17.96341 17.96341 0 0 0-2.161-2.194c-1.6174-1.5083-2.0272-1.9361-2.0484-2.2978a.50212.50212 0 0 1 .1463-.3526c.2951-.2638.9899-.1822 3.6008.2586a20.41311 20.41311 0 0 0 3.9078.4629c.4042-.8397-.0395-7.2272-1.2919-10.9694a.38015.38015 0 0 1 .7209-.2416c1.1822 3.5326 1.9978 11.0667 1.0519 11.8137-.3999.3174-1.4261.2064-4.5153-.316-.8643-.1456-1.9652-.3317-2.5944-.3879.3641.3768 1.0213.9899 1.5408 1.4738 1.5253 1.4222 2.258 2.1424 2.3834 2.5995.3359 1.2244-5.8171 10.3145-10.6061 12.4609A.37487.37487 0 0 1 350.75558 315.61315Z" fill="#becced"></path>
      </g>
    </g>
  </g>
</svg>
