<svg xmlns="http://www.w3.org/2000/svg" viewBox="0 0 400 480" id="male-doctor">
  <rect width="10.66" height="59.37" x="152.75" y="324.66" fill="#fbfeff"></rect>
  <rect width="84.52" height="10.66" x="119.82" y="374.02" fill="#c5d1e3"></rect>
  <path fill="#090909" d="M127 388.65a7.15 7.15 0 1 1-7.15-7.15 7.16 7.16 0 0 1 7.15 7.15ZM211.48 388.65a7.15 7.15 0 1 1-7.15-7.15h0A7.16 7.16 0 0 1 211.48 388.65Z"></path>
  <polygon fill="#a2bbe1" points="233.18 305.4 234.41 328.04 97.94 328.04 51.27 125.96 152.72 125.96 202.24 304.49 233.18 305.4"></polygon>
  <polygon fill="#090909" points="108.56 308.52 67.69 136.44 70.64 135.74 110.95 305.47 156.16 305.13 156.18 308.16 108.56 308.52"></polygon>
  <path fill="#e48867" d="M245.14,376.81s-6.72,20,0,24.22,23,.18,23,.18l3,4.16-27.36,8.4-17.83,2s5.65-35.51,1.76-47.48Z"></path>
  <path fill="#341b12" d="M238,407.42s3.33-8,6.36-8.15c2.3-.07,5.84,3.69,13.84,1.55,7-1.87,12.5-1,16.73,6.76l-48.39,12s-6.87-14,1.37-17.4Z"></path>
  <path fill="#e48867" d="M189,384.11s-1,14.65,4.38,20.47,22.14,6.11,22.14,6.11l1.86,4.81-28.61,1-17.73-2.72s4-29.93,3.3-42.5Z"></path>
  <path fill="#341b12" d="M184.86,408.91s5.29-6.91,8.25-6.22c2.23.52,4.69,5.07,13,5.07,7.24,0,12.34,2.26,14.41,10.85l-49.85-.86s-4.1-12.59,1.92-16.46Z"></path>
  <path fill="#111517" d="M180.66,303.86l38.74,2.67V392s16.93,10.69,26.72,3.56c0,0,11.58-94.4,9.35-109.54s-65.9-22.71-67.68-21.82-34.71,8.08-34.71,8.08Z"></path>
  <path fill="#1b232a" d="M133.33,305.64h22.84L171.31,400s23.16.89,28.06-8l-7.57-88.61s0-25.83-35.19-30.73S112,295,112,295h0A26.62,26.62,0,0,0,133.33,305.64Z"></path>
  <rect width="12.84" height="1.82" x="125.79" y="134.68" fill="#462f1d" transform="rotate(-58.94 132.207 135.598)"></rect>
  <rect width="8.47" height="1.82" x="131.13" y="136.51" fill="#462f1d" transform="rotate(-61.39 135.36 137.422)"></rect>
  <path fill="#e48867" d="M146.22 138.12c16.17 5.91 35.27-1.81 35.27-1.81s-5.23-4.33-8-5.69-1.31-11.38-1.31-11.38h0a14.45 14.45 0 0 0 6.39 1.78c4.32.27 11.07-30.47 9.14-45s-32-11-32-11c-5.92.36-1.15 15.82-1.15 15.82s-5.22-5-7 5.7 7 12.75 7 12.75c.66 15.69-7.26 24.12-7.26 24.12S130.07 132.2 146.22 138.12ZM229.45 169.84s4.4-4.56 4.55-10.47.46-21.4 3-23.07 1.8 10.78 1.8 10.78S250.5 126.29 252 126s7.28 2.34 5.92 12.24-8.05 25.08-13.36 27.05S236 178.79 236 178.79Z"></path>
  <path fill="#dae7f6" d="M228.54,162.4l16.08,19S215,229,208,231.4s-21-22.57-21-22.57l-10.34-76.58h0a51.34,51.34,0,0,1,23.26,26.36,116.28,116.28,0,0,1,7.86,34.86Z"></path>
  <path fill="#4db8e8" d="M178.77,135.09s-7.13,5.78-30.8,1.22l-11,130s45.22,10.62,53.11-3.95l5.16-84.66Z"></path>
  <path fill="#090909" d="M157.38,88.51a51.33,51.33,0,0,1,0-9.11c.45-4.4,1.66-3.64-1.22-9.25s25.53,0,31.13,3.88c0,0,3.72-1.94.56-6.25S174.07,60.13,163,60.44s-15.17,3.33-14.42,7.43.33,11,1.23,12.79S155.1,83,157.38,88.51Z"></path>
  <path fill="#dae7f6" d="M177,269.43c-1.88-40.9,2.27-67.09,4.55-79.77C185.75,166,173,130.12,173,130.12c41.75,22.26,25.22,80.08,22.64,88.12-1,3.17.8,24.48,3.24,46.9l26.66,4.94s-11-.25-18.5,14.58Z"></path>
  <path fill="#dae7f6" d="M118.83,229c3.65-26.85,3.8-43.7,3.8-45.21S114.1,148,124,138.24s23.4-14.9,23.4-14.9,29.25,33,25.65,69.68c-1.54,15.49-7.78,49.27-6.79,81.69l8.68,3.58A19.47,19.47,0,0,0,158,284.66c-7.5,8.08-32,25.08-48.25,21.33C109.76,306,117.22,240.94,118.83,229Z"></path>
  <path fill="#dae7f6" d="M133.73,222.49l-4.22,14.65s-49.43,5.31-47,0,18-98.35,44.51-100.74c8.36-.75,18,22.51,5,39.81S111.51,221,111.51,221Z"></path>
  <path fill="#090909" d="M177.42 107.52c-2.73 0-7.34-.68-10.14-4.84l.83-.56c3.72 5.52 11.25 4.27 11.33 4.25l.18 1A13.56 13.56 0 0 1 177.42 107.52ZM174.94 82.53A10.51 10.51 0 0 0 166.77 81l-.2-1a11.32 11.32 0 0 1 9 1.76ZM189.26 83a7.25 7.25 0 0 0-6.69 0l-.51-.86a8.21 8.21 0 0 1 7.65 0ZM179.49 100.13a4.66 4.66 0 0 1-2.84-.9l.6-.81a4.13 4.13 0 0 0 3.55.54.89.89 0 0 0 .6-.47.87.87 0 0 0 0-.74c-1.57-3.89-.62-12.28-.58-12.64l1 .12c0 .08-1 8.49.51 12.15a2 2 0 0 1-.07 1.57 2 2 0 0 1-1.25 1A6.51 6.51 0 0 1 179.49 100.13ZM184.83 87.44c0 1.06.48 1.92 1.07 1.92S187 88.5 187 87.44s-.48-1.91-1.07-1.91S184.83 86.39 184.83 87.44Z"></path>
  <ellipse cx="169.89" cy="87.44" fill="#090909" rx="1.07" ry="1.92"></ellipse>
  <path fill="#090909" d="M153.87,83.8s-5.15-3.1-5.78.54a40,40,0,0,0,1.07-8.65c-.16-3.58,5.34,3.14,5.34,3.14Z"></path>
  <path fill="#d3765f" d="M162.39,112.55s5,16.21,11.14,18.07c-2.73-1.37-1.31-11.38-1.31-11.38S165.58,116.78,162.39,112.55Z"></path>
  <path fill="#090909" d="m128 187.15-.69-.73c8-7.65 10.68-15.62 11.54-20.95a27.46 27.46 0 0 0-.05-9.86l1-.24C139.84 155.53 143.74 172.08 128 187.15ZM241.11 160.55l-.81-.58c1.13-1.58.32-6.71-.09-8.55l1-.21C241.35 151.93 242.71 158.33 241.11 160.55ZM170.47 197.5c-.08-.32-8.06-32.36-16.21-36.8l-.27-.15.12-7.88-14.89-7.85 3.6-18.93 1 .19-3.46 18.2 14.78 7.8L155 160c8.43 5.15 16.12 36 16.45 37.29ZM182.48 198.4l-1-.21c.26-1.22 6.31-29.19 8.23-33.37l-4.37-9 3.27-13.89 1 .23-3.18 13.55 4.44 9.1-.13.23C189.38 167.51 184.74 187.94 182.48 198.4Z"></path>
  <rect width="1" height="19.46" x="233.04" y="166.36" fill="#090909" transform="rotate(-39 233.55 176.09)"></rect>
  <path fill="#090909" d="M194.56,221c-.1-1-2.49-25.32-1.12-34.34l1,.15c-1.35,8.89,1.1,33.84,1.13,34.09Z"></path>
  <rect width="350.33" height="9" x="24.84" y="237.14" fill="#e0ebf8"></rect>
  <path fill="#090909" d="m185.27 270.84-.88-.48c1.28-2.33 13-5.37 14.33-5.7l.25 1C194.1 266.86 186.08 269.37 185.27 270.84ZM125.52 276.49v-1c11.86-.33 17.17-11.43 17.22-11.54l.91.42C143.58 264.49 138 276.14 125.52 276.49Z"></path>
  <rect width="3.03" height="163.81" x="53" y="246.14" fill="#090909"></rect>
  <rect width="3.03" height="163.81" x="340" y="246.14" fill="#090909"></rect>
  <rect width="154.68" height="3.03" x="220.49" y="244.63" fill="#090909"></rect>
  <path fill="#e48867" d="M125.51,224s-2.94,1.48-1.9,7,6.74,5.28,6.74,5.28h24.71a65.41,65.41,0,0,0-8.64-10.15C141.92,222,128.27,221.22,125.51,224Z"></path>
  <rect width="291.17" height="3.03" x="24.84" y="235.63" fill="#090909"></rect>
</svg>
