<svg xmlns="http://www.w3.org/2000/svg" xml:space="preserve" viewBox="0 0 3000 3000" enable-background="new 0 0 3000 3000" id="medical-news">
  <g>
    <path d="M350.68 2600.51c0 30.55 251.67 32.05 456 64.58 310.03 49.37 412.11 41.34 693.32 44.54 285.46 3.24 444.4-48.01 747.6-44.54 246.45 2.83 401.71-31.42 401.71-64.58 0-22.58-73.03-36.32-195.97-60.97-349.48-70.05-845.82-.89-1075.45-38.1-766.29 17.39-1027.21 38.81-1027.21 99.07z" fill="#e9e9f2"></path>
    <g>
      <path d="M803.46 2705.85s244.16 21.02 492.46 26.89c248.3 5.87 310.22 27.98 112.04 32.13-198.18 4.15-616.9-43.52-604.5-59.02zM1984.96 2720.98c-50.35-33.08 271.61-42.78 246.68-16.67-24.92 26.12-220.16 34.1-246.68 16.67z" fill="#e9e9f2" fill-rule="evenodd" clip-rule="evenodd"></path>
    </g>
    <path d="M2469.19 804.26c-2.93.05-6.08.05-9.43.02-3.36-.03-6.44-.11-9.24-.25s-4.2-.39-4.2-.75l.01-.37c.02-.85-.03-2.32-.16-4.4-.13-2.08-.25-4.28-.37-6.6-.12-2.32-.21-4.52-.28-6.6-.06-2.08-.02-3.66.13-4.76-.6-.38-2-.63-4.19-.75-2.19-.12-4.54-.21-7.04-.28-2.5-.07-4.79-.16-6.86-.27-2.07-.12-3.29-.3-3.65-.56-.36-4.53-.43-8.8-.2-12.83.23-4.02.3-8.6.19-13.73 1.35-.21 3.01-.32 4.96-.33 1.95-.01 3.97.02 6.04.07 2.07.06 4.09.11 6.04.16 1.95.05 3.66.04 5.13-.04.27-.6.42-1.85.47-3.74.05-1.89.11-4.03.17-6.41.06-2.38.13-4.73.19-7.05.06-2.32.11-4.15.15-5.49.98-.09 2.78-.08 5.4.05 2.62.13 5.37.3 8.23.5 2.86.2 5.55.27 8.05.22 2.51-.05 4.13-.31 4.87-.79.1.62.18 1.14.23 1.56.05.43.13 1.01.23 1.75.09 1.23.17 2.6.25 4.13.08 1.53.16 3.15.24 4.86.05 2.56.08 4.79.09 6.69.01 1.89 0 3.51-.04 4.85.37.13 1.7.35 4.01.66 2.31.31 4.84.59 7.58.84 2.74.26 5.27.51 7.58.75 2.31.25 3.65.31 4.02.2-.01.37-.1 1.59-.28 3.66-.18 2.07-.36 4.42-.55 7.04-.19 2.62-.36 5.21-.49 7.77-.13 2.56-.15 4.51-.07 5.86 0 .12-.07.24-.19.36-.49.23-1.72.44-3.68.63-1.96.19-4.07.32-6.33.38s-4.37.13-6.32.2c-1.95.07-3.3.1-4.03.08l-.36-.01c-.12.12-.23.51-.31 1.18-.08.67-.14 1.49-.16 2.47-.18 2.19-.29 4.02-.33 5.49-.04 1.46-.05 2.87-.03 4.21.03 1.35.02 2.72-.02 4.12s-.2 3.02-.49 4.84c-.01.25-.04.36-.1.36-.06 0-.09.06-.1.18-.24-.13-1.83-.17-4.76-.13zM2148.71 2005.29c-2.93.05-6.08.05-9.43.02-3.36-.03-6.44-.11-9.24-.25s-4.2-.39-4.2-.75l.01-.37c.02-.85-.03-2.32-.16-4.4-.13-2.08-.25-4.28-.37-6.6-.12-2.32-.21-4.52-.28-6.6-.06-2.08-.02-3.66.13-4.76-.6-.38-2-.63-4.19-.75-2.19-.12-4.54-.21-7.04-.28-2.5-.07-4.79-.16-6.86-.27-2.07-.12-3.29-.3-3.65-.56-.36-4.53-.43-8.8-.21-12.83.23-4.02.3-8.6.19-13.73 1.35-.21 3.01-.32 4.96-.33 1.95-.01 3.97.02 6.04.07 2.07.06 4.09.11 6.04.16 1.95.05 3.66.04 5.13-.04.27-.6.42-1.85.47-3.74.05-1.89.11-4.03.17-6.41.06-2.38.13-4.73.19-7.05.06-2.32.11-4.15.15-5.49.98-.09 2.78-.08 5.4.05 2.62.13 5.37.3 8.23.5 2.86.2 5.55.27 8.05.22 2.51-.05 4.13-.31 4.87-.79.1.62.18 1.14.23 1.56.05.43.13 1.01.23 1.75.09 1.23.17 2.6.25 4.13.08 1.53.16 3.15.24 4.86.05 2.56.08 4.79.09 6.69.01 1.89 0 3.51-.04 4.85.37.13 1.7.35 4.01.66 2.31.31 4.84.59 7.58.84 2.74.26 5.27.51 7.58.75 2.31.25 3.65.31 4.02.2-.01.37-.1 1.59-.28 3.66-.18 2.07-.36 4.42-.55 7.04-.19 2.62-.36 5.21-.49 7.77-.13 2.56-.15 4.51-.07 5.86 0 .12-.07.24-.19.36-.49.23-1.72.44-3.68.63-1.96.19-4.07.32-6.33.38s-4.37.13-6.32.2c-1.95.07-3.3.1-4.03.08l-.36-.01c-.12.12-.23.51-.31 1.18-.08.67-.14 1.49-.16 2.47-.18 2.19-.29 4.02-.33 5.49-.04 1.46-.05 2.87-.03 4.21.03 1.35.02 2.72-.02 4.12s-.2 3.02-.49 4.84c-.01.25-.04.36-.1.36-.06 0-.09.06-.1.18-.23-.13-1.82-.17-4.75-.13zM535.6 845.98c-2.82.04-5.84.05-9.07.02-3.23-.03-6.18-.11-8.88-.24-2.69-.13-4.04-.37-4.03-.72l.01-.35c.02-.82-.03-2.23-.15-4.23-.12-2-.24-4.12-.36-6.34-.12-2.23-.2-4.35-.26-6.35s-.02-3.52.12-4.57c-.58-.37-1.92-.61-4.03-.72-2.11-.11-4.36-.21-6.77-.27-2.4-.07-4.6-.15-6.59-.26-1.99-.11-3.16-.29-3.51-.54-.35-4.35-.41-8.46-.2-12.33.22-3.87.29-8.27.18-13.2 1.3-.2 2.89-.3 4.76-.31 1.88-.01 3.81.02 5.8.07 1.99.05 3.93.1 5.81.16 1.88.05 3.52.04 4.92-.04.26-.58.4-1.78.45-3.6.05-1.82.11-3.87.16-6.16l.18-6.77c.06-2.23.11-3.98.14-5.28.94-.09 2.67-.08 5.19.05 2.52.13 5.16.29 7.91.48s5.33.26 7.74.21c2.41-.05 3.97-.3 4.68-.75.1.59.18 1.09.22 1.5.05.41.12.97.22 1.68.09 1.18.17 2.5.24 3.97.08 1.47.16 3.03.23 4.67.05 2.46.08 4.61.09 6.42.01 1.82 0 3.38-.04 4.66.35.13 1.64.34 3.85.63 2.22.3 4.65.56 7.29.81 2.63.25 5.06.49 7.28.72 2.22.24 3.51.3 3.87.19-.01.35-.1 1.53-.27 3.51-.17 1.99-.35 4.24-.53 6.76-.18 2.52-.34 5.01-.47 7.47-.12 2.46-.15 4.34-.06 5.63 0 .12-.07.24-.19.35-.47.22-1.65.42-3.53.61-1.88.18-3.91.3-6.08.36s-4.2.12-6.08.19c-1.87.07-3.17.09-3.87.07l-.35-.01c-.12.12-.22.49-.29 1.13-.08.64-.13 1.44-.16 2.37-.17 2.1-.28 3.86-.32 5.27-.04 1.4-.05 2.76-.02 4.04.03 1.29.02 2.61-.02 3.96s-.19 2.9-.48 4.65c-.01.24-.04.35-.1.35-.06 0-.09.06-.09.17-.2-.09-1.72-.13-4.54-.09z" fill="#e9e9f2"></path>
    <path d="m805.72 1715.86 2.16-14.09-54.91-8.41-54.91-8.41-2.16 14.09c-23.5 12.75-30.85 35.65-30.85 35.65l-19.69 170.45s19.9 16.86 71.38 24.75c55.6 8.52 77.08-1.78 77.08-1.78l30.67-169c-.01 0-.17-24.05-18.77-43.25z" fill="#e9e9f2" fill-rule="evenodd" clip-rule="evenodd"></path>
    <path d="m689.1 1657.76-1.64 29.05s14.06 9.12 63.94 16.76c49.88 7.64 68.16 3.47 68.16 3.47l8.19-28.04s-24.93.7-74.35-6.87-64.3-14.37-64.3-14.37z" fill-rule="evenodd" clip-rule="evenodd" fill="#d9d9e7"></path>
    <path d="M689.1 1657.76s67.96-6.45 138.65 21.24c0 0-24.11.83-74.35-6.87-50.24-7.69-64.3-14.37-64.3-14.37zM692.33 1766.71c-21.27 17.77-20.75 103.24-16.35 106.54 4.4 3.29 78.59 22.75 118.83 14.89l17.6-108.03c.01 0-77.49-7.45-120.08-13.4z" fill-rule="evenodd" clip-rule="evenodd" fill="#c8c8dc"></path>
    <path d="M732.9 1852.01c.01-.08 0-.12-.04-.13-.04-.01-.05-.09-.02-.25.03-1.22.11-2.29.25-3.2.14-.92.3-1.81.48-2.68.17-.87.33-1.78.48-2.74.15-.96.29-2.16.44-3.6.1-.64.16-1.18.19-1.62.03-.44.01-.71-.06-.8l-.24-.04c-.48-.07-1.35-.25-2.61-.53-1.26-.28-2.62-.57-4.09-.88-1.46-.31-2.82-.64-4.07-.99-1.25-.36-2.02-.64-2.31-.85a.347.347 0 0 1-.08-.26c.22-.86.43-2.14.65-3.81.22-1.68.42-3.38.61-5.11.19-1.72.35-3.27.48-4.64.13-1.37.21-2.17.25-2.41.23.12 1.11.23 2.64.35 1.53.12 3.2.25 5.01.41 1.81.16 3.49.28 5.03.35 1.53.08 2.43.09 2.68.05.14-.88.32-1.93.55-3.16.23-1.23.51-2.68.85-4.33.25-1.1.5-2.15.73-3.13.23-.98.45-1.87.65-2.65.15-.47.27-.83.36-1.11.08-.27.2-.6.34-.99.43.39 1.45.76 3.07 1.09 1.62.33 3.37.6 5.26.81 1.88.21 3.69.43 5.41.65 1.72.23 2.89.43 3.51.61-.14.88-.32 2.07-.56 3.59-.23 1.52-.47 3.05-.71 4.6-.24 1.55-.46 2.95-.65 4.18-.19 1.23-.24 2.06-.14 2.49.94.23 2.05.44 3.32.64s2.59.4 3.94.61c1.35.21 2.66.44 3.93.67 1.27.24 2.33.5 3.18.8-.68 3.32-1.18 6.3-1.51 8.94-.33 2.64-.88 5.41-1.65 8.31-.27.12-1.08.1-2.44-.07-1.36-.17-2.86-.38-4.49-.64-1.63-.25-3.17-.47-4.61-.65-1.44-.18-2.38-.19-2.81-.01-.03.73-.19 1.76-.48 3.11-.29 1.34-.61 2.76-.96 4.26-.35 1.49-.7 2.91-1.03 4.24-.33 1.34-.54 2.28-.62 2.84l-.04.24c-.04.24-.98.24-2.81-.01-1.84-.24-3.85-.55-6.03-.94-2.18-.38-4.23-.76-6.13-1.13-1.9-.38-2.93-.54-3.1-.48z" fill="#e9e9f2"></path>
    <path d="M681.46 1565.21c-5.51 13.52-23.13 14.85-40.61 3.68-1.33-.87-2.66-1.78-3.99-2.78-1.29-.97-2.6-2.05-3.81-3.09-16.24-14.2-24.76-35.19-19.25-48.7 5.51-13.52 23.13-14.85 40.61-3.68 1.29.84 2.66 1.78 3.95 2.75 1.34 1.01 2.6 2.05 3.86 3.12 16.24 14.19 24.75 35.18 19.24 48.7z" fill="#d9d9e7"></path>
    <path d="M688.7 1555.9c-5.51 13.52-23.13 14.85-40.61 3.68-1.33-.87-2.66-1.78-3.99-2.78-1.29-.97-2.6-2.05-3.81-3.09-16.24-14.2-24.76-35.19-19.25-48.7 5.51-13.52 23.13-14.85 40.61-3.68 1.29.84 2.66 1.78 3.95 2.75 1.34 1.01 2.6 2.05 3.86 3.12 16.24 14.19 24.75 35.18 19.24 48.7z" fill="#e9e9f2"></path>
    <path d="m669.45 1507.2-21.37 52.38c-1.33-.87-2.66-1.78-3.99-2.78-1.29-.97-2.6-2.05-3.81-3.09l21.36-52.38c1.29.84 2.66 1.78 3.95 2.75 1.35 1 2.61 2.04 3.86 3.12zM502.81 1727.86l36.82-31.38c9.03-7.69 22.63-6.61 30.32 2.41 7.69 9.03 6.61 22.63-2.42 30.32l-36.82 31.38-27.9-32.73z" fill="#d9d9e7"></path>
    <path d="M481.55 1774.24c-8.21-9.64-7.06-24.16 2.58-32.38l35.09-29.91 29.79 34.96-35.09 29.91c-9.63 8.21-24.16 7.06-32.37-2.58z" fill="#e9e9f2"></path>
    <path d="M2406.96 408.36c-6.84 5.18-8.19 14.92-3.01 21.77l42.35 55.96c5.18 6.84 14.93 8.19 21.77 3.01s8.19-14.93 3.01-21.77l-42.35-55.96c-5.18-6.84-14.93-8.19-21.77-3.01z" fill="#d9d9e7"></path>
    <path d="M2436.53 447.43c-12.37 9.36-14.81 26.98-5.45 39.36l76.56 101.17c9.36 12.37 26.98 14.81 39.36 5.45 12.37-9.36 14.81-26.98 5.45-39.36l-76.56-101.17c-9.37-12.37-26.99-14.81-39.36-5.45z" fill="#c8c8dc"></path>
    <path d="M2322.41 293.94c-37.11 28.08-44.43 80.96-16.35 118.07 28.1 37.13 80.98 44.45 118.08 16.37 37.13-28.1 44.43-80.96 16.33-118.09-28.08-37.11-80.93-44.45-118.06-16.35zm85.84 113.44c-25.51 19.31-61.88 14.29-81.21-11.24-19.31-25.51-14.25-61.88 11.26-81.19 25.54-19.33 61.88-14.3 81.19 11.22 19.33 25.53 14.3 61.88-11.24 81.21z" fill="#e9e9f2"></path>
    <path d="M2374.7 322.01c1.91.84-3.72 17.9-12.57 38.12s-17.58 35.92-19.49 35.09c-1.91-.84 3.72-17.9 12.57-38.12 8.85-20.21 17.58-35.92 19.49-35.09zM2391.47 340.59c1.93.79-.14 10.36-4.62 21.39-4.48 11.03-9.68 19.33-11.62 18.54-1.93-.79.13-10.36 4.62-21.39 4.49-11.03 9.69-19.33 11.62-18.54zM818.14 235.35l-.78.39v-.86zM818.53 896.56h-.86s-284.88-78.61-278.63-502.1l278.31-158.71.78-.39.78.39 278.31 158.71c6.2 423.48-278.69 502.1-278.69 502.1z" fill="#e9e9f2"></path>
    <path d="M818.09 863.78c-43.67-15.8-246.12-107.56-247.85-451.1l247.9-141.36 247.9 141.36c-1.79 343.33-204.01 435.19-247.95 451.1z" fill="#c8c8dc"></path>
    <path d="M818.92 234.88v.86l-.78-.39zM928.3 534.54c-.71-12.28-.91-26.24-.57-41.89-4.13-.64-9.17-.96-15.12-1-5.96-.02-12.1.05-18.43.22s-12.47.33-18.43.5c-5.96.16-11.17.12-15.63-.14-.81-1.85-1.28-5.64-1.44-11.42-.16-5.77-.34-12.29-.52-19.54-.2-7.27-.39-14.42-.58-21.5-.19-7.07-.35-12.65-.45-16.75-2.99-.29-8.49-.24-16.47.16-8 .41-16.38.92-25.11 1.52-8.74.61-16.92.83-24.57.66-7.64-.16-12.6-.96-14.87-2.4-.31 1.88-.56 3.47-.71 4.77-.16 1.32-.39 3.08-.7 5.33-.27 3.74-.53 7.94-.77 12.59-.25 4.67-.5 9.62-.73 14.84-.16 7.81-.25 14.62-.28 20.39-.04 5.78 0 10.72.11 14.8-1.11.41-5.19 1.08-12.23 2.01-7.06.94-14.77 1.79-23.13 2.57-8.36.79-16.06 1.56-23.12 2.3-7.05.75-11.14.96-12.27.61.03 1.12.31 4.84.85 11.16.55 6.32 1.11 13.47 1.69 21.46.59 8 1.09 15.89 1.48 23.71.4 7.81.47 13.77.2 17.87.01.37.21.74.59 1.11 1.5.7 5.25 1.34 11.22 1.93 5.98.58 12.41.96 19.31 1.15 6.89.19 13.32.39 19.29.6 5.95.21 10.06.29 12.3.23l1.11-.03c.38.37.69 1.56.94 3.6.24 2.05.41 4.56.49 7.54.55 6.68.89 12.26 1 16.74.12 4.45.15 8.74.08 12.84-.09 4.11-.06 8.3.06 12.58.12 4.28.61 9.2 1.51 14.76.02.75.11 1.11.3 1.11.19-.01.28.18.3.55.73-.39 5.57-.52 14.51-.39 8.95.14 18.54.16 28.78.07 10.24-.08 19.63-.33 28.19-.76 8.55-.42 12.82-1.19 12.8-2.3l-.03-1.12c-.07-2.6.09-7.08.48-13.42.38-6.34.77-13.06 1.14-20.14.37-7.09.64-13.8.84-20.14.2-6.34.07-11.17-.38-14.52 1.83-1.17 6.1-1.93 12.79-2.3 6.69-.36 13.85-.65 21.49-.86 7.62-.21 14.6-.48 20.93-.84 6.32-.35 10.03-.92 11.14-1.71 1.11-13.79 1.32-26.83.62-39.11z" fill="#e9e9f2"></path>
    <g>
      <path d="M2366.73 1932.66c-.77.21-1.55.42-2.29.6-.74-.18-1.52-.39-2.29-.6-74.35-19.99-206.17-162.73-138.43-235.92 63.04-68.13 126.17-2.68 140.72 14.43 14.55-17.11 77.65-82.56 140.72-14.43 67.74 73.19-64.11 215.93-138.43 235.92z" fill="#e9e9f2"></path>
      <path d="M2328.95 1731.39c-28.35-19.34-77.61-34.64-104.82-36.14-9.54-.53-12.84 1.24-21.33 24.22-8.19 22.18 2.42 25.08 2.42 25.08s113.22 37.99 121.04 29.22c7.81-8.77 11.34-36.48 2.69-42.38z" fill="#ffcd5c"></path>
      <path d="M2328.95 1731.39c-28.35-19.34-77.61-34.64-104.82-36.14-9.54-.53-12.84 1.24-21.33 24.22-8.19 22.18 2.42 25.08 2.42 25.08s113.22 37.99 121.04 29.22c7.81-8.77 11.34-36.48 2.69-42.38z" fill="#c8c8dc"></path>
      <path d="M2212.34 1695.65s67.69 13.33 67.95 19.46c.27 6.12-13.78 40.85-15.5 40.85s-66.1-15.74-67.16-21.39c-1.06-5.65 11.21-39.49 14.71-38.92z" fill="#b8b8d1"></path>
      <path d="M2259.05 1718.07a2.874 2.874 0 1 0 5.74-.32c-.09-1.58-1.45-2.8-3.03-2.7a2.86 2.86 0 0 0-2.71 3.02zM2240.93 1721.15c.09 1.59 1.45 2.8 3.03 2.71a2.86 2.86 0 0 0 2.7-3.03 2.86 2.86 0 0 0-3.03-2.7 2.858 2.858 0 0 0-2.7 3.02zM2256.92 1733.85c.09 1.59 1.45 2.8 3.03 2.71 1.58-.09 2.8-1.45 2.7-3.03s-1.45-2.8-3.03-2.7a2.858 2.858 0 0 0-2.7 3.02zM2212.48 1729.83c.09 1.59 1.45 2.8 3.03 2.71 1.58-.09 2.8-1.45 2.7-3.03a2.86 2.86 0 0 0-3.03-2.7 2.852 2.852 0 0 0-2.7 3.02zM2220.06 1709.04c.09 1.59 1.45 2.8 3.03 2.71 1.58-.09 2.8-1.45 2.7-3.03-.09-1.58-1.45-2.8-3.03-2.7-1.58.07-2.79 1.43-2.7 3.02zM2228.12 1725.13c.09 1.59 1.45 2.8 3.03 2.71 1.58-.09 2.8-1.45 2.7-3.03-.09-1.58-1.45-2.8-3.03-2.7a2.858 2.858 0 0 0-2.7 3.02zM2236.06 1737.27c.09 1.59 1.45 2.8 3.03 2.71 1.58-.09 2.8-1.45 2.7-3.03a2.86 2.86 0 0 0-3.03-2.7 2.858 2.858 0 0 0-2.7 3.02z" fill="#9898b7"></path>
    </g>
  </g>
  <g>
    <g>
      <g>
        <g>
          <path d="m1810.59 2013.39-226.47-45.54s-63.8 150.52-49.11 192.49c14.69 41.97 476.16 120.38 486.46 86.85 10.3-33.53-163.48-159.45-196.39-172.6-32.9-13.15-14.49-61.2-14.49-61.2z" fill="#1996f2"></path>
          <path d="M2021.47 2247.19c-10.31 33.53-471.77-44.87-486.45-86.84-14.69-41.97 49.11-192.5 49.11-192.5l77.41 15.57c-31.54 29.92-90.36 96.35-45.37 140.49 55.99 54.93 298.49 104.89 356.62 57.63 30.65 27.64 52.54 53.1 48.68 65.65z" opacity=".5" fill="#1965f2"></path>
          <path d="M1842.05 2104.35c-.21-1.71 11.85-4.45 31.15-8.66 9.64-2.14 21.1-4.65 33.56-7.99 6.22-1.69 12.69-3.61 19.14-5.93 3.21-1.18 6.43-2.45 9.48-3.92.75-.37 1.53-.73 2.23-1.13l1.09-.59 1.02-.62.51-.31.43-.3.77-.52s.02 0 .02-.03c.5.1-1.21-.3-2.71-.49-1.54-.17-3.13-.29-4.75-.31-6.5-.11-13.08.75-19.25 1.84-12.4 2.31-23.41 5.9-32.5 9.3-9.1 3.43-16.33 6.7-21.43 8.87-1.27.55-2.41 1.02-3.42 1.4-1 .4-1.86.72-2.58.94-1.44.44-2.31.51-2.54.16-.23-.35.2-1.1 1.23-2.22.52-.56 1.18-1.21 2-1.95.83-.72 1.8-1.51 2.91-2.39 4.47-3.48 11.3-8.03 20.37-12.64 9.07-4.57 20.36-9.25 33.68-12.38 6.68-1.5 13.8-2.72 21.61-2.78 1.95-.02 3.96.08 6.03.28.52.05 1.06.14 1.58.21l.8.12.91.18c.65.14 1.08.19 2.07.52l1.3.4c.44.13.87.27 1.26.47 1.65.69 3.17 1.57 4.34 2.72 1.25 1.09 2.06 2.5 2.59 4.03.3.76.39 1.59.43 2.4l-.01 1.22-.2 1.2c-.04.4-.2.79-.35 1.17-.15.39-.29.77-.45 1.16l-.67 1.11-.33.55c-.1.19-.23.37-.39.53-.62.67-1.18 1.38-1.84 2.02l-2.14 1.81c-.2.18-.32.26-.43.34l-.37.25-.74.51-.73.49-.69.42-1.39.82-1.37.73c-.92.51-1.82.92-2.73 1.35-3.63 1.69-7.2 3.03-10.72 4.23-7.05 2.36-13.88 4.12-20.4 5.57-13.06 2.86-24.89 4.53-34.84 5.61-19.94 2.1-32.35 1.83-32.54.23z" fill="#111968"></path>
          <path d="M1838.72 2104.74c-1.3-1.16 5.78-10.89 16.89-26.51 5.51-7.83 12.04-17.16 18.41-27.86 3.15-5.35 6.31-11.05 8.88-17.05 1.29-2.99 2.45-6.06 3.21-9.07.35-1.48.69-3 .77-4.33.13-1.31.03-2.61-.14-3.15-.06-.16-.04-.13-.04-.13-.02.02 0-.01 0-.01a.88.88 0 0 1-.17.02c-.07.01-.11-.02-.2-.01l-.32.06c-.2.01-.45.08-.71.15-1.03.28-2.27.78-3.49 1.5-1.23.7-2.47 1.51-3.66 2.44-4.82 3.71-9.01 8.48-12.6 13.27-7.16 9.71-12.01 19.81-15.55 28.48-3.53 8.71-5.73 16.09-7.39 21.2-.4 1.28-.79 2.42-1.15 3.4-.33.99-.65 1.83-.94 2.5-.59 1.34-1.1 2.03-1.51 1.98-.41-.05-.71-.84-.9-2.32-.09-.74-.16-1.64-.2-2.71-.02-1.07.01-2.29.07-3.68.26-5.52 1.25-13.5 3.93-23.12 2.7-9.58 7.03-20.86 14.53-32.14 3.8-5.6 8.31-11.24 14.41-16.18 1.52-1.24 3.19-2.4 5.02-3.48 1.82-1.08 3.87-2.05 6.29-2.74.6-.17 1.22-.33 1.92-.43l1.02-.16c.35-.04.77-.05 1.15-.06.4-.01.77-.02 1.18-.01.45.04.9.09 1.35.16.9.1 1.76.4 2.62.69 1.66.68 3.22 1.71 4.38 3.12.62.67 1.1 1.45 1.54 2.25.24.4.41.8.56 1.2.16.4.3.81.44 1.21.88 3.01.79 5.45.62 7.75-.18 2.31-.66 4.33-1.16 6.33-1.05 3.94-2.48 7.48-4.02 10.84-3.07 6.72-6.67 12.66-10.26 18.15-7.24 10.94-14.67 19.96-21.16 27.27-13.09 14.55-22.43 22.25-23.62 21.18z" fill="#111968"></path>
          <path d="M1533.41 2146.95c10.69-3.47 145.54 89.01 488.71 98.63 0 0 3.38 13.81-3.24 18.06-20.19 12.95-377.03-4.92-483.43-91.87 0 0-6.54-20.73-2.04-24.82z" fill="#171c80"></path>
        </g>
        <path d="m1228.65 1221.95 227.48-21.27c88.12-25.99 431.83-5.21 526.78 100.63 102.22 113.96-172.53 728.9-174.41 738.73-3.11-3.62-231.49-67.62-231.49-67.62l121.79-397.15s-326.13 78.83-409.08-3.01c-109.89-108.44-88.74-303.99-61.07-350.31z" fill="#171c80"></path>
        <path d="M1742.64 1715.61c-.5-.65.4-2.35 2.44-4.87 2.02-2.54 5.26-5.79 9.19-9.87 7.99-8 19.19-18.73 31.26-30.87 12.08-12.12 22.87-23.25 30.77-31.29 7.95-8 13.11-12.83 14.45-11.91 1.35.92-1.53 7.64-7.99 17.2-6.41 9.59-16.5 21.93-28.88 34.35-12.37 12.44-24.76 22.46-34.26 28.93-4.69 3.32-8.78 5.62-11.7 7.07-2.93 1.42-4.78 1.9-5.28 1.26zM1698.8 1765.67c-.38-.92 1.22-2.64 4.42-4.96 3.19-2.35 8.03-5.15 13.96-8.69 11.95-6.87 28.53-15.94 46.6-26.39 18.07-10.42 34.3-20.09 46.16-27.04 11.9-6.89 19.5-10.94 20.79-9.42 1.29 1.51-4.22 8.51-14.86 17.7-10.59 9.25-26.39 20.56-44.91 31.24-18.51 10.7-36.27 18.56-49.51 23.16-6.57 2.41-12.11 3.82-16.01 4.6-3.93.74-6.26.72-6.64-.2zM1698.79 1575.26c-.42-.7.77-2.37 3.22-4.76 1.24-1.17 2.75-2.59 4.49-4.24.88-.8 1.83-1.65 2.83-2.55.97-.92 2-1.9 3.08-2.93 1.09-1.01 2.24-2.05 3.36-3.21 1.14-1.13 2.33-2.31 3.57-3.52 1.19-1.25 2.41-2.55 3.67-3.89 1.26-1.34 2.46-2.79 3.75-4.22 5.01-5.85 10.12-12.59 14.54-20.21 9.05-15.17 13.57-30.74 15.88-42.24 2.33-11.54 2.65-18.98 4.28-19.21 1.59-.28 4.31 7.39 4.02 20.11-.1 3.17-.33 6.65-.89 10.35-.23 1.86-.63 3.75-.98 5.72-.46 1.94-.85 3.97-1.45 5.99-1.06 4.09-2.57 8.27-4.29 12.54-.94 2.1-1.83 4.27-2.94 6.37-.54 1.06-1.07 2.14-1.64 3.19-.6 1.05-1.2 2.1-1.81 3.16-4.9 8.45-10.83 15.69-16.75 21.63-1.51 1.45-2.95 2.91-4.44 4.22-1.51 1.29-2.97 2.53-4.38 3.74-1.46 1.15-2.9 2.21-4.27 3.24-1.36 1.05-2.74 1.95-4.06 2.8-1.32.85-2.58 1.66-3.77 2.4-1.23.7-2.4 1.33-3.5 1.91-1.1.58-2.13 1.11-3.09 1.57-.97.45-1.88.8-2.7 1.12-3.31 1.28-5.31 1.62-5.73.92z" fill="#111968"></path>
      </g>
      <g>
        <g>
          <path d="m921.86 2326.55-165.93-149.44s-131.19 87.35-141.49 130.61c-10.3 43.26 335.77 358.43 362.55 335.77 26.78-22.66-51.5-222.47-72.1-251.31-20.59-28.83 16.97-65.63 16.97-65.63z" fill="#1996f2"></path>
          <path d="M976.99 2643.5c-26.77 22.66-372.85-292.51-362.55-335.76 10.31-43.26 141.49-130.61 141.49-130.61l53.82 48.48c-39.04 10.79-87.39 35.91-81.94 93.97 7.86 83.79 127.56 235.02 246.21 252.07 8.98 35.43 12.16 64.08 2.97 71.85z" opacity=".5" fill="#1965f2"></path>
          <path d="M622.43 2291.23c10.87 2.85 74.44 153.5 358.09 346.9 0 0-4.61 13.45-12.49 13.45-23.99 0-311.62-182.8-358.85-339.1.01 0 7.25-20.24 13.25-21.25z" fill="#171c80"></path>
          <path d="M909.59 2449.71c.14-1.72 12.49-2.04 32.24-2.37 9.87-.2 21.6-.41 34.48-1.24 6.43-.43 13.15-1.04 19.94-2.05 3.38-.52 6.79-1.14 10.06-1.98.81-.22 1.64-.42 2.41-.67l1.18-.36 1.12-.4.56-.2.48-.21.85-.36s.02 0 .02-.02c.47.19-1.13-.53-2.56-1.01-1.48-.47-3.01-.9-4.6-1.24-6.35-1.38-12.97-1.84-19.24-1.98-12.61-.17-24.11 1.19-33.7 2.73-9.6 1.57-17.33 3.36-22.75 4.49-1.35.29-2.57.52-3.63.7-1.06.2-1.96.34-2.71.42-1.5.15-2.37.05-2.52-.34-.15-.39.41-1.04 1.65-1.93.62-.45 1.4-.95 2.34-1.51.95-.54 2.06-1.13 3.32-1.77 5.06-2.53 12.66-5.65 22.46-8.39 9.79-2.7 21.78-5.07 35.45-5.52 6.84-.16 14.07.04 21.73 1.52 1.91.36 3.87.85 5.86 1.46.5.15 1.01.34 1.51.51l.77.27.86.35c.61.27 1.02.4 1.93.91l1.2.65c.41.21.8.43 1.15.71 1.48 1 2.8 2.16 3.72 3.52 1.02 1.31 1.53 2.85 1.75 4.46.15.8.07 1.64-.05 2.44l-.25 1.19-.43 1.13c-.12.39-.35.73-.57 1.08-.22.35-.43.7-.67 1.05l-.87.96-.44.48c-.14.17-.29.32-.49.45-.74.54-1.43 1.12-2.2 1.62l-2.45 1.36c-.23.13-.36.19-.49.24l-.41.18-.82.35-.82.34-.76.27-1.52.53-1.49.45c-1 .32-1.97.54-2.94.79-3.89.95-7.65 1.55-11.34 2.04-7.37.92-14.41 1.31-21.1 1.45-13.37.24-25.29-.45-35.27-1.35-19.96-1.89-32.08-4.59-31.95-6.2z" fill="#111968"></path>
          <path d="M906.25 2449.44c-1.05-1.39 7.81-9.54 21.77-22.67 6.94-6.59 15.18-14.46 23.52-23.7 4.14-4.63 8.36-9.59 12.05-14.97 1.85-2.68 3.59-5.46 4.93-8.27.63-1.39 1.26-2.81 1.6-4.1.38-1.26.54-2.55.48-3.12-.02-.17-.02-.14-.02-.14-.03.02 0-.01 0-.01-.04 0-.12 0-.17-.01-.07-.01-.1-.04-.2-.04l-.32-.01c-.19-.03-.46-.01-.73.01-1.07.08-2.38.32-3.72.78-1.34.44-2.72 1-4.07 1.68-5.45 2.69-10.5 6.54-14.96 10.53-8.93 8.11-15.67 17.06-20.84 24.87-5.17 7.84-8.78 14.65-11.41 19.33-.65 1.18-1.25 2.21-1.79 3.11-.52.91-.99 1.66-1.41 2.26-.84 1.2-1.48 1.78-1.87 1.64-.4-.13-.53-.97-.43-2.45.05-.74.17-1.64.34-2.7.19-1.05.46-2.25.79-3.59 1.34-5.36 3.88-12.99 8.39-21.89 4.53-8.86 10.99-19.07 20.57-28.66 4.83-4.74 10.36-9.39 17.31-13.04 1.74-.91 3.6-1.73 5.6-2.43 2-.7 4.2-1.25 6.7-1.45.63-.05 1.26-.09 1.97-.04l1.03.05c.36.03.76.1 1.14.16.39.07.76.13 1.16.23.43.13.86.27 1.29.42.87.27 1.65.74 2.43 1.19 1.5 1 2.82 2.31 3.68 3.92.48.78.79 1.64 1.07 2.51.16.44.25.87.31 1.29.07.42.14.85.19 1.28.27 3.13-.29 5.5-.91 7.72-.63 2.22-1.5 4.11-2.38 5.98-1.81 3.66-3.9 6.85-6.07 9.84-4.34 5.99-9.02 11.1-13.63 15.78-9.25 9.31-18.31 16.69-26.11 22.58-15.66 11.7-26.33 17.41-27.28 16.13z" fill="#111968"></path>
        </g>
        <path d="M1118.34 1703.09s-108.79-153.32-124.26-255.43c-12.27-80.96-18.7-194.17 14.63-268.44h178.38l119.49 40.77s178.53 385.01 125.92 561.38c-52.6 176.38-506.77 551.48-506.77 551.48l-173.28-154.72 365.89-475.04z" fill="#171c80"></path>
        <path d="M1118.34 1703.09s-108.79-153.32-124.26-255.43c-12.27-80.97-18.7-194.17 14.63-268.44h178.37l119.5 40.77s44.6 96.17 82.65 214.42c-59.93 33.52-138.46 56.53-222.25 25.02 0 0 24.9 223.41 100.24 295.38 0 0-349.75 103.46-450.89 480.35l-63.87-57.02 365.88-475.05z" opacity=".5" fill="#111968"></path>
        <path d="M1118.34 1703.09c2.16-2.86 22.02 10.23 48.11 21.65 13.02 5.81 25.25 9.62 34.24 12.14 4.5 1.18 8.19 2.1 10.78 2.86 2.58.74 4.05 1.39 4.14 2.2.09.81-1.42 1.73-4.23 2.39-2.8.65-6.91.98-11.95.8-10.03-.5-23.81-3.37-37.69-9.57-3.46-1.56-6.85-3.06-9.95-4.82-3.14-1.69-6.17-3.32-8.89-5.13-1.37-.89-2.71-1.75-4.01-2.59-1.29-.85-2.56-1.66-3.7-2.55-2.32-1.74-4.45-3.4-6.37-4.95-1.94-1.51-3.56-3.06-4.96-4.45-1.4-1.38-2.56-2.62-3.46-3.7-1.79-2.14-2.54-3.63-2.06-4.28zM1089.26 1923.99c-.07-.81 1.61-1.76 4.68-2.78 3.07-1.05 7.56-2.04 13.07-3.34 11.04-2.42 26.27-5.41 42.98-9.1 16.71-3.68 31.8-7.22 42.8-9.72 11.02-2.44 17.96-3.73 18.59-2.23.64 1.5-5.41 5.61-16.01 10.16-10.57 4.61-25.73 9.55-42.86 13.32-17.13 3.79-32.96 5.53-44.46 5.85-5.74.26-10.42-.01-13.66-.37-3.25-.38-5.06-.98-5.13-1.79zM1025.32 1942.45c.18-.98 2.45-1.56 6.4-1.79 3.95-.25 9.54.01 16.44.22 13.76.67 32.63 1.99 53.47 2.95 20.84.98 39.72 1.61 53.45 2.16 13.74.63 22.32 1.33 22.58 3.29.27 1.97-8.15 4.88-22.07 6.87-13.91 2.07-33.31 3.06-54.67 2.05-21.36-.99-40.55-3.97-54.18-7.24-6.84-1.52-12.26-3.32-15.96-4.77-3.69-1.48-5.64-2.76-5.46-3.74zM1360.98 1343.95c1.5-.6 5.29 4.66 10.7 14.79 5.42 10.13 12.36 25.17 20.03 44.14 7.66 18.97 15.98 41.91 23.92 67.82 2.03 6.46 3.93 13.15 5.9 19.96l2.85 10.37c.47 1.75.95 3.51 1.42 5.27.45 1.77.91 3.55 1.36 5.34 3.7 14.29 7.1 29.22 10.18 44.6 1.58 7.68 2.9 15.33 4.24 22.85 1.2 7.55 2.43 14.99 3.38 22.34 1.06 7.33 1.82 14.58 2.63 21.67.65 7.11 1.36 14.06 1.75 20.88 1.92 27.23 1.45 51.95-.41 72.57-1.84 20.64-5.25 37.14-8.57 48.26-1.56 5.58-3.27 9.79-4.61 12.59-1.36 2.79-2.45 4.16-3.24 3.98-.79-.18-1.26-1.89-1.41-4.96-.17-3.07.07-7.46.21-13.12.48-11.27 1.27-27.44.95-47.41a705.91 705.91 0 0 0-4.58-69.97c-.68-6.57-1.62-13.29-2.48-20.15-1.01-6.85-1.93-13.86-3.12-20.97-1.08-7.12-2.39-14.34-3.64-21.68-1.38-7.32-2.71-14.76-4.25-22.26-3-15.01-6.16-29.63-9.49-43.71-.41-1.76-.81-3.51-1.22-5.26-.42-1.74-.84-3.47-1.26-5.2-.84-3.45-1.67-6.87-2.49-10.25-1.72-6.75-3.33-13.37-5.04-19.81-6.67-25.78-13.22-48.89-18.78-68.32-5.57-19.43-10.06-35.21-12.82-46.28-2.73-11.07-3.64-17.47-2.11-18.08z" fill="#111968"></path>
      </g>
    </g>
    <g>
      <path d="m1357.26 663.26 130.45 248.73s118.37-1.15 281.53-32.95c64.29-12.53 481.13-185.85 481.13-185.85l-90.4-128.79-454.62 107.4-348.09-8.54z" fill="#d9d9e7"></path>
      <path d="M2321.82 683.75c6.65-39.5-58.47-147.08-103.46-122.34-20.4 11.22-130.29 61.24-130.29 61.24s20.59 24.23 32.6 22.81c12.01-1.42 23.86-9.37 22.31-6.16-1.55 3.21-28.33 41.29-28.33 41.29s-1.75 56.74 83.63 85.18c27.95 9.3 117.38-45.46 123.54-82.02z" fill="#c8c8dc"></path>
      <g>
        <g>
          <path d="M1563.3 1155.83c1.73 62.87 54.06 112.46 116.93 110.73l578.75-15.94c11.35-.31 22.18-2.33 32.32-5.78 41.4-14.15 71.18-52.27 73.78-97.1l.46-.01-10.67-199.54-656 18.06-135.57 189.58z" fill="#d89935"></path>
          <path d="m1541.7 371.45 21.6 784.38c1.73 62.87 54.06 112.46 116.93 110.73l578.75-15.94c11.35-.31 22.18-2.33 32.32-5.78-15.31-4.46-29.13-12.53-40.45-23.25-18.57-17.58-30.41-42.27-31.17-69.85l-21.98-798.36-656 18.07z" fill="#ffcd5c"></path>
          <path d="M1614.47 632.73h554.11v9.4h-554.11z" transform="rotate(-1.621 1892.728 639.476)" fill="#f4b442"></path>
          <path d="m1705.35 507.64-17.25.48-.98-35.59-.99.03-5.5 35.77-17.68.49-7.13-35.42-1.1.03.98 35.59-17.02.47.43-68.27 24.71-.68 7.17 36.74.88-.02 4.91-37.07 24.39-.67 4.18 68.12zM1756.76 506.22l-36.91 1.02-1.88-68.21 38.01-1.05-.64 16.83-18.12.5.28 10.21 15.71-.43.4 14.5-15.71.43.31 11.31 19.22-.53-.67 15.42zM1819.49 468.88c.65 23.72-8.4 35.85-27.14 36.36l-22.63.62-1.88-68.21 23.07-.64c10.03-.28 17.23 2.33 21.6 7.81 4.36 5.5 6.69 13.51 6.98 24.06zm-20.5 16.23c1.06-2.78 1.5-7.41 1.32-13.89-.18-6.48-.91-11.06-2.19-13.73-1.29-2.68-3.9-3.96-7.86-3.85l-3.3.09.99 35.81 3.63-.1c3.88-.11 6.35-1.56 7.41-4.33zM1852.76 503.58l-18.67.51-1.88-68.21 18.67-.51 1.88 68.21zM1885.01 469.22c.18 6.48.95 11.08 2.3 13.79 1.35 2.71 3.5 4.03 6.43 3.95 2.93-.08 7.05-.89 12.36-2.43l3.28 15.41c-5.73 2.28-11.52 3.5-17.38 3.67-8.79.24-15.26-2.49-19.41-8.2-4.15-5.71-6.39-14.33-6.7-25.87-.32-11.53 1.53-20.41 5.53-26.64 4.01-6.23 10.73-9.47 20.18-9.73 5.56-.15 10.91.87 16.02 3.08l-2.49 17.11c-5.77-1.75-9.78-2.59-12.05-2.53-3.22.09-5.42 1.56-6.58 4.41-1.17 2.83-1.67 7.5-1.49 13.98zM1968.53 500.39l-18.35.5-2.38-10.71-12.96.36-1.79 10.82-17.47.48 10.64-68.56 27.9-.77 14.41 67.88zm-23.17-23-4.52-24.28-.77.02-3.17 24.49 8.46-.23zM2014.44 499.13l-34.71.96-1.88-68.21 18.79-.52 1.46 52.94 17.02-.47-.68 15.3zM1685.07 582.59l-15.84.44-13.23-27.58-.77.02.77 27.91-14.68.4-1.65-59.99 16.33-.45 12.67 28.46.77-.02-.79-28.79 14.78-.41 1.64 60.01zM1730.86 581.33l-32.46.89-1.65-59.99 33.43-.92-.56 14.81-15.94.44.25 8.99 13.81-.38.35 12.75-13.81.38.27 9.95 16.91-.47-.6 13.55zM1800.2 519.38l-3.76 60.14-19.9.55-5.95-26.42-.77.02-3.62 26.68-19.99.55-7.93-59.81 15.84-.44 3.39 31.71.97-.03 3.18-31.89 16.13-.44 5.32 31.66.96-.03.87-31.83 15.26-.42zM1813.65 523.27c3.25-3.57 7.79-5.43 13.62-5.59 5.83-.16 11.82.25 17.97 1.24l-1.5 15.51c-6.42-1.31-10.82-1.92-13.2-1.86-3.03.08-4.51 1.35-4.44 3.8.03.96.78 1.88 2.25 2.74 1.48.86 3.25 1.77 5.35 2.7 2.09.95 4.18 2.08 6.28 3.41 2.1 1.33 3.91 3.26 5.43 5.79 1.52 2.54 2.33 5.48 2.42 8.83.17 6.12-1.34 10.9-4.54 14.34-3.19 3.44-7.8 5.24-13.82 5.41-6.02.17-11.92-.61-17.7-2.32l.66-14.42c6.95 1.81 11.77 2.67 14.48 2.6 2.7-.08 4.02-1.3 3.96-3.68-.03-1.22-.79-2.33-2.27-3.32-1.47-.99-3.26-1.97-5.35-2.95-2.09-.97-4.2-2.11-6.33-3.4s-3.95-3.21-5.48-5.75c-1.52-2.53-2.33-5.58-2.43-9.12-.16-5.74 1.39-10.39 4.64-13.96z" fill="#f4b442"></path>
          <path d="m1730.43 670.02-.27.15-.01-.31z" fill="#e9e9f2"></path>
          <path d="m1737 903.38-.3.01s-101.31-24.98-103.22-174.5l96.68-58.72.27-.15.28.13 99.77 53.31c6.3 149.41-93.48 179.92-93.48 179.92z" fill="#f4b442"></path>
          <path d="M1736.52 891.82c-15.57-5.15-87.91-35.57-91.86-156.8l86.12-52.3 88.86 47.48c2.71 121.19-67.77 155.57-83.12 161.62z" fill="#ffcd5c"></path>
          <path d="m1730.7 669.85.01.3-.28-.13z" fill="#e9e9f2"></path>
          <path d="M1722.38 808.21c-.01-.1-.03-.15-.08-.15s-.08-.1-.09-.3c-.29-1.51-.46-2.85-.52-4.02-.06-1.17-.1-2.31-.11-3.44-.01-1.12-.05-2.29-.12-3.51-.07-1.22-.2-2.74-.4-4.57-.04-.81-.11-1.5-.19-2.06-.08-.55-.18-.88-.28-.98l-.3.02c-.61.03-1.73.04-3.36.03-1.63-.01-3.39-.02-5.28-.02-1.89 0-3.65-.06-5.29-.17-1.64-.12-2.67-.26-3.08-.44-.11-.1-.17-.2-.17-.3.04-1.12-.02-2.75-.19-4.88s-.36-4.29-.58-6.47c-.22-2.18-.43-4.13-.62-5.85-.2-1.72-.3-2.74-.32-3.04.31.08 1.43 0 3.35-.26 1.92-.26 4.02-.52 6.3-.8 2.28-.28 4.38-.57 6.3-.88 1.92-.31 3.03-.52 3.33-.64-.06-1.12-.11-2.47-.14-4.04-.04-1.58-.06-3.44-.08-5.57.02-1.43.05-2.78.09-4.06.03-1.27.07-2.42.11-3.45.07-.62.12-1.1.15-1.46.03-.36.09-.79.16-1.31.63.37 1.99.56 4.08.54 2.09-.01 4.32-.13 6.71-.37 2.38-.23 4.67-.43 6.85-.6 2.18-.17 3.68-.22 4.5-.17.06 1.12.14 2.64.25 4.57.11 1.93.21 3.89.32 5.87.11 1.98.2 3.76.29 5.33.09 1.58.24 2.61.48 3.11 1.22.04 2.65.01 4.27-.08 1.63-.09 3.3-.18 5.03-.28 1.73-.09 3.41-.16 5.03-.2 1.63-.04 3.01.01 4.14.16.02 4.28.18 8.09.47 11.44.28 3.35.32 6.91.12 10.7-.3.22-1.31.41-3.03.55-1.73.14-3.63.27-5.71.39-2.08.11-4.04.25-5.86.4-1.83.15-2.99.39-3.48.72.15.91.22 2.23.21 3.96-.01 1.73-.03 3.57-.08 5.51s-.1 3.78-.16 5.51c-.06 1.74-.07 2.96-.03 3.67l.02.31c.01.3-1.15.55-3.48.72-2.34.18-4.9.32-7.7.42-2.8.1-5.42.17-7.86.2-2.46.06-3.78.13-3.97.24z" fill="#f4b442"></path>
          <path d="M1880.3 686.04h221.38v35.28H1880.3z" transform="rotate(-1.621 1992.148 705.842)" fill="#f4b442"></path>
          <path d="M1882.12 752.9h140.19v35.28h-140.19z" transform="rotate(-1.621 1953.635 772.857)" fill="#f4b442"></path>
          <path d="M2040.35 748.86h116.93v35.28h-116.93z" transform="rotate(-1.621 2100.318 768.906)" fill="#f4b442"></path>
          <path d="M1883.89 816.89h140.19v35.28h-140.19z" transform="rotate(-1.621 1955.347 836.914)" fill="#f4b442"></path>
          <path d="M2042.11 812.85h116.93v35.28h-116.93z" transform="rotate(-1.621 2102.033 832.96)" fill="#f4b442"></path>
          <path d="M1638.28 969.44h190.91v35.28h-190.91z" transform="rotate(-1.621 1734.385 989.253)" fill="#f4b442"></path>
          <path d="M1640.1 1036.19h118.38v35.28H1640.1z" transform="rotate(-1.621 1700.28 1056.273)" fill="#f4b442"></path>
          <path d="M1773.71 1032.78h98.74v35.28h-98.74z" transform="rotate(-1.621 1823.613 1052.623)" fill="#f4b442"></path>
          <path d="M1641.86 1100.17h118.38v35.28h-118.38z" transform="rotate(-1.621 1701.995 1120.33)" fill="#f4b442"></path>
          <path d="M1775.47 1096.77h98.74v35.28h-98.74z" transform="rotate(-1.621 1825.876 1116.99)" fill="#f4b442"></path>
          <path d="M1932.02 961.35h190.91v35.28h-190.91z" transform="rotate(-1.621 2028.387 981.391)" fill="#f4b442"></path>
          <path d="M1933.85 1028.1h118.38v35.28h-118.38z" transform="rotate(-1.621 1994.343 1048.405)" fill="#f4b442"></path>
          <path d="M2067.45 1024.69h98.74v35.28h-98.74z" transform="rotate(-1.621 2117.578 1044.761)" fill="#f4b442"></path>
          <path d="M1935.61 1092.09h118.38v35.28h-118.38z" transform="rotate(-1.621 1996.059 1112.463)" fill="#f4b442"></path>
          <path d="M2069.22 1088.68h98.74v35.28h-98.74z" transform="rotate(-1.621 2119.933 1109.123)" fill="#f4b442"></path>
        </g>
        <g>
          <path d="M2219.29 541.75c-38.47-26.22-161.68-14.47-167.92 19.15-2.5 13.44 19.41 20.01 44.67 23.16-27.85 1.66-53.51 7.88-53.54 25.2-.03 15.97 24.55 22.81 53 25.41-21.1 3.51-37.17 10.87-34.85 25.4 2.39 15.27 37.33 21.27 70.51 23.5-24.39 1.76-46.55 7.18-45.02 21.22 3.8 33.83 121.87 23.52 121.87 23.52 32.62 48.69 170.18-78.26 11.28-186.56z" fill="#fca993"></path>
          <path d="M2189.72 590.21c-.14.55-1.55.78-3.96.75-1.21 0-2.64-.15-4.33-.21-1.69-.08-3.59-.21-5.68-.39-8.41-.59-19.99-1.4-32.85-2-25.72-1.25-46.74-2.02-46.85-4.29-.13-2.24 21.03-5.16 47.26-3.89 13.1.61 24.95 2.37 33.36 4.46 2.1.56 3.99 1.1 5.64 1.61 1.65.5 3.03 1.12 4.16 1.6 2.24 1 3.39 1.82 3.25 2.36zM2184.87 638.65c-.2 1.15-5.25 1.32-13.29 1.26-8.05-.06-19.16-.29-31.45-.7-24.58-.82-44.58-2.26-44.62-4.54-.04-2.25 20.05-4.48 44.9-3.65 12.42.41 23.66 1.57 31.73 3.12 8.09 1.55 12.92 3.43 12.73 4.51zM2175.08 685.28c-.04 2.26-11.85 3.9-26.38 3.65s-26.28-2.28-26.24-4.54c.04-2.26 11.85-3.9 26.38-3.65 14.53.24 26.28 2.27 26.24 4.54z" fill="#d8776a"></path>
        </g>
      </g>
    </g>
    <g>
      <path d="M1010.31 1203.23c205.18 75.07 312.29 198.28 523.19 72.53 27.49-16.39-33.68-605.53-240.15-640.82-182.64-31.23-283.04 568.29-283.04 568.29z" fill="#1996f2"></path>
      <path d="M1010.31 1203.23c205.18 75.07 312.29 198.27 523.19 72.53 24.43-14.57-21.14-481.18-176.38-609.89-12.46 83.36 81.81 308.13 72.4 311.15-10.01 3.22-51.46 29.77-90.8 44.68-39.34 14.92-123.11-108.58-123.11-108.58 47.66-124.95 31.01-225.56 20-266.96-145.94 83.23-225.3 557.07-225.3 557.07z" opacity=".5" fill="#1965f2"></path>
      <path d="M1197.28 788.37c34.28-2.12 94.6-.85 95.24.95.64 1.8.47 28.05.47 28.05l-94.77 2-.94-31z" fill="#1965f2"></path>
      <g>
        <path d="M1010.31 1416.91c-89.79 58.69-361.05-48.14-280.46-139.65 80.59-91.5 406.58-388.02 430.76-422.11 24.18-34.09-131.13 349.95-150.3 561.76z" fill="#c8c8dc"></path>
        <path d="M787.57 1434.02c101.67 160 174.86-191.21 212.29-221.87 195.43-160.1 265.37-549.96 233.82-566.95-142.82 18.86-153.21 410.72-370.03 420.78-120.9 5.61-291.12 150.16-300.37 238.1-7.34 69.76 193.67 81.76 224.29 129.94z" fill="#e9e9f2"></path>
        <path d="M837.3 1168.22c1.09-.1 2.3 1.35 3.54 4.01 1.21 2.66 2.6 6.52 4.06 11.24.8 2.35 1.5 4.94 2.41 7.66.44 1.36.84 2.79 1.32 4.23.48 1.44.97 2.92 1.45 4.43 2.03 6.03 4.38 12.53 7.27 19.07 2.88 6.54 6.13 12.41 9.41 17.49 3.34 5.03 6.75 9.25 9.91 12.57 6.29 6.72 11.34 9.87 10.88 11.99-.21 1.08-2.16 1.75-5.35 1.42-3.17-.33-7.58-1.69-12.41-4.51-2.43-1.39-4.89-3.18-7.4-5.28-2.5-2.1-4.93-4.6-7.32-7.35-4.67-5.58-8.95-12.36-12.26-19.87-3.32-7.51-5.5-14.97-6.9-21.78-.32-1.71-.62-3.38-.9-5-.27-1.62-.43-3.21-.62-4.73-.4-3.05-.49-5.92-.6-8.52-.09-5.22.21-9.44.88-12.38.66-2.94 1.54-4.59 2.63-4.69z" fill="#a7a7c6"></path>
        <path d="M1357.26 663.26c36.8 207 151.37 201.32 173.41 619.97 43.71 14.57 87.49 23.06 87.49 23.06s-118.11-581.53-260.9-643.03z" fill="#e9e9f2"></path>
      </g>
    </g>
    <g>
      <g>
        <path d="M1247.55 638.62c-9.03 10.31 2.12 72.43 54.37 83.46 52.25 11.03 48.74-62.85 44.45-68.6-36.93-49.42-82.17-33.87-98.82-14.86z" fill="#1965f2"></path>
        <path d="m1335.54 572.23-29.78-4.4-29.78-4.4-24.98 72.16s7.68 20.97 40.91 25.88c32.28 4.77 46.65-12.93 46.65-12.93l-3.02-76.31z" fill="#fca993"></path>
      </g>
      <path d="M1401.29 512.48s10.7-39.76 18.35-74.43c7.65-34.66-9.18-50.98-22.43-57.1-11.47-61.92-54.66-91.08-75.19-74.41-3.66 2.97-.26 18.84-.26 18.84s-134.75-49.46-107.06 18.35c-53.02 31.1-43.33 54.04-18.35 68.31 0 0 2.04 49.45 15.8 98.9l189.14 1.54z" fill="#070e3f"></path>
      <g>
        <path d="M1393.93 503.47c.23-2.83 2.91-65.38-32.06-76.96 0 0-57.23-37.25-127.12 1.33-30.09 19-26.49 72.8-26.26 75.63 18.28 105.59 73.25 120.84 92.72 120.84s90.95-22.22 92.72-120.84z" fill="#fca993"></path>
        <path d="M1345.39 606.42c.37.52-3.44 4.21-10.79 8.65-3.69 2.17-8.3 4.5-13.75 6.32-2.72.9-5.65 1.7-8.74 2.27-3.09.55-6.35.89-9.69.95-3.34.07-6.62-.18-9.73-.68-1.56-.21-3.07-.58-4.55-.88-1.46-.4-2.9-.73-4.26-1.21a62.457 62.457 0 0 1-13.77-6.39c-.46-.28-.9-.56-1.34-.83-.42-.29-.83-.57-1.23-.85-.79-.56-1.54-1.07-2.22-1.58-1.33-1.06-2.48-1.97-3.35-2.79-1.74-1.65-2.58-2.69-2.37-2.97s1.46.22 3.51 1.35c1.03.56 2.31 1.2 3.74 2.01.73.38 1.51.78 2.34 1.2.41.21.84.43 1.27.66.44.21.9.42 1.36.64 3.71 1.77 8.22 3.64 13.38 5.05 1.28.39 2.63.63 3.99.96 1.38.23 2.77.54 4.21.69 2.87.4 5.86.6 8.93.53 3.07-.05 6.06-.33 8.93-.77 2.87-.46 5.61-1.11 8.2-1.83 5.18-1.46 9.7-3.34 13.47-5.03 7.5-3.47 12.04-6.1 12.46-5.47z" fill="#d8776a"></path>
      </g>
      <g>
        <g>
          <path d="M1213.36 519.28c-29.47 16.2-47.34-50.88-20.78-60.45 7.67-2.76 22.55-3.16 25.41 11.98 3.08 16.34 1.82 44.92-4.63 48.47z" fill="#fca993"></path>
          <path d="M1198.73 471.39c5.81 5.13 15.94 21.87 7.7 33.44 0 0 .63-8.13-3.34-13.39l-10.51-5.75h10.91l-4.76-14.3z" fill="#070e3f"></path>
        </g>
        <g>
          <path d="M1395.07 519.28c29.47 16.2 47.34-50.88 20.78-60.45-7.67-2.76-22.55-3.16-25.41 11.98-3.08 16.34-1.82 44.92 4.63 48.47z" fill="#fca993"></path>
          <path d="M1409.7 471.39c-5.81 5.13-15.94 21.87-7.7 33.44 0 0-.63-8.13 3.34-13.39l10.51-5.75h-10.91l4.76-14.3z" fill="#070e3f"></path>
        </g>
      </g>
      <g>
        <path d="M1336.45 505.74c.04 8.57 4.58 15.49 10.14 15.47 5.56-.02 10.04-6.99 10.01-15.55-.04-8.56-4.58-15.49-10.14-15.47-5.57.02-10.05 6.99-10.01 15.55zM1363.96 467.02s1.23 6.78-.27 8.58c-1.5 1.8-9.13-1.39-17.99-.04-9.02 1.37-14.56 5.27-14.56 5.27s-5.72-2.64-.34-8.38c5.37-5.74 32.73-11.47 33.16-5.43z" fill="#070e3f"></path>
        <path d="M1347.58 501.7c.25 2.89 2.8 5.02 5.69 4.76 2.89-.25 5.02-2.8 4.76-5.69a5.24 5.24 0 0 0-5.69-4.76c-2.88.26-5.02 2.81-4.76 5.69z" fill="#fff"></path>
        <path d="M1273.03 505.74c-.04 8.57-4.58 15.49-10.14 15.47-5.56-.02-10.04-6.99-10.01-15.55.04-8.56 4.57-15.49 10.14-15.47 5.57.02 10.05 6.99 10.01 15.55zM1245.52 467.02s-1.23 6.78.27 8.58c1.5 1.8 9.13-1.39 17.99-.04 9.02 1.37 14.56 5.27 14.56 5.27s5.72-2.64.34-8.38c-5.37-5.74-32.73-11.47-33.16-5.43z" fill="#070e3f"></path>
        <path d="M1261.9 501.7a5.234 5.234 0 0 1-5.69 4.76 5.234 5.234 0 0 1-4.76-5.69 5.24 5.24 0 0 1 5.69-4.76 5.26 5.26 0 0 1 4.76 5.69z" fill="#fff"></path>
      </g>
      <g>
        <path d="M1303.29 601.68c.62-2.12.62-4.22-.1-6.33-.65-1.9-1.92-3.68-3.53-4.89-3.46-2.62-8.15-2.4-11.63.05-1.99 1.4-3.32 3.43-3.94 5.77-.31 1.17.77 2.51 1.92 2.64 1.35.15 2.31-.67 2.64-1.92.1-.39-.17.4.05-.12.06-.15.12-.3.18-.44.08-.17.16-.33.25-.5.03-.06.18-.27.01-.02-.19.27.03-.03.06-.08.2-.28.41-.56.64-.82.05-.06.11-.11.16-.18.19-.24-.33.28-.09.08.15-.12.28-.25.42-.37.27-.22.56-.41.85-.61.45-.3-.29.12.09-.06l.51-.24c.32-.14.65-.24.98-.35.4-.13-.48.08.1-.02.18-.03.37-.06.55-.08.18-.02.37-.04.56-.04.11 0 .56.05.26-.01-.32-.06.22.03.34.04.19.02.37.05.55.09.1.02.21.05.31.07.26.05-.19-.05-.18-.05.09-.03.36.13.45.17.17.07.34.15.51.23.07.04.14.08.21.11.3.15-.01-.06-.09-.06.2 0 .67.49.83.62.1.08.36.25.41.38 0 .01-.3-.35-.14-.14.06.08.14.16.21.24.22.27.43.55.62.84.07.11.3.59.18.28-.12-.32.1.21.14.3.18.39.31.8.44 1.21.03.11.01.28 0 .01 0-.32 0 0 .01.09.03.21.07.42.09.63.02.19.02.37.04.56.02.21.11.23.01-.12.02.08-.01.23-.02.32-.02.18-.04.37-.07.55-.02.14-.21.9-.04.29-.18.61-.28 1.14-.03 1.77.21.53.69 1.06 1.22 1.27 1.07.44 2.7.08 3.06-1.16z" fill="#ea907f"></path>
        <path d="M1297.33 537.69c-.24 2.2.13 4.26 1.21 6.21.97 1.76 2.54 3.29 4.33 4.2 3.87 1.97 8.44.93 11.44-2.09 1.72-1.73 2.67-3.96 2.86-6.37.1-1.21-1.2-2.33-2.35-2.26-1.35.09-2.15 1.07-2.26 2.35-.03.41.09-.43-.02.13-.03.16-.06.31-.1.47-.05.18-.1.36-.16.54-.02.07-.13.3 0 .02.14-.3-.02.04-.05.09-.15.31-.31.62-.49.92-.04.07-.09.13-.13.2-.15.27.27-.33.07-.09-.12.14-.23.3-.35.44-.23.26-.48.5-.73.75-.4.37.27-.17-.08.07-.15.11-.3.22-.46.32-.29.19-.6.35-.91.52-.37.2.46-.16-.09.04-.18.06-.35.13-.53.18-.18.05-.36.1-.54.14-.11.02-.57.05-.25.05.32.01-.23.01-.34.02-.19.01-.37.01-.56 0-.11 0-.21-.02-.32-.02-.27-.01.19.01.19.02-.08.04-.38-.07-.47-.09-.18-.04-.36-.09-.54-.14-.08-.02-.15-.05-.23-.07-.32-.1.02.06.1.04-.2.04-.75-.36-.93-.47-.11-.07-.4-.18-.47-.3-.01-.01.36.29.16.11-.08-.07-.17-.13-.25-.2-.27-.22-.52-.46-.76-.72-.09-.1-.39-.53-.23-.25.18.3-.13-.19-.19-.28-.24-.36-.45-.73-.64-1.11-.05-.1-.06-.28-.01-.01.06.32 0 0-.03-.09-.07-.2-.14-.4-.2-.61-.05-.18-.09-.36-.13-.54-.05-.2-.15-.2.01.12-.04-.08-.03-.23-.04-.32-.02-.18-.03-.37-.03-.56 0-.14.05-.92-.02-.3.07-.64.07-1.17-.28-1.74-.3-.48-.86-.93-1.43-1.04-1.09-.2-2.63.44-2.77 1.72z" fill="#070e3f"></path>
        <path d="M1273.96 556.62s32.65 12.07 59.75 7.21c0 0-30.81 52.28-59.75-7.21z" fill="#e9e9f2"></path>
      </g>
      <path d="M1346.27 423.73c-32.84 28.64-133.45 40.75-154.82 20.59-21.37-20.16 78.25-97.1 169.21-60.79 72.4 28.9 38.62 91.1 29.79 87.29-8.84-3.82-49.73-22.16-44.18-47.09z" fill="#070e3f"></path>
    </g>
    <g>
      <path d="M1152.25 1427.4c-7.71-21.72-18.5-37.71-24.1-35.72-5.6 1.99-3.88 21.2 3.83 42.92 7.71 21.72 18.5 37.71 24.1 35.72 5.6-1.99 3.88-21.21-3.83-42.92z" fill="#9898b7"></path>
      <path d="m1733.13 1221.08-75.91 71.24-27.93-78.64z" fill="#fca993"></path>
      <path d="M1713.47 1219.69c1.25 2.17 2.35 4.59 3.29 7.21s1.6 5.22 2.03 7.66l14.34-13.47-19.66-1.4z" fill="#9898b7"></path>
      <path d="M1653.4 1249.4c-1.34-3.78-2.78-7.36-4.25-10.71-7.05-16.01-15.23-26.66-19.85-25.02-.57.2-414.46 147.82-414.46 147.82 4.75 1.15 11.81 11.06 17.98 25.07 1.47 3.35 2.91 6.95 4.25 10.71 1.33 3.76 2.49 7.47 3.46 10.99 4.04 14.74 4.81 26.88 1.85 30.77 0 0 414.28-146.53 414.85-146.73 4.62-1.64 4.26-15.04-.37-31.91-.98-3.52-2.13-7.23-3.46-10.99z" fill="#b8b8d1"></path>
      <path d="M1237.06 1397.28c-6.92-19.48-16.32-34.35-22.23-35.78l-86.49 30.72 27.54 77.55 86.5-30.72c3.68-4.85 1.59-22.32-5.32-41.77z" fill="#9898b7"></path>
      <g>
        <path d="M1497.47 1247.81c-15.99-18.25-63.33-39.94-119.15-61.75-10.65-19-31.08-56.22-44.85-58.9-81.56-15.84-105.43 66.74-130.73 101.68-11 15.19 26.79 32.95 102.14 89.11 0 0 36.45 115.47 72.79 103.53 15.06-5 19.11-17.37 9.51-43.11 17.8 32.86 34.38 53.63 51.1 48.92 15.93-4.42 17.98-21.09 15.54-35.35 1.37 10.22 25.91 27.37 42.2 19.88 17.68-8.13 12.9-33.91 9.25-44.09 15.03 24.33 21.72 21.39 34.28 12.55 31.45-22.08-7.67-93.08-42.08-132.47z" fill="#fca993"></path>
        <path d="M1455.2 1274.9c.77-.62 2.41-.03 4.74 1.62 1.15.84 2.55 1.89 3.95 3.27 1.41 1.37 2.96 2.99 4.62 4.83 6.5 7.42 14.14 18.66 20.93 31.83 13.64 26.35 19.51 49.84 15.84 51.29-3.7 1.48-15.34-19.12-28.58-44.67-6.6-12.8-12.53-24.3-16.63-32.81-1.06-2.1-1.97-4.04-2.71-5.8-.74-1.76-1.43-3.23-1.87-4.55-.91-2.62-1.06-4.39-.29-5.01zM1407.99 1302.5c1.6-1.1 6.33 2.64 12.13 9.98 5.78 7.33 12.51 18.2 18.75 30.73 12.5 25.08 18.58 47.16 14.96 48.73-3.65 1.59-15.51-17.67-27.8-42.32-6.14-12.33-11.29-23.65-14.69-32.04-3.39-8.38-5.02-13.94-3.35-15.08zM1364.92 1334.31c3.58-1.71 12.19 8.84 19.23 23.57 7.05 14.73 9.86 28.06 6.29 29.77-3.58 1.71-12.19-8.84-19.23-23.57-7.05-14.73-9.86-28.05-6.29-29.77z" fill="#d8776a"></path>
      </g>
      <path d="M1195.16 658.09c-87.51 81.97-313.7 48.81-329.79 97.58-16.09 48.77 232.26 475.85 283.14 473.16 50.88-2.69 228.91-103.48 223.92-112.35-4.99-8.86-242.64-245.16-242.64-245.16l65.37-213.23z" fill="#d9d9e7"></path>
      <path d="M971.03 810.37c-.19-1.08 1.57-2.4 5-3.86.86-.35 1.81-.77 2.88-1.09 1.07-.33 2.24-.66 3.5-.99 1.27-.32 2.62-.7 4.08-.96s3.01-.51 4.64-.76c6.53-.89 14.48-1.33 23.29-.46 8.8.85 18.43 3.03 27.99 6.8 9.59 3.71 18.05 8.79 25.11 14.11 7.01 5.4 12.64 11.04 16.76 16.23 8.31 10.38 10.87 18.54 9 19.65-1.88 1.17-7.44-4.21-16.96-11.71-4.73-3.77-10.5-7.97-17.14-12.12-6.69-4.07-14.24-8.13-22.59-11.36-8.33-3.28-16.57-5.59-24.26-7.09-7.69-1.52-14.8-2.24-20.85-2.81-12.12-1-20.06-1.3-20.45-3.58z" fill="#a7a7c6"></path>
      <path d="M1353.58 1076.79c-33.93-3.45-169.35 80.73-169.35 80.73l9.43 22.05-40.13-14.22s-58.99 28.38-57.57 30.6c1.41 2.22 33.74 72.86 80.04 78 46.3 5.14 211-85.89 209.44-117.11-1.56-31.22-10.9-77.92-31.86-80.05z" fill="#c8c8dc"></path>
      <path d="M1152.91 795.92c1.76.45 1.14 9.64-1.33 24.74-1.23 7.55-2.93 16.59-5.02 26.75-1.05 5.08-2.19 10.44-3.43 16.04-.63 2.8-1.27 5.66-1.92 8.57-.33 1.43-.66 2.88-.99 4.34.01.08.03.15.05.2.07.03.12.05.17.06h.02l.03.03.18.17.74.68 1.48 1.36c1.98 1.83 3.98 3.68 6.01 5.56 4.04 3.76 8.15 7.62 12.31 11.57 23.8 22.61 44.66 43.82 59.08 59.89 7.21 8.03 12.82 14.79 16.37 19.79 1.78 2.49 3.04 4.58 3.74 6.13.18.4.31.77.41 1.09.1.32.17.59.21.91.06.58-.08.86-.33.96-.56.14-1.27-.01-2.69-.83-1.42-.8-3.34-2.13-5.78-3.93-4.84-3.6-11.61-9.09-19.79-16.06-16.37-13.95-38.42-33.83-62.19-56.41-4.14-3.96-8.21-7.86-12.19-11.68-5.07-4.9-10.02-9.69-14.83-14.35.78-2.93 1.55-5.84 2.32-8.73.42-1.49.83-2.96 1.24-4.42.82-2.87 1.62-5.69 2.41-8.45 1.59-5.51 3.15-10.77 4.66-15.73 3.02-9.92 5.85-18.67 8.38-25.89 5.06-14.44 8.92-22.81 10.68-22.36zM1110.11 1195.79c-3.65 2.45-37.74-41.91-76.15-99.09-38.41-57.17-66.59-105.51-62.94-107.96 3.65-2.45 37.74 41.91 76.15 99.08 38.41 57.19 66.59 105.52 62.94 107.97z" fill="#a7a7c6"></path>
    </g>
  </g>
</svg>
