<svg xmlns="http://www.w3.org/2000/svg" xmlns:xlink="http://www.w3.org/1999/xlink" viewBox="0 0 2800 1900" id="happy-nurse-holding-medical-kit-in-hands">
  <defs>
    <linearGradient id="c" x1="1230.048" x2="1359.964" y1="432.121" y2="432.121" gradientTransform="rotate(46.175 1289.759 437.079)scale(1.00001)" gradientUnits="userSpaceOnUse">
      <stop offset="0" stop-color="#adadad"></stop>
      <stop offset="1"></stop>
    </linearGradient>
    <linearGradient xlink:href="#c" id="h" x1="1388.609" x2="1518.526" y1="428.87" y2="428.87" gradientTransform="rotate(1.175 1036.55 530.123)"></linearGradient>
    <linearGradient id="i" x1="1230.048" x2="1359.964" y1="432.121" y2="432.121" gradientTransform="rotate(46.175 1289.759 437.079)scale(1.00001)" gradientUnits="userSpaceOnUse">
      <stop offset="0" stop-color="#fff"></stop>
      <stop offset="1" stop-color="#fff"></stop>
    </linearGradient>
    <linearGradient xlink:href="#i" id="l" x1="1388.609" x2="1518.526" y1="428.87" y2="428.87" gradientTransform="rotate(1.175 1036.55 530.123)"></linearGradient>
    <filter id="a" width="129.919" height="32766" x="1232.014" y="-9142" color-interpolation-filters="sRGB" filterUnits="userSpaceOnUse">
      <feFlood flood-color="#fff" result="bg"></feFlood>
      <feBlend in="SourceGraphic" in2="bg"></feBlend>
    </filter>
    <filter id="b" width="129.919" height="32766" x="1390.611" y="-9142" color-interpolation-filters="sRGB" filterUnits="userSpaceOnUse">
      <feFlood flood-color="#fff" result="bg"></feFlood>
      <feBlend in="SourceGraphic" in2="bg"></feBlend>
    </filter>
    <filter id="e" width="129.919" height="129.919" x="1232.014" y="372.486" color-interpolation-filters="sRGB" filterUnits="userSpaceOnUse">
      <feFlood flood-color="#fff" result="bg"></feFlood>
      <feBlend in="SourceGraphic" in2="bg"></feBlend>
    </filter>
    <filter id="g" width="129.919" height="129.919" x="1390.611" y="372.486" color-interpolation-filters="sRGB" filterUnits="userSpaceOnUse">
      <feFlood flood-color="#fff" result="bg"></feFlood>
      <feBlend in="SourceGraphic" in2="bg"></feBlend>
    </filter>
    <mask id="d" width="129.919" height="32766" x="1232.014" y="-9142" maskUnits="userSpaceOnUse"></mask>
    <mask id="f" width="129.919" height="32766" x="1390.611" y="-9142" maskUnits="userSpaceOnUse"></mask>
    <mask id="j" width="129.919" height="129.919" x="1232.014" y="372.486" maskUnits="userSpaceOnUse">
      <g mask="url(#d)" filter="url(#e)">
        <circle cx="1296.974" cy="437.445" r="64.959" style="mix-blend-mode:multiply" transform="rotate(-45 1296.974 437.445)" fill="url(#c)"></circle>
      </g>
    </mask>
    <mask id="k" width="129.919" height="129.919" x="1390.611" y="372.486" maskUnits="userSpaceOnUse">
      <g mask="url(#f)" filter="url(#g)">
        <circle cx="1455.57" cy="437.445" r="64.959" style="mix-blend-mode:multiply" fill="url(#h)"></circle>
      </g>
    </mask>
  </defs>
  <g style="isolation:isolate">
    <g>
      <ellipse cx="1400" cy="1701.648" rx="516.407" ry="102.549" opacity=".15"></ellipse>
      <path d="M1264.4447,1627.6629l-9.8985,18.6355s-.7087,6.4682-8.4873,15.3075-71.4218,33.2359-68.2396,53.036,97.2326,17.3251,123.0434,12.7286.7072-27.9322,15.9108-31.1144,18.0323-2.8286,19.093-19.8001,0-37.4787,0-37.4787" fill="#333"></path>
      <path d="M1311.8328,1706.1153c1.3375,8.0237,5.277,18.3605-10.9874,21.2521-25.8062,4.59-119.8502,7.0839-123.0308-12.7224s60.4672-44.2028,68.2381-53.0217c7.7706-8.8551,8.4935-15.3249,8.4935-15.3249l9.9032-18.6497,71.4186,11.3128s.1807,3.7588.3254,9.3971c-10.3371,5.9275-28.3724,13.9152-56.2747,18.903C1235.9686,1675.1045,1263.0038,1708.7899,1311.8328,1706.1153Z" style="mix-blend-mode:soft-light" opacity=".3"></path>
      <path d="M1257.5304,1206.9109l-6.6,439.3735s40.4345,26.4002,87.1604-3.7714l37.2973-402.6019-124.4577-33.0002" fill="#0e8476"></path>
      <path d="M1375.3723,1239.9064l-4.7709,51.3953q-.21465.00105-.4311.0017a60.3441,60.3441,0,0,0-60.311,57.1045c-9.1577,178.8217-13.0248,265.9684-14.616,308.4444-26.0954,1.3373-44.3114-10.5539-44.3114-10.5539l6.5781-437.6558Z" style="mix-blend-mode:soft-light" opacity=".3"></path>
      <path d="M1503.1438,1627.6598l9.8985,18.6355s.7087,6.4682,8.4873,15.3075,71.4218,33.2359,68.2396,53.036-97.2326,17.3251-123.0434,12.7286-.7072-27.9322-15.9108-31.1144-18.0323-2.8286-19.093-19.8001,0-37.4787,0-37.4787" fill="#333"></path>
      <path d="M1589.7728,1714.645c-3.1806,19.8063-97.2248,17.3124-123.0308,12.7224-25.8423-4.5902-.7229-27.9387-15.9392-31.1193-15.1801-3.1806-18.0353-2.819-19.0834-19.8063-1.0483-16.9511,0-37.4803,0-37.4803l71.4187-11.3128,9.9031,18.6497a22.35756,22.35756,0,0,0,2.9276,7.5902,71.74448,71.74448,0,0,1-25.77,11.2404c-23.3485,4.9516-10.9874,26.8904,35.3478,34.6613,22.9871,3.8673,39.8658.1445,51.0339-4.7347C1585.0743,1701.6336,1590.7849,1708.3562,1589.7728,1714.645Z" style="mix-blend-mode:soft-light" opacity=".3"></path>
      <path d="M1510.0581,1206.9078l6.6,439.3735s-40.4345,26.4002-87.1604-3.7714l-37.2973-402.6019,124.4577-33.0002" fill="#0e8476"></path>
      <path d="M1510.8004,1257.2188q-.231.13455-.4641.2699a104.39131,104.39131,0,0,0-51.9596,96.0814c10.7887,191.5647,15.2271,270.7,17.0757,303.3906-13.4813-.1445-29.312-3.7227-45.9377-14.4572l-37.2996-402.5971,117.8624-31.2638Z" style="mix-blend-mode:soft-light" opacity=".3"></path>
      <path d="M1535.4503,756.3519c-.3977,2.2768-.8314,4.5538-1.2651,6.8309-28.083,8.3128-62.5998.5422-70.9488-1.5903-1.2287-.3252-1.8793-.5059-1.8793-.5059l2.313,15.1078.0362.2168,18.8668,123.6092s11.7465,13.2283,23.746,39.7574a2.1996,2.1996,0,0,0,.1806.4337c11.2766,25.1916,22.8063,62.202,24.8665,111.1398,3.1444,75.5026,0,171.1371-1.8072,214.7256-.5784,14.7826-1.0483,23.6015-1.0483,23.6015s-57.359,22.9508-144.7166,24.2157c-87.3576-1.2649-144.7166-24.2157-144.7166-24.2157s-7.0841-137.199-2.8554-238.3271c4.2648-101.1284,48.793-151.3309,48.793-151.3309l35.0227-138.9338s-54.4676,11.638-86.6348,2.0962a599.00008,599.00008,0,0,1-10.8429-108.2484c-.0362-3.7588,0-7.4093.0721-10.9513.5785-31.8058,4.3734-54.9012,10.0841-60.7564,11.6379-12.0357,94.2611-4.7347,94.2611-4.7347V524.2774h113.6334V578.492s60.7567-5.3853,85.406.6867c4.1204,1.0119,7.1927,2.3492,8.8551,4.048C1546.2209,594.937,1550.2327,675.4997,1535.4503,756.3519Z" fill="#129689"></path>
      <path d="M1391.0955,1315.7375h-14.6033v-3.6158h.017c2.4438,0,4.8515,0,7.2571-.036,2.4671.036,4.879.036,7.3292.036Z"></path>
      <path d="M1326.9773,527.6026h113.6336V578.492s-27.2157,92.6346-56.8168,164.6315c-29.6011-71.9969-56.8168-164.6315-56.8168-164.6315Z" fill="#e89c7c"></path>
      <path d="M1182.8749 644.3806c-.2528.8315-.5058 1.6989-.795 2.5301-.1086-.9397-.1807-1.8795-.2892-2.8552Q1182.333 644.218 1182.8749 644.3806ZM1320.3631 708.6069c-.3253-4.8433-.3253-7.5178-.3253-7.5178S1320.1825 704.0166 1320.3631 708.6069ZM1376.4931 1313.9303c2.4577 0 4.8795 0 7.301-.0362 2.4215.0362 4.8433.0362 7.301.0362Z" style="mix-blend-mode:soft-light" opacity=".3"></path>
      <polygon points="1463.67 776.194 1463.706 776.411 1463.67 776.375 1463.67 776.194" style="mix-blend-mode:soft-light" opacity=".3"></polygon>
      <path d="M1529.559,1266.0769c-.5784,14.7826-1.0483,23.6015-1.0483,23.6015s-57.359,22.9508-144.7166,24.2157c-87.3576-1.2649-144.7166-24.2157-144.7166-24.2157s-7.0841-137.199-2.8554-238.3271c4.2648-101.1284,48.793-151.3309,48.793-151.3309l35.0227-138.9338s-54.4676,11.638-86.6348,2.0962a599.00008,599.00008,0,0,1-10.8429-108.2484c-.0362-3.7588,0-7.4093.0721-10.9513.5785-31.8058,4.3734-54.9012,10.0841-60.7564,11.6379-12.0357,94.2611-4.7347,94.2611-4.7347V524.2774h113.6334V578.492s60.7567-5.3853,85.406.6867c-38.8897,54.2145-123.7898,117.1756-302.0471,76.081,3.9033,29.6012,20.8544,103.2969,93.1043,105.8269,4.7347-.4698,3.9397-35.601,3.3253-51.8653,2.4577,39.1429,22.6615,207.2442,185.9198,230.5565a7.2751,7.2751,0,0,0,.8674.1445c-.2169.1083-.4699.1806-.6868.2892-115.6938,48.4677-191.052,108.5736-198.1361,239.1222C1302.5446,1286.6061,1469.2725,1274.0646,1529.559,1266.0769Z" style="mix-blend-mode:soft-light" opacity=".3"></path>
      <path d="M1535.4503,756.3519c-.3977,2.2768-.8314,4.5538-1.2651,6.8309-28.083,8.3128-62.5998.5422-70.9488-1.5903l-1.8793-66.6478S1466.3449,752.1592,1535.4503,756.3519Z" style="mix-blend-mode:soft-light" opacity=".3"></path>
      <path d="M1461.3445 761.0708c-.7454-5.6669-1.0946-11.3339-1.3837-17.0011-.3305-5.667-.377-11.3339-.4223-17.0009.0405-5.667.0883-11.3339.4159-17.0009.2912-5.667.639-11.3339 1.3901-17.0009.7511 5.667 1.0988 11.3339 1.39 17.0009.3276 5.667.3756 11.3339.4161 17.0009-.0454 5.667-.0919 11.3339-.4223 17.0009C1462.4391 749.7369 1462.0898 755.4039 1461.3445 761.0708ZM1320.0378 761.0865c-.7454-5.5109-1.0945-11.0221-1.3837-16.5333-.3304-5.5112-.377-11.0224-.4223-16.5336.0405-5.5111.0883-11.0223.4159-16.5335.2913-5.5112.639-11.0221 1.3901-16.5333.7511 5.5112 1.0989 11.0221 1.3902 16.5333.3274 5.5112.3754 11.0224.4159 16.5335-.0454 5.5112-.0919 11.0224-.4223 16.5336C1321.1324 750.0644 1320.7832 755.5756 1320.0378 761.0865Z" fill="#02564c"></path>
      <path d="M1444.7637,1098.4132v33.9382c0,5.4912,3.4425,9.9428,7.689,9.9428h7.0739c4.2465,0,7.689-4.4516,7.689-9.9428v-59.657c0-5.4913-3.4425-9.9428-7.689-9.9428h-96.9837c-4.2465,0-7.6889,4.4515-7.6889,9.9428v59.657c0,5.4912,3.4424,9.9428,7.6889,9.9428h7.0739c4.2465,0,7.689-4.4516,7.689-9.9428v-33.9382c0-5.4913,3.4424-9.9428,7.689-9.9428h52.08C1441.3213,1088.4704,1444.7637,1092.9219,1444.7637,1098.4132Z" fill="#2a323f"></path>
      <path d="M1507.4885,1167.3254V1300.918c0,21.9943-13.7708,39.8012-30.7478,39.8012H1304.107c-10.8779,0-20.4356-7.3178-25.906-18.3759a48.01341,48.01341,0,0,1-4.8414-21.4253V1167.3254c0-21.9946,13.7701-39.8015,30.7474-39.8015h172.6337a24.582,24.582,0,0,1,9.0856,1.7481C1498.371,1134.3135,1507.4885,1149.437,1507.4885,1167.3254Z" fill="#e5e5e5"></path>
      <path d="M1529.559,1167.3254V1300.918c0,21.9943-13.7708,39.8012-30.7793,39.8012H1326.1775c-12.4503,0-23.1708-9.5538-27.9811-23.2953a49.07188,49.07188,0,0,1-2.7982-16.5059V1167.3254c0-21.9946,13.7705-39.8015,30.7793-39.8015h172.6022C1515.7882,1127.5239,1529.559,1145.3308,1529.559,1167.3254Z" fill="#eff0f9"></path>
      <path d="M1529.559,1167.3254V1300.918c0,21.9943-13.7708,39.8012-30.7793,39.8012H1304.107c-10.8779,0-20.4356-7.3178-25.906-18.3759,6.8854-1.5045,13.5501-3.1712,19.9954-4.9194,143.0177-39.1101,178.8272-136.1132,187.6299-188.1519.0945-.569.1889-1.1789.2833-1.7481h12.6701C1515.7882,1127.5239,1529.559,1145.3308,1529.559,1167.3254Z" style="mix-blend-mode:hard-light" opacity=".15"></path>
      <path d="M1493.7773,971.5836c-13.1921,30.4324-24.8302,55.7325-24.8302,55.7325s27.794,40.2634,26.4567,53.564-27.9025,19.2281-43.5161,18.8665c-5.6024,25.9148-17.2403,20.4933-20.6378,11.9274-4.4095-11.1321.6867-27.6133-3.3613-54.6484-8.855.3253-22.6617,0-22.6617,0a5.39811,5.39811,0,0,1-.6867-.5421l-30.0711-22.4449,48.2873-7.7706c6.1441-14.5295,12.0716-38.6369,17.3124-65.3828,12.4332-63.2141,21.2883-140.994,21.2883-140.994l1.0843-58.8046s45.8293,10.5176,72.4305,1.1564l.7591.9036s3.5781,79.9124-6.9394,118.6576C1523.2702,901.6467,1507.6563,939.4886,1493.7773,971.5836Z" fill="#e89c7c"></path>
      <path d="M1402.0463,1043.9418c-3.3975,6.5419.7229,11.0238,2.4939,12.5417a5.39811,5.39811,0,0,0,.6867.5421s-7.0479,49.8413-9.5418,58.3349c-2.4577,8.4937-12.7222,14.132-22.6254-12.0355-15.5416.3613-43.1188-5.6385-46.6607-19.0836s17.5654-54.106,17.5654-54.106-18.3605-29.6374-38.3115-63.4674c-18.1077-30.7576-37.5165-64.9851-45.6125-83.5986-16.9511-39.143-26.6374-119.8866-26.6374-119.8866l.6144-.9398c28.1553,9.4697,86.0204-1.1564,86.0204-1.1564l-.1084,47.0219s22.9146,89.3457,44.2391,149.0541c9.5056,26.565,18.6497,47.2387,25.3363,51.5759,18.0353,6.3612,33.2516,17.5295,33.2516,17.5295S1406.3111,1035.8096,1402.0463,1043.9418Z" fill="#e89c7c"></path>
      <path d="M1495.4038,1080.8801c-1.3373,13.3006-27.9025,19.2281-43.5161,18.8665-5.6024,25.9148-17.2403,20.4933-20.6378,11.9274-4.4095-11.1321.6867-27.6133-3.3613-54.6484-8.855.3253-22.6617,0-22.6617,0s-7.0479,49.8413-9.5418,58.3349c-2.4577,8.4937-12.7222,14.132-22.6254-12.0355-15.5416.3613-43.1188-5.6385-46.6607-19.0836s17.5654-54.106,17.5654-54.106-18.3605-29.6374-38.3115-63.4674c13.4813-6.1803,34.2997-12.6139,58.5156-9.5054,9.5056,26.565,18.6497,47.2387,25.3363,51.5759,18.0353,6.3612,33.2516,17.5295,33.2516,17.5295,6.1441-14.5295,12.0716-38.6369,17.3124-65.3828,15.2885-.7229,37.5527.4337,53.7085,10.6984-13.1921,30.4324-24.8302,55.7325-24.8302,55.7325S1496.7411,1067.5795,1495.4038,1080.8801Z" fill="#e5e5e5"></path>
      <path d="M1535.631,763.1466l-.7591-.9036c-26.6012,9.3612-72.4305-1.1564-72.4305-1.1564l-1.0843,58.8046s-17.927,157.5837-38.6007,206.3768l-33.1532,5.3352a20.11843,20.11843,0,0,1-.6407-5.01c0-7.0839,10.4092-8.5659,21.5052-8.096a127.97751,127.97751,0,0,0-20.9629-9.7587c-1.8795-1.2287-3.9397-3.7226-6.1444-7.2648-16.6981-9.2164-48.8654-32.384-63.684-79.876-20.493-65.7803-60.4672-144.6083-37.4803-147.4273,12.3609-1.5182,26.9626-5.2046,37.8417-8.2769v-4.8069s-57.8651,10.6261-86.0204,1.1564l-.6144.9398s9.6863,80.7436,26.6374,119.8866c16.9873,39.1065,83.924,147.066,83.924,147.066s-21.1074,40.6609-17.5654,54.106,31.1191,19.4449,46.6607,19.0836c6.6864,17.6376,13.5175,20.8182,17.9992,18.3967-5.277-8.6021-9.7587-21.1074-9.1443-38.2032,1.3609-37.9222,21.8687-27.3153,23.2313-26.5536l.081.0607s13.8067.3253,22.6617,0c4.048,27.0351-1.0482,43.5163,3.3613,54.6484,3.3975,8.5659,15.0354,13.9874,20.6378-11.9274,14.963.3616,40.0463-5.096,43.2269-17.2762-9.7587.3613-22.9869-2.7831-27.3965-20.7461-4.0118-16.3005.2171-24.7581,4.8433-29.0229-1.9155-2.8914-3.2168-4.8071-3.542-5.2768-.0361-.0362-.0361-.0723-.0723-.1085-13.5898-21.5413-10.4454-24.9747,2.7831-70.2621,13.192-45.2511,27.3241-146.1262,34.408-163.5834,4.3734-10.8429,19.1919-18.469,29.7458-22.6615C1535.7393,765.9659,1535.631,763.1466,1535.631,763.1466Z" style="mix-blend-mode:soft-light" opacity=".3"></path>
      <path d="M1186.6192,391.8669s-94.5365-44.7269-97.586-44.7269-25.413-10.1652-22.3635-17.2809,21.3469-23.38,35.5782-63.0243S1201.867,103.175,1366.5433,96.0594s256.1632,136.2137,267.3449,165.6928,31.5122,33.5452,27.4461,47.7765-47.7765,48.793-106.7347,59.9747S1186.6192,391.8669,1186.6192,391.8669Z" fill="#129689"></path>
      <path d="M1661.4917,308.8301a2.606,2.606,0,0,1-.1444.6868c-4.0842,14.2403-47.7812,48.7931-106.7305,59.9975-58.9855,11.1681-368.0084,22.3364-368.0084,22.3364s-94.5139-44.7089-97.5861-44.7089c-3.0359,0-25.4085-10.1562-22.3364-17.2765,3.0361-7.1201,21.3245-23.3844,35.5648-63.0334,13.1921-36.7213,87.3577-145.7647,229.0384-167.3422-54.7568,19.9872-129.1752,55.0819-156.1741,104.9954l24.3965,28.4808s126.0307-104.3811,262.9406-44.7451C1588.8803,243.3028,1604.3135,327.2994,1661.4917,308.8301Z" style="mix-blend-mode:soft-light" opacity=".3"></path>
      <path d="M1265.8882,516.4629c-8.3362,6.0235-16.3274,7.6459-23.6281,6.3514-26.4585-4.729-43.9076-48.0499-35.9166-61.3741.4142-.6732.8457-1.3118,1.2772-1.9158,10.7698-14.3425,32.6893-5.8509,32.6893-5.8509S1304.3937,488.6236,1265.8882,516.4629Z" fill="#e89c7c"></path>
      <path d="M1265.8882,516.4629c-8.3362,6.0235-16.3274,7.6459-23.6281,6.3514,9.9068-2.1746,13.7729-8.854,4.7636-10.2347-12.6338-1.9503-38.1949-21.3671-32.3613-31.7227,5.6784-10.1312,21.2809,2.0193,21.9884,2.5716-11.9433-20.3314-24.2838-23.4899-29.0301-23.9041,10.7698-14.3425,32.6893-5.8509,32.6893-5.8509S1304.3937,488.6236,1265.8882,516.4629Z" style="mix-blend-mode:soft-light" opacity=".45"></path>
      <path d="M1256.7277,504.1639c-7.6091-5.4256-13.4988-11.2998-19.79-16.3092a57.18,57.18,0,0,0-9.5648-6.644,30.03493,30.03493,0,0,0-11.7439-3.583c3.5986-3.1477,9.066-4.0204,13.9541-3.0701a28.833,28.833,0,0,1,12.9658,6.3717,41.93006,41.93006,0,0,1,9.1366,10.4173A35.36712,35.36712,0,0,1,1256.7277,504.1639Z" fill="#cc7a5e"></path>
      <path d="M1496.74,516.4629c8.3361,6.0235,16.3274,7.6459,23.6281,6.3514,26.4585-4.729,43.9076-48.0499,35.9165-61.3741-.4142-.6732-.8456-1.3118-1.2771-1.9158-10.7698-14.3425-32.6893-5.8509-32.6893-5.8509S1458.2345,488.6236,1496.74,516.4629Z" fill="#e89c7c"></path>
      <path d="M1496.74,516.4629c8.3361,6.0235,16.3274,7.6459,23.6281,6.3514-9.9069-2.1746-13.7729-8.854-4.7636-10.2347,12.6337-1.9503,38.1949-21.3671,32.3612-31.7227-5.6783-10.1312-21.2809,2.0193-21.9883,2.5716,11.9433-20.3314,24.2838-23.4899,29.0301-23.9041-10.7698-14.3425-32.6893-5.8509-32.6893-5.8509S1458.2345,488.6236,1496.74,516.4629Z" style="mix-blend-mode:soft-light" opacity=".45"></path>
      <path d="M1505.9004,504.1639a35.36389,35.36389,0,0,1,5.0424-12.8173,41.922,41.922,0,0,1,9.1366-10.4173,28.8323,28.8323,0,0,1,12.9656-6.3717c4.8882-.9503,10.3557-.0776,13.9542,3.0701a30.03389,30.03389,0,0,0-11.7438,3.583,57.17592,57.17592,0,0,0-9.5648,6.644C1519.3993,492.8641,1513.5096,498.7383,1505.9004,504.1639Z" fill="#cc7a5e"></path>
      <path d="M1379.6791 294.7841v.7076c-.2764-.138-.5179-.2589-.7079-.3451C1379.4372 294.9049 1379.6791 294.7841 1379.6791 294.7841ZM1378.9712 607.4369c.2418-.0864.4833-.1899.7079-.2762v.5523C1379.4372 607.6267 1379.1958 607.5232 1378.9712 607.4369ZM1378.9712 295.1466c-.1896.0862-.4315.2071-.7075.3451v-.7076S1378.5054 294.9049 1378.9712 295.1466ZM1378.2637 607.1607c.2244.0863.466.1898.7075.2762-.2242.0863-.4658.1898-.7075.2761Z" fill="#e89c7c"></path>
      <path d="M1567.633,401.7402c-26.5792,56.507-74.3531,104.8504-74.3531,104.8504l-233.001-1.4498s-107.75-97.567-91.7333-192.2344c16.0167-94.6502,164.5504-138.3336,199.5005-135.4339,12.4614,1.0355,37.1248,5.9543,65.6373,15.6369,51.4672,17.4492,115.4304,50.3627,142.6138,103.7804C1592.4519,328.6296,1584.1158,366.7555,1567.633,401.7402Z" fill="#352421"></path>
      <path d="M1524.502,430.4079l-30.7217,104.6778s-43.2691,46.5485-114.1012,74.6294c-.2246.0863-.4661.1899-.7079.2761-.2415-.0862-.4831-.1898-.7075-.2761-69.7277-27.6494-112.7381-73.1796-114.0671-74.5948l-.0343-.0346-30.7217-104.6778c42.1992-79.5656,132.4999-128.4957,144.8231-134.9162.276-.138.5179-.2589.7075-.3451.19.0862.4315.2071.7079.3451,12.323,6.4205,102.5893,55.3335,144.7883,134.8644A.21191.21191,0,0,0,1524.502,430.4079Z" fill="#e89c7c"></path>
      <ellipse cx="1311.743" cy="442.231" rx="20.46" ry="34.395" style="mix-blend-mode:soft-light" transform="rotate(-2.664 1311.742 442.23)" opacity=".45"></ellipse>
      <path d="M1325.7502,449.8123c.7433,12.5394-4.6944,23.2035-12.1455,23.819s-14.094-9.0508-14.8374-21.5902,4.6943-23.2035,12.1454-23.8189S1325.0068,437.2729,1325.7502,449.8123Z" fill="#1b1723"></path>
      <path d="M1310.0567 442.9775c.2333 3.9352-1.4732 7.2819-3.8116 7.4751s-4.4231-2.8404-4.6564-6.7757 1.4732-7.2819 3.8116-7.4751S1309.8234 439.0422 1310.0567 442.9775ZM1313.4648 451.9598c.1181 1.9926-.746 3.6873-1.93 3.7851s-2.2397-1.4383-2.3579-3.4309.746-3.6873 1.9301-3.7851S1313.3467 449.9672 1313.4648 451.9598Z" fill="#fff"></path>
      <ellipse cx="1438.392" cy="441.819" rx="33.598" ry="20.021" style="mix-blend-mode:soft-light" transform="rotate(-85.686 1438.392 441.82)" opacity=".45"></ellipse>
      <ellipse cx="1437.578" cy="450.287" rx="22.221" ry="13.241" transform="rotate(-85.686 1437.578 450.287)" fill="#1b1723"></ellipse>
      <path d="M1436.6587 442.1824c-.3686 3.8323-2.5134 6.6915-4.7906 6.3863s-3.8244-3.6591-3.4558-7.4913 2.5134-6.6915 4.7906-6.3863S1437.0272 438.3502 1436.6587 442.1824ZM1438.5819 451.5332c-.1867 1.9405-1.2727 3.3883-2.4258 3.2338s-1.9365-1.8529-1.7498-3.7933 1.2726-3.3883 2.4257-3.2338S1438.7685 449.5928 1438.5819 451.5332Z" fill="#fff"></path>
      <path d="M1316.2723 512.578a40.792 40.792 0 0 1-3.3196 5.3201c-.5286.6038-.96 1.2198-1.5625 1.9314-.6205.7204-1.2008 1.5896-2.2374 2.7802a5.034 5.034 0 0 1-1.6661-3.8238 6.45989 6.45989 0 0 1 1.3396-4.0106 7.005 7.005 0 0 1 3.3395-2.3746A5.45972 5.45972 0 0 1 1316.2723 512.578ZM1440.7167 512.578a5.45972 5.45972 0 0 1 4.1065-.1773 7.00351 7.00351 0 0 1 3.3393 2.3746 6.45876 6.45876 0 0 1 1.3397 4.0106 5.03436 5.03436 0 0 1-1.6661 3.8238c-1.0367-1.1906-1.6169-2.0598-2.2373-2.7802-.6025-.7116-1.034-1.3276-1.5625-1.9314A40.77014 40.77014 0 0 1 1440.7167 512.578Z" fill="#cc7a5e"></path>
      <path d="M1427.5908,522.6072s-15.2054,31.3948-53.711,31.3948c-37.9187,0-49.1719-31.6709-49.4997-32.6719,2.7442.9665,5.5056,1.864,8.2328,2.6406,34.7601,10.0968,67.6564,5.2986,84.0874,1.5706A111.63341,111.63341,0,0,0,1427.5908,522.6072Z" fill="#352421"></path>
      <path d="M1416.7003,525.5413c-8.5263,8.3018-22.3853,17.1385-42.8205,17.1385-21.1254,0-33.9663-9.8205-41.2669-18.7091C1367.373,534.0675,1400.2693,529.2693,1416.7003,525.5413Z" fill="#fff"></path>
      <path d="M1349.6043 525.0369s19.6594-21.8437 54.8522 0C1404.4565 525.0369 1364.895 530.862 1349.6043 525.0369ZM1397.1483 561.2006c0 3.8873-9.6168 7.0385-21.4798 7.0385s-21.4797-3.1512-21.4797-7.0385 9.6168-7.0386 21.4797-7.0386S1397.1483 557.3133 1397.1483 561.2006Z" fill="#e56382"></path>
      <path d="M1309.8001,515.8139c11.4766,2.8107,22.7449,5.3106,34.0895,6.9219a220.738,220.738,0,0,0,34.0738,2.2141,251.15789,251.15789,0,0,0,34.1118-2.7627c11.374-1.6646,22.7093-4.0167,34.2891-6.3733a137.12864,137.12864,0,0,1-32.8934,13.1893,146.67426,146.67426,0,0,1-35.4104,4.8568,137.43628,137.43628,0,0,1-35.5359-4.3291A118.53316,118.53316,0,0,1,1309.8001,515.8139Z" fill="#cc7a5e"></path>
      <path d="M1419.6825,367.9551c-5.6441,10.2892-2.683,16.1783-2.683,16.1783a132.69747,132.69747,0,0,1,21.9119,6.0231c.6017.2207,1.1944.4545,1.7827.6663.4188.1778.8333.3336,1.239.5028a95.36259,95.36259,0,0,1,14.9797,7.654c.8934.5639,1.7156,1.1196,2.5026,1.6713.8406.5869,1.6319,1.1607,2.3477,1.7042a42.15074,42.15074,0,0,1,7.5982,6.9847,50.85744,50.85744,0,0,0-2.6549-11.3089c-.4145-1.0924-.8469-2.1582-1.3273-3.1789-.4627-.9901-.9429-1.9533-1.458-2.8629a40.87185,40.87185,0,0,0-10.424-12.1739c-.5729-.4694-1.1632-.9119-1.7492-1.3326-.5991-.4292-1.1936-.8362-1.7967-1.2298C1435.9518,368.155,1419.6825,367.9551,1419.6825,367.9551Z" fill="#352421"></path>
      <path d="M1465.3791 394.852a35.83474 35.83474 0 0 0-5.9637 5.7989c.8406.5869 1.6319 1.1607 2.3477 1.7042a31.28526 31.28526 0 0 1 4.9433-4.3242C1466.2919 396.9385 1465.8595 395.8727 1465.3791 394.852ZM1453.4971 379.8152c-5.2159 2.8083-9.1277 7.7484-11.564 11.5104a95.36259 95.36259 0 0 1 14.9797 7.654 41.06587 41.06587 0 0 1 7.0083-6.9905A40.87185 40.87185 0 0 0 1453.4971 379.8152ZM1438.9114 390.1565c.6017.2207 1.1944.4545 1.7827.6663a43.24859 43.24859 0 0 1 11.0538-12.3402c-.5991-.4292-1.1936-.8362-1.7967-1.2298A43.76787 43.76787 0 0 0 1438.9114 390.1565Z" fill="#44312e"></path>
      <ellipse cx="1456.882" cy="494.213" rx="13.349" ry="34.95" transform="rotate(-86.485 1456.882 494.213)" fill="#e5817c"></ellipse>
      <ellipse cx="1303.49" cy="494.213" rx="34.95" ry="13.349" transform="rotate(-6.4 1303.49 494.213)" fill="#e5817c"></ellipse>
      <path d="M1274.2071,423.9011c-1.2944,49.1891,6.4723,124.9231,102.9001,171.5233,0,0,64.7225-23.956,109.3897-64.7225,0,0-29.41,47.1006-108.2332,76.4588,0,0-60.0453-24.3184-114.0671-72.0404l-.0343-.0346-30.7217-104.6778c42.1992-79.5656,132.4999-128.4957,144.8231-134.9162.276-.138.5179-.2589.7075-.3451.19.0862.4315.2071.7079.3451,12.323,6.4205,102.5893,55.3335,144.7883,134.8644-1.605-2.1229-53.4694-70.4008-132.4653-103.5387C1392.0021,326.8174,1275.5016,374.712,1274.2071,423.9011Z" style="mix-blend-mode:soft-light" opacity=".45"></path>
      <path d="M1329.9941,368.8101c5.1989,10.8032,1.8581,16.6501,1.8581,16.6501a135.56757,135.56757,0,0,0-22.6807,4.954c-.6258.1925-1.2431.3988-1.8548.583-.4369.1586-.8682.295-1.2912.4455a97.43107,97.43107,0,0,0-15.6976,6.9945c-.942.5267-1.811,1.049-2.6438,1.5691-.8894.553-1.7278,1.0953-2.4875,1.6109a43.05931,43.05931,0,0,0-8.1309,6.7127,51.95621,51.95621,0,0,1,3.3228-11.3926c.4822-1.0919.9812-2.1557,1.5268-3.1709.5258-.9849,1.068-1.9414,1.643-2.8414a41.75554,41.75554,0,0,1,11.2954-11.8529c.6099-.4477,1.2362-.8671,1.8569-1.2644.6344-.4053,1.263-.7882,1.8997-1.157C1313.3861,368.1302,1329.9941,368.8101,1329.9941,368.8101Z" fill="#352421"></path>
      <path d="M1281.9153 393.7664a36.6065 36.6065 0 0 1 5.7688 6.2399c-.8894.553-1.7278 1.0953-2.4875 1.6109a31.96457 31.96457 0 0 0-4.8081-4.6799C1280.8707 395.8454 1281.3697 394.7816 1281.9153 393.7664ZM1294.8537 379.0721c5.1685 3.1483 8.8906 8.4005 11.1718 12.3706a97.43107 97.43107 0 0 0-15.6976 6.9945 41.95629 41.95629 0 0 0-6.7696-7.5122A41.75554 41.75554 0 0 1 1294.8537 379.0721ZM1309.1715 390.4142c-.6258.1925-1.2431.3988-1.8548.583a44.18368 44.18368 0 0 0-10.6061-13.1895c.6344-.4053 1.263-.7882 1.8997-1.157A44.71441 44.71441 0 0 1 1309.1715 390.4142ZM1567.633 401.7402c14.1871-104.4018-59.7863-140.2839-59.7863-140.2839 59.5447 50.4836 41.4224 133.3283 41.4224 133.3283-18.1223-97.7396-81.5504-113.9115-81.5504-113.9115 66.6728 51.778 62.7895 144.3225 62.7895 144.3225-52.4339-111.3227-150.1562-136.5558-150.1562-136.5558 47.8774-8.9404 85.054 20.5213 86.0552 21.3325-30.4111-38.8162-81.5333-58.233-81.5333-58.233 45.3403-7.0073 98.2057 16.8106 99.6383 17.4664-44.6501-40.7665-97.0494-54.3496-97.0494-54.3496 75.8204 5.0915 124.6816 35.2781 126.183 36.2273a444.717 444.717 0 0 0-79.9624-57.974c51.4672 17.4492 115.4304 50.3627 142.6138 103.7804C1592.4519 328.6296 1584.1158 366.7555 1567.633 401.7402ZM1369.021 276.9885s-101.9377 22.3292-152.4211 136.8878C1216.5999 413.8763 1214.6582 257.5718 1369.021 276.9885ZM1361.2543 250.776s-66.9876-36.8918-140.7711 27.1833c0 0 50.4834-92.2293 139.8003-60.1917 0 0-52.4251-7.2813-83.0064 16.9896C1277.2771 234.7572 1332.1293 217.7676 1361.2543 250.776Z" fill="#44312e"></path>
      <rect width="10.723" height="26.673" x="1370.222" y="425.722" transform="rotate(-88.825 1375.583 439.058)" fill="#1e1817"></rect>
      <g mask="url(#j)">
        <circle cx="1296.974" cy="437.445" r="64.959" transform="rotate(-45 1296.974 437.445)" fill="url(#i)"></circle>
      </g>
      <path d="M1298.3906,367.8852c-.8461-.0173-1.6922-.0346-2.5391-.0152a69.57842,69.57842,0,0,0-2.8503,139.0328c.8454.0541,1.6915.0715,2.5376.0888a69.56782,69.56782,0,1,0,2.8518-139.1064Zm-.1885,9.1978a60.36813,60.36813,0,1,1-2.4747,120.7109c-.8461-.0173-1.6922-.0347-2.5369-.1257a60.34794,60.34794,0,0,1,2.4717-120.5638C1296.5098,377.0483,1297.3559,377.0656,1298.2021,377.083Z" fill="#2b2423"></path>
      <path d="M1295.8515,367.87a69.57842,69.57842,0,1,0,65.5706,70.9082A69.67319,69.67319,0,0,0,1295.8515,367.87Zm-.1241,129.9239c-.8461-.0173-1.6922-.0347-2.5369-.1257-.8476.0563-1.6937.039-2.5771.0209a60.36818,60.36818,0,0,1,2.4747-120.711c.8834.0181,1.7295.0355,2.5741.1263.8476-.0561,1.6937-.0388,2.5399-.0214a60.36813,60.36813,0,1,1-2.4747,120.7109Z" fill="#1e1817"></path>
      <g mask="url(#k)">
        <circle cx="1455.57" cy="437.445" r="64.959" fill="url(#l)"></circle>
      </g>
      <path d="M1456.9872,367.8852c-.8461-.0173-1.6923-.0346-2.5391-.0152a69.57842,69.57842,0,0,0-2.8503,139.0328c.8454.0541,1.6915.0715,2.5376.0888a69.56782,69.56782,0,1,0,2.8518-139.1064Zm-.1886,9.1978a60.36814,60.36814,0,1,1-2.4747,120.7109c-.8461-.0173-1.6922-.0347-2.5368-.1257a60.34794,60.34794,0,0,1,2.4717-120.5638C1455.1064,377.0483,1455.9525,377.0656,1456.7986,377.083Z" fill="#2b2423"></path>
      <path d="M1454.4481,367.87a69.57842,69.57842,0,1,0,65.5705,70.9082A69.67319,69.67319,0,0,0,1454.4481,367.87Zm-.1242,129.9239c-.8461-.0173-1.6922-.0347-2.5368-.1257-.8476.0563-1.6937.039-2.5771.0209a60.36818,60.36818,0,0,1,2.4746-120.711c.8834.0181,1.7295.0355,2.5742.1263.8476-.0561,1.6937-.0388,2.5398-.0214a60.36814,60.36814,0,1,1-2.4747,120.7109Z" fill="#1e1817"></path>
      <path d="M1350.2515,488.6306s23.3001-18.3747,50.1599,2.1391C1400.4114,490.7697,1374.5224,511.9307,1350.2515,488.6306Z" fill="#f4beab"></path>
      <path d="M1355.0391,472.689a171.80833,171.80833,0,0,1-3.5334,18.9421l-1.7332-3.7279c4.5493,1.2659,9.1023,2.5219,13.5631,4.0212,4.4893,1.4238,8.9459,2.9339,13.3465,4.5921l-3.1868.0162a270.94333,270.94333,0,0,1,25.6844-8.9119l-2.014,4.0959a132.36557,132.36557,0,0,1-2.4969-20.6197,132.37743,132.37743,0,0,1,8.9879,18.7249l1.0362,2.5789-3.0507,1.518a270.96814,270.96814,0,0,1-24.9172,10.874l-1.6235.6136-1.5649-.5974c-4.3931-1.6776-8.7301-3.503-13.0345-5.4145-4.333-1.8362-8.5737-3.9157-12.818-5.9857l-2.8524-1.3909,1.1187-2.338A171.76318,171.76318,0,0,1,1355.0391,472.689Z" fill="#cc7a5e"></path>
    </g>
  </g>
</svg>
